%TF.GenerationSoftware,KiCad,Pcbnew,7.0.9*%
%TF.CreationDate,2024-05-07T07:23:08+02:00*%
%TF.ProjectId,ElectronicDuffing,456c6563-7472-46f6-9e69-634475666669,v 1.1*%
%TF.SameCoordinates,Original*%
%TF.FileFunction,Soldermask,Top*%
%TF.FilePolarity,Negative*%
%FSLAX46Y46*%
G04 Gerber Fmt 4.6, Leading zero omitted, Abs format (unit mm)*
G04 Created by KiCad (PCBNEW 7.0.9) date 2024-05-07 07:23:08*
%MOMM*%
%LPD*%
G01*
G04 APERTURE LIST*
G04 Aperture macros list*
%AMRoundRect*
0 Rectangle with rounded corners*
0 $1 Rounding radius*
0 $2 $3 $4 $5 $6 $7 $8 $9 X,Y pos of 4 corners*
0 Add a 4 corners polygon primitive as box body*
4,1,4,$2,$3,$4,$5,$6,$7,$8,$9,$2,$3,0*
0 Add four circle primitives for the rounded corners*
1,1,$1+$1,$2,$3*
1,1,$1+$1,$4,$5*
1,1,$1+$1,$6,$7*
1,1,$1+$1,$8,$9*
0 Add four rect primitives between the rounded corners*
20,1,$1+$1,$2,$3,$4,$5,0*
20,1,$1+$1,$4,$5,$6,$7,0*
20,1,$1+$1,$6,$7,$8,$9,0*
20,1,$1+$1,$8,$9,$2,$3,0*%
G04 Aperture macros list end*
%ADD10C,0.500000*%
%ADD11RoundRect,0.050800X-1.320000X0.420000X-1.320000X-0.420000X1.320000X-0.420000X1.320000X0.420000X0*%
%ADD12RoundRect,0.200800X-0.875000X-0.150000X0.875000X-0.150000X0.875000X0.150000X-0.875000X0.150000X0*%
%ADD13RoundRect,0.050800X-0.488950X-0.254000X0.488950X-0.254000X0.488950X0.254000X-0.488950X0.254000X0*%
%ADD14RoundRect,0.050800X-0.975000X-0.975000X0.975000X-0.975000X0.975000X0.975000X-0.975000X0.975000X0*%
%ADD15C,2.051600*%
%ADD16RoundRect,0.050800X-0.325000X-0.450000X0.325000X-0.450000X0.325000X0.450000X-0.325000X0.450000X0*%
%ADD17RoundRect,0.050800X0.325000X0.450000X-0.325000X0.450000X-0.325000X-0.450000X0.325000X-0.450000X0*%
%ADD18RoundRect,0.050800X-0.700000X-0.700000X0.700000X-0.700000X0.700000X0.700000X-0.700000X0.700000X0*%
%ADD19C,1.501600*%
%ADD20C,3.101600*%
%ADD21C,1.851600*%
%ADD22RoundRect,0.050800X0.420000X1.320000X-0.420000X1.320000X-0.420000X-1.320000X0.420000X-1.320000X0*%
%ADD23C,1.676600*%
%ADD24RoundRect,0.050800X0.455000X0.695000X-0.455000X0.695000X-0.455000X-0.695000X0.455000X-0.695000X0*%
%ADD25RoundRect,0.050800X-0.420000X-1.320000X0.420000X-1.320000X0.420000X1.320000X-0.420000X1.320000X0*%
%ADD26RoundRect,0.050800X0.450000X-0.325000X0.450000X0.325000X-0.450000X0.325000X-0.450000X-0.325000X0*%
%ADD27RoundRect,0.050800X0.900000X0.900000X-0.900000X0.900000X-0.900000X-0.900000X0.900000X-0.900000X0*%
%ADD28C,1.901600*%
%ADD29C,4.256600*%
G04 APERTURE END LIST*
D10*
X48490000Y-154940000D02*
G75*
G03*
X48490000Y-154940000I-1500000J0D01*
G01*
X55725475Y-154940000D02*
G75*
G03*
X55725475Y-154940000I-1500000J0D01*
G01*
X63095000Y-154940000D02*
G75*
G03*
X63095000Y-154940000I-1500000J0D01*
G01*
D11*
%TO.C,C6*%
X83185000Y-115975000D03*
X83185000Y-118975000D03*
%TD*%
D12*
%TO.C,U5*%
X118970000Y-113665000D03*
X118970000Y-114935000D03*
X118970000Y-116205000D03*
X118970000Y-117475000D03*
X118970000Y-118745000D03*
X118970000Y-120015000D03*
X118970000Y-121285000D03*
X118970000Y-122555000D03*
X128270000Y-122555000D03*
X128270000Y-121285000D03*
X128270000Y-120015000D03*
X128270000Y-118745000D03*
X128270000Y-117475000D03*
X128270000Y-116205000D03*
X128270000Y-114935000D03*
X128270000Y-113665000D03*
%TD*%
D13*
%TO.C,U2*%
X95154750Y-120969999D03*
X95154750Y-121920000D03*
X95154750Y-122870001D03*
X97885250Y-122870001D03*
X97885250Y-120969999D03*
%TD*%
D14*
%TO.C,J4*%
X122025000Y-85090000D03*
D15*
X127025000Y-85090000D03*
X132025000Y-85090000D03*
%TD*%
D16*
%TO.C,R2*%
X76745000Y-120015000D03*
X78195000Y-120015000D03*
%TD*%
%TO.C,R7*%
X109675000Y-96520000D03*
X111125000Y-96520000D03*
%TD*%
%TO.C,R5*%
X89445000Y-119380000D03*
X90895000Y-119380000D03*
%TD*%
D17*
%TO.C,R4*%
X62955000Y-116840000D03*
X61505000Y-116840000D03*
%TD*%
D18*
%TO.C,J3*%
X105410000Y-87120000D03*
D19*
X102870000Y-87120000D03*
D20*
X110490000Y-82040000D03*
X100330000Y-82040000D03*
%TD*%
D11*
%TO.C,C17*%
X92710000Y-91210000D03*
X92710000Y-94210000D03*
%TD*%
D21*
%TO.C,S4*%
X79248000Y-135840000D03*
X79248000Y-139040000D03*
X79248000Y-142240000D03*
%TD*%
D18*
%TO.C,J1*%
X53340000Y-87120000D03*
D19*
X50800000Y-87120000D03*
D20*
X58420000Y-82040000D03*
X48260000Y-82040000D03*
%TD*%
D13*
%TO.C,U1*%
X69754750Y-118429999D03*
X69754750Y-119380000D03*
X69754750Y-120330001D03*
X72485250Y-120330001D03*
X72485250Y-118429999D03*
%TD*%
D22*
%TO.C,C11*%
X135080000Y-99060000D03*
X132080000Y-99060000D03*
%TD*%
D17*
%TO.C,R1*%
X62955000Y-121285000D03*
X61505000Y-121285000D03*
%TD*%
D21*
%TO.C,S3*%
X117348000Y-135992000D03*
X117348000Y-139192000D03*
X117348000Y-142392000D03*
%TD*%
D23*
%TO.C,C2*%
X103505000Y-111640000D03*
X103505000Y-96640000D03*
%TD*%
D13*
%TO.C,U11*%
X52530050Y-99379999D03*
X52530050Y-100330000D03*
X52530050Y-101280001D03*
X55260550Y-101280001D03*
X55260550Y-99379999D03*
%TD*%
D21*
%TO.C,S1*%
X50292000Y-135992000D03*
X50292000Y-139192000D03*
X50292000Y-142392000D03*
%TD*%
D11*
%TO.C,C14*%
X53975000Y-93115000D03*
X53975000Y-96115000D03*
%TD*%
%TO.C,C19*%
X71120000Y-112165000D03*
X71120000Y-115165000D03*
%TD*%
D23*
%TO.C,C1*%
X80010000Y-96640000D03*
X80010000Y-111640000D03*
%TD*%
D13*
%TO.C,U10*%
X65309750Y-100014999D03*
X65309750Y-100965000D03*
X65309750Y-101915001D03*
X68040250Y-101915001D03*
X68040250Y-100014999D03*
%TD*%
D11*
%TO.C,C7*%
X113030000Y-127405000D03*
X113030000Y-130405000D03*
%TD*%
%TO.C,C21*%
X99060000Y-114935000D03*
X99060000Y-117935000D03*
%TD*%
D24*
%TO.C,C28*%
X124485000Y-92384000D03*
X122845000Y-92384000D03*
%TD*%
D11*
%TO.C,C4*%
X53340000Y-113430000D03*
X53340000Y-116430000D03*
%TD*%
%TO.C,C24*%
X114300000Y-96925000D03*
X114300000Y-99925000D03*
%TD*%
D21*
%TO.C,S2*%
X90424000Y-135992000D03*
X90424000Y-139192000D03*
X90424000Y-142392000D03*
%TD*%
D13*
%TO.C,U8*%
X111664750Y-122239999D03*
X111664750Y-123190000D03*
X111664750Y-124140001D03*
X114395250Y-124140001D03*
X114395250Y-122239999D03*
%TD*%
%TO.C,U7*%
X81819750Y-122239999D03*
X81819750Y-123190000D03*
X81819750Y-124140001D03*
X84550250Y-124140001D03*
X84550250Y-122239999D03*
%TD*%
%TO.C,U6*%
X51879550Y-119379999D03*
X51879550Y-120330000D03*
X51879550Y-121280001D03*
X54610050Y-121280001D03*
X54610050Y-119379999D03*
%TD*%
D24*
%TO.C,C29*%
X130835000Y-92384000D03*
X129195000Y-92384000D03*
%TD*%
D11*
%TO.C,C22*%
X96654800Y-125500000D03*
X96654800Y-128500000D03*
%TD*%
%TO.C,C5*%
X83319700Y-127405000D03*
X83319700Y-130405000D03*
%TD*%
D18*
%TO.C,J2*%
X78740000Y-87120000D03*
D19*
X76200000Y-87120000D03*
D20*
X83820000Y-82040000D03*
X73660000Y-82040000D03*
%TD*%
D25*
%TO.C,C12*%
X132080000Y-105410000D03*
X135080000Y-105410000D03*
%TD*%
D11*
%TO.C,C8*%
X112268000Y-115975000D03*
X112268000Y-118975000D03*
%TD*%
D26*
%TO.C,R6*%
X109728000Y-113665000D03*
X109728000Y-112215000D03*
%TD*%
D11*
%TO.C,C13*%
X53975000Y-104648000D03*
X53975000Y-107648000D03*
%TD*%
%TO.C,C20*%
X67945000Y-122555000D03*
X67945000Y-125555000D03*
%TD*%
D22*
%TO.C,C10*%
X135080000Y-114300000D03*
X132080000Y-114300000D03*
%TD*%
D25*
%TO.C,C9*%
X132080000Y-121920000D03*
X135080000Y-121920000D03*
%TD*%
D27*
%TO.C,P1*%
X66045000Y-132630000D03*
D28*
X63545000Y-132630000D03*
X61045000Y-132630000D03*
D29*
X67945000Y-139630000D03*
X59145000Y-139630000D03*
%TD*%
D16*
%TO.C,R3*%
X76745000Y-125730000D03*
X78195000Y-125730000D03*
%TD*%
D11*
%TO.C,C18*%
X92075000Y-101370000D03*
X92075000Y-104370000D03*
%TD*%
%TO.C,C15*%
X67080000Y-93750000D03*
X67080000Y-96750000D03*
%TD*%
%TO.C,C3*%
X53340000Y-124230000D03*
X53340000Y-127230000D03*
%TD*%
D27*
%TO.C,P2*%
X105370000Y-132630000D03*
D28*
X102870000Y-132630000D03*
X100370000Y-132630000D03*
D29*
X107270000Y-139630000D03*
X98470000Y-139630000D03*
%TD*%
D13*
%TO.C,U9*%
X91344750Y-96839999D03*
X91344750Y-97790000D03*
X91344750Y-98740001D03*
X94075250Y-98740001D03*
X94075250Y-96839999D03*
%TD*%
D27*
%TO.C,P3*%
X132635000Y-132700000D03*
D28*
X130135000Y-132700000D03*
X127635000Y-132700000D03*
D29*
X134535000Y-139700000D03*
X125735000Y-139700000D03*
%TD*%
D11*
%TO.C,C16*%
X67080000Y-104545000D03*
X67080000Y-107545000D03*
%TD*%
D12*
%TO.C,U4*%
X118540000Y-98425000D03*
X118540000Y-99695000D03*
X118540000Y-100965000D03*
X118540000Y-102235000D03*
X118540000Y-103505000D03*
X118540000Y-104775000D03*
X118540000Y-106045000D03*
X118540000Y-107315000D03*
X127840000Y-107315000D03*
X127840000Y-106045000D03*
X127840000Y-104775000D03*
X127840000Y-103505000D03*
X127840000Y-102235000D03*
X127840000Y-100965000D03*
X127840000Y-99695000D03*
X127840000Y-98425000D03*
%TD*%
D13*
%TO.C,U3*%
X111029750Y-102554999D03*
X111029750Y-103505000D03*
X111029750Y-104455001D03*
X113760250Y-104455001D03*
X113760250Y-102554999D03*
%TD*%
D11*
%TO.C,C23*%
X111125000Y-107085000D03*
X111125000Y-110085000D03*
%TD*%
M02*
