%TF.GenerationSoftware,KiCad,Pcbnew,7.0.9*%
%TF.CreationDate,2024-05-07T07:23:26+02:00*%
%TF.ProjectId,ElectronicDuffing,456c6563-7472-46f6-9e69-634475666669,v 1.1*%
%TF.SameCoordinates,Original*%
%TF.FileFunction,Drillmap*%
%TF.FilePolarity,Positive*%
%FSLAX45Y45*%
G04 Gerber Fmt 4.5, Leading zero omitted, Abs format (unit mm)*
G04 Created by KiCad (PCBNEW 7.0.9) date 2024-05-07 07:23:26*
%MOMM*%
%LPD*%
G01*
G04 APERTURE LIST*
%ADD10C,0.100000*%
%ADD11C,0.200000*%
%ADD12C,0.105000*%
%ADD13C,0.125000*%
%ADD14C,0.130000*%
%ADD15C,0.250000*%
%ADD16C,0.277000*%
G04 APERTURE END LIST*
D10*
X4191000Y-7366000D02*
X13843000Y-7366000D01*
X13843000Y-15811500D01*
X4191000Y-15811500D01*
X4191000Y-7366000D01*
D11*
D10*
X5110800Y-10089200D02*
X5150800Y-10129200D01*
X5150800Y-10089200D02*
X5110800Y-10129200D01*
X5187000Y-13061000D02*
X5227000Y-13101000D01*
X5227000Y-13061000D02*
X5187000Y-13101000D01*
X5430670Y-10190800D02*
X5470670Y-10230800D01*
X5470670Y-10190800D02*
X5430670Y-10230800D01*
X5669600Y-9682800D02*
X5709600Y-9722800D01*
X5709600Y-9682800D02*
X5669600Y-9722800D01*
X5669600Y-11613200D02*
X5709600Y-11653200D01*
X5709600Y-11613200D02*
X5669600Y-11653200D01*
X5822000Y-12108500D02*
X5862000Y-12148500D01*
X5862000Y-12108500D02*
X5822000Y-12148500D01*
X5949000Y-10698800D02*
X5989000Y-10738800D01*
X5989000Y-10698800D02*
X5949000Y-10738800D01*
X6279200Y-11971000D02*
X6319200Y-12011000D01*
X6319200Y-11971000D02*
X6279200Y-12011000D01*
X6393500Y-9886000D02*
X6433500Y-9926000D01*
X6433500Y-9886000D02*
X6393500Y-9926000D01*
X6702490Y-10942400D02*
X6742490Y-10982400D01*
X6742490Y-10942400D02*
X6702490Y-10982400D01*
X7092000Y-10521000D02*
X7132000Y-10561000D01*
X7132000Y-10521000D02*
X7092000Y-10561000D01*
X7409500Y-10711500D02*
X7449500Y-10751500D01*
X7449500Y-10711500D02*
X7409500Y-10751500D01*
X7439020Y-12489400D02*
X7479020Y-12529400D01*
X7479020Y-12489400D02*
X7439020Y-12529400D01*
X8167880Y-12049000D02*
X8207880Y-12089000D01*
X8207880Y-12049000D02*
X8167880Y-12089000D01*
X8260400Y-13442000D02*
X8300400Y-13482000D01*
X8300400Y-13442000D02*
X8260400Y-13482000D01*
X8362000Y-10241600D02*
X8402000Y-10281600D01*
X8402000Y-10241600D02*
X8362000Y-10281600D01*
X8362000Y-12070400D02*
X8402000Y-12110400D01*
X8402000Y-12070400D02*
X8362000Y-12110400D01*
X8587830Y-12349700D02*
X8627830Y-12389700D01*
X8627830Y-12349700D02*
X8587830Y-12389700D01*
X8617030Y-11695000D02*
X8657030Y-11735000D01*
X8657030Y-11695000D02*
X8617030Y-11735000D01*
X8679500Y-13251500D02*
X8719500Y-13291500D01*
X8719500Y-13251500D02*
X8679500Y-13291500D01*
X9060500Y-10711500D02*
X9100500Y-10751500D01*
X9100500Y-10711500D02*
X9060500Y-10751500D01*
X9146220Y-11686200D02*
X9186220Y-11726200D01*
X9186220Y-11686200D02*
X9146220Y-11726200D01*
X9581200Y-10343200D02*
X9621200Y-10383200D01*
X9621200Y-10343200D02*
X9581200Y-10383200D01*
X9632000Y-11930600D02*
X9672000Y-11970600D01*
X9672000Y-11930600D02*
X9632000Y-11970600D01*
X9644700Y-8984300D02*
X9684700Y-9024300D01*
X9684700Y-8984300D02*
X9644700Y-9024300D01*
X9886000Y-8463600D02*
X9926000Y-8503600D01*
X9926000Y-8463600D02*
X9886000Y-8503600D01*
X10038400Y-10343200D02*
X10078400Y-10383200D01*
X10078400Y-10343200D02*
X10038400Y-10383200D01*
X10038400Y-11257600D02*
X10078400Y-11297600D01*
X10078400Y-11257600D02*
X10038400Y-11297600D01*
X10140000Y-12121200D02*
X10180000Y-12161200D01*
X10180000Y-12121200D02*
X10140000Y-12161200D01*
X10648000Y-11867200D02*
X10688000Y-11907200D01*
X10688000Y-11867200D02*
X10648000Y-11907200D01*
X10917800Y-12090600D02*
X10957800Y-12130600D01*
X10957800Y-12090600D02*
X10917800Y-12130600D01*
X10927400Y-11867200D02*
X10967400Y-11907200D01*
X10967400Y-11867200D02*
X10927400Y-11907200D01*
X11048000Y-10122800D02*
X11088000Y-10162800D01*
X11088000Y-10122800D02*
X11048000Y-10162800D01*
X11460800Y-11877500D02*
X11500800Y-11917500D01*
X11500800Y-11877500D02*
X11460800Y-11917500D01*
X11475900Y-10110000D02*
X11515900Y-10150000D01*
X11515900Y-10110000D02*
X11475900Y-10150000D01*
X11714800Y-8463600D02*
X11754800Y-8503600D01*
X11754800Y-8463600D02*
X11714800Y-8503600D01*
X11769670Y-8975670D02*
X11809670Y-9015670D01*
X11809670Y-8975670D02*
X11769670Y-9015670D01*
X12019600Y-10902000D02*
X12059600Y-10942000D01*
X12059600Y-10902000D02*
X12019600Y-10942000D01*
X12273600Y-12070400D02*
X12313600Y-12110400D01*
X12313600Y-12070400D02*
X12273600Y-12110400D01*
X12324400Y-11054400D02*
X12364400Y-11094400D01*
X12364400Y-11054400D02*
X12324400Y-11094400D01*
X12962900Y-10216300D02*
X13002900Y-10256300D01*
X13002900Y-10216300D02*
X12962900Y-10256300D01*
X5125000Y-8712000D02*
G75*
G03*
X5125000Y-8712000I-45000J0D01*
G01*
X5379000Y-8712000D02*
G75*
G03*
X5379000Y-8712000I-45000J0D01*
G01*
X7665000Y-8712000D02*
G75*
G03*
X7665000Y-8712000I-45000J0D01*
G01*
X7919000Y-8712000D02*
G75*
G03*
X7919000Y-8712000I-45000J0D01*
G01*
X10332000Y-8712000D02*
G75*
G03*
X10332000Y-8712000I-45000J0D01*
G01*
X10586000Y-8712000D02*
G75*
G03*
X10586000Y-8712000I-45000J0D01*
G01*
X6104500Y-13213000D02*
X6104500Y-13313000D01*
X6054500Y-13263000D02*
X6154500Y-13263000D01*
X6354500Y-13213000D02*
X6354500Y-13313000D01*
X6304500Y-13263000D02*
X6404500Y-13263000D01*
X6604500Y-13213000D02*
X6604500Y-13313000D01*
X6554500Y-13263000D02*
X6654500Y-13263000D01*
X10037000Y-13213000D02*
X10037000Y-13313000D01*
X9987000Y-13263000D02*
X10087000Y-13263000D01*
X10287000Y-13213000D02*
X10287000Y-13313000D01*
X10237000Y-13263000D02*
X10337000Y-13263000D01*
X10537000Y-13213000D02*
X10537000Y-13313000D01*
X10487000Y-13263000D02*
X10587000Y-13263000D01*
X12763500Y-13220000D02*
X12763500Y-13320000D01*
X12713500Y-13270000D02*
X12813500Y-13270000D01*
X13013500Y-13220000D02*
X13013500Y-13320000D01*
X12963500Y-13270000D02*
X13063500Y-13270000D01*
X13263500Y-13220000D02*
X13263500Y-13320000D01*
X13213500Y-13270000D02*
X13313500Y-13270000D01*
D12*
X8038123Y-9701124D02*
X8038123Y-9626877D01*
X7963876Y-9626877D01*
X7963876Y-9701124D01*
X8038123Y-9701124D01*
X8038123Y-11201123D02*
X8038123Y-11126877D01*
X7963876Y-11126877D01*
X7963876Y-11201123D01*
X8038123Y-11201123D01*
X10387624Y-9701124D02*
X10387624Y-9626877D01*
X10313377Y-9626877D01*
X10313377Y-9701124D01*
X10387624Y-9701124D01*
X10387624Y-11201123D02*
X10387624Y-11126877D01*
X10313377Y-11126877D01*
X10313377Y-11201123D01*
X10387624Y-11201123D01*
D13*
X5029200Y-13661700D02*
X5091700Y-13599200D01*
X5029200Y-13536700D01*
X4966700Y-13599200D01*
X5029200Y-13661700D01*
X5029200Y-13981700D02*
X5091700Y-13919200D01*
X5029200Y-13856700D01*
X4966700Y-13919200D01*
X5029200Y-13981700D01*
X5029200Y-14301700D02*
X5091700Y-14239200D01*
X5029200Y-14176700D01*
X4966700Y-14239200D01*
X5029200Y-14301700D01*
X7924800Y-13646500D02*
X7987300Y-13584000D01*
X7924800Y-13521500D01*
X7862300Y-13584000D01*
X7924800Y-13646500D01*
X7924800Y-13966500D02*
X7987300Y-13904000D01*
X7924800Y-13841500D01*
X7862300Y-13904000D01*
X7924800Y-13966500D01*
X7924800Y-14286500D02*
X7987300Y-14224000D01*
X7924800Y-14161500D01*
X7862300Y-14224000D01*
X7924800Y-14286500D01*
X9042400Y-13661700D02*
X9104900Y-13599200D01*
X9042400Y-13536700D01*
X8979900Y-13599200D01*
X9042400Y-13661700D01*
X9042400Y-13981700D02*
X9104900Y-13919200D01*
X9042400Y-13856700D01*
X8979900Y-13919200D01*
X9042400Y-13981700D01*
X9042400Y-14301700D02*
X9104900Y-14239200D01*
X9042400Y-14176700D01*
X8979900Y-14239200D01*
X9042400Y-14301700D01*
X11734800Y-13661700D02*
X11797300Y-13599200D01*
X11734800Y-13536700D01*
X11672300Y-13599200D01*
X11734800Y-13661700D01*
X11734800Y-13981700D02*
X11797300Y-13919200D01*
X11734800Y-13856700D01*
X11672300Y-13919200D01*
X11734800Y-13981700D01*
X11734800Y-14301700D02*
X11797300Y-14239200D01*
X11734800Y-14176700D01*
X11672300Y-14239200D01*
X11734800Y-14301700D01*
D14*
X12137500Y-8444000D02*
X12267500Y-8574000D01*
X12267500Y-8444000D02*
X12137500Y-8574000D01*
X12267500Y-8509000D02*
G75*
G03*
X12267500Y-8509000I-65000J0D01*
G01*
X12637500Y-8444000D02*
X12767500Y-8574000D01*
X12767500Y-8444000D02*
X12637500Y-8574000D01*
X12767500Y-8509000D02*
G75*
G03*
X12767500Y-8509000I-65000J0D01*
G01*
X13137500Y-8444000D02*
X13267500Y-8574000D01*
X13267500Y-8444000D02*
X13137500Y-8574000D01*
X13267500Y-8509000D02*
G75*
G03*
X13267500Y-8509000I-65000J0D01*
G01*
D11*
X4726000Y-8104000D02*
X4926000Y-8304000D01*
X4926000Y-8104000D02*
X4726000Y-8304000D01*
X4826000Y-8104000D02*
X4826000Y-8304000D01*
X4726000Y-8204000D02*
X4926000Y-8204000D01*
X5742000Y-8104000D02*
X5942000Y-8304000D01*
X5942000Y-8104000D02*
X5742000Y-8304000D01*
X5842000Y-8104000D02*
X5842000Y-8304000D01*
X5742000Y-8204000D02*
X5942000Y-8204000D01*
X7266000Y-8104000D02*
X7466000Y-8304000D01*
X7466000Y-8104000D02*
X7266000Y-8304000D01*
X7366000Y-8104000D02*
X7366000Y-8304000D01*
X7266000Y-8204000D02*
X7466000Y-8204000D01*
X8282000Y-8104000D02*
X8482000Y-8304000D01*
X8482000Y-8104000D02*
X8282000Y-8304000D01*
X8382000Y-8104000D02*
X8382000Y-8304000D01*
X8282000Y-8204000D02*
X8482000Y-8204000D01*
X9933000Y-8104000D02*
X10133000Y-8304000D01*
X10133000Y-8104000D02*
X9933000Y-8304000D01*
X10033000Y-8104000D02*
X10033000Y-8304000D01*
X9933000Y-8204000D02*
X10133000Y-8204000D01*
X10949000Y-8104000D02*
X11149000Y-8304000D01*
X11149000Y-8104000D02*
X10949000Y-8304000D01*
X11049000Y-8104000D02*
X11049000Y-8304000D01*
X10949000Y-8204000D02*
X11149000Y-8204000D01*
D15*
X4574000Y-15369000D02*
X4824000Y-15619000D01*
X4824000Y-15369000D02*
X4574000Y-15619000D01*
X4787389Y-15582389D02*
X4787389Y-15405611D01*
X4610611Y-15405611D01*
X4610611Y-15582389D01*
X4787389Y-15582389D01*
X5304250Y-15369000D02*
X5554250Y-15619000D01*
X5554250Y-15369000D02*
X5304250Y-15619000D01*
X5517639Y-15582389D02*
X5517639Y-15405611D01*
X5340861Y-15405611D01*
X5340861Y-15582389D01*
X5517639Y-15582389D01*
X6034500Y-15369000D02*
X6284500Y-15619000D01*
X6284500Y-15369000D02*
X6034500Y-15619000D01*
X6247889Y-15582389D02*
X6247889Y-15405611D01*
X6071111Y-15405611D01*
X6071111Y-15582389D01*
X6247889Y-15582389D01*
D16*
X5776000Y-13824500D02*
X6053000Y-14101500D01*
X6053000Y-13824500D02*
X5776000Y-14101500D01*
X5914500Y-14101500D02*
X6053000Y-13963000D01*
X5914500Y-13824500D01*
X5776000Y-13963000D01*
X5914500Y-14101500D01*
X6656000Y-13824500D02*
X6933000Y-14101500D01*
X6933000Y-13824500D02*
X6656000Y-14101500D01*
X6794500Y-14101500D02*
X6933000Y-13963000D01*
X6794500Y-13824500D01*
X6656000Y-13963000D01*
X6794500Y-14101500D01*
X9708500Y-13824500D02*
X9985500Y-14101500D01*
X9985500Y-13824500D02*
X9708500Y-14101500D01*
X9847000Y-14101500D02*
X9985500Y-13963000D01*
X9847000Y-13824500D01*
X9708500Y-13963000D01*
X9847000Y-14101500D01*
X10588500Y-13824500D02*
X10865500Y-14101500D01*
X10865500Y-13824500D02*
X10588500Y-14101500D01*
X10727000Y-14101500D02*
X10865500Y-13963000D01*
X10727000Y-13824500D01*
X10588500Y-13963000D01*
X10727000Y-14101500D01*
X12435000Y-13831500D02*
X12712000Y-14108500D01*
X12712000Y-13831500D02*
X12435000Y-14108500D01*
X12573500Y-14108500D02*
X12712000Y-13970000D01*
X12573500Y-13831500D01*
X12435000Y-13970000D01*
X12573500Y-14108500D01*
X13315000Y-13831500D02*
X13592000Y-14108500D01*
X13592000Y-13831500D02*
X13315000Y-14108500D01*
X13453500Y-14108500D02*
X13592000Y-13970000D01*
X13453500Y-13831500D01*
X13315000Y-13970000D01*
X13453500Y-14108500D01*
D11*
X4446777Y-16127984D02*
X4446777Y-15927984D01*
X4446777Y-15927984D02*
X4494396Y-15927984D01*
X4494396Y-15927984D02*
X4522967Y-15937508D01*
X4522967Y-15937508D02*
X4542015Y-15956555D01*
X4542015Y-15956555D02*
X4551539Y-15975603D01*
X4551539Y-15975603D02*
X4561063Y-16013698D01*
X4561063Y-16013698D02*
X4561063Y-16042269D01*
X4561063Y-16042269D02*
X4551539Y-16080365D01*
X4551539Y-16080365D02*
X4542015Y-16099412D01*
X4542015Y-16099412D02*
X4522967Y-16118460D01*
X4522967Y-16118460D02*
X4494396Y-16127984D01*
X4494396Y-16127984D02*
X4446777Y-16127984D01*
X4646777Y-16127984D02*
X4646777Y-15994650D01*
X4646777Y-16032746D02*
X4656301Y-16013698D01*
X4656301Y-16013698D02*
X4665824Y-16004174D01*
X4665824Y-16004174D02*
X4684872Y-15994650D01*
X4684872Y-15994650D02*
X4703920Y-15994650D01*
X4770586Y-16127984D02*
X4770586Y-15994650D01*
X4770586Y-15927984D02*
X4761063Y-15937508D01*
X4761063Y-15937508D02*
X4770586Y-15947031D01*
X4770586Y-15947031D02*
X4780110Y-15937508D01*
X4780110Y-15937508D02*
X4770586Y-15927984D01*
X4770586Y-15927984D02*
X4770586Y-15947031D01*
X4894396Y-16127984D02*
X4875348Y-16118460D01*
X4875348Y-16118460D02*
X4865824Y-16099412D01*
X4865824Y-16099412D02*
X4865824Y-15927984D01*
X4999158Y-16127984D02*
X4980110Y-16118460D01*
X4980110Y-16118460D02*
X4970586Y-16099412D01*
X4970586Y-16099412D02*
X4970586Y-15927984D01*
X5227729Y-16127984D02*
X5227729Y-15927984D01*
X5227729Y-15927984D02*
X5294396Y-16070841D01*
X5294396Y-16070841D02*
X5361063Y-15927984D01*
X5361063Y-15927984D02*
X5361063Y-16127984D01*
X5542015Y-16127984D02*
X5542015Y-16023222D01*
X5542015Y-16023222D02*
X5532491Y-16004174D01*
X5532491Y-16004174D02*
X5513444Y-15994650D01*
X5513444Y-15994650D02*
X5475348Y-15994650D01*
X5475348Y-15994650D02*
X5456301Y-16004174D01*
X5542015Y-16118460D02*
X5522967Y-16127984D01*
X5522967Y-16127984D02*
X5475348Y-16127984D01*
X5475348Y-16127984D02*
X5456301Y-16118460D01*
X5456301Y-16118460D02*
X5446777Y-16099412D01*
X5446777Y-16099412D02*
X5446777Y-16080365D01*
X5446777Y-16080365D02*
X5456301Y-16061317D01*
X5456301Y-16061317D02*
X5475348Y-16051793D01*
X5475348Y-16051793D02*
X5522967Y-16051793D01*
X5522967Y-16051793D02*
X5542015Y-16042269D01*
X5637253Y-15994650D02*
X5637253Y-16194650D01*
X5637253Y-16004174D02*
X5656301Y-15994650D01*
X5656301Y-15994650D02*
X5694396Y-15994650D01*
X5694396Y-15994650D02*
X5713443Y-16004174D01*
X5713443Y-16004174D02*
X5722967Y-16013698D01*
X5722967Y-16013698D02*
X5732491Y-16032746D01*
X5732491Y-16032746D02*
X5732491Y-16089888D01*
X5732491Y-16089888D02*
X5722967Y-16108936D01*
X5722967Y-16108936D02*
X5713443Y-16118460D01*
X5713443Y-16118460D02*
X5694396Y-16127984D01*
X5694396Y-16127984D02*
X5656301Y-16127984D01*
X5656301Y-16127984D02*
X5637253Y-16118460D01*
X5818205Y-16108936D02*
X5827729Y-16118460D01*
X5827729Y-16118460D02*
X5818205Y-16127984D01*
X5818205Y-16127984D02*
X5808682Y-16118460D01*
X5808682Y-16118460D02*
X5818205Y-16108936D01*
X5818205Y-16108936D02*
X5818205Y-16127984D01*
X5818205Y-16004174D02*
X5827729Y-16013698D01*
X5827729Y-16013698D02*
X5818205Y-16023222D01*
X5818205Y-16023222D02*
X5808682Y-16013698D01*
X5808682Y-16013698D02*
X5818205Y-16004174D01*
X5818205Y-16004174D02*
X5818205Y-16023222D01*
D10*
X4146000Y-16436500D02*
X4186000Y-16476500D01*
X4186000Y-16436500D02*
X4146000Y-16476500D01*
D11*
X4484872Y-16347984D02*
X4503920Y-16347984D01*
X4503920Y-16347984D02*
X4522967Y-16357508D01*
X4522967Y-16357508D02*
X4532491Y-16367031D01*
X4532491Y-16367031D02*
X4542015Y-16386079D01*
X4542015Y-16386079D02*
X4551539Y-16424174D01*
X4551539Y-16424174D02*
X4551539Y-16471793D01*
X4551539Y-16471793D02*
X4542015Y-16509888D01*
X4542015Y-16509888D02*
X4532491Y-16528936D01*
X4532491Y-16528936D02*
X4522967Y-16538460D01*
X4522967Y-16538460D02*
X4503920Y-16547984D01*
X4503920Y-16547984D02*
X4484872Y-16547984D01*
X4484872Y-16547984D02*
X4465824Y-16538460D01*
X4465824Y-16538460D02*
X4456301Y-16528936D01*
X4456301Y-16528936D02*
X4446777Y-16509888D01*
X4446777Y-16509888D02*
X4437253Y-16471793D01*
X4437253Y-16471793D02*
X4437253Y-16424174D01*
X4437253Y-16424174D02*
X4446777Y-16386079D01*
X4446777Y-16386079D02*
X4456301Y-16367031D01*
X4456301Y-16367031D02*
X4465824Y-16357508D01*
X4465824Y-16357508D02*
X4484872Y-16347984D01*
X4637253Y-16528936D02*
X4646777Y-16538460D01*
X4646777Y-16538460D02*
X4637253Y-16547984D01*
X4637253Y-16547984D02*
X4627729Y-16538460D01*
X4627729Y-16538460D02*
X4637253Y-16528936D01*
X4637253Y-16528936D02*
X4637253Y-16547984D01*
X4818205Y-16414650D02*
X4818205Y-16547984D01*
X4770586Y-16338460D02*
X4722967Y-16481317D01*
X4722967Y-16481317D02*
X4846777Y-16481317D01*
X4961063Y-16347984D02*
X4980110Y-16347984D01*
X4980110Y-16347984D02*
X4999158Y-16357508D01*
X4999158Y-16357508D02*
X5008682Y-16367031D01*
X5008682Y-16367031D02*
X5018205Y-16386079D01*
X5018205Y-16386079D02*
X5027729Y-16424174D01*
X5027729Y-16424174D02*
X5027729Y-16471793D01*
X5027729Y-16471793D02*
X5018205Y-16509888D01*
X5018205Y-16509888D02*
X5008682Y-16528936D01*
X5008682Y-16528936D02*
X4999158Y-16538460D01*
X4999158Y-16538460D02*
X4980110Y-16547984D01*
X4980110Y-16547984D02*
X4961063Y-16547984D01*
X4961063Y-16547984D02*
X4942015Y-16538460D01*
X4942015Y-16538460D02*
X4932491Y-16528936D01*
X4932491Y-16528936D02*
X4922967Y-16509888D01*
X4922967Y-16509888D02*
X4913444Y-16471793D01*
X4913444Y-16471793D02*
X4913444Y-16424174D01*
X4913444Y-16424174D02*
X4922967Y-16386079D01*
X4922967Y-16386079D02*
X4932491Y-16367031D01*
X4932491Y-16367031D02*
X4942015Y-16357508D01*
X4942015Y-16357508D02*
X4961063Y-16347984D01*
X5151539Y-16347984D02*
X5170586Y-16347984D01*
X5170586Y-16347984D02*
X5189634Y-16357508D01*
X5189634Y-16357508D02*
X5199158Y-16367031D01*
X5199158Y-16367031D02*
X5208682Y-16386079D01*
X5208682Y-16386079D02*
X5218205Y-16424174D01*
X5218205Y-16424174D02*
X5218205Y-16471793D01*
X5218205Y-16471793D02*
X5208682Y-16509888D01*
X5208682Y-16509888D02*
X5199158Y-16528936D01*
X5199158Y-16528936D02*
X5189634Y-16538460D01*
X5189634Y-16538460D02*
X5170586Y-16547984D01*
X5170586Y-16547984D02*
X5151539Y-16547984D01*
X5151539Y-16547984D02*
X5132491Y-16538460D01*
X5132491Y-16538460D02*
X5122967Y-16528936D01*
X5122967Y-16528936D02*
X5113444Y-16509888D01*
X5113444Y-16509888D02*
X5103920Y-16471793D01*
X5103920Y-16471793D02*
X5103920Y-16424174D01*
X5103920Y-16424174D02*
X5113444Y-16386079D01*
X5113444Y-16386079D02*
X5122967Y-16367031D01*
X5122967Y-16367031D02*
X5132491Y-16357508D01*
X5132491Y-16357508D02*
X5151539Y-16347984D01*
X5303920Y-16547984D02*
X5303920Y-16414650D01*
X5303920Y-16433698D02*
X5313444Y-16424174D01*
X5313444Y-16424174D02*
X5332491Y-16414650D01*
X5332491Y-16414650D02*
X5361063Y-16414650D01*
X5361063Y-16414650D02*
X5380110Y-16424174D01*
X5380110Y-16424174D02*
X5389634Y-16443222D01*
X5389634Y-16443222D02*
X5389634Y-16547984D01*
X5389634Y-16443222D02*
X5399158Y-16424174D01*
X5399158Y-16424174D02*
X5418205Y-16414650D01*
X5418205Y-16414650D02*
X5446777Y-16414650D01*
X5446777Y-16414650D02*
X5465825Y-16424174D01*
X5465825Y-16424174D02*
X5475348Y-16443222D01*
X5475348Y-16443222D02*
X5475348Y-16547984D01*
X5570586Y-16547984D02*
X5570586Y-16414650D01*
X5570586Y-16433698D02*
X5580110Y-16424174D01*
X5580110Y-16424174D02*
X5599158Y-16414650D01*
X5599158Y-16414650D02*
X5627729Y-16414650D01*
X5627729Y-16414650D02*
X5646777Y-16424174D01*
X5646777Y-16424174D02*
X5656301Y-16443222D01*
X5656301Y-16443222D02*
X5656301Y-16547984D01*
X5656301Y-16443222D02*
X5665824Y-16424174D01*
X5665824Y-16424174D02*
X5684872Y-16414650D01*
X5684872Y-16414650D02*
X5713443Y-16414650D01*
X5713443Y-16414650D02*
X5732491Y-16424174D01*
X5732491Y-16424174D02*
X5742015Y-16443222D01*
X5742015Y-16443222D02*
X5742015Y-16547984D01*
X6132491Y-16338460D02*
X5961063Y-16595603D01*
X6389634Y-16347984D02*
X6408682Y-16347984D01*
X6408682Y-16347984D02*
X6427729Y-16357508D01*
X6427729Y-16357508D02*
X6437253Y-16367031D01*
X6437253Y-16367031D02*
X6446777Y-16386079D01*
X6446777Y-16386079D02*
X6456301Y-16424174D01*
X6456301Y-16424174D02*
X6456301Y-16471793D01*
X6456301Y-16471793D02*
X6446777Y-16509888D01*
X6446777Y-16509888D02*
X6437253Y-16528936D01*
X6437253Y-16528936D02*
X6427729Y-16538460D01*
X6427729Y-16538460D02*
X6408682Y-16547984D01*
X6408682Y-16547984D02*
X6389634Y-16547984D01*
X6389634Y-16547984D02*
X6370586Y-16538460D01*
X6370586Y-16538460D02*
X6361063Y-16528936D01*
X6361063Y-16528936D02*
X6351539Y-16509888D01*
X6351539Y-16509888D02*
X6342015Y-16471793D01*
X6342015Y-16471793D02*
X6342015Y-16424174D01*
X6342015Y-16424174D02*
X6351539Y-16386079D01*
X6351539Y-16386079D02*
X6361063Y-16367031D01*
X6361063Y-16367031D02*
X6370586Y-16357508D01*
X6370586Y-16357508D02*
X6389634Y-16347984D01*
X6542015Y-16528936D02*
X6551539Y-16538460D01*
X6551539Y-16538460D02*
X6542015Y-16547984D01*
X6542015Y-16547984D02*
X6532491Y-16538460D01*
X6532491Y-16538460D02*
X6542015Y-16528936D01*
X6542015Y-16528936D02*
X6542015Y-16547984D01*
X6675348Y-16347984D02*
X6694396Y-16347984D01*
X6694396Y-16347984D02*
X6713444Y-16357508D01*
X6713444Y-16357508D02*
X6722967Y-16367031D01*
X6722967Y-16367031D02*
X6732491Y-16386079D01*
X6732491Y-16386079D02*
X6742015Y-16424174D01*
X6742015Y-16424174D02*
X6742015Y-16471793D01*
X6742015Y-16471793D02*
X6732491Y-16509888D01*
X6732491Y-16509888D02*
X6722967Y-16528936D01*
X6722967Y-16528936D02*
X6713444Y-16538460D01*
X6713444Y-16538460D02*
X6694396Y-16547984D01*
X6694396Y-16547984D02*
X6675348Y-16547984D01*
X6675348Y-16547984D02*
X6656301Y-16538460D01*
X6656301Y-16538460D02*
X6646777Y-16528936D01*
X6646777Y-16528936D02*
X6637253Y-16509888D01*
X6637253Y-16509888D02*
X6627729Y-16471793D01*
X6627729Y-16471793D02*
X6627729Y-16424174D01*
X6627729Y-16424174D02*
X6637253Y-16386079D01*
X6637253Y-16386079D02*
X6646777Y-16367031D01*
X6646777Y-16367031D02*
X6656301Y-16357508D01*
X6656301Y-16357508D02*
X6675348Y-16347984D01*
X6932491Y-16547984D02*
X6818206Y-16547984D01*
X6875348Y-16547984D02*
X6875348Y-16347984D01*
X6875348Y-16347984D02*
X6856301Y-16376555D01*
X6856301Y-16376555D02*
X6837253Y-16395603D01*
X6837253Y-16395603D02*
X6818206Y-16405127D01*
X7113444Y-16347984D02*
X7018206Y-16347984D01*
X7018206Y-16347984D02*
X7008682Y-16443222D01*
X7008682Y-16443222D02*
X7018206Y-16433698D01*
X7018206Y-16433698D02*
X7037253Y-16424174D01*
X7037253Y-16424174D02*
X7084872Y-16424174D01*
X7084872Y-16424174D02*
X7103920Y-16433698D01*
X7103920Y-16433698D02*
X7113444Y-16443222D01*
X7113444Y-16443222D02*
X7122967Y-16462269D01*
X7122967Y-16462269D02*
X7122967Y-16509888D01*
X7122967Y-16509888D02*
X7113444Y-16528936D01*
X7113444Y-16528936D02*
X7103920Y-16538460D01*
X7103920Y-16538460D02*
X7084872Y-16547984D01*
X7084872Y-16547984D02*
X7037253Y-16547984D01*
X7037253Y-16547984D02*
X7018206Y-16538460D01*
X7018206Y-16538460D02*
X7008682Y-16528936D01*
X7189634Y-16347984D02*
X7322967Y-16347984D01*
X7322967Y-16347984D02*
X7237253Y-16547984D01*
X7389634Y-16347984D02*
X7389634Y-16386079D01*
X7465825Y-16347984D02*
X7465825Y-16386079D01*
X7761063Y-16624174D02*
X7751539Y-16614650D01*
X7751539Y-16614650D02*
X7732491Y-16586079D01*
X7732491Y-16586079D02*
X7722968Y-16567031D01*
X7722968Y-16567031D02*
X7713444Y-16538460D01*
X7713444Y-16538460D02*
X7703920Y-16490841D01*
X7703920Y-16490841D02*
X7703920Y-16452746D01*
X7703920Y-16452746D02*
X7713444Y-16405127D01*
X7713444Y-16405127D02*
X7722968Y-16376555D01*
X7722968Y-16376555D02*
X7732491Y-16357508D01*
X7732491Y-16357508D02*
X7751539Y-16328936D01*
X7751539Y-16328936D02*
X7761063Y-16319412D01*
X7922968Y-16414650D02*
X7922968Y-16547984D01*
X7875348Y-16338460D02*
X7827729Y-16481317D01*
X7827729Y-16481317D02*
X7951539Y-16481317D01*
X8132491Y-16547984D02*
X8018206Y-16547984D01*
X8075348Y-16547984D02*
X8075348Y-16347984D01*
X8075348Y-16347984D02*
X8056301Y-16376555D01*
X8056301Y-16376555D02*
X8037253Y-16395603D01*
X8037253Y-16395603D02*
X8018206Y-16405127D01*
X8370587Y-16547984D02*
X8370587Y-16347984D01*
X8456301Y-16547984D02*
X8456301Y-16443222D01*
X8456301Y-16443222D02*
X8446777Y-16424174D01*
X8446777Y-16424174D02*
X8427730Y-16414650D01*
X8427730Y-16414650D02*
X8399158Y-16414650D01*
X8399158Y-16414650D02*
X8380110Y-16424174D01*
X8380110Y-16424174D02*
X8370587Y-16433698D01*
X8580111Y-16547984D02*
X8561063Y-16538460D01*
X8561063Y-16538460D02*
X8551539Y-16528936D01*
X8551539Y-16528936D02*
X8542015Y-16509888D01*
X8542015Y-16509888D02*
X8542015Y-16452746D01*
X8542015Y-16452746D02*
X8551539Y-16433698D01*
X8551539Y-16433698D02*
X8561063Y-16424174D01*
X8561063Y-16424174D02*
X8580111Y-16414650D01*
X8580111Y-16414650D02*
X8608682Y-16414650D01*
X8608682Y-16414650D02*
X8627730Y-16424174D01*
X8627730Y-16424174D02*
X8637253Y-16433698D01*
X8637253Y-16433698D02*
X8646777Y-16452746D01*
X8646777Y-16452746D02*
X8646777Y-16509888D01*
X8646777Y-16509888D02*
X8637253Y-16528936D01*
X8637253Y-16528936D02*
X8627730Y-16538460D01*
X8627730Y-16538460D02*
X8608682Y-16547984D01*
X8608682Y-16547984D02*
X8580111Y-16547984D01*
X8761063Y-16547984D02*
X8742015Y-16538460D01*
X8742015Y-16538460D02*
X8732492Y-16519412D01*
X8732492Y-16519412D02*
X8732492Y-16347984D01*
X8913444Y-16538460D02*
X8894396Y-16547984D01*
X8894396Y-16547984D02*
X8856301Y-16547984D01*
X8856301Y-16547984D02*
X8837253Y-16538460D01*
X8837253Y-16538460D02*
X8827730Y-16519412D01*
X8827730Y-16519412D02*
X8827730Y-16443222D01*
X8827730Y-16443222D02*
X8837253Y-16424174D01*
X8837253Y-16424174D02*
X8856301Y-16414650D01*
X8856301Y-16414650D02*
X8894396Y-16414650D01*
X8894396Y-16414650D02*
X8913444Y-16424174D01*
X8913444Y-16424174D02*
X8922968Y-16443222D01*
X8922968Y-16443222D02*
X8922968Y-16462269D01*
X8922968Y-16462269D02*
X8827730Y-16481317D01*
X8999158Y-16538460D02*
X9018206Y-16547984D01*
X9018206Y-16547984D02*
X9056301Y-16547984D01*
X9056301Y-16547984D02*
X9075349Y-16538460D01*
X9075349Y-16538460D02*
X9084873Y-16519412D01*
X9084873Y-16519412D02*
X9084873Y-16509888D01*
X9084873Y-16509888D02*
X9075349Y-16490841D01*
X9075349Y-16490841D02*
X9056301Y-16481317D01*
X9056301Y-16481317D02*
X9027730Y-16481317D01*
X9027730Y-16481317D02*
X9008682Y-16471793D01*
X9008682Y-16471793D02*
X8999158Y-16452746D01*
X8999158Y-16452746D02*
X8999158Y-16443222D01*
X8999158Y-16443222D02*
X9008682Y-16424174D01*
X9008682Y-16424174D02*
X9027730Y-16414650D01*
X9027730Y-16414650D02*
X9056301Y-16414650D01*
X9056301Y-16414650D02*
X9075349Y-16424174D01*
X9151539Y-16624174D02*
X9161063Y-16614650D01*
X9161063Y-16614650D02*
X9180111Y-16586079D01*
X9180111Y-16586079D02*
X9189634Y-16567031D01*
X9189634Y-16567031D02*
X9199158Y-16538460D01*
X9199158Y-16538460D02*
X9208682Y-16490841D01*
X9208682Y-16490841D02*
X9208682Y-16452746D01*
X9208682Y-16452746D02*
X9199158Y-16405127D01*
X9199158Y-16405127D02*
X9189634Y-16376555D01*
X9189634Y-16376555D02*
X9180111Y-16357508D01*
X9180111Y-16357508D02*
X9161063Y-16328936D01*
X9161063Y-16328936D02*
X9151539Y-16319412D01*
D10*
X4186000Y-16720500D02*
G75*
G03*
X4186000Y-16720500I-45000J0D01*
G01*
D11*
X4484872Y-16611984D02*
X4503920Y-16611984D01*
X4503920Y-16611984D02*
X4522967Y-16621508D01*
X4522967Y-16621508D02*
X4532491Y-16631031D01*
X4532491Y-16631031D02*
X4542015Y-16650079D01*
X4542015Y-16650079D02*
X4551539Y-16688174D01*
X4551539Y-16688174D02*
X4551539Y-16735793D01*
X4551539Y-16735793D02*
X4542015Y-16773888D01*
X4542015Y-16773888D02*
X4532491Y-16792936D01*
X4532491Y-16792936D02*
X4522967Y-16802460D01*
X4522967Y-16802460D02*
X4503920Y-16811984D01*
X4503920Y-16811984D02*
X4484872Y-16811984D01*
X4484872Y-16811984D02*
X4465824Y-16802460D01*
X4465824Y-16802460D02*
X4456301Y-16792936D01*
X4456301Y-16792936D02*
X4446777Y-16773888D01*
X4446777Y-16773888D02*
X4437253Y-16735793D01*
X4437253Y-16735793D02*
X4437253Y-16688174D01*
X4437253Y-16688174D02*
X4446777Y-16650079D01*
X4446777Y-16650079D02*
X4456301Y-16631031D01*
X4456301Y-16631031D02*
X4465824Y-16621508D01*
X4465824Y-16621508D02*
X4484872Y-16611984D01*
X4637253Y-16792936D02*
X4646777Y-16802460D01*
X4646777Y-16802460D02*
X4637253Y-16811984D01*
X4637253Y-16811984D02*
X4627729Y-16802460D01*
X4627729Y-16802460D02*
X4637253Y-16792936D01*
X4637253Y-16792936D02*
X4637253Y-16811984D01*
X4742015Y-16811984D02*
X4780110Y-16811984D01*
X4780110Y-16811984D02*
X4799158Y-16802460D01*
X4799158Y-16802460D02*
X4808682Y-16792936D01*
X4808682Y-16792936D02*
X4827729Y-16764365D01*
X4827729Y-16764365D02*
X4837253Y-16726269D01*
X4837253Y-16726269D02*
X4837253Y-16650079D01*
X4837253Y-16650079D02*
X4827729Y-16631031D01*
X4827729Y-16631031D02*
X4818205Y-16621508D01*
X4818205Y-16621508D02*
X4799158Y-16611984D01*
X4799158Y-16611984D02*
X4761063Y-16611984D01*
X4761063Y-16611984D02*
X4742015Y-16621508D01*
X4742015Y-16621508D02*
X4732491Y-16631031D01*
X4732491Y-16631031D02*
X4722967Y-16650079D01*
X4722967Y-16650079D02*
X4722967Y-16697698D01*
X4722967Y-16697698D02*
X4732491Y-16716746D01*
X4732491Y-16716746D02*
X4742015Y-16726269D01*
X4742015Y-16726269D02*
X4761063Y-16735793D01*
X4761063Y-16735793D02*
X4799158Y-16735793D01*
X4799158Y-16735793D02*
X4818205Y-16726269D01*
X4818205Y-16726269D02*
X4827729Y-16716746D01*
X4827729Y-16716746D02*
X4837253Y-16697698D01*
X4961063Y-16611984D02*
X4980110Y-16611984D01*
X4980110Y-16611984D02*
X4999158Y-16621508D01*
X4999158Y-16621508D02*
X5008682Y-16631031D01*
X5008682Y-16631031D02*
X5018205Y-16650079D01*
X5018205Y-16650079D02*
X5027729Y-16688174D01*
X5027729Y-16688174D02*
X5027729Y-16735793D01*
X5027729Y-16735793D02*
X5018205Y-16773888D01*
X5018205Y-16773888D02*
X5008682Y-16792936D01*
X5008682Y-16792936D02*
X4999158Y-16802460D01*
X4999158Y-16802460D02*
X4980110Y-16811984D01*
X4980110Y-16811984D02*
X4961063Y-16811984D01*
X4961063Y-16811984D02*
X4942015Y-16802460D01*
X4942015Y-16802460D02*
X4932491Y-16792936D01*
X4932491Y-16792936D02*
X4922967Y-16773888D01*
X4922967Y-16773888D02*
X4913444Y-16735793D01*
X4913444Y-16735793D02*
X4913444Y-16688174D01*
X4913444Y-16688174D02*
X4922967Y-16650079D01*
X4922967Y-16650079D02*
X4932491Y-16631031D01*
X4932491Y-16631031D02*
X4942015Y-16621508D01*
X4942015Y-16621508D02*
X4961063Y-16611984D01*
X5151539Y-16611984D02*
X5170586Y-16611984D01*
X5170586Y-16611984D02*
X5189634Y-16621508D01*
X5189634Y-16621508D02*
X5199158Y-16631031D01*
X5199158Y-16631031D02*
X5208682Y-16650079D01*
X5208682Y-16650079D02*
X5218205Y-16688174D01*
X5218205Y-16688174D02*
X5218205Y-16735793D01*
X5218205Y-16735793D02*
X5208682Y-16773888D01*
X5208682Y-16773888D02*
X5199158Y-16792936D01*
X5199158Y-16792936D02*
X5189634Y-16802460D01*
X5189634Y-16802460D02*
X5170586Y-16811984D01*
X5170586Y-16811984D02*
X5151539Y-16811984D01*
X5151539Y-16811984D02*
X5132491Y-16802460D01*
X5132491Y-16802460D02*
X5122967Y-16792936D01*
X5122967Y-16792936D02*
X5113444Y-16773888D01*
X5113444Y-16773888D02*
X5103920Y-16735793D01*
X5103920Y-16735793D02*
X5103920Y-16688174D01*
X5103920Y-16688174D02*
X5113444Y-16650079D01*
X5113444Y-16650079D02*
X5122967Y-16631031D01*
X5122967Y-16631031D02*
X5132491Y-16621508D01*
X5132491Y-16621508D02*
X5151539Y-16611984D01*
X5303920Y-16811984D02*
X5303920Y-16678650D01*
X5303920Y-16697698D02*
X5313444Y-16688174D01*
X5313444Y-16688174D02*
X5332491Y-16678650D01*
X5332491Y-16678650D02*
X5361063Y-16678650D01*
X5361063Y-16678650D02*
X5380110Y-16688174D01*
X5380110Y-16688174D02*
X5389634Y-16707222D01*
X5389634Y-16707222D02*
X5389634Y-16811984D01*
X5389634Y-16707222D02*
X5399158Y-16688174D01*
X5399158Y-16688174D02*
X5418205Y-16678650D01*
X5418205Y-16678650D02*
X5446777Y-16678650D01*
X5446777Y-16678650D02*
X5465825Y-16688174D01*
X5465825Y-16688174D02*
X5475348Y-16707222D01*
X5475348Y-16707222D02*
X5475348Y-16811984D01*
X5570586Y-16811984D02*
X5570586Y-16678650D01*
X5570586Y-16697698D02*
X5580110Y-16688174D01*
X5580110Y-16688174D02*
X5599158Y-16678650D01*
X5599158Y-16678650D02*
X5627729Y-16678650D01*
X5627729Y-16678650D02*
X5646777Y-16688174D01*
X5646777Y-16688174D02*
X5656301Y-16707222D01*
X5656301Y-16707222D02*
X5656301Y-16811984D01*
X5656301Y-16707222D02*
X5665824Y-16688174D01*
X5665824Y-16688174D02*
X5684872Y-16678650D01*
X5684872Y-16678650D02*
X5713443Y-16678650D01*
X5713443Y-16678650D02*
X5732491Y-16688174D01*
X5732491Y-16688174D02*
X5742015Y-16707222D01*
X5742015Y-16707222D02*
X5742015Y-16811984D01*
X6132491Y-16602460D02*
X5961063Y-16859603D01*
X6389634Y-16611984D02*
X6408682Y-16611984D01*
X6408682Y-16611984D02*
X6427729Y-16621508D01*
X6427729Y-16621508D02*
X6437253Y-16631031D01*
X6437253Y-16631031D02*
X6446777Y-16650079D01*
X6446777Y-16650079D02*
X6456301Y-16688174D01*
X6456301Y-16688174D02*
X6456301Y-16735793D01*
X6456301Y-16735793D02*
X6446777Y-16773888D01*
X6446777Y-16773888D02*
X6437253Y-16792936D01*
X6437253Y-16792936D02*
X6427729Y-16802460D01*
X6427729Y-16802460D02*
X6408682Y-16811984D01*
X6408682Y-16811984D02*
X6389634Y-16811984D01*
X6389634Y-16811984D02*
X6370586Y-16802460D01*
X6370586Y-16802460D02*
X6361063Y-16792936D01*
X6361063Y-16792936D02*
X6351539Y-16773888D01*
X6351539Y-16773888D02*
X6342015Y-16735793D01*
X6342015Y-16735793D02*
X6342015Y-16688174D01*
X6342015Y-16688174D02*
X6351539Y-16650079D01*
X6351539Y-16650079D02*
X6361063Y-16631031D01*
X6361063Y-16631031D02*
X6370586Y-16621508D01*
X6370586Y-16621508D02*
X6389634Y-16611984D01*
X6542015Y-16792936D02*
X6551539Y-16802460D01*
X6551539Y-16802460D02*
X6542015Y-16811984D01*
X6542015Y-16811984D02*
X6532491Y-16802460D01*
X6532491Y-16802460D02*
X6542015Y-16792936D01*
X6542015Y-16792936D02*
X6542015Y-16811984D01*
X6675348Y-16611984D02*
X6694396Y-16611984D01*
X6694396Y-16611984D02*
X6713444Y-16621508D01*
X6713444Y-16621508D02*
X6722967Y-16631031D01*
X6722967Y-16631031D02*
X6732491Y-16650079D01*
X6732491Y-16650079D02*
X6742015Y-16688174D01*
X6742015Y-16688174D02*
X6742015Y-16735793D01*
X6742015Y-16735793D02*
X6732491Y-16773888D01*
X6732491Y-16773888D02*
X6722967Y-16792936D01*
X6722967Y-16792936D02*
X6713444Y-16802460D01*
X6713444Y-16802460D02*
X6694396Y-16811984D01*
X6694396Y-16811984D02*
X6675348Y-16811984D01*
X6675348Y-16811984D02*
X6656301Y-16802460D01*
X6656301Y-16802460D02*
X6646777Y-16792936D01*
X6646777Y-16792936D02*
X6637253Y-16773888D01*
X6637253Y-16773888D02*
X6627729Y-16735793D01*
X6627729Y-16735793D02*
X6627729Y-16688174D01*
X6627729Y-16688174D02*
X6637253Y-16650079D01*
X6637253Y-16650079D02*
X6646777Y-16631031D01*
X6646777Y-16631031D02*
X6656301Y-16621508D01*
X6656301Y-16621508D02*
X6675348Y-16611984D01*
X6808682Y-16611984D02*
X6932491Y-16611984D01*
X6932491Y-16611984D02*
X6865825Y-16688174D01*
X6865825Y-16688174D02*
X6894396Y-16688174D01*
X6894396Y-16688174D02*
X6913444Y-16697698D01*
X6913444Y-16697698D02*
X6922967Y-16707222D01*
X6922967Y-16707222D02*
X6932491Y-16726269D01*
X6932491Y-16726269D02*
X6932491Y-16773888D01*
X6932491Y-16773888D02*
X6922967Y-16792936D01*
X6922967Y-16792936D02*
X6913444Y-16802460D01*
X6913444Y-16802460D02*
X6894396Y-16811984D01*
X6894396Y-16811984D02*
X6837253Y-16811984D01*
X6837253Y-16811984D02*
X6818206Y-16802460D01*
X6818206Y-16802460D02*
X6808682Y-16792936D01*
X7113444Y-16611984D02*
X7018206Y-16611984D01*
X7018206Y-16611984D02*
X7008682Y-16707222D01*
X7008682Y-16707222D02*
X7018206Y-16697698D01*
X7018206Y-16697698D02*
X7037253Y-16688174D01*
X7037253Y-16688174D02*
X7084872Y-16688174D01*
X7084872Y-16688174D02*
X7103920Y-16697698D01*
X7103920Y-16697698D02*
X7113444Y-16707222D01*
X7113444Y-16707222D02*
X7122967Y-16726269D01*
X7122967Y-16726269D02*
X7122967Y-16773888D01*
X7122967Y-16773888D02*
X7113444Y-16792936D01*
X7113444Y-16792936D02*
X7103920Y-16802460D01*
X7103920Y-16802460D02*
X7084872Y-16811984D01*
X7084872Y-16811984D02*
X7037253Y-16811984D01*
X7037253Y-16811984D02*
X7018206Y-16802460D01*
X7018206Y-16802460D02*
X7008682Y-16792936D01*
X7294396Y-16678650D02*
X7294396Y-16811984D01*
X7246777Y-16602460D02*
X7199158Y-16745317D01*
X7199158Y-16745317D02*
X7322967Y-16745317D01*
X7389634Y-16611984D02*
X7389634Y-16650079D01*
X7465825Y-16611984D02*
X7465825Y-16650079D01*
X7761063Y-16888174D02*
X7751539Y-16878650D01*
X7751539Y-16878650D02*
X7732491Y-16850079D01*
X7732491Y-16850079D02*
X7722968Y-16831031D01*
X7722968Y-16831031D02*
X7713444Y-16802460D01*
X7713444Y-16802460D02*
X7703920Y-16754841D01*
X7703920Y-16754841D02*
X7703920Y-16716746D01*
X7703920Y-16716746D02*
X7713444Y-16669127D01*
X7713444Y-16669127D02*
X7722968Y-16640555D01*
X7722968Y-16640555D02*
X7732491Y-16621508D01*
X7732491Y-16621508D02*
X7751539Y-16592936D01*
X7751539Y-16592936D02*
X7761063Y-16583412D01*
X7922968Y-16611984D02*
X7884872Y-16611984D01*
X7884872Y-16611984D02*
X7865825Y-16621508D01*
X7865825Y-16621508D02*
X7856301Y-16631031D01*
X7856301Y-16631031D02*
X7837253Y-16659603D01*
X7837253Y-16659603D02*
X7827729Y-16697698D01*
X7827729Y-16697698D02*
X7827729Y-16773888D01*
X7827729Y-16773888D02*
X7837253Y-16792936D01*
X7837253Y-16792936D02*
X7846777Y-16802460D01*
X7846777Y-16802460D02*
X7865825Y-16811984D01*
X7865825Y-16811984D02*
X7903920Y-16811984D01*
X7903920Y-16811984D02*
X7922968Y-16802460D01*
X7922968Y-16802460D02*
X7932491Y-16792936D01*
X7932491Y-16792936D02*
X7942015Y-16773888D01*
X7942015Y-16773888D02*
X7942015Y-16726269D01*
X7942015Y-16726269D02*
X7932491Y-16707222D01*
X7932491Y-16707222D02*
X7922968Y-16697698D01*
X7922968Y-16697698D02*
X7903920Y-16688174D01*
X7903920Y-16688174D02*
X7865825Y-16688174D01*
X7865825Y-16688174D02*
X7846777Y-16697698D01*
X7846777Y-16697698D02*
X7837253Y-16707222D01*
X7837253Y-16707222D02*
X7827729Y-16726269D01*
X8180110Y-16811984D02*
X8180110Y-16611984D01*
X8265825Y-16811984D02*
X8265825Y-16707222D01*
X8265825Y-16707222D02*
X8256301Y-16688174D01*
X8256301Y-16688174D02*
X8237253Y-16678650D01*
X8237253Y-16678650D02*
X8208682Y-16678650D01*
X8208682Y-16678650D02*
X8189634Y-16688174D01*
X8189634Y-16688174D02*
X8180110Y-16697698D01*
X8389634Y-16811984D02*
X8370587Y-16802460D01*
X8370587Y-16802460D02*
X8361063Y-16792936D01*
X8361063Y-16792936D02*
X8351539Y-16773888D01*
X8351539Y-16773888D02*
X8351539Y-16716746D01*
X8351539Y-16716746D02*
X8361063Y-16697698D01*
X8361063Y-16697698D02*
X8370587Y-16688174D01*
X8370587Y-16688174D02*
X8389634Y-16678650D01*
X8389634Y-16678650D02*
X8418206Y-16678650D01*
X8418206Y-16678650D02*
X8437253Y-16688174D01*
X8437253Y-16688174D02*
X8446777Y-16697698D01*
X8446777Y-16697698D02*
X8456301Y-16716746D01*
X8456301Y-16716746D02*
X8456301Y-16773888D01*
X8456301Y-16773888D02*
X8446777Y-16792936D01*
X8446777Y-16792936D02*
X8437253Y-16802460D01*
X8437253Y-16802460D02*
X8418206Y-16811984D01*
X8418206Y-16811984D02*
X8389634Y-16811984D01*
X8570587Y-16811984D02*
X8551539Y-16802460D01*
X8551539Y-16802460D02*
X8542015Y-16783412D01*
X8542015Y-16783412D02*
X8542015Y-16611984D01*
X8722968Y-16802460D02*
X8703920Y-16811984D01*
X8703920Y-16811984D02*
X8665825Y-16811984D01*
X8665825Y-16811984D02*
X8646777Y-16802460D01*
X8646777Y-16802460D02*
X8637253Y-16783412D01*
X8637253Y-16783412D02*
X8637253Y-16707222D01*
X8637253Y-16707222D02*
X8646777Y-16688174D01*
X8646777Y-16688174D02*
X8665825Y-16678650D01*
X8665825Y-16678650D02*
X8703920Y-16678650D01*
X8703920Y-16678650D02*
X8722968Y-16688174D01*
X8722968Y-16688174D02*
X8732492Y-16707222D01*
X8732492Y-16707222D02*
X8732492Y-16726269D01*
X8732492Y-16726269D02*
X8637253Y-16745317D01*
X8808682Y-16802460D02*
X8827730Y-16811984D01*
X8827730Y-16811984D02*
X8865825Y-16811984D01*
X8865825Y-16811984D02*
X8884873Y-16802460D01*
X8884873Y-16802460D02*
X8894396Y-16783412D01*
X8894396Y-16783412D02*
X8894396Y-16773888D01*
X8894396Y-16773888D02*
X8884873Y-16754841D01*
X8884873Y-16754841D02*
X8865825Y-16745317D01*
X8865825Y-16745317D02*
X8837253Y-16745317D01*
X8837253Y-16745317D02*
X8818206Y-16735793D01*
X8818206Y-16735793D02*
X8808682Y-16716746D01*
X8808682Y-16716746D02*
X8808682Y-16707222D01*
X8808682Y-16707222D02*
X8818206Y-16688174D01*
X8818206Y-16688174D02*
X8837253Y-16678650D01*
X8837253Y-16678650D02*
X8865825Y-16678650D01*
X8865825Y-16678650D02*
X8884873Y-16688174D01*
X8961063Y-16888174D02*
X8970587Y-16878650D01*
X8970587Y-16878650D02*
X8989634Y-16850079D01*
X8989634Y-16850079D02*
X8999158Y-16831031D01*
X8999158Y-16831031D02*
X9008682Y-16802460D01*
X9008682Y-16802460D02*
X9018206Y-16754841D01*
X9018206Y-16754841D02*
X9018206Y-16716746D01*
X9018206Y-16716746D02*
X9008682Y-16669127D01*
X9008682Y-16669127D02*
X8999158Y-16640555D01*
X8999158Y-16640555D02*
X8989634Y-16621508D01*
X8989634Y-16621508D02*
X8970587Y-16592936D01*
X8970587Y-16592936D02*
X8961063Y-16583412D01*
D10*
X4136000Y-16934500D02*
X4136000Y-17034500D01*
X4086000Y-16984500D02*
X4186000Y-16984500D01*
D11*
X4551539Y-17075984D02*
X4437253Y-17075984D01*
X4494396Y-17075984D02*
X4494396Y-16875984D01*
X4494396Y-16875984D02*
X4475348Y-16904555D01*
X4475348Y-16904555D02*
X4456301Y-16923603D01*
X4456301Y-16923603D02*
X4437253Y-16933127D01*
X4637253Y-17056936D02*
X4646777Y-17066460D01*
X4646777Y-17066460D02*
X4637253Y-17075984D01*
X4637253Y-17075984D02*
X4627729Y-17066460D01*
X4627729Y-17066460D02*
X4637253Y-17056936D01*
X4637253Y-17056936D02*
X4637253Y-17075984D01*
X4770586Y-16875984D02*
X4789634Y-16875984D01*
X4789634Y-16875984D02*
X4808682Y-16885508D01*
X4808682Y-16885508D02*
X4818205Y-16895031D01*
X4818205Y-16895031D02*
X4827729Y-16914079D01*
X4827729Y-16914079D02*
X4837253Y-16952174D01*
X4837253Y-16952174D02*
X4837253Y-16999793D01*
X4837253Y-16999793D02*
X4827729Y-17037889D01*
X4827729Y-17037889D02*
X4818205Y-17056936D01*
X4818205Y-17056936D02*
X4808682Y-17066460D01*
X4808682Y-17066460D02*
X4789634Y-17075984D01*
X4789634Y-17075984D02*
X4770586Y-17075984D01*
X4770586Y-17075984D02*
X4751539Y-17066460D01*
X4751539Y-17066460D02*
X4742015Y-17056936D01*
X4742015Y-17056936D02*
X4732491Y-17037889D01*
X4732491Y-17037889D02*
X4722967Y-16999793D01*
X4722967Y-16999793D02*
X4722967Y-16952174D01*
X4722967Y-16952174D02*
X4732491Y-16914079D01*
X4732491Y-16914079D02*
X4742015Y-16895031D01*
X4742015Y-16895031D02*
X4751539Y-16885508D01*
X4751539Y-16885508D02*
X4770586Y-16875984D01*
X4961063Y-16875984D02*
X4980110Y-16875984D01*
X4980110Y-16875984D02*
X4999158Y-16885508D01*
X4999158Y-16885508D02*
X5008682Y-16895031D01*
X5008682Y-16895031D02*
X5018205Y-16914079D01*
X5018205Y-16914079D02*
X5027729Y-16952174D01*
X5027729Y-16952174D02*
X5027729Y-16999793D01*
X5027729Y-16999793D02*
X5018205Y-17037889D01*
X5018205Y-17037889D02*
X5008682Y-17056936D01*
X5008682Y-17056936D02*
X4999158Y-17066460D01*
X4999158Y-17066460D02*
X4980110Y-17075984D01*
X4980110Y-17075984D02*
X4961063Y-17075984D01*
X4961063Y-17075984D02*
X4942015Y-17066460D01*
X4942015Y-17066460D02*
X4932491Y-17056936D01*
X4932491Y-17056936D02*
X4922967Y-17037889D01*
X4922967Y-17037889D02*
X4913444Y-16999793D01*
X4913444Y-16999793D02*
X4913444Y-16952174D01*
X4913444Y-16952174D02*
X4922967Y-16914079D01*
X4922967Y-16914079D02*
X4932491Y-16895031D01*
X4932491Y-16895031D02*
X4942015Y-16885508D01*
X4942015Y-16885508D02*
X4961063Y-16875984D01*
X5151539Y-16875984D02*
X5170586Y-16875984D01*
X5170586Y-16875984D02*
X5189634Y-16885508D01*
X5189634Y-16885508D02*
X5199158Y-16895031D01*
X5199158Y-16895031D02*
X5208682Y-16914079D01*
X5208682Y-16914079D02*
X5218205Y-16952174D01*
X5218205Y-16952174D02*
X5218205Y-16999793D01*
X5218205Y-16999793D02*
X5208682Y-17037889D01*
X5208682Y-17037889D02*
X5199158Y-17056936D01*
X5199158Y-17056936D02*
X5189634Y-17066460D01*
X5189634Y-17066460D02*
X5170586Y-17075984D01*
X5170586Y-17075984D02*
X5151539Y-17075984D01*
X5151539Y-17075984D02*
X5132491Y-17066460D01*
X5132491Y-17066460D02*
X5122967Y-17056936D01*
X5122967Y-17056936D02*
X5113444Y-17037889D01*
X5113444Y-17037889D02*
X5103920Y-16999793D01*
X5103920Y-16999793D02*
X5103920Y-16952174D01*
X5103920Y-16952174D02*
X5113444Y-16914079D01*
X5113444Y-16914079D02*
X5122967Y-16895031D01*
X5122967Y-16895031D02*
X5132491Y-16885508D01*
X5132491Y-16885508D02*
X5151539Y-16875984D01*
X5303920Y-17075984D02*
X5303920Y-16942650D01*
X5303920Y-16961698D02*
X5313444Y-16952174D01*
X5313444Y-16952174D02*
X5332491Y-16942650D01*
X5332491Y-16942650D02*
X5361063Y-16942650D01*
X5361063Y-16942650D02*
X5380110Y-16952174D01*
X5380110Y-16952174D02*
X5389634Y-16971222D01*
X5389634Y-16971222D02*
X5389634Y-17075984D01*
X5389634Y-16971222D02*
X5399158Y-16952174D01*
X5399158Y-16952174D02*
X5418205Y-16942650D01*
X5418205Y-16942650D02*
X5446777Y-16942650D01*
X5446777Y-16942650D02*
X5465825Y-16952174D01*
X5465825Y-16952174D02*
X5475348Y-16971222D01*
X5475348Y-16971222D02*
X5475348Y-17075984D01*
X5570586Y-17075984D02*
X5570586Y-16942650D01*
X5570586Y-16961698D02*
X5580110Y-16952174D01*
X5580110Y-16952174D02*
X5599158Y-16942650D01*
X5599158Y-16942650D02*
X5627729Y-16942650D01*
X5627729Y-16942650D02*
X5646777Y-16952174D01*
X5646777Y-16952174D02*
X5656301Y-16971222D01*
X5656301Y-16971222D02*
X5656301Y-17075984D01*
X5656301Y-16971222D02*
X5665824Y-16952174D01*
X5665824Y-16952174D02*
X5684872Y-16942650D01*
X5684872Y-16942650D02*
X5713443Y-16942650D01*
X5713443Y-16942650D02*
X5732491Y-16952174D01*
X5732491Y-16952174D02*
X5742015Y-16971222D01*
X5742015Y-16971222D02*
X5742015Y-17075984D01*
X6132491Y-16866460D02*
X5961063Y-17123603D01*
X6389634Y-16875984D02*
X6408682Y-16875984D01*
X6408682Y-16875984D02*
X6427729Y-16885508D01*
X6427729Y-16885508D02*
X6437253Y-16895031D01*
X6437253Y-16895031D02*
X6446777Y-16914079D01*
X6446777Y-16914079D02*
X6456301Y-16952174D01*
X6456301Y-16952174D02*
X6456301Y-16999793D01*
X6456301Y-16999793D02*
X6446777Y-17037889D01*
X6446777Y-17037889D02*
X6437253Y-17056936D01*
X6437253Y-17056936D02*
X6427729Y-17066460D01*
X6427729Y-17066460D02*
X6408682Y-17075984D01*
X6408682Y-17075984D02*
X6389634Y-17075984D01*
X6389634Y-17075984D02*
X6370586Y-17066460D01*
X6370586Y-17066460D02*
X6361063Y-17056936D01*
X6361063Y-17056936D02*
X6351539Y-17037889D01*
X6351539Y-17037889D02*
X6342015Y-16999793D01*
X6342015Y-16999793D02*
X6342015Y-16952174D01*
X6342015Y-16952174D02*
X6351539Y-16914079D01*
X6351539Y-16914079D02*
X6361063Y-16895031D01*
X6361063Y-16895031D02*
X6370586Y-16885508D01*
X6370586Y-16885508D02*
X6389634Y-16875984D01*
X6542015Y-17056936D02*
X6551539Y-17066460D01*
X6551539Y-17066460D02*
X6542015Y-17075984D01*
X6542015Y-17075984D02*
X6532491Y-17066460D01*
X6532491Y-17066460D02*
X6542015Y-17056936D01*
X6542015Y-17056936D02*
X6542015Y-17075984D01*
X6675348Y-16875984D02*
X6694396Y-16875984D01*
X6694396Y-16875984D02*
X6713444Y-16885508D01*
X6713444Y-16885508D02*
X6722967Y-16895031D01*
X6722967Y-16895031D02*
X6732491Y-16914079D01*
X6732491Y-16914079D02*
X6742015Y-16952174D01*
X6742015Y-16952174D02*
X6742015Y-16999793D01*
X6742015Y-16999793D02*
X6732491Y-17037889D01*
X6732491Y-17037889D02*
X6722967Y-17056936D01*
X6722967Y-17056936D02*
X6713444Y-17066460D01*
X6713444Y-17066460D02*
X6694396Y-17075984D01*
X6694396Y-17075984D02*
X6675348Y-17075984D01*
X6675348Y-17075984D02*
X6656301Y-17066460D01*
X6656301Y-17066460D02*
X6646777Y-17056936D01*
X6646777Y-17056936D02*
X6637253Y-17037889D01*
X6637253Y-17037889D02*
X6627729Y-16999793D01*
X6627729Y-16999793D02*
X6627729Y-16952174D01*
X6627729Y-16952174D02*
X6637253Y-16914079D01*
X6637253Y-16914079D02*
X6646777Y-16895031D01*
X6646777Y-16895031D02*
X6656301Y-16885508D01*
X6656301Y-16885508D02*
X6675348Y-16875984D01*
X6808682Y-16875984D02*
X6932491Y-16875984D01*
X6932491Y-16875984D02*
X6865825Y-16952174D01*
X6865825Y-16952174D02*
X6894396Y-16952174D01*
X6894396Y-16952174D02*
X6913444Y-16961698D01*
X6913444Y-16961698D02*
X6922967Y-16971222D01*
X6922967Y-16971222D02*
X6932491Y-16990270D01*
X6932491Y-16990270D02*
X6932491Y-17037889D01*
X6932491Y-17037889D02*
X6922967Y-17056936D01*
X6922967Y-17056936D02*
X6913444Y-17066460D01*
X6913444Y-17066460D02*
X6894396Y-17075984D01*
X6894396Y-17075984D02*
X6837253Y-17075984D01*
X6837253Y-17075984D02*
X6818206Y-17066460D01*
X6818206Y-17066460D02*
X6808682Y-17056936D01*
X7027729Y-17075984D02*
X7065825Y-17075984D01*
X7065825Y-17075984D02*
X7084872Y-17066460D01*
X7084872Y-17066460D02*
X7094396Y-17056936D01*
X7094396Y-17056936D02*
X7113444Y-17028365D01*
X7113444Y-17028365D02*
X7122967Y-16990270D01*
X7122967Y-16990270D02*
X7122967Y-16914079D01*
X7122967Y-16914079D02*
X7113444Y-16895031D01*
X7113444Y-16895031D02*
X7103920Y-16885508D01*
X7103920Y-16885508D02*
X7084872Y-16875984D01*
X7084872Y-16875984D02*
X7046777Y-16875984D01*
X7046777Y-16875984D02*
X7027729Y-16885508D01*
X7027729Y-16885508D02*
X7018206Y-16895031D01*
X7018206Y-16895031D02*
X7008682Y-16914079D01*
X7008682Y-16914079D02*
X7008682Y-16961698D01*
X7008682Y-16961698D02*
X7018206Y-16980746D01*
X7018206Y-16980746D02*
X7027729Y-16990270D01*
X7027729Y-16990270D02*
X7046777Y-16999793D01*
X7046777Y-16999793D02*
X7084872Y-16999793D01*
X7084872Y-16999793D02*
X7103920Y-16990270D01*
X7103920Y-16990270D02*
X7113444Y-16980746D01*
X7113444Y-16980746D02*
X7122967Y-16961698D01*
X7294396Y-16942650D02*
X7294396Y-17075984D01*
X7246777Y-16866460D02*
X7199158Y-17009317D01*
X7199158Y-17009317D02*
X7322967Y-17009317D01*
X7389634Y-16875984D02*
X7389634Y-16914079D01*
X7465825Y-16875984D02*
X7465825Y-16914079D01*
X7761063Y-17152174D02*
X7751539Y-17142650D01*
X7751539Y-17142650D02*
X7732491Y-17114079D01*
X7732491Y-17114079D02*
X7722968Y-17095031D01*
X7722968Y-17095031D02*
X7713444Y-17066460D01*
X7713444Y-17066460D02*
X7703920Y-17018841D01*
X7703920Y-17018841D02*
X7703920Y-16980746D01*
X7703920Y-16980746D02*
X7713444Y-16933127D01*
X7713444Y-16933127D02*
X7722968Y-16904555D01*
X7722968Y-16904555D02*
X7732491Y-16885508D01*
X7732491Y-16885508D02*
X7751539Y-16856936D01*
X7751539Y-16856936D02*
X7761063Y-16847412D01*
X7846777Y-17075984D02*
X7884872Y-17075984D01*
X7884872Y-17075984D02*
X7903920Y-17066460D01*
X7903920Y-17066460D02*
X7913444Y-17056936D01*
X7913444Y-17056936D02*
X7932491Y-17028365D01*
X7932491Y-17028365D02*
X7942015Y-16990270D01*
X7942015Y-16990270D02*
X7942015Y-16914079D01*
X7942015Y-16914079D02*
X7932491Y-16895031D01*
X7932491Y-16895031D02*
X7922968Y-16885508D01*
X7922968Y-16885508D02*
X7903920Y-16875984D01*
X7903920Y-16875984D02*
X7865825Y-16875984D01*
X7865825Y-16875984D02*
X7846777Y-16885508D01*
X7846777Y-16885508D02*
X7837253Y-16895031D01*
X7837253Y-16895031D02*
X7827729Y-16914079D01*
X7827729Y-16914079D02*
X7827729Y-16961698D01*
X7827729Y-16961698D02*
X7837253Y-16980746D01*
X7837253Y-16980746D02*
X7846777Y-16990270D01*
X7846777Y-16990270D02*
X7865825Y-16999793D01*
X7865825Y-16999793D02*
X7903920Y-16999793D01*
X7903920Y-16999793D02*
X7922968Y-16990270D01*
X7922968Y-16990270D02*
X7932491Y-16980746D01*
X7932491Y-16980746D02*
X7942015Y-16961698D01*
X8180110Y-17075984D02*
X8180110Y-16875984D01*
X8265825Y-17075984D02*
X8265825Y-16971222D01*
X8265825Y-16971222D02*
X8256301Y-16952174D01*
X8256301Y-16952174D02*
X8237253Y-16942650D01*
X8237253Y-16942650D02*
X8208682Y-16942650D01*
X8208682Y-16942650D02*
X8189634Y-16952174D01*
X8189634Y-16952174D02*
X8180110Y-16961698D01*
X8389634Y-17075984D02*
X8370587Y-17066460D01*
X8370587Y-17066460D02*
X8361063Y-17056936D01*
X8361063Y-17056936D02*
X8351539Y-17037889D01*
X8351539Y-17037889D02*
X8351539Y-16980746D01*
X8351539Y-16980746D02*
X8361063Y-16961698D01*
X8361063Y-16961698D02*
X8370587Y-16952174D01*
X8370587Y-16952174D02*
X8389634Y-16942650D01*
X8389634Y-16942650D02*
X8418206Y-16942650D01*
X8418206Y-16942650D02*
X8437253Y-16952174D01*
X8437253Y-16952174D02*
X8446777Y-16961698D01*
X8446777Y-16961698D02*
X8456301Y-16980746D01*
X8456301Y-16980746D02*
X8456301Y-17037889D01*
X8456301Y-17037889D02*
X8446777Y-17056936D01*
X8446777Y-17056936D02*
X8437253Y-17066460D01*
X8437253Y-17066460D02*
X8418206Y-17075984D01*
X8418206Y-17075984D02*
X8389634Y-17075984D01*
X8570587Y-17075984D02*
X8551539Y-17066460D01*
X8551539Y-17066460D02*
X8542015Y-17047412D01*
X8542015Y-17047412D02*
X8542015Y-16875984D01*
X8722968Y-17066460D02*
X8703920Y-17075984D01*
X8703920Y-17075984D02*
X8665825Y-17075984D01*
X8665825Y-17075984D02*
X8646777Y-17066460D01*
X8646777Y-17066460D02*
X8637253Y-17047412D01*
X8637253Y-17047412D02*
X8637253Y-16971222D01*
X8637253Y-16971222D02*
X8646777Y-16952174D01*
X8646777Y-16952174D02*
X8665825Y-16942650D01*
X8665825Y-16942650D02*
X8703920Y-16942650D01*
X8703920Y-16942650D02*
X8722968Y-16952174D01*
X8722968Y-16952174D02*
X8732492Y-16971222D01*
X8732492Y-16971222D02*
X8732492Y-16990270D01*
X8732492Y-16990270D02*
X8637253Y-17009317D01*
X8808682Y-17066460D02*
X8827730Y-17075984D01*
X8827730Y-17075984D02*
X8865825Y-17075984D01*
X8865825Y-17075984D02*
X8884873Y-17066460D01*
X8884873Y-17066460D02*
X8894396Y-17047412D01*
X8894396Y-17047412D02*
X8894396Y-17037889D01*
X8894396Y-17037889D02*
X8884873Y-17018841D01*
X8884873Y-17018841D02*
X8865825Y-17009317D01*
X8865825Y-17009317D02*
X8837253Y-17009317D01*
X8837253Y-17009317D02*
X8818206Y-16999793D01*
X8818206Y-16999793D02*
X8808682Y-16980746D01*
X8808682Y-16980746D02*
X8808682Y-16971222D01*
X8808682Y-16971222D02*
X8818206Y-16952174D01*
X8818206Y-16952174D02*
X8837253Y-16942650D01*
X8837253Y-16942650D02*
X8865825Y-16942650D01*
X8865825Y-16942650D02*
X8884873Y-16952174D01*
X8961063Y-17152174D02*
X8970587Y-17142650D01*
X8970587Y-17142650D02*
X8989634Y-17114079D01*
X8989634Y-17114079D02*
X8999158Y-17095031D01*
X8999158Y-17095031D02*
X9008682Y-17066460D01*
X9008682Y-17066460D02*
X9018206Y-17018841D01*
X9018206Y-17018841D02*
X9018206Y-16980746D01*
X9018206Y-16980746D02*
X9008682Y-16933127D01*
X9008682Y-16933127D02*
X8999158Y-16904555D01*
X8999158Y-16904555D02*
X8989634Y-16885508D01*
X8989634Y-16885508D02*
X8970587Y-16856936D01*
X8970587Y-16856936D02*
X8961063Y-16847412D01*
D12*
X4170623Y-17285624D02*
X4170623Y-17211377D01*
X4096376Y-17211377D01*
X4096376Y-17285624D01*
X4170623Y-17285624D01*
D11*
X4551539Y-17339984D02*
X4437253Y-17339984D01*
X4494396Y-17339984D02*
X4494396Y-17139984D01*
X4494396Y-17139984D02*
X4475348Y-17168555D01*
X4475348Y-17168555D02*
X4456301Y-17187603D01*
X4456301Y-17187603D02*
X4437253Y-17197127D01*
X4637253Y-17320936D02*
X4646777Y-17330460D01*
X4646777Y-17330460D02*
X4637253Y-17339984D01*
X4637253Y-17339984D02*
X4627729Y-17330460D01*
X4627729Y-17330460D02*
X4637253Y-17320936D01*
X4637253Y-17320936D02*
X4637253Y-17339984D01*
X4770586Y-17139984D02*
X4789634Y-17139984D01*
X4789634Y-17139984D02*
X4808682Y-17149508D01*
X4808682Y-17149508D02*
X4818205Y-17159031D01*
X4818205Y-17159031D02*
X4827729Y-17178079D01*
X4827729Y-17178079D02*
X4837253Y-17216174D01*
X4837253Y-17216174D02*
X4837253Y-17263793D01*
X4837253Y-17263793D02*
X4827729Y-17301889D01*
X4827729Y-17301889D02*
X4818205Y-17320936D01*
X4818205Y-17320936D02*
X4808682Y-17330460D01*
X4808682Y-17330460D02*
X4789634Y-17339984D01*
X4789634Y-17339984D02*
X4770586Y-17339984D01*
X4770586Y-17339984D02*
X4751539Y-17330460D01*
X4751539Y-17330460D02*
X4742015Y-17320936D01*
X4742015Y-17320936D02*
X4732491Y-17301889D01*
X4732491Y-17301889D02*
X4722967Y-17263793D01*
X4722967Y-17263793D02*
X4722967Y-17216174D01*
X4722967Y-17216174D02*
X4732491Y-17178079D01*
X4732491Y-17178079D02*
X4742015Y-17159031D01*
X4742015Y-17159031D02*
X4751539Y-17149508D01*
X4751539Y-17149508D02*
X4770586Y-17139984D01*
X5018205Y-17139984D02*
X4922967Y-17139984D01*
X4922967Y-17139984D02*
X4913444Y-17235222D01*
X4913444Y-17235222D02*
X4922967Y-17225698D01*
X4922967Y-17225698D02*
X4942015Y-17216174D01*
X4942015Y-17216174D02*
X4989634Y-17216174D01*
X4989634Y-17216174D02*
X5008682Y-17225698D01*
X5008682Y-17225698D02*
X5018205Y-17235222D01*
X5018205Y-17235222D02*
X5027729Y-17254270D01*
X5027729Y-17254270D02*
X5027729Y-17301889D01*
X5027729Y-17301889D02*
X5018205Y-17320936D01*
X5018205Y-17320936D02*
X5008682Y-17330460D01*
X5008682Y-17330460D02*
X4989634Y-17339984D01*
X4989634Y-17339984D02*
X4942015Y-17339984D01*
X4942015Y-17339984D02*
X4922967Y-17330460D01*
X4922967Y-17330460D02*
X4913444Y-17320936D01*
X5151539Y-17139984D02*
X5170586Y-17139984D01*
X5170586Y-17139984D02*
X5189634Y-17149508D01*
X5189634Y-17149508D02*
X5199158Y-17159031D01*
X5199158Y-17159031D02*
X5208682Y-17178079D01*
X5208682Y-17178079D02*
X5218205Y-17216174D01*
X5218205Y-17216174D02*
X5218205Y-17263793D01*
X5218205Y-17263793D02*
X5208682Y-17301889D01*
X5208682Y-17301889D02*
X5199158Y-17320936D01*
X5199158Y-17320936D02*
X5189634Y-17330460D01*
X5189634Y-17330460D02*
X5170586Y-17339984D01*
X5170586Y-17339984D02*
X5151539Y-17339984D01*
X5151539Y-17339984D02*
X5132491Y-17330460D01*
X5132491Y-17330460D02*
X5122967Y-17320936D01*
X5122967Y-17320936D02*
X5113444Y-17301889D01*
X5113444Y-17301889D02*
X5103920Y-17263793D01*
X5103920Y-17263793D02*
X5103920Y-17216174D01*
X5103920Y-17216174D02*
X5113444Y-17178079D01*
X5113444Y-17178079D02*
X5122967Y-17159031D01*
X5122967Y-17159031D02*
X5132491Y-17149508D01*
X5132491Y-17149508D02*
X5151539Y-17139984D01*
X5303920Y-17339984D02*
X5303920Y-17206650D01*
X5303920Y-17225698D02*
X5313444Y-17216174D01*
X5313444Y-17216174D02*
X5332491Y-17206650D01*
X5332491Y-17206650D02*
X5361063Y-17206650D01*
X5361063Y-17206650D02*
X5380110Y-17216174D01*
X5380110Y-17216174D02*
X5389634Y-17235222D01*
X5389634Y-17235222D02*
X5389634Y-17339984D01*
X5389634Y-17235222D02*
X5399158Y-17216174D01*
X5399158Y-17216174D02*
X5418205Y-17206650D01*
X5418205Y-17206650D02*
X5446777Y-17206650D01*
X5446777Y-17206650D02*
X5465825Y-17216174D01*
X5465825Y-17216174D02*
X5475348Y-17235222D01*
X5475348Y-17235222D02*
X5475348Y-17339984D01*
X5570586Y-17339984D02*
X5570586Y-17206650D01*
X5570586Y-17225698D02*
X5580110Y-17216174D01*
X5580110Y-17216174D02*
X5599158Y-17206650D01*
X5599158Y-17206650D02*
X5627729Y-17206650D01*
X5627729Y-17206650D02*
X5646777Y-17216174D01*
X5646777Y-17216174D02*
X5656301Y-17235222D01*
X5656301Y-17235222D02*
X5656301Y-17339984D01*
X5656301Y-17235222D02*
X5665824Y-17216174D01*
X5665824Y-17216174D02*
X5684872Y-17206650D01*
X5684872Y-17206650D02*
X5713443Y-17206650D01*
X5713443Y-17206650D02*
X5732491Y-17216174D01*
X5732491Y-17216174D02*
X5742015Y-17235222D01*
X5742015Y-17235222D02*
X5742015Y-17339984D01*
X6132491Y-17130460D02*
X5961063Y-17387603D01*
X6389634Y-17139984D02*
X6408682Y-17139984D01*
X6408682Y-17139984D02*
X6427729Y-17149508D01*
X6427729Y-17149508D02*
X6437253Y-17159031D01*
X6437253Y-17159031D02*
X6446777Y-17178079D01*
X6446777Y-17178079D02*
X6456301Y-17216174D01*
X6456301Y-17216174D02*
X6456301Y-17263793D01*
X6456301Y-17263793D02*
X6446777Y-17301889D01*
X6446777Y-17301889D02*
X6437253Y-17320936D01*
X6437253Y-17320936D02*
X6427729Y-17330460D01*
X6427729Y-17330460D02*
X6408682Y-17339984D01*
X6408682Y-17339984D02*
X6389634Y-17339984D01*
X6389634Y-17339984D02*
X6370586Y-17330460D01*
X6370586Y-17330460D02*
X6361063Y-17320936D01*
X6361063Y-17320936D02*
X6351539Y-17301889D01*
X6351539Y-17301889D02*
X6342015Y-17263793D01*
X6342015Y-17263793D02*
X6342015Y-17216174D01*
X6342015Y-17216174D02*
X6351539Y-17178079D01*
X6351539Y-17178079D02*
X6361063Y-17159031D01*
X6361063Y-17159031D02*
X6370586Y-17149508D01*
X6370586Y-17149508D02*
X6389634Y-17139984D01*
X6542015Y-17320936D02*
X6551539Y-17330460D01*
X6551539Y-17330460D02*
X6542015Y-17339984D01*
X6542015Y-17339984D02*
X6532491Y-17330460D01*
X6532491Y-17330460D02*
X6542015Y-17320936D01*
X6542015Y-17320936D02*
X6542015Y-17339984D01*
X6675348Y-17139984D02*
X6694396Y-17139984D01*
X6694396Y-17139984D02*
X6713444Y-17149508D01*
X6713444Y-17149508D02*
X6722967Y-17159031D01*
X6722967Y-17159031D02*
X6732491Y-17178079D01*
X6732491Y-17178079D02*
X6742015Y-17216174D01*
X6742015Y-17216174D02*
X6742015Y-17263793D01*
X6742015Y-17263793D02*
X6732491Y-17301889D01*
X6732491Y-17301889D02*
X6722967Y-17320936D01*
X6722967Y-17320936D02*
X6713444Y-17330460D01*
X6713444Y-17330460D02*
X6694396Y-17339984D01*
X6694396Y-17339984D02*
X6675348Y-17339984D01*
X6675348Y-17339984D02*
X6656301Y-17330460D01*
X6656301Y-17330460D02*
X6646777Y-17320936D01*
X6646777Y-17320936D02*
X6637253Y-17301889D01*
X6637253Y-17301889D02*
X6627729Y-17263793D01*
X6627729Y-17263793D02*
X6627729Y-17216174D01*
X6627729Y-17216174D02*
X6637253Y-17178079D01*
X6637253Y-17178079D02*
X6646777Y-17159031D01*
X6646777Y-17159031D02*
X6656301Y-17149508D01*
X6656301Y-17149508D02*
X6675348Y-17139984D01*
X6913444Y-17206650D02*
X6913444Y-17339984D01*
X6865825Y-17130460D02*
X6818206Y-17273317D01*
X6818206Y-17273317D02*
X6942015Y-17273317D01*
X7122967Y-17339984D02*
X7008682Y-17339984D01*
X7065825Y-17339984D02*
X7065825Y-17139984D01*
X7065825Y-17139984D02*
X7046777Y-17168555D01*
X7046777Y-17168555D02*
X7027729Y-17187603D01*
X7027729Y-17187603D02*
X7008682Y-17197127D01*
X7189634Y-17139984D02*
X7313444Y-17139984D01*
X7313444Y-17139984D02*
X7246777Y-17216174D01*
X7246777Y-17216174D02*
X7275348Y-17216174D01*
X7275348Y-17216174D02*
X7294396Y-17225698D01*
X7294396Y-17225698D02*
X7303920Y-17235222D01*
X7303920Y-17235222D02*
X7313444Y-17254270D01*
X7313444Y-17254270D02*
X7313444Y-17301889D01*
X7313444Y-17301889D02*
X7303920Y-17320936D01*
X7303920Y-17320936D02*
X7294396Y-17330460D01*
X7294396Y-17330460D02*
X7275348Y-17339984D01*
X7275348Y-17339984D02*
X7218206Y-17339984D01*
X7218206Y-17339984D02*
X7199158Y-17330460D01*
X7199158Y-17330460D02*
X7189634Y-17320936D01*
X7389634Y-17139984D02*
X7389634Y-17178079D01*
X7465825Y-17139984D02*
X7465825Y-17178079D01*
X7761063Y-17416174D02*
X7751539Y-17406650D01*
X7751539Y-17406650D02*
X7732491Y-17378079D01*
X7732491Y-17378079D02*
X7722968Y-17359031D01*
X7722968Y-17359031D02*
X7713444Y-17330460D01*
X7713444Y-17330460D02*
X7703920Y-17282841D01*
X7703920Y-17282841D02*
X7703920Y-17244746D01*
X7703920Y-17244746D02*
X7713444Y-17197127D01*
X7713444Y-17197127D02*
X7722968Y-17168555D01*
X7722968Y-17168555D02*
X7732491Y-17149508D01*
X7732491Y-17149508D02*
X7751539Y-17120936D01*
X7751539Y-17120936D02*
X7761063Y-17111412D01*
X7922968Y-17206650D02*
X7922968Y-17339984D01*
X7875348Y-17130460D02*
X7827729Y-17273317D01*
X7827729Y-17273317D02*
X7951539Y-17273317D01*
X8180110Y-17339984D02*
X8180110Y-17139984D01*
X8265825Y-17339984D02*
X8265825Y-17235222D01*
X8265825Y-17235222D02*
X8256301Y-17216174D01*
X8256301Y-17216174D02*
X8237253Y-17206650D01*
X8237253Y-17206650D02*
X8208682Y-17206650D01*
X8208682Y-17206650D02*
X8189634Y-17216174D01*
X8189634Y-17216174D02*
X8180110Y-17225698D01*
X8389634Y-17339984D02*
X8370587Y-17330460D01*
X8370587Y-17330460D02*
X8361063Y-17320936D01*
X8361063Y-17320936D02*
X8351539Y-17301889D01*
X8351539Y-17301889D02*
X8351539Y-17244746D01*
X8351539Y-17244746D02*
X8361063Y-17225698D01*
X8361063Y-17225698D02*
X8370587Y-17216174D01*
X8370587Y-17216174D02*
X8389634Y-17206650D01*
X8389634Y-17206650D02*
X8418206Y-17206650D01*
X8418206Y-17206650D02*
X8437253Y-17216174D01*
X8437253Y-17216174D02*
X8446777Y-17225698D01*
X8446777Y-17225698D02*
X8456301Y-17244746D01*
X8456301Y-17244746D02*
X8456301Y-17301889D01*
X8456301Y-17301889D02*
X8446777Y-17320936D01*
X8446777Y-17320936D02*
X8437253Y-17330460D01*
X8437253Y-17330460D02*
X8418206Y-17339984D01*
X8418206Y-17339984D02*
X8389634Y-17339984D01*
X8570587Y-17339984D02*
X8551539Y-17330460D01*
X8551539Y-17330460D02*
X8542015Y-17311412D01*
X8542015Y-17311412D02*
X8542015Y-17139984D01*
X8722968Y-17330460D02*
X8703920Y-17339984D01*
X8703920Y-17339984D02*
X8665825Y-17339984D01*
X8665825Y-17339984D02*
X8646777Y-17330460D01*
X8646777Y-17330460D02*
X8637253Y-17311412D01*
X8637253Y-17311412D02*
X8637253Y-17235222D01*
X8637253Y-17235222D02*
X8646777Y-17216174D01*
X8646777Y-17216174D02*
X8665825Y-17206650D01*
X8665825Y-17206650D02*
X8703920Y-17206650D01*
X8703920Y-17206650D02*
X8722968Y-17216174D01*
X8722968Y-17216174D02*
X8732492Y-17235222D01*
X8732492Y-17235222D02*
X8732492Y-17254270D01*
X8732492Y-17254270D02*
X8637253Y-17273317D01*
X8808682Y-17330460D02*
X8827730Y-17339984D01*
X8827730Y-17339984D02*
X8865825Y-17339984D01*
X8865825Y-17339984D02*
X8884873Y-17330460D01*
X8884873Y-17330460D02*
X8894396Y-17311412D01*
X8894396Y-17311412D02*
X8894396Y-17301889D01*
X8894396Y-17301889D02*
X8884873Y-17282841D01*
X8884873Y-17282841D02*
X8865825Y-17273317D01*
X8865825Y-17273317D02*
X8837253Y-17273317D01*
X8837253Y-17273317D02*
X8818206Y-17263793D01*
X8818206Y-17263793D02*
X8808682Y-17244746D01*
X8808682Y-17244746D02*
X8808682Y-17235222D01*
X8808682Y-17235222D02*
X8818206Y-17216174D01*
X8818206Y-17216174D02*
X8837253Y-17206650D01*
X8837253Y-17206650D02*
X8865825Y-17206650D01*
X8865825Y-17206650D02*
X8884873Y-17216174D01*
X8961063Y-17416174D02*
X8970587Y-17406650D01*
X8970587Y-17406650D02*
X8989634Y-17378079D01*
X8989634Y-17378079D02*
X8999158Y-17359031D01*
X8999158Y-17359031D02*
X9008682Y-17330460D01*
X9008682Y-17330460D02*
X9018206Y-17282841D01*
X9018206Y-17282841D02*
X9018206Y-17244746D01*
X9018206Y-17244746D02*
X9008682Y-17197127D01*
X9008682Y-17197127D02*
X8999158Y-17168555D01*
X8999158Y-17168555D02*
X8989634Y-17149508D01*
X8989634Y-17149508D02*
X8970587Y-17120936D01*
X8970587Y-17120936D02*
X8961063Y-17111412D01*
D13*
X4123500Y-17575000D02*
X4186000Y-17512500D01*
X4123500Y-17450000D01*
X4061000Y-17512500D01*
X4123500Y-17575000D01*
D11*
X4551539Y-17603984D02*
X4437253Y-17603984D01*
X4494396Y-17603984D02*
X4494396Y-17403984D01*
X4494396Y-17403984D02*
X4475348Y-17432555D01*
X4475348Y-17432555D02*
X4456301Y-17451603D01*
X4456301Y-17451603D02*
X4437253Y-17461127D01*
X4637253Y-17584936D02*
X4646777Y-17594460D01*
X4646777Y-17594460D02*
X4637253Y-17603984D01*
X4637253Y-17603984D02*
X4627729Y-17594460D01*
X4627729Y-17594460D02*
X4637253Y-17584936D01*
X4637253Y-17584936D02*
X4637253Y-17603984D01*
X4722967Y-17423031D02*
X4732491Y-17413508D01*
X4732491Y-17413508D02*
X4751539Y-17403984D01*
X4751539Y-17403984D02*
X4799158Y-17403984D01*
X4799158Y-17403984D02*
X4818205Y-17413508D01*
X4818205Y-17413508D02*
X4827729Y-17423031D01*
X4827729Y-17423031D02*
X4837253Y-17442079D01*
X4837253Y-17442079D02*
X4837253Y-17461127D01*
X4837253Y-17461127D02*
X4827729Y-17489698D01*
X4827729Y-17489698D02*
X4713444Y-17603984D01*
X4713444Y-17603984D02*
X4837253Y-17603984D01*
X5018205Y-17403984D02*
X4922967Y-17403984D01*
X4922967Y-17403984D02*
X4913444Y-17499222D01*
X4913444Y-17499222D02*
X4922967Y-17489698D01*
X4922967Y-17489698D02*
X4942015Y-17480174D01*
X4942015Y-17480174D02*
X4989634Y-17480174D01*
X4989634Y-17480174D02*
X5008682Y-17489698D01*
X5008682Y-17489698D02*
X5018205Y-17499222D01*
X5018205Y-17499222D02*
X5027729Y-17518270D01*
X5027729Y-17518270D02*
X5027729Y-17565889D01*
X5027729Y-17565889D02*
X5018205Y-17584936D01*
X5018205Y-17584936D02*
X5008682Y-17594460D01*
X5008682Y-17594460D02*
X4989634Y-17603984D01*
X4989634Y-17603984D02*
X4942015Y-17603984D01*
X4942015Y-17603984D02*
X4922967Y-17594460D01*
X4922967Y-17594460D02*
X4913444Y-17584936D01*
X5151539Y-17403984D02*
X5170586Y-17403984D01*
X5170586Y-17403984D02*
X5189634Y-17413508D01*
X5189634Y-17413508D02*
X5199158Y-17423031D01*
X5199158Y-17423031D02*
X5208682Y-17442079D01*
X5208682Y-17442079D02*
X5218205Y-17480174D01*
X5218205Y-17480174D02*
X5218205Y-17527793D01*
X5218205Y-17527793D02*
X5208682Y-17565889D01*
X5208682Y-17565889D02*
X5199158Y-17584936D01*
X5199158Y-17584936D02*
X5189634Y-17594460D01*
X5189634Y-17594460D02*
X5170586Y-17603984D01*
X5170586Y-17603984D02*
X5151539Y-17603984D01*
X5151539Y-17603984D02*
X5132491Y-17594460D01*
X5132491Y-17594460D02*
X5122967Y-17584936D01*
X5122967Y-17584936D02*
X5113444Y-17565889D01*
X5113444Y-17565889D02*
X5103920Y-17527793D01*
X5103920Y-17527793D02*
X5103920Y-17480174D01*
X5103920Y-17480174D02*
X5113444Y-17442079D01*
X5113444Y-17442079D02*
X5122967Y-17423031D01*
X5122967Y-17423031D02*
X5132491Y-17413508D01*
X5132491Y-17413508D02*
X5151539Y-17403984D01*
X5303920Y-17603984D02*
X5303920Y-17470650D01*
X5303920Y-17489698D02*
X5313444Y-17480174D01*
X5313444Y-17480174D02*
X5332491Y-17470650D01*
X5332491Y-17470650D02*
X5361063Y-17470650D01*
X5361063Y-17470650D02*
X5380110Y-17480174D01*
X5380110Y-17480174D02*
X5389634Y-17499222D01*
X5389634Y-17499222D02*
X5389634Y-17603984D01*
X5389634Y-17499222D02*
X5399158Y-17480174D01*
X5399158Y-17480174D02*
X5418205Y-17470650D01*
X5418205Y-17470650D02*
X5446777Y-17470650D01*
X5446777Y-17470650D02*
X5465825Y-17480174D01*
X5465825Y-17480174D02*
X5475348Y-17499222D01*
X5475348Y-17499222D02*
X5475348Y-17603984D01*
X5570586Y-17603984D02*
X5570586Y-17470650D01*
X5570586Y-17489698D02*
X5580110Y-17480174D01*
X5580110Y-17480174D02*
X5599158Y-17470650D01*
X5599158Y-17470650D02*
X5627729Y-17470650D01*
X5627729Y-17470650D02*
X5646777Y-17480174D01*
X5646777Y-17480174D02*
X5656301Y-17499222D01*
X5656301Y-17499222D02*
X5656301Y-17603984D01*
X5656301Y-17499222D02*
X5665824Y-17480174D01*
X5665824Y-17480174D02*
X5684872Y-17470650D01*
X5684872Y-17470650D02*
X5713443Y-17470650D01*
X5713443Y-17470650D02*
X5732491Y-17480174D01*
X5732491Y-17480174D02*
X5742015Y-17499222D01*
X5742015Y-17499222D02*
X5742015Y-17603984D01*
X6132491Y-17394460D02*
X5961063Y-17651603D01*
X6389634Y-17403984D02*
X6408682Y-17403984D01*
X6408682Y-17403984D02*
X6427729Y-17413508D01*
X6427729Y-17413508D02*
X6437253Y-17423031D01*
X6437253Y-17423031D02*
X6446777Y-17442079D01*
X6446777Y-17442079D02*
X6456301Y-17480174D01*
X6456301Y-17480174D02*
X6456301Y-17527793D01*
X6456301Y-17527793D02*
X6446777Y-17565889D01*
X6446777Y-17565889D02*
X6437253Y-17584936D01*
X6437253Y-17584936D02*
X6427729Y-17594460D01*
X6427729Y-17594460D02*
X6408682Y-17603984D01*
X6408682Y-17603984D02*
X6389634Y-17603984D01*
X6389634Y-17603984D02*
X6370586Y-17594460D01*
X6370586Y-17594460D02*
X6361063Y-17584936D01*
X6361063Y-17584936D02*
X6351539Y-17565889D01*
X6351539Y-17565889D02*
X6342015Y-17527793D01*
X6342015Y-17527793D02*
X6342015Y-17480174D01*
X6342015Y-17480174D02*
X6351539Y-17442079D01*
X6351539Y-17442079D02*
X6361063Y-17423031D01*
X6361063Y-17423031D02*
X6370586Y-17413508D01*
X6370586Y-17413508D02*
X6389634Y-17403984D01*
X6542015Y-17584936D02*
X6551539Y-17594460D01*
X6551539Y-17594460D02*
X6542015Y-17603984D01*
X6542015Y-17603984D02*
X6532491Y-17594460D01*
X6532491Y-17594460D02*
X6542015Y-17584936D01*
X6542015Y-17584936D02*
X6542015Y-17603984D01*
X6675348Y-17403984D02*
X6694396Y-17403984D01*
X6694396Y-17403984D02*
X6713444Y-17413508D01*
X6713444Y-17413508D02*
X6722967Y-17423031D01*
X6722967Y-17423031D02*
X6732491Y-17442079D01*
X6732491Y-17442079D02*
X6742015Y-17480174D01*
X6742015Y-17480174D02*
X6742015Y-17527793D01*
X6742015Y-17527793D02*
X6732491Y-17565889D01*
X6732491Y-17565889D02*
X6722967Y-17584936D01*
X6722967Y-17584936D02*
X6713444Y-17594460D01*
X6713444Y-17594460D02*
X6694396Y-17603984D01*
X6694396Y-17603984D02*
X6675348Y-17603984D01*
X6675348Y-17603984D02*
X6656301Y-17594460D01*
X6656301Y-17594460D02*
X6646777Y-17584936D01*
X6646777Y-17584936D02*
X6637253Y-17565889D01*
X6637253Y-17565889D02*
X6627729Y-17527793D01*
X6627729Y-17527793D02*
X6627729Y-17480174D01*
X6627729Y-17480174D02*
X6637253Y-17442079D01*
X6637253Y-17442079D02*
X6646777Y-17423031D01*
X6646777Y-17423031D02*
X6656301Y-17413508D01*
X6656301Y-17413508D02*
X6675348Y-17403984D01*
X6913444Y-17470650D02*
X6913444Y-17603984D01*
X6865825Y-17394460D02*
X6818206Y-17537317D01*
X6818206Y-17537317D02*
X6942015Y-17537317D01*
X7027729Y-17603984D02*
X7065825Y-17603984D01*
X7065825Y-17603984D02*
X7084872Y-17594460D01*
X7084872Y-17594460D02*
X7094396Y-17584936D01*
X7094396Y-17584936D02*
X7113444Y-17556365D01*
X7113444Y-17556365D02*
X7122967Y-17518270D01*
X7122967Y-17518270D02*
X7122967Y-17442079D01*
X7122967Y-17442079D02*
X7113444Y-17423031D01*
X7113444Y-17423031D02*
X7103920Y-17413508D01*
X7103920Y-17413508D02*
X7084872Y-17403984D01*
X7084872Y-17403984D02*
X7046777Y-17403984D01*
X7046777Y-17403984D02*
X7027729Y-17413508D01*
X7027729Y-17413508D02*
X7018206Y-17423031D01*
X7018206Y-17423031D02*
X7008682Y-17442079D01*
X7008682Y-17442079D02*
X7008682Y-17489698D01*
X7008682Y-17489698D02*
X7018206Y-17508746D01*
X7018206Y-17508746D02*
X7027729Y-17518270D01*
X7027729Y-17518270D02*
X7046777Y-17527793D01*
X7046777Y-17527793D02*
X7084872Y-17527793D01*
X7084872Y-17527793D02*
X7103920Y-17518270D01*
X7103920Y-17518270D02*
X7113444Y-17508746D01*
X7113444Y-17508746D02*
X7122967Y-17489698D01*
X7199158Y-17423031D02*
X7208682Y-17413508D01*
X7208682Y-17413508D02*
X7227729Y-17403984D01*
X7227729Y-17403984D02*
X7275348Y-17403984D01*
X7275348Y-17403984D02*
X7294396Y-17413508D01*
X7294396Y-17413508D02*
X7303920Y-17423031D01*
X7303920Y-17423031D02*
X7313444Y-17442079D01*
X7313444Y-17442079D02*
X7313444Y-17461127D01*
X7313444Y-17461127D02*
X7303920Y-17489698D01*
X7303920Y-17489698D02*
X7189634Y-17603984D01*
X7189634Y-17603984D02*
X7313444Y-17603984D01*
X7389634Y-17403984D02*
X7389634Y-17442079D01*
X7465825Y-17403984D02*
X7465825Y-17442079D01*
X7761063Y-17680174D02*
X7751539Y-17670650D01*
X7751539Y-17670650D02*
X7732491Y-17642079D01*
X7732491Y-17642079D02*
X7722968Y-17623031D01*
X7722968Y-17623031D02*
X7713444Y-17594460D01*
X7713444Y-17594460D02*
X7703920Y-17546841D01*
X7703920Y-17546841D02*
X7703920Y-17508746D01*
X7703920Y-17508746D02*
X7713444Y-17461127D01*
X7713444Y-17461127D02*
X7722968Y-17432555D01*
X7722968Y-17432555D02*
X7732491Y-17413508D01*
X7732491Y-17413508D02*
X7751539Y-17384936D01*
X7751539Y-17384936D02*
X7761063Y-17375412D01*
X7942015Y-17603984D02*
X7827729Y-17603984D01*
X7884872Y-17603984D02*
X7884872Y-17403984D01*
X7884872Y-17403984D02*
X7865825Y-17432555D01*
X7865825Y-17432555D02*
X7846777Y-17451603D01*
X7846777Y-17451603D02*
X7827729Y-17461127D01*
X8018206Y-17423031D02*
X8027729Y-17413508D01*
X8027729Y-17413508D02*
X8046777Y-17403984D01*
X8046777Y-17403984D02*
X8094396Y-17403984D01*
X8094396Y-17403984D02*
X8113444Y-17413508D01*
X8113444Y-17413508D02*
X8122968Y-17423031D01*
X8122968Y-17423031D02*
X8132491Y-17442079D01*
X8132491Y-17442079D02*
X8132491Y-17461127D01*
X8132491Y-17461127D02*
X8122968Y-17489698D01*
X8122968Y-17489698D02*
X8008682Y-17603984D01*
X8008682Y-17603984D02*
X8132491Y-17603984D01*
X8370587Y-17603984D02*
X8370587Y-17403984D01*
X8456301Y-17603984D02*
X8456301Y-17499222D01*
X8456301Y-17499222D02*
X8446777Y-17480174D01*
X8446777Y-17480174D02*
X8427730Y-17470650D01*
X8427730Y-17470650D02*
X8399158Y-17470650D01*
X8399158Y-17470650D02*
X8380110Y-17480174D01*
X8380110Y-17480174D02*
X8370587Y-17489698D01*
X8580111Y-17603984D02*
X8561063Y-17594460D01*
X8561063Y-17594460D02*
X8551539Y-17584936D01*
X8551539Y-17584936D02*
X8542015Y-17565889D01*
X8542015Y-17565889D02*
X8542015Y-17508746D01*
X8542015Y-17508746D02*
X8551539Y-17489698D01*
X8551539Y-17489698D02*
X8561063Y-17480174D01*
X8561063Y-17480174D02*
X8580111Y-17470650D01*
X8580111Y-17470650D02*
X8608682Y-17470650D01*
X8608682Y-17470650D02*
X8627730Y-17480174D01*
X8627730Y-17480174D02*
X8637253Y-17489698D01*
X8637253Y-17489698D02*
X8646777Y-17508746D01*
X8646777Y-17508746D02*
X8646777Y-17565889D01*
X8646777Y-17565889D02*
X8637253Y-17584936D01*
X8637253Y-17584936D02*
X8627730Y-17594460D01*
X8627730Y-17594460D02*
X8608682Y-17603984D01*
X8608682Y-17603984D02*
X8580111Y-17603984D01*
X8761063Y-17603984D02*
X8742015Y-17594460D01*
X8742015Y-17594460D02*
X8732492Y-17575412D01*
X8732492Y-17575412D02*
X8732492Y-17403984D01*
X8913444Y-17594460D02*
X8894396Y-17603984D01*
X8894396Y-17603984D02*
X8856301Y-17603984D01*
X8856301Y-17603984D02*
X8837253Y-17594460D01*
X8837253Y-17594460D02*
X8827730Y-17575412D01*
X8827730Y-17575412D02*
X8827730Y-17499222D01*
X8827730Y-17499222D02*
X8837253Y-17480174D01*
X8837253Y-17480174D02*
X8856301Y-17470650D01*
X8856301Y-17470650D02*
X8894396Y-17470650D01*
X8894396Y-17470650D02*
X8913444Y-17480174D01*
X8913444Y-17480174D02*
X8922968Y-17499222D01*
X8922968Y-17499222D02*
X8922968Y-17518270D01*
X8922968Y-17518270D02*
X8827730Y-17537317D01*
X8999158Y-17594460D02*
X9018206Y-17603984D01*
X9018206Y-17603984D02*
X9056301Y-17603984D01*
X9056301Y-17603984D02*
X9075349Y-17594460D01*
X9075349Y-17594460D02*
X9084873Y-17575412D01*
X9084873Y-17575412D02*
X9084873Y-17565889D01*
X9084873Y-17565889D02*
X9075349Y-17546841D01*
X9075349Y-17546841D02*
X9056301Y-17537317D01*
X9056301Y-17537317D02*
X9027730Y-17537317D01*
X9027730Y-17537317D02*
X9008682Y-17527793D01*
X9008682Y-17527793D02*
X8999158Y-17508746D01*
X8999158Y-17508746D02*
X8999158Y-17499222D01*
X8999158Y-17499222D02*
X9008682Y-17480174D01*
X9008682Y-17480174D02*
X9027730Y-17470650D01*
X9027730Y-17470650D02*
X9056301Y-17470650D01*
X9056301Y-17470650D02*
X9075349Y-17480174D01*
X9151539Y-17680174D02*
X9161063Y-17670650D01*
X9161063Y-17670650D02*
X9180111Y-17642079D01*
X9180111Y-17642079D02*
X9189634Y-17623031D01*
X9189634Y-17623031D02*
X9199158Y-17594460D01*
X9199158Y-17594460D02*
X9208682Y-17546841D01*
X9208682Y-17546841D02*
X9208682Y-17508746D01*
X9208682Y-17508746D02*
X9199158Y-17461127D01*
X9199158Y-17461127D02*
X9189634Y-17432555D01*
X9189634Y-17432555D02*
X9180111Y-17413508D01*
X9180111Y-17413508D02*
X9161063Y-17384936D01*
X9161063Y-17384936D02*
X9151539Y-17375412D01*
D14*
X4056000Y-17711500D02*
X4186000Y-17841500D01*
X4186000Y-17711500D02*
X4056000Y-17841500D01*
X4186000Y-17776500D02*
G75*
G03*
X4186000Y-17776500I-65000J0D01*
G01*
D11*
X4551539Y-17867984D02*
X4437253Y-17867984D01*
X4494396Y-17867984D02*
X4494396Y-17667984D01*
X4494396Y-17667984D02*
X4475348Y-17696555D01*
X4475348Y-17696555D02*
X4456301Y-17715603D01*
X4456301Y-17715603D02*
X4437253Y-17725127D01*
X4637253Y-17848936D02*
X4646777Y-17858460D01*
X4646777Y-17858460D02*
X4637253Y-17867984D01*
X4637253Y-17867984D02*
X4627729Y-17858460D01*
X4627729Y-17858460D02*
X4637253Y-17848936D01*
X4637253Y-17848936D02*
X4637253Y-17867984D01*
X4713444Y-17667984D02*
X4837253Y-17667984D01*
X4837253Y-17667984D02*
X4770586Y-17744174D01*
X4770586Y-17744174D02*
X4799158Y-17744174D01*
X4799158Y-17744174D02*
X4818205Y-17753698D01*
X4818205Y-17753698D02*
X4827729Y-17763222D01*
X4827729Y-17763222D02*
X4837253Y-17782270D01*
X4837253Y-17782270D02*
X4837253Y-17829889D01*
X4837253Y-17829889D02*
X4827729Y-17848936D01*
X4827729Y-17848936D02*
X4818205Y-17858460D01*
X4818205Y-17858460D02*
X4799158Y-17867984D01*
X4799158Y-17867984D02*
X4742015Y-17867984D01*
X4742015Y-17867984D02*
X4722967Y-17858460D01*
X4722967Y-17858460D02*
X4713444Y-17848936D01*
X4961063Y-17667984D02*
X4980110Y-17667984D01*
X4980110Y-17667984D02*
X4999158Y-17677508D01*
X4999158Y-17677508D02*
X5008682Y-17687031D01*
X5008682Y-17687031D02*
X5018205Y-17706079D01*
X5018205Y-17706079D02*
X5027729Y-17744174D01*
X5027729Y-17744174D02*
X5027729Y-17791793D01*
X5027729Y-17791793D02*
X5018205Y-17829889D01*
X5018205Y-17829889D02*
X5008682Y-17848936D01*
X5008682Y-17848936D02*
X4999158Y-17858460D01*
X4999158Y-17858460D02*
X4980110Y-17867984D01*
X4980110Y-17867984D02*
X4961063Y-17867984D01*
X4961063Y-17867984D02*
X4942015Y-17858460D01*
X4942015Y-17858460D02*
X4932491Y-17848936D01*
X4932491Y-17848936D02*
X4922967Y-17829889D01*
X4922967Y-17829889D02*
X4913444Y-17791793D01*
X4913444Y-17791793D02*
X4913444Y-17744174D01*
X4913444Y-17744174D02*
X4922967Y-17706079D01*
X4922967Y-17706079D02*
X4932491Y-17687031D01*
X4932491Y-17687031D02*
X4942015Y-17677508D01*
X4942015Y-17677508D02*
X4961063Y-17667984D01*
X5151539Y-17667984D02*
X5170586Y-17667984D01*
X5170586Y-17667984D02*
X5189634Y-17677508D01*
X5189634Y-17677508D02*
X5199158Y-17687031D01*
X5199158Y-17687031D02*
X5208682Y-17706079D01*
X5208682Y-17706079D02*
X5218205Y-17744174D01*
X5218205Y-17744174D02*
X5218205Y-17791793D01*
X5218205Y-17791793D02*
X5208682Y-17829889D01*
X5208682Y-17829889D02*
X5199158Y-17848936D01*
X5199158Y-17848936D02*
X5189634Y-17858460D01*
X5189634Y-17858460D02*
X5170586Y-17867984D01*
X5170586Y-17867984D02*
X5151539Y-17867984D01*
X5151539Y-17867984D02*
X5132491Y-17858460D01*
X5132491Y-17858460D02*
X5122967Y-17848936D01*
X5122967Y-17848936D02*
X5113444Y-17829889D01*
X5113444Y-17829889D02*
X5103920Y-17791793D01*
X5103920Y-17791793D02*
X5103920Y-17744174D01*
X5103920Y-17744174D02*
X5113444Y-17706079D01*
X5113444Y-17706079D02*
X5122967Y-17687031D01*
X5122967Y-17687031D02*
X5132491Y-17677508D01*
X5132491Y-17677508D02*
X5151539Y-17667984D01*
X5303920Y-17867984D02*
X5303920Y-17734650D01*
X5303920Y-17753698D02*
X5313444Y-17744174D01*
X5313444Y-17744174D02*
X5332491Y-17734650D01*
X5332491Y-17734650D02*
X5361063Y-17734650D01*
X5361063Y-17734650D02*
X5380110Y-17744174D01*
X5380110Y-17744174D02*
X5389634Y-17763222D01*
X5389634Y-17763222D02*
X5389634Y-17867984D01*
X5389634Y-17763222D02*
X5399158Y-17744174D01*
X5399158Y-17744174D02*
X5418205Y-17734650D01*
X5418205Y-17734650D02*
X5446777Y-17734650D01*
X5446777Y-17734650D02*
X5465825Y-17744174D01*
X5465825Y-17744174D02*
X5475348Y-17763222D01*
X5475348Y-17763222D02*
X5475348Y-17867984D01*
X5570586Y-17867984D02*
X5570586Y-17734650D01*
X5570586Y-17753698D02*
X5580110Y-17744174D01*
X5580110Y-17744174D02*
X5599158Y-17734650D01*
X5599158Y-17734650D02*
X5627729Y-17734650D01*
X5627729Y-17734650D02*
X5646777Y-17744174D01*
X5646777Y-17744174D02*
X5656301Y-17763222D01*
X5656301Y-17763222D02*
X5656301Y-17867984D01*
X5656301Y-17763222D02*
X5665824Y-17744174D01*
X5665824Y-17744174D02*
X5684872Y-17734650D01*
X5684872Y-17734650D02*
X5713443Y-17734650D01*
X5713443Y-17734650D02*
X5732491Y-17744174D01*
X5732491Y-17744174D02*
X5742015Y-17763222D01*
X5742015Y-17763222D02*
X5742015Y-17867984D01*
X6132491Y-17658460D02*
X5961063Y-17915603D01*
X6389634Y-17667984D02*
X6408682Y-17667984D01*
X6408682Y-17667984D02*
X6427729Y-17677508D01*
X6427729Y-17677508D02*
X6437253Y-17687031D01*
X6437253Y-17687031D02*
X6446777Y-17706079D01*
X6446777Y-17706079D02*
X6456301Y-17744174D01*
X6456301Y-17744174D02*
X6456301Y-17791793D01*
X6456301Y-17791793D02*
X6446777Y-17829889D01*
X6446777Y-17829889D02*
X6437253Y-17848936D01*
X6437253Y-17848936D02*
X6427729Y-17858460D01*
X6427729Y-17858460D02*
X6408682Y-17867984D01*
X6408682Y-17867984D02*
X6389634Y-17867984D01*
X6389634Y-17867984D02*
X6370586Y-17858460D01*
X6370586Y-17858460D02*
X6361063Y-17848936D01*
X6361063Y-17848936D02*
X6351539Y-17829889D01*
X6351539Y-17829889D02*
X6342015Y-17791793D01*
X6342015Y-17791793D02*
X6342015Y-17744174D01*
X6342015Y-17744174D02*
X6351539Y-17706079D01*
X6351539Y-17706079D02*
X6361063Y-17687031D01*
X6361063Y-17687031D02*
X6370586Y-17677508D01*
X6370586Y-17677508D02*
X6389634Y-17667984D01*
X6542015Y-17848936D02*
X6551539Y-17858460D01*
X6551539Y-17858460D02*
X6542015Y-17867984D01*
X6542015Y-17867984D02*
X6532491Y-17858460D01*
X6532491Y-17858460D02*
X6542015Y-17848936D01*
X6542015Y-17848936D02*
X6542015Y-17867984D01*
X6675348Y-17667984D02*
X6694396Y-17667984D01*
X6694396Y-17667984D02*
X6713444Y-17677508D01*
X6713444Y-17677508D02*
X6722967Y-17687031D01*
X6722967Y-17687031D02*
X6732491Y-17706079D01*
X6732491Y-17706079D02*
X6742015Y-17744174D01*
X6742015Y-17744174D02*
X6742015Y-17791793D01*
X6742015Y-17791793D02*
X6732491Y-17829889D01*
X6732491Y-17829889D02*
X6722967Y-17848936D01*
X6722967Y-17848936D02*
X6713444Y-17858460D01*
X6713444Y-17858460D02*
X6694396Y-17867984D01*
X6694396Y-17867984D02*
X6675348Y-17867984D01*
X6675348Y-17867984D02*
X6656301Y-17858460D01*
X6656301Y-17858460D02*
X6646777Y-17848936D01*
X6646777Y-17848936D02*
X6637253Y-17829889D01*
X6637253Y-17829889D02*
X6627729Y-17791793D01*
X6627729Y-17791793D02*
X6627729Y-17744174D01*
X6627729Y-17744174D02*
X6637253Y-17706079D01*
X6637253Y-17706079D02*
X6646777Y-17687031D01*
X6646777Y-17687031D02*
X6656301Y-17677508D01*
X6656301Y-17677508D02*
X6675348Y-17667984D01*
X6922967Y-17667984D02*
X6827729Y-17667984D01*
X6827729Y-17667984D02*
X6818206Y-17763222D01*
X6818206Y-17763222D02*
X6827729Y-17753698D01*
X6827729Y-17753698D02*
X6846777Y-17744174D01*
X6846777Y-17744174D02*
X6894396Y-17744174D01*
X6894396Y-17744174D02*
X6913444Y-17753698D01*
X6913444Y-17753698D02*
X6922967Y-17763222D01*
X6922967Y-17763222D02*
X6932491Y-17782270D01*
X6932491Y-17782270D02*
X6932491Y-17829889D01*
X6932491Y-17829889D02*
X6922967Y-17848936D01*
X6922967Y-17848936D02*
X6913444Y-17858460D01*
X6913444Y-17858460D02*
X6894396Y-17867984D01*
X6894396Y-17867984D02*
X6846777Y-17867984D01*
X6846777Y-17867984D02*
X6827729Y-17858460D01*
X6827729Y-17858460D02*
X6818206Y-17848936D01*
X7122967Y-17867984D02*
X7008682Y-17867984D01*
X7065825Y-17867984D02*
X7065825Y-17667984D01*
X7065825Y-17667984D02*
X7046777Y-17696555D01*
X7046777Y-17696555D02*
X7027729Y-17715603D01*
X7027729Y-17715603D02*
X7008682Y-17725127D01*
X7199158Y-17687031D02*
X7208682Y-17677508D01*
X7208682Y-17677508D02*
X7227729Y-17667984D01*
X7227729Y-17667984D02*
X7275348Y-17667984D01*
X7275348Y-17667984D02*
X7294396Y-17677508D01*
X7294396Y-17677508D02*
X7303920Y-17687031D01*
X7303920Y-17687031D02*
X7313444Y-17706079D01*
X7313444Y-17706079D02*
X7313444Y-17725127D01*
X7313444Y-17725127D02*
X7303920Y-17753698D01*
X7303920Y-17753698D02*
X7189634Y-17867984D01*
X7189634Y-17867984D02*
X7313444Y-17867984D01*
X7389634Y-17667984D02*
X7389634Y-17706079D01*
X7465825Y-17667984D02*
X7465825Y-17706079D01*
X7761063Y-17944174D02*
X7751539Y-17934650D01*
X7751539Y-17934650D02*
X7732491Y-17906079D01*
X7732491Y-17906079D02*
X7722968Y-17887031D01*
X7722968Y-17887031D02*
X7713444Y-17858460D01*
X7713444Y-17858460D02*
X7703920Y-17810841D01*
X7703920Y-17810841D02*
X7703920Y-17772746D01*
X7703920Y-17772746D02*
X7713444Y-17725127D01*
X7713444Y-17725127D02*
X7722968Y-17696555D01*
X7722968Y-17696555D02*
X7732491Y-17677508D01*
X7732491Y-17677508D02*
X7751539Y-17648936D01*
X7751539Y-17648936D02*
X7761063Y-17639412D01*
X7818206Y-17667984D02*
X7942015Y-17667984D01*
X7942015Y-17667984D02*
X7875348Y-17744174D01*
X7875348Y-17744174D02*
X7903920Y-17744174D01*
X7903920Y-17744174D02*
X7922968Y-17753698D01*
X7922968Y-17753698D02*
X7932491Y-17763222D01*
X7932491Y-17763222D02*
X7942015Y-17782270D01*
X7942015Y-17782270D02*
X7942015Y-17829889D01*
X7942015Y-17829889D02*
X7932491Y-17848936D01*
X7932491Y-17848936D02*
X7922968Y-17858460D01*
X7922968Y-17858460D02*
X7903920Y-17867984D01*
X7903920Y-17867984D02*
X7846777Y-17867984D01*
X7846777Y-17867984D02*
X7827729Y-17858460D01*
X7827729Y-17858460D02*
X7818206Y-17848936D01*
X8180110Y-17867984D02*
X8180110Y-17667984D01*
X8265825Y-17867984D02*
X8265825Y-17763222D01*
X8265825Y-17763222D02*
X8256301Y-17744174D01*
X8256301Y-17744174D02*
X8237253Y-17734650D01*
X8237253Y-17734650D02*
X8208682Y-17734650D01*
X8208682Y-17734650D02*
X8189634Y-17744174D01*
X8189634Y-17744174D02*
X8180110Y-17753698D01*
X8389634Y-17867984D02*
X8370587Y-17858460D01*
X8370587Y-17858460D02*
X8361063Y-17848936D01*
X8361063Y-17848936D02*
X8351539Y-17829889D01*
X8351539Y-17829889D02*
X8351539Y-17772746D01*
X8351539Y-17772746D02*
X8361063Y-17753698D01*
X8361063Y-17753698D02*
X8370587Y-17744174D01*
X8370587Y-17744174D02*
X8389634Y-17734650D01*
X8389634Y-17734650D02*
X8418206Y-17734650D01*
X8418206Y-17734650D02*
X8437253Y-17744174D01*
X8437253Y-17744174D02*
X8446777Y-17753698D01*
X8446777Y-17753698D02*
X8456301Y-17772746D01*
X8456301Y-17772746D02*
X8456301Y-17829889D01*
X8456301Y-17829889D02*
X8446777Y-17848936D01*
X8446777Y-17848936D02*
X8437253Y-17858460D01*
X8437253Y-17858460D02*
X8418206Y-17867984D01*
X8418206Y-17867984D02*
X8389634Y-17867984D01*
X8570587Y-17867984D02*
X8551539Y-17858460D01*
X8551539Y-17858460D02*
X8542015Y-17839412D01*
X8542015Y-17839412D02*
X8542015Y-17667984D01*
X8722968Y-17858460D02*
X8703920Y-17867984D01*
X8703920Y-17867984D02*
X8665825Y-17867984D01*
X8665825Y-17867984D02*
X8646777Y-17858460D01*
X8646777Y-17858460D02*
X8637253Y-17839412D01*
X8637253Y-17839412D02*
X8637253Y-17763222D01*
X8637253Y-17763222D02*
X8646777Y-17744174D01*
X8646777Y-17744174D02*
X8665825Y-17734650D01*
X8665825Y-17734650D02*
X8703920Y-17734650D01*
X8703920Y-17734650D02*
X8722968Y-17744174D01*
X8722968Y-17744174D02*
X8732492Y-17763222D01*
X8732492Y-17763222D02*
X8732492Y-17782270D01*
X8732492Y-17782270D02*
X8637253Y-17801317D01*
X8808682Y-17858460D02*
X8827730Y-17867984D01*
X8827730Y-17867984D02*
X8865825Y-17867984D01*
X8865825Y-17867984D02*
X8884873Y-17858460D01*
X8884873Y-17858460D02*
X8894396Y-17839412D01*
X8894396Y-17839412D02*
X8894396Y-17829889D01*
X8894396Y-17829889D02*
X8884873Y-17810841D01*
X8884873Y-17810841D02*
X8865825Y-17801317D01*
X8865825Y-17801317D02*
X8837253Y-17801317D01*
X8837253Y-17801317D02*
X8818206Y-17791793D01*
X8818206Y-17791793D02*
X8808682Y-17772746D01*
X8808682Y-17772746D02*
X8808682Y-17763222D01*
X8808682Y-17763222D02*
X8818206Y-17744174D01*
X8818206Y-17744174D02*
X8837253Y-17734650D01*
X8837253Y-17734650D02*
X8865825Y-17734650D01*
X8865825Y-17734650D02*
X8884873Y-17744174D01*
X8961063Y-17944174D02*
X8970587Y-17934650D01*
X8970587Y-17934650D02*
X8989634Y-17906079D01*
X8989634Y-17906079D02*
X8999158Y-17887031D01*
X8999158Y-17887031D02*
X9008682Y-17858460D01*
X9008682Y-17858460D02*
X9018206Y-17810841D01*
X9018206Y-17810841D02*
X9018206Y-17772746D01*
X9018206Y-17772746D02*
X9008682Y-17725127D01*
X9008682Y-17725127D02*
X8999158Y-17696555D01*
X8999158Y-17696555D02*
X8989634Y-17677508D01*
X8989634Y-17677508D02*
X8970587Y-17648936D01*
X8970587Y-17648936D02*
X8961063Y-17639412D01*
X3986000Y-17940500D02*
X4186000Y-18140500D01*
X4186000Y-17940500D02*
X3986000Y-18140500D01*
X4086000Y-17940500D02*
X4086000Y-18140500D01*
X3986000Y-18040500D02*
X4186000Y-18040500D01*
X4437253Y-17951031D02*
X4446777Y-17941508D01*
X4446777Y-17941508D02*
X4465824Y-17931984D01*
X4465824Y-17931984D02*
X4513444Y-17931984D01*
X4513444Y-17931984D02*
X4532491Y-17941508D01*
X4532491Y-17941508D02*
X4542015Y-17951031D01*
X4542015Y-17951031D02*
X4551539Y-17970079D01*
X4551539Y-17970079D02*
X4551539Y-17989127D01*
X4551539Y-17989127D02*
X4542015Y-18017698D01*
X4542015Y-18017698D02*
X4427729Y-18131984D01*
X4427729Y-18131984D02*
X4551539Y-18131984D01*
X4637253Y-18112936D02*
X4646777Y-18122460D01*
X4646777Y-18122460D02*
X4637253Y-18131984D01*
X4637253Y-18131984D02*
X4627729Y-18122460D01*
X4627729Y-18122460D02*
X4637253Y-18112936D01*
X4637253Y-18112936D02*
X4637253Y-18131984D01*
X4770586Y-17931984D02*
X4789634Y-17931984D01*
X4789634Y-17931984D02*
X4808682Y-17941508D01*
X4808682Y-17941508D02*
X4818205Y-17951031D01*
X4818205Y-17951031D02*
X4827729Y-17970079D01*
X4827729Y-17970079D02*
X4837253Y-18008174D01*
X4837253Y-18008174D02*
X4837253Y-18055793D01*
X4837253Y-18055793D02*
X4827729Y-18093889D01*
X4827729Y-18093889D02*
X4818205Y-18112936D01*
X4818205Y-18112936D02*
X4808682Y-18122460D01*
X4808682Y-18122460D02*
X4789634Y-18131984D01*
X4789634Y-18131984D02*
X4770586Y-18131984D01*
X4770586Y-18131984D02*
X4751539Y-18122460D01*
X4751539Y-18122460D02*
X4742015Y-18112936D01*
X4742015Y-18112936D02*
X4732491Y-18093889D01*
X4732491Y-18093889D02*
X4722967Y-18055793D01*
X4722967Y-18055793D02*
X4722967Y-18008174D01*
X4722967Y-18008174D02*
X4732491Y-17970079D01*
X4732491Y-17970079D02*
X4742015Y-17951031D01*
X4742015Y-17951031D02*
X4751539Y-17941508D01*
X4751539Y-17941508D02*
X4770586Y-17931984D01*
X4961063Y-17931984D02*
X4980110Y-17931984D01*
X4980110Y-17931984D02*
X4999158Y-17941508D01*
X4999158Y-17941508D02*
X5008682Y-17951031D01*
X5008682Y-17951031D02*
X5018205Y-17970079D01*
X5018205Y-17970079D02*
X5027729Y-18008174D01*
X5027729Y-18008174D02*
X5027729Y-18055793D01*
X5027729Y-18055793D02*
X5018205Y-18093889D01*
X5018205Y-18093889D02*
X5008682Y-18112936D01*
X5008682Y-18112936D02*
X4999158Y-18122460D01*
X4999158Y-18122460D02*
X4980110Y-18131984D01*
X4980110Y-18131984D02*
X4961063Y-18131984D01*
X4961063Y-18131984D02*
X4942015Y-18122460D01*
X4942015Y-18122460D02*
X4932491Y-18112936D01*
X4932491Y-18112936D02*
X4922967Y-18093889D01*
X4922967Y-18093889D02*
X4913444Y-18055793D01*
X4913444Y-18055793D02*
X4913444Y-18008174D01*
X4913444Y-18008174D02*
X4922967Y-17970079D01*
X4922967Y-17970079D02*
X4932491Y-17951031D01*
X4932491Y-17951031D02*
X4942015Y-17941508D01*
X4942015Y-17941508D02*
X4961063Y-17931984D01*
X5151539Y-17931984D02*
X5170586Y-17931984D01*
X5170586Y-17931984D02*
X5189634Y-17941508D01*
X5189634Y-17941508D02*
X5199158Y-17951031D01*
X5199158Y-17951031D02*
X5208682Y-17970079D01*
X5208682Y-17970079D02*
X5218205Y-18008174D01*
X5218205Y-18008174D02*
X5218205Y-18055793D01*
X5218205Y-18055793D02*
X5208682Y-18093889D01*
X5208682Y-18093889D02*
X5199158Y-18112936D01*
X5199158Y-18112936D02*
X5189634Y-18122460D01*
X5189634Y-18122460D02*
X5170586Y-18131984D01*
X5170586Y-18131984D02*
X5151539Y-18131984D01*
X5151539Y-18131984D02*
X5132491Y-18122460D01*
X5132491Y-18122460D02*
X5122967Y-18112936D01*
X5122967Y-18112936D02*
X5113444Y-18093889D01*
X5113444Y-18093889D02*
X5103920Y-18055793D01*
X5103920Y-18055793D02*
X5103920Y-18008174D01*
X5103920Y-18008174D02*
X5113444Y-17970079D01*
X5113444Y-17970079D02*
X5122967Y-17951031D01*
X5122967Y-17951031D02*
X5132491Y-17941508D01*
X5132491Y-17941508D02*
X5151539Y-17931984D01*
X5303920Y-18131984D02*
X5303920Y-17998650D01*
X5303920Y-18017698D02*
X5313444Y-18008174D01*
X5313444Y-18008174D02*
X5332491Y-17998650D01*
X5332491Y-17998650D02*
X5361063Y-17998650D01*
X5361063Y-17998650D02*
X5380110Y-18008174D01*
X5380110Y-18008174D02*
X5389634Y-18027222D01*
X5389634Y-18027222D02*
X5389634Y-18131984D01*
X5389634Y-18027222D02*
X5399158Y-18008174D01*
X5399158Y-18008174D02*
X5418205Y-17998650D01*
X5418205Y-17998650D02*
X5446777Y-17998650D01*
X5446777Y-17998650D02*
X5465825Y-18008174D01*
X5465825Y-18008174D02*
X5475348Y-18027222D01*
X5475348Y-18027222D02*
X5475348Y-18131984D01*
X5570586Y-18131984D02*
X5570586Y-17998650D01*
X5570586Y-18017698D02*
X5580110Y-18008174D01*
X5580110Y-18008174D02*
X5599158Y-17998650D01*
X5599158Y-17998650D02*
X5627729Y-17998650D01*
X5627729Y-17998650D02*
X5646777Y-18008174D01*
X5646777Y-18008174D02*
X5656301Y-18027222D01*
X5656301Y-18027222D02*
X5656301Y-18131984D01*
X5656301Y-18027222D02*
X5665824Y-18008174D01*
X5665824Y-18008174D02*
X5684872Y-17998650D01*
X5684872Y-17998650D02*
X5713443Y-17998650D01*
X5713443Y-17998650D02*
X5732491Y-18008174D01*
X5732491Y-18008174D02*
X5742015Y-18027222D01*
X5742015Y-18027222D02*
X5742015Y-18131984D01*
X6132491Y-17922460D02*
X5961063Y-18179603D01*
X6389634Y-17931984D02*
X6408682Y-17931984D01*
X6408682Y-17931984D02*
X6427729Y-17941508D01*
X6427729Y-17941508D02*
X6437253Y-17951031D01*
X6437253Y-17951031D02*
X6446777Y-17970079D01*
X6446777Y-17970079D02*
X6456301Y-18008174D01*
X6456301Y-18008174D02*
X6456301Y-18055793D01*
X6456301Y-18055793D02*
X6446777Y-18093889D01*
X6446777Y-18093889D02*
X6437253Y-18112936D01*
X6437253Y-18112936D02*
X6427729Y-18122460D01*
X6427729Y-18122460D02*
X6408682Y-18131984D01*
X6408682Y-18131984D02*
X6389634Y-18131984D01*
X6389634Y-18131984D02*
X6370586Y-18122460D01*
X6370586Y-18122460D02*
X6361063Y-18112936D01*
X6361063Y-18112936D02*
X6351539Y-18093889D01*
X6351539Y-18093889D02*
X6342015Y-18055793D01*
X6342015Y-18055793D02*
X6342015Y-18008174D01*
X6342015Y-18008174D02*
X6351539Y-17970079D01*
X6351539Y-17970079D02*
X6361063Y-17951031D01*
X6361063Y-17951031D02*
X6370586Y-17941508D01*
X6370586Y-17941508D02*
X6389634Y-17931984D01*
X6542015Y-18112936D02*
X6551539Y-18122460D01*
X6551539Y-18122460D02*
X6542015Y-18131984D01*
X6542015Y-18131984D02*
X6532491Y-18122460D01*
X6532491Y-18122460D02*
X6542015Y-18112936D01*
X6542015Y-18112936D02*
X6542015Y-18131984D01*
X6675348Y-17931984D02*
X6694396Y-17931984D01*
X6694396Y-17931984D02*
X6713444Y-17941508D01*
X6713444Y-17941508D02*
X6722967Y-17951031D01*
X6722967Y-17951031D02*
X6732491Y-17970079D01*
X6732491Y-17970079D02*
X6742015Y-18008174D01*
X6742015Y-18008174D02*
X6742015Y-18055793D01*
X6742015Y-18055793D02*
X6732491Y-18093889D01*
X6732491Y-18093889D02*
X6722967Y-18112936D01*
X6722967Y-18112936D02*
X6713444Y-18122460D01*
X6713444Y-18122460D02*
X6694396Y-18131984D01*
X6694396Y-18131984D02*
X6675348Y-18131984D01*
X6675348Y-18131984D02*
X6656301Y-18122460D01*
X6656301Y-18122460D02*
X6646777Y-18112936D01*
X6646777Y-18112936D02*
X6637253Y-18093889D01*
X6637253Y-18093889D02*
X6627729Y-18055793D01*
X6627729Y-18055793D02*
X6627729Y-18008174D01*
X6627729Y-18008174D02*
X6637253Y-17970079D01*
X6637253Y-17970079D02*
X6646777Y-17951031D01*
X6646777Y-17951031D02*
X6656301Y-17941508D01*
X6656301Y-17941508D02*
X6675348Y-17931984D01*
X6808682Y-17931984D02*
X6942015Y-17931984D01*
X6942015Y-17931984D02*
X6856301Y-18131984D01*
X7046777Y-18017698D02*
X7027729Y-18008174D01*
X7027729Y-18008174D02*
X7018206Y-17998650D01*
X7018206Y-17998650D02*
X7008682Y-17979603D01*
X7008682Y-17979603D02*
X7008682Y-17970079D01*
X7008682Y-17970079D02*
X7018206Y-17951031D01*
X7018206Y-17951031D02*
X7027729Y-17941508D01*
X7027729Y-17941508D02*
X7046777Y-17931984D01*
X7046777Y-17931984D02*
X7084872Y-17931984D01*
X7084872Y-17931984D02*
X7103920Y-17941508D01*
X7103920Y-17941508D02*
X7113444Y-17951031D01*
X7113444Y-17951031D02*
X7122967Y-17970079D01*
X7122967Y-17970079D02*
X7122967Y-17979603D01*
X7122967Y-17979603D02*
X7113444Y-17998650D01*
X7113444Y-17998650D02*
X7103920Y-18008174D01*
X7103920Y-18008174D02*
X7084872Y-18017698D01*
X7084872Y-18017698D02*
X7046777Y-18017698D01*
X7046777Y-18017698D02*
X7027729Y-18027222D01*
X7027729Y-18027222D02*
X7018206Y-18036746D01*
X7018206Y-18036746D02*
X7008682Y-18055793D01*
X7008682Y-18055793D02*
X7008682Y-18093889D01*
X7008682Y-18093889D02*
X7018206Y-18112936D01*
X7018206Y-18112936D02*
X7027729Y-18122460D01*
X7027729Y-18122460D02*
X7046777Y-18131984D01*
X7046777Y-18131984D02*
X7084872Y-18131984D01*
X7084872Y-18131984D02*
X7103920Y-18122460D01*
X7103920Y-18122460D02*
X7113444Y-18112936D01*
X7113444Y-18112936D02*
X7122967Y-18093889D01*
X7122967Y-18093889D02*
X7122967Y-18055793D01*
X7122967Y-18055793D02*
X7113444Y-18036746D01*
X7113444Y-18036746D02*
X7103920Y-18027222D01*
X7103920Y-18027222D02*
X7084872Y-18017698D01*
X7189634Y-17931984D02*
X7322967Y-17931984D01*
X7322967Y-17931984D02*
X7237253Y-18131984D01*
X7389634Y-17931984D02*
X7389634Y-17970079D01*
X7465825Y-17931984D02*
X7465825Y-17970079D01*
X7761063Y-18208174D02*
X7751539Y-18198650D01*
X7751539Y-18198650D02*
X7732491Y-18170079D01*
X7732491Y-18170079D02*
X7722968Y-18151031D01*
X7722968Y-18151031D02*
X7713444Y-18122460D01*
X7713444Y-18122460D02*
X7703920Y-18074841D01*
X7703920Y-18074841D02*
X7703920Y-18036746D01*
X7703920Y-18036746D02*
X7713444Y-17989127D01*
X7713444Y-17989127D02*
X7722968Y-17960555D01*
X7722968Y-17960555D02*
X7732491Y-17941508D01*
X7732491Y-17941508D02*
X7751539Y-17912936D01*
X7751539Y-17912936D02*
X7761063Y-17903412D01*
X7922968Y-17931984D02*
X7884872Y-17931984D01*
X7884872Y-17931984D02*
X7865825Y-17941508D01*
X7865825Y-17941508D02*
X7856301Y-17951031D01*
X7856301Y-17951031D02*
X7837253Y-17979603D01*
X7837253Y-17979603D02*
X7827729Y-18017698D01*
X7827729Y-18017698D02*
X7827729Y-18093889D01*
X7827729Y-18093889D02*
X7837253Y-18112936D01*
X7837253Y-18112936D02*
X7846777Y-18122460D01*
X7846777Y-18122460D02*
X7865825Y-18131984D01*
X7865825Y-18131984D02*
X7903920Y-18131984D01*
X7903920Y-18131984D02*
X7922968Y-18122460D01*
X7922968Y-18122460D02*
X7932491Y-18112936D01*
X7932491Y-18112936D02*
X7942015Y-18093889D01*
X7942015Y-18093889D02*
X7942015Y-18046270D01*
X7942015Y-18046270D02*
X7932491Y-18027222D01*
X7932491Y-18027222D02*
X7922968Y-18017698D01*
X7922968Y-18017698D02*
X7903920Y-18008174D01*
X7903920Y-18008174D02*
X7865825Y-18008174D01*
X7865825Y-18008174D02*
X7846777Y-18017698D01*
X7846777Y-18017698D02*
X7837253Y-18027222D01*
X7837253Y-18027222D02*
X7827729Y-18046270D01*
X8180110Y-18131984D02*
X8180110Y-17931984D01*
X8265825Y-18131984D02*
X8265825Y-18027222D01*
X8265825Y-18027222D02*
X8256301Y-18008174D01*
X8256301Y-18008174D02*
X8237253Y-17998650D01*
X8237253Y-17998650D02*
X8208682Y-17998650D01*
X8208682Y-17998650D02*
X8189634Y-18008174D01*
X8189634Y-18008174D02*
X8180110Y-18017698D01*
X8389634Y-18131984D02*
X8370587Y-18122460D01*
X8370587Y-18122460D02*
X8361063Y-18112936D01*
X8361063Y-18112936D02*
X8351539Y-18093889D01*
X8351539Y-18093889D02*
X8351539Y-18036746D01*
X8351539Y-18036746D02*
X8361063Y-18017698D01*
X8361063Y-18017698D02*
X8370587Y-18008174D01*
X8370587Y-18008174D02*
X8389634Y-17998650D01*
X8389634Y-17998650D02*
X8418206Y-17998650D01*
X8418206Y-17998650D02*
X8437253Y-18008174D01*
X8437253Y-18008174D02*
X8446777Y-18017698D01*
X8446777Y-18017698D02*
X8456301Y-18036746D01*
X8456301Y-18036746D02*
X8456301Y-18093889D01*
X8456301Y-18093889D02*
X8446777Y-18112936D01*
X8446777Y-18112936D02*
X8437253Y-18122460D01*
X8437253Y-18122460D02*
X8418206Y-18131984D01*
X8418206Y-18131984D02*
X8389634Y-18131984D01*
X8570587Y-18131984D02*
X8551539Y-18122460D01*
X8551539Y-18122460D02*
X8542015Y-18103412D01*
X8542015Y-18103412D02*
X8542015Y-17931984D01*
X8722968Y-18122460D02*
X8703920Y-18131984D01*
X8703920Y-18131984D02*
X8665825Y-18131984D01*
X8665825Y-18131984D02*
X8646777Y-18122460D01*
X8646777Y-18122460D02*
X8637253Y-18103412D01*
X8637253Y-18103412D02*
X8637253Y-18027222D01*
X8637253Y-18027222D02*
X8646777Y-18008174D01*
X8646777Y-18008174D02*
X8665825Y-17998650D01*
X8665825Y-17998650D02*
X8703920Y-17998650D01*
X8703920Y-17998650D02*
X8722968Y-18008174D01*
X8722968Y-18008174D02*
X8732492Y-18027222D01*
X8732492Y-18027222D02*
X8732492Y-18046270D01*
X8732492Y-18046270D02*
X8637253Y-18065317D01*
X8808682Y-18122460D02*
X8827730Y-18131984D01*
X8827730Y-18131984D02*
X8865825Y-18131984D01*
X8865825Y-18131984D02*
X8884873Y-18122460D01*
X8884873Y-18122460D02*
X8894396Y-18103412D01*
X8894396Y-18103412D02*
X8894396Y-18093889D01*
X8894396Y-18093889D02*
X8884873Y-18074841D01*
X8884873Y-18074841D02*
X8865825Y-18065317D01*
X8865825Y-18065317D02*
X8837253Y-18065317D01*
X8837253Y-18065317D02*
X8818206Y-18055793D01*
X8818206Y-18055793D02*
X8808682Y-18036746D01*
X8808682Y-18036746D02*
X8808682Y-18027222D01*
X8808682Y-18027222D02*
X8818206Y-18008174D01*
X8818206Y-18008174D02*
X8837253Y-17998650D01*
X8837253Y-17998650D02*
X8865825Y-17998650D01*
X8865825Y-17998650D02*
X8884873Y-18008174D01*
X8961063Y-18208174D02*
X8970587Y-18198650D01*
X8970587Y-18198650D02*
X8989634Y-18170079D01*
X8989634Y-18170079D02*
X8999158Y-18151031D01*
X8999158Y-18151031D02*
X9008682Y-18122460D01*
X9008682Y-18122460D02*
X9018206Y-18074841D01*
X9018206Y-18074841D02*
X9018206Y-18036746D01*
X9018206Y-18036746D02*
X9008682Y-17989127D01*
X9008682Y-17989127D02*
X8999158Y-17960555D01*
X8999158Y-17960555D02*
X8989634Y-17941508D01*
X8989634Y-17941508D02*
X8970587Y-17912936D01*
X8970587Y-17912936D02*
X8961063Y-17903412D01*
X3986000Y-18260500D02*
X4186000Y-18460500D01*
X4186000Y-18260500D02*
X3986000Y-18460500D01*
X4156711Y-18431211D02*
X4156711Y-18289789D01*
X4015289Y-18289789D01*
X4015289Y-18431211D01*
X4156711Y-18431211D01*
X4437253Y-18271031D02*
X4446777Y-18261508D01*
X4446777Y-18261508D02*
X4465824Y-18251984D01*
X4465824Y-18251984D02*
X4513444Y-18251984D01*
X4513444Y-18251984D02*
X4532491Y-18261508D01*
X4532491Y-18261508D02*
X4542015Y-18271031D01*
X4542015Y-18271031D02*
X4551539Y-18290079D01*
X4551539Y-18290079D02*
X4551539Y-18309127D01*
X4551539Y-18309127D02*
X4542015Y-18337698D01*
X4542015Y-18337698D02*
X4427729Y-18451984D01*
X4427729Y-18451984D02*
X4551539Y-18451984D01*
X4637253Y-18432936D02*
X4646777Y-18442460D01*
X4646777Y-18442460D02*
X4637253Y-18451984D01*
X4637253Y-18451984D02*
X4627729Y-18442460D01*
X4627729Y-18442460D02*
X4637253Y-18432936D01*
X4637253Y-18432936D02*
X4637253Y-18451984D01*
X4827729Y-18251984D02*
X4732491Y-18251984D01*
X4732491Y-18251984D02*
X4722967Y-18347222D01*
X4722967Y-18347222D02*
X4732491Y-18337698D01*
X4732491Y-18337698D02*
X4751539Y-18328174D01*
X4751539Y-18328174D02*
X4799158Y-18328174D01*
X4799158Y-18328174D02*
X4818205Y-18337698D01*
X4818205Y-18337698D02*
X4827729Y-18347222D01*
X4827729Y-18347222D02*
X4837253Y-18366270D01*
X4837253Y-18366270D02*
X4837253Y-18413889D01*
X4837253Y-18413889D02*
X4827729Y-18432936D01*
X4827729Y-18432936D02*
X4818205Y-18442460D01*
X4818205Y-18442460D02*
X4799158Y-18451984D01*
X4799158Y-18451984D02*
X4751539Y-18451984D01*
X4751539Y-18451984D02*
X4732491Y-18442460D01*
X4732491Y-18442460D02*
X4722967Y-18432936D01*
X4961063Y-18251984D02*
X4980110Y-18251984D01*
X4980110Y-18251984D02*
X4999158Y-18261508D01*
X4999158Y-18261508D02*
X5008682Y-18271031D01*
X5008682Y-18271031D02*
X5018205Y-18290079D01*
X5018205Y-18290079D02*
X5027729Y-18328174D01*
X5027729Y-18328174D02*
X5027729Y-18375793D01*
X5027729Y-18375793D02*
X5018205Y-18413889D01*
X5018205Y-18413889D02*
X5008682Y-18432936D01*
X5008682Y-18432936D02*
X4999158Y-18442460D01*
X4999158Y-18442460D02*
X4980110Y-18451984D01*
X4980110Y-18451984D02*
X4961063Y-18451984D01*
X4961063Y-18451984D02*
X4942015Y-18442460D01*
X4942015Y-18442460D02*
X4932491Y-18432936D01*
X4932491Y-18432936D02*
X4922967Y-18413889D01*
X4922967Y-18413889D02*
X4913444Y-18375793D01*
X4913444Y-18375793D02*
X4913444Y-18328174D01*
X4913444Y-18328174D02*
X4922967Y-18290079D01*
X4922967Y-18290079D02*
X4932491Y-18271031D01*
X4932491Y-18271031D02*
X4942015Y-18261508D01*
X4942015Y-18261508D02*
X4961063Y-18251984D01*
X5151539Y-18251984D02*
X5170586Y-18251984D01*
X5170586Y-18251984D02*
X5189634Y-18261508D01*
X5189634Y-18261508D02*
X5199158Y-18271031D01*
X5199158Y-18271031D02*
X5208682Y-18290079D01*
X5208682Y-18290079D02*
X5218205Y-18328174D01*
X5218205Y-18328174D02*
X5218205Y-18375793D01*
X5218205Y-18375793D02*
X5208682Y-18413889D01*
X5208682Y-18413889D02*
X5199158Y-18432936D01*
X5199158Y-18432936D02*
X5189634Y-18442460D01*
X5189634Y-18442460D02*
X5170586Y-18451984D01*
X5170586Y-18451984D02*
X5151539Y-18451984D01*
X5151539Y-18451984D02*
X5132491Y-18442460D01*
X5132491Y-18442460D02*
X5122967Y-18432936D01*
X5122967Y-18432936D02*
X5113444Y-18413889D01*
X5113444Y-18413889D02*
X5103920Y-18375793D01*
X5103920Y-18375793D02*
X5103920Y-18328174D01*
X5103920Y-18328174D02*
X5113444Y-18290079D01*
X5113444Y-18290079D02*
X5122967Y-18271031D01*
X5122967Y-18271031D02*
X5132491Y-18261508D01*
X5132491Y-18261508D02*
X5151539Y-18251984D01*
X5303920Y-18451984D02*
X5303920Y-18318650D01*
X5303920Y-18337698D02*
X5313444Y-18328174D01*
X5313444Y-18328174D02*
X5332491Y-18318650D01*
X5332491Y-18318650D02*
X5361063Y-18318650D01*
X5361063Y-18318650D02*
X5380110Y-18328174D01*
X5380110Y-18328174D02*
X5389634Y-18347222D01*
X5389634Y-18347222D02*
X5389634Y-18451984D01*
X5389634Y-18347222D02*
X5399158Y-18328174D01*
X5399158Y-18328174D02*
X5418205Y-18318650D01*
X5418205Y-18318650D02*
X5446777Y-18318650D01*
X5446777Y-18318650D02*
X5465825Y-18328174D01*
X5465825Y-18328174D02*
X5475348Y-18347222D01*
X5475348Y-18347222D02*
X5475348Y-18451984D01*
X5570586Y-18451984D02*
X5570586Y-18318650D01*
X5570586Y-18337698D02*
X5580110Y-18328174D01*
X5580110Y-18328174D02*
X5599158Y-18318650D01*
X5599158Y-18318650D02*
X5627729Y-18318650D01*
X5627729Y-18318650D02*
X5646777Y-18328174D01*
X5646777Y-18328174D02*
X5656301Y-18347222D01*
X5656301Y-18347222D02*
X5656301Y-18451984D01*
X5656301Y-18347222D02*
X5665824Y-18328174D01*
X5665824Y-18328174D02*
X5684872Y-18318650D01*
X5684872Y-18318650D02*
X5713443Y-18318650D01*
X5713443Y-18318650D02*
X5732491Y-18328174D01*
X5732491Y-18328174D02*
X5742015Y-18347222D01*
X5742015Y-18347222D02*
X5742015Y-18451984D01*
X6132491Y-18242460D02*
X5961063Y-18499603D01*
X6389634Y-18251984D02*
X6408682Y-18251984D01*
X6408682Y-18251984D02*
X6427729Y-18261508D01*
X6427729Y-18261508D02*
X6437253Y-18271031D01*
X6437253Y-18271031D02*
X6446777Y-18290079D01*
X6446777Y-18290079D02*
X6456301Y-18328174D01*
X6456301Y-18328174D02*
X6456301Y-18375793D01*
X6456301Y-18375793D02*
X6446777Y-18413889D01*
X6446777Y-18413889D02*
X6437253Y-18432936D01*
X6437253Y-18432936D02*
X6427729Y-18442460D01*
X6427729Y-18442460D02*
X6408682Y-18451984D01*
X6408682Y-18451984D02*
X6389634Y-18451984D01*
X6389634Y-18451984D02*
X6370586Y-18442460D01*
X6370586Y-18442460D02*
X6361063Y-18432936D01*
X6361063Y-18432936D02*
X6351539Y-18413889D01*
X6351539Y-18413889D02*
X6342015Y-18375793D01*
X6342015Y-18375793D02*
X6342015Y-18328174D01*
X6342015Y-18328174D02*
X6351539Y-18290079D01*
X6351539Y-18290079D02*
X6361063Y-18271031D01*
X6361063Y-18271031D02*
X6370586Y-18261508D01*
X6370586Y-18261508D02*
X6389634Y-18251984D01*
X6542015Y-18432936D02*
X6551539Y-18442460D01*
X6551539Y-18442460D02*
X6542015Y-18451984D01*
X6542015Y-18451984D02*
X6532491Y-18442460D01*
X6532491Y-18442460D02*
X6542015Y-18432936D01*
X6542015Y-18432936D02*
X6542015Y-18451984D01*
X6675348Y-18251984D02*
X6694396Y-18251984D01*
X6694396Y-18251984D02*
X6713444Y-18261508D01*
X6713444Y-18261508D02*
X6722967Y-18271031D01*
X6722967Y-18271031D02*
X6732491Y-18290079D01*
X6732491Y-18290079D02*
X6742015Y-18328174D01*
X6742015Y-18328174D02*
X6742015Y-18375793D01*
X6742015Y-18375793D02*
X6732491Y-18413889D01*
X6732491Y-18413889D02*
X6722967Y-18432936D01*
X6722967Y-18432936D02*
X6713444Y-18442460D01*
X6713444Y-18442460D02*
X6694396Y-18451984D01*
X6694396Y-18451984D02*
X6675348Y-18451984D01*
X6675348Y-18451984D02*
X6656301Y-18442460D01*
X6656301Y-18442460D02*
X6646777Y-18432936D01*
X6646777Y-18432936D02*
X6637253Y-18413889D01*
X6637253Y-18413889D02*
X6627729Y-18375793D01*
X6627729Y-18375793D02*
X6627729Y-18328174D01*
X6627729Y-18328174D02*
X6637253Y-18290079D01*
X6637253Y-18290079D02*
X6646777Y-18271031D01*
X6646777Y-18271031D02*
X6656301Y-18261508D01*
X6656301Y-18261508D02*
X6675348Y-18251984D01*
X6837253Y-18451984D02*
X6875348Y-18451984D01*
X6875348Y-18451984D02*
X6894396Y-18442460D01*
X6894396Y-18442460D02*
X6903920Y-18432936D01*
X6903920Y-18432936D02*
X6922967Y-18404365D01*
X6922967Y-18404365D02*
X6932491Y-18366270D01*
X6932491Y-18366270D02*
X6932491Y-18290079D01*
X6932491Y-18290079D02*
X6922967Y-18271031D01*
X6922967Y-18271031D02*
X6913444Y-18261508D01*
X6913444Y-18261508D02*
X6894396Y-18251984D01*
X6894396Y-18251984D02*
X6856301Y-18251984D01*
X6856301Y-18251984D02*
X6837253Y-18261508D01*
X6837253Y-18261508D02*
X6827729Y-18271031D01*
X6827729Y-18271031D02*
X6818206Y-18290079D01*
X6818206Y-18290079D02*
X6818206Y-18337698D01*
X6818206Y-18337698D02*
X6827729Y-18356746D01*
X6827729Y-18356746D02*
X6837253Y-18366270D01*
X6837253Y-18366270D02*
X6856301Y-18375793D01*
X6856301Y-18375793D02*
X6894396Y-18375793D01*
X6894396Y-18375793D02*
X6913444Y-18366270D01*
X6913444Y-18366270D02*
X6922967Y-18356746D01*
X6922967Y-18356746D02*
X6932491Y-18337698D01*
X7046777Y-18337698D02*
X7027729Y-18328174D01*
X7027729Y-18328174D02*
X7018206Y-18318650D01*
X7018206Y-18318650D02*
X7008682Y-18299603D01*
X7008682Y-18299603D02*
X7008682Y-18290079D01*
X7008682Y-18290079D02*
X7018206Y-18271031D01*
X7018206Y-18271031D02*
X7027729Y-18261508D01*
X7027729Y-18261508D02*
X7046777Y-18251984D01*
X7046777Y-18251984D02*
X7084872Y-18251984D01*
X7084872Y-18251984D02*
X7103920Y-18261508D01*
X7103920Y-18261508D02*
X7113444Y-18271031D01*
X7113444Y-18271031D02*
X7122967Y-18290079D01*
X7122967Y-18290079D02*
X7122967Y-18299603D01*
X7122967Y-18299603D02*
X7113444Y-18318650D01*
X7113444Y-18318650D02*
X7103920Y-18328174D01*
X7103920Y-18328174D02*
X7084872Y-18337698D01*
X7084872Y-18337698D02*
X7046777Y-18337698D01*
X7046777Y-18337698D02*
X7027729Y-18347222D01*
X7027729Y-18347222D02*
X7018206Y-18356746D01*
X7018206Y-18356746D02*
X7008682Y-18375793D01*
X7008682Y-18375793D02*
X7008682Y-18413889D01*
X7008682Y-18413889D02*
X7018206Y-18432936D01*
X7018206Y-18432936D02*
X7027729Y-18442460D01*
X7027729Y-18442460D02*
X7046777Y-18451984D01*
X7046777Y-18451984D02*
X7084872Y-18451984D01*
X7084872Y-18451984D02*
X7103920Y-18442460D01*
X7103920Y-18442460D02*
X7113444Y-18432936D01*
X7113444Y-18432936D02*
X7122967Y-18413889D01*
X7122967Y-18413889D02*
X7122967Y-18375793D01*
X7122967Y-18375793D02*
X7113444Y-18356746D01*
X7113444Y-18356746D02*
X7103920Y-18347222D01*
X7103920Y-18347222D02*
X7084872Y-18337698D01*
X7294396Y-18318650D02*
X7294396Y-18451984D01*
X7246777Y-18242460D02*
X7199158Y-18385317D01*
X7199158Y-18385317D02*
X7322967Y-18385317D01*
X7389634Y-18251984D02*
X7389634Y-18290079D01*
X7465825Y-18251984D02*
X7465825Y-18290079D01*
X7761063Y-18528174D02*
X7751539Y-18518650D01*
X7751539Y-18518650D02*
X7732491Y-18490079D01*
X7732491Y-18490079D02*
X7722968Y-18471031D01*
X7722968Y-18471031D02*
X7713444Y-18442460D01*
X7713444Y-18442460D02*
X7703920Y-18394841D01*
X7703920Y-18394841D02*
X7703920Y-18356746D01*
X7703920Y-18356746D02*
X7713444Y-18309127D01*
X7713444Y-18309127D02*
X7722968Y-18280555D01*
X7722968Y-18280555D02*
X7732491Y-18261508D01*
X7732491Y-18261508D02*
X7751539Y-18232936D01*
X7751539Y-18232936D02*
X7761063Y-18223412D01*
X7818206Y-18251984D02*
X7942015Y-18251984D01*
X7942015Y-18251984D02*
X7875348Y-18328174D01*
X7875348Y-18328174D02*
X7903920Y-18328174D01*
X7903920Y-18328174D02*
X7922968Y-18337698D01*
X7922968Y-18337698D02*
X7932491Y-18347222D01*
X7932491Y-18347222D02*
X7942015Y-18366270D01*
X7942015Y-18366270D02*
X7942015Y-18413889D01*
X7942015Y-18413889D02*
X7932491Y-18432936D01*
X7932491Y-18432936D02*
X7922968Y-18442460D01*
X7922968Y-18442460D02*
X7903920Y-18451984D01*
X7903920Y-18451984D02*
X7846777Y-18451984D01*
X7846777Y-18451984D02*
X7827729Y-18442460D01*
X7827729Y-18442460D02*
X7818206Y-18432936D01*
X8180110Y-18451984D02*
X8180110Y-18251984D01*
X8265825Y-18451984D02*
X8265825Y-18347222D01*
X8265825Y-18347222D02*
X8256301Y-18328174D01*
X8256301Y-18328174D02*
X8237253Y-18318650D01*
X8237253Y-18318650D02*
X8208682Y-18318650D01*
X8208682Y-18318650D02*
X8189634Y-18328174D01*
X8189634Y-18328174D02*
X8180110Y-18337698D01*
X8389634Y-18451984D02*
X8370587Y-18442460D01*
X8370587Y-18442460D02*
X8361063Y-18432936D01*
X8361063Y-18432936D02*
X8351539Y-18413889D01*
X8351539Y-18413889D02*
X8351539Y-18356746D01*
X8351539Y-18356746D02*
X8361063Y-18337698D01*
X8361063Y-18337698D02*
X8370587Y-18328174D01*
X8370587Y-18328174D02*
X8389634Y-18318650D01*
X8389634Y-18318650D02*
X8418206Y-18318650D01*
X8418206Y-18318650D02*
X8437253Y-18328174D01*
X8437253Y-18328174D02*
X8446777Y-18337698D01*
X8446777Y-18337698D02*
X8456301Y-18356746D01*
X8456301Y-18356746D02*
X8456301Y-18413889D01*
X8456301Y-18413889D02*
X8446777Y-18432936D01*
X8446777Y-18432936D02*
X8437253Y-18442460D01*
X8437253Y-18442460D02*
X8418206Y-18451984D01*
X8418206Y-18451984D02*
X8389634Y-18451984D01*
X8570587Y-18451984D02*
X8551539Y-18442460D01*
X8551539Y-18442460D02*
X8542015Y-18423412D01*
X8542015Y-18423412D02*
X8542015Y-18251984D01*
X8722968Y-18442460D02*
X8703920Y-18451984D01*
X8703920Y-18451984D02*
X8665825Y-18451984D01*
X8665825Y-18451984D02*
X8646777Y-18442460D01*
X8646777Y-18442460D02*
X8637253Y-18423412D01*
X8637253Y-18423412D02*
X8637253Y-18347222D01*
X8637253Y-18347222D02*
X8646777Y-18328174D01*
X8646777Y-18328174D02*
X8665825Y-18318650D01*
X8665825Y-18318650D02*
X8703920Y-18318650D01*
X8703920Y-18318650D02*
X8722968Y-18328174D01*
X8722968Y-18328174D02*
X8732492Y-18347222D01*
X8732492Y-18347222D02*
X8732492Y-18366270D01*
X8732492Y-18366270D02*
X8637253Y-18385317D01*
X8808682Y-18442460D02*
X8827730Y-18451984D01*
X8827730Y-18451984D02*
X8865825Y-18451984D01*
X8865825Y-18451984D02*
X8884873Y-18442460D01*
X8884873Y-18442460D02*
X8894396Y-18423412D01*
X8894396Y-18423412D02*
X8894396Y-18413889D01*
X8894396Y-18413889D02*
X8884873Y-18394841D01*
X8884873Y-18394841D02*
X8865825Y-18385317D01*
X8865825Y-18385317D02*
X8837253Y-18385317D01*
X8837253Y-18385317D02*
X8818206Y-18375793D01*
X8818206Y-18375793D02*
X8808682Y-18356746D01*
X8808682Y-18356746D02*
X8808682Y-18347222D01*
X8808682Y-18347222D02*
X8818206Y-18328174D01*
X8818206Y-18328174D02*
X8837253Y-18318650D01*
X8837253Y-18318650D02*
X8865825Y-18318650D01*
X8865825Y-18318650D02*
X8884873Y-18328174D01*
X8961063Y-18528174D02*
X8970587Y-18518650D01*
X8970587Y-18518650D02*
X8989634Y-18490079D01*
X8989634Y-18490079D02*
X8999158Y-18471031D01*
X8999158Y-18471031D02*
X9008682Y-18442460D01*
X9008682Y-18442460D02*
X9018206Y-18394841D01*
X9018206Y-18394841D02*
X9018206Y-18356746D01*
X9018206Y-18356746D02*
X9008682Y-18309127D01*
X9008682Y-18309127D02*
X8999158Y-18280555D01*
X8999158Y-18280555D02*
X8989634Y-18261508D01*
X8989634Y-18261508D02*
X8970587Y-18232936D01*
X8970587Y-18232936D02*
X8961063Y-18223412D01*
X3986000Y-18580500D02*
X4186000Y-18780500D01*
X4186000Y-18580500D02*
X3986000Y-18780500D01*
X4086000Y-18780500D02*
X4186000Y-18680500D01*
X4086000Y-18580500D01*
X3986000Y-18680500D01*
X4086000Y-18780500D01*
X4437253Y-18591031D02*
X4446777Y-18581508D01*
X4446777Y-18581508D02*
X4465824Y-18571984D01*
X4465824Y-18571984D02*
X4513444Y-18571984D01*
X4513444Y-18571984D02*
X4532491Y-18581508D01*
X4532491Y-18581508D02*
X4542015Y-18591031D01*
X4542015Y-18591031D02*
X4551539Y-18610079D01*
X4551539Y-18610079D02*
X4551539Y-18629127D01*
X4551539Y-18629127D02*
X4542015Y-18657698D01*
X4542015Y-18657698D02*
X4427729Y-18771984D01*
X4427729Y-18771984D02*
X4551539Y-18771984D01*
X4637253Y-18752936D02*
X4646777Y-18762460D01*
X4646777Y-18762460D02*
X4637253Y-18771984D01*
X4637253Y-18771984D02*
X4627729Y-18762460D01*
X4627729Y-18762460D02*
X4637253Y-18752936D01*
X4637253Y-18752936D02*
X4637253Y-18771984D01*
X4713444Y-18571984D02*
X4846777Y-18571984D01*
X4846777Y-18571984D02*
X4761063Y-18771984D01*
X4903920Y-18571984D02*
X5037253Y-18571984D01*
X5037253Y-18571984D02*
X4951539Y-18771984D01*
X5151539Y-18571984D02*
X5170586Y-18571984D01*
X5170586Y-18571984D02*
X5189634Y-18581508D01*
X5189634Y-18581508D02*
X5199158Y-18591031D01*
X5199158Y-18591031D02*
X5208682Y-18610079D01*
X5208682Y-18610079D02*
X5218205Y-18648174D01*
X5218205Y-18648174D02*
X5218205Y-18695793D01*
X5218205Y-18695793D02*
X5208682Y-18733889D01*
X5208682Y-18733889D02*
X5199158Y-18752936D01*
X5199158Y-18752936D02*
X5189634Y-18762460D01*
X5189634Y-18762460D02*
X5170586Y-18771984D01*
X5170586Y-18771984D02*
X5151539Y-18771984D01*
X5151539Y-18771984D02*
X5132491Y-18762460D01*
X5132491Y-18762460D02*
X5122967Y-18752936D01*
X5122967Y-18752936D02*
X5113444Y-18733889D01*
X5113444Y-18733889D02*
X5103920Y-18695793D01*
X5103920Y-18695793D02*
X5103920Y-18648174D01*
X5103920Y-18648174D02*
X5113444Y-18610079D01*
X5113444Y-18610079D02*
X5122967Y-18591031D01*
X5122967Y-18591031D02*
X5132491Y-18581508D01*
X5132491Y-18581508D02*
X5151539Y-18571984D01*
X5303920Y-18771984D02*
X5303920Y-18638650D01*
X5303920Y-18657698D02*
X5313444Y-18648174D01*
X5313444Y-18648174D02*
X5332491Y-18638650D01*
X5332491Y-18638650D02*
X5361063Y-18638650D01*
X5361063Y-18638650D02*
X5380110Y-18648174D01*
X5380110Y-18648174D02*
X5389634Y-18667222D01*
X5389634Y-18667222D02*
X5389634Y-18771984D01*
X5389634Y-18667222D02*
X5399158Y-18648174D01*
X5399158Y-18648174D02*
X5418205Y-18638650D01*
X5418205Y-18638650D02*
X5446777Y-18638650D01*
X5446777Y-18638650D02*
X5465825Y-18648174D01*
X5465825Y-18648174D02*
X5475348Y-18667222D01*
X5475348Y-18667222D02*
X5475348Y-18771984D01*
X5570586Y-18771984D02*
X5570586Y-18638650D01*
X5570586Y-18657698D02*
X5580110Y-18648174D01*
X5580110Y-18648174D02*
X5599158Y-18638650D01*
X5599158Y-18638650D02*
X5627729Y-18638650D01*
X5627729Y-18638650D02*
X5646777Y-18648174D01*
X5646777Y-18648174D02*
X5656301Y-18667222D01*
X5656301Y-18667222D02*
X5656301Y-18771984D01*
X5656301Y-18667222D02*
X5665824Y-18648174D01*
X5665824Y-18648174D02*
X5684872Y-18638650D01*
X5684872Y-18638650D02*
X5713443Y-18638650D01*
X5713443Y-18638650D02*
X5732491Y-18648174D01*
X5732491Y-18648174D02*
X5742015Y-18667222D01*
X5742015Y-18667222D02*
X5742015Y-18771984D01*
X6132491Y-18562460D02*
X5961063Y-18819603D01*
X6389634Y-18571984D02*
X6408682Y-18571984D01*
X6408682Y-18571984D02*
X6427729Y-18581508D01*
X6427729Y-18581508D02*
X6437253Y-18591031D01*
X6437253Y-18591031D02*
X6446777Y-18610079D01*
X6446777Y-18610079D02*
X6456301Y-18648174D01*
X6456301Y-18648174D02*
X6456301Y-18695793D01*
X6456301Y-18695793D02*
X6446777Y-18733889D01*
X6446777Y-18733889D02*
X6437253Y-18752936D01*
X6437253Y-18752936D02*
X6427729Y-18762460D01*
X6427729Y-18762460D02*
X6408682Y-18771984D01*
X6408682Y-18771984D02*
X6389634Y-18771984D01*
X6389634Y-18771984D02*
X6370586Y-18762460D01*
X6370586Y-18762460D02*
X6361063Y-18752936D01*
X6361063Y-18752936D02*
X6351539Y-18733889D01*
X6351539Y-18733889D02*
X6342015Y-18695793D01*
X6342015Y-18695793D02*
X6342015Y-18648174D01*
X6342015Y-18648174D02*
X6351539Y-18610079D01*
X6351539Y-18610079D02*
X6361063Y-18591031D01*
X6361063Y-18591031D02*
X6370586Y-18581508D01*
X6370586Y-18581508D02*
X6389634Y-18571984D01*
X6542015Y-18752936D02*
X6551539Y-18762460D01*
X6551539Y-18762460D02*
X6542015Y-18771984D01*
X6542015Y-18771984D02*
X6532491Y-18762460D01*
X6532491Y-18762460D02*
X6542015Y-18752936D01*
X6542015Y-18752936D02*
X6542015Y-18771984D01*
X6742015Y-18771984D02*
X6627729Y-18771984D01*
X6684872Y-18771984D02*
X6684872Y-18571984D01*
X6684872Y-18571984D02*
X6665825Y-18600555D01*
X6665825Y-18600555D02*
X6646777Y-18619603D01*
X6646777Y-18619603D02*
X6627729Y-18629127D01*
X6865825Y-18571984D02*
X6884872Y-18571984D01*
X6884872Y-18571984D02*
X6903920Y-18581508D01*
X6903920Y-18581508D02*
X6913444Y-18591031D01*
X6913444Y-18591031D02*
X6922967Y-18610079D01*
X6922967Y-18610079D02*
X6932491Y-18648174D01*
X6932491Y-18648174D02*
X6932491Y-18695793D01*
X6932491Y-18695793D02*
X6922967Y-18733889D01*
X6922967Y-18733889D02*
X6913444Y-18752936D01*
X6913444Y-18752936D02*
X6903920Y-18762460D01*
X6903920Y-18762460D02*
X6884872Y-18771984D01*
X6884872Y-18771984D02*
X6865825Y-18771984D01*
X6865825Y-18771984D02*
X6846777Y-18762460D01*
X6846777Y-18762460D02*
X6837253Y-18752936D01*
X6837253Y-18752936D02*
X6827729Y-18733889D01*
X6827729Y-18733889D02*
X6818206Y-18695793D01*
X6818206Y-18695793D02*
X6818206Y-18648174D01*
X6818206Y-18648174D02*
X6827729Y-18610079D01*
X6827729Y-18610079D02*
X6837253Y-18591031D01*
X6837253Y-18591031D02*
X6846777Y-18581508D01*
X6846777Y-18581508D02*
X6865825Y-18571984D01*
X7027729Y-18771984D02*
X7065825Y-18771984D01*
X7065825Y-18771984D02*
X7084872Y-18762460D01*
X7084872Y-18762460D02*
X7094396Y-18752936D01*
X7094396Y-18752936D02*
X7113444Y-18724365D01*
X7113444Y-18724365D02*
X7122967Y-18686270D01*
X7122967Y-18686270D02*
X7122967Y-18610079D01*
X7122967Y-18610079D02*
X7113444Y-18591031D01*
X7113444Y-18591031D02*
X7103920Y-18581508D01*
X7103920Y-18581508D02*
X7084872Y-18571984D01*
X7084872Y-18571984D02*
X7046777Y-18571984D01*
X7046777Y-18571984D02*
X7027729Y-18581508D01*
X7027729Y-18581508D02*
X7018206Y-18591031D01*
X7018206Y-18591031D02*
X7008682Y-18610079D01*
X7008682Y-18610079D02*
X7008682Y-18657698D01*
X7008682Y-18657698D02*
X7018206Y-18676746D01*
X7018206Y-18676746D02*
X7027729Y-18686270D01*
X7027729Y-18686270D02*
X7046777Y-18695793D01*
X7046777Y-18695793D02*
X7084872Y-18695793D01*
X7084872Y-18695793D02*
X7103920Y-18686270D01*
X7103920Y-18686270D02*
X7113444Y-18676746D01*
X7113444Y-18676746D02*
X7122967Y-18657698D01*
X7313444Y-18771984D02*
X7199158Y-18771984D01*
X7256301Y-18771984D02*
X7256301Y-18571984D01*
X7256301Y-18571984D02*
X7237253Y-18600555D01*
X7237253Y-18600555D02*
X7218206Y-18619603D01*
X7218206Y-18619603D02*
X7199158Y-18629127D01*
X7389634Y-18571984D02*
X7389634Y-18610079D01*
X7465825Y-18571984D02*
X7465825Y-18610079D01*
X7761063Y-18848174D02*
X7751539Y-18838650D01*
X7751539Y-18838650D02*
X7732491Y-18810079D01*
X7732491Y-18810079D02*
X7722968Y-18791031D01*
X7722968Y-18791031D02*
X7713444Y-18762460D01*
X7713444Y-18762460D02*
X7703920Y-18714841D01*
X7703920Y-18714841D02*
X7703920Y-18676746D01*
X7703920Y-18676746D02*
X7713444Y-18629127D01*
X7713444Y-18629127D02*
X7722968Y-18600555D01*
X7722968Y-18600555D02*
X7732491Y-18581508D01*
X7732491Y-18581508D02*
X7751539Y-18552936D01*
X7751539Y-18552936D02*
X7761063Y-18543412D01*
X7922968Y-18571984D02*
X7884872Y-18571984D01*
X7884872Y-18571984D02*
X7865825Y-18581508D01*
X7865825Y-18581508D02*
X7856301Y-18591031D01*
X7856301Y-18591031D02*
X7837253Y-18619603D01*
X7837253Y-18619603D02*
X7827729Y-18657698D01*
X7827729Y-18657698D02*
X7827729Y-18733889D01*
X7827729Y-18733889D02*
X7837253Y-18752936D01*
X7837253Y-18752936D02*
X7846777Y-18762460D01*
X7846777Y-18762460D02*
X7865825Y-18771984D01*
X7865825Y-18771984D02*
X7903920Y-18771984D01*
X7903920Y-18771984D02*
X7922968Y-18762460D01*
X7922968Y-18762460D02*
X7932491Y-18752936D01*
X7932491Y-18752936D02*
X7942015Y-18733889D01*
X7942015Y-18733889D02*
X7942015Y-18686270D01*
X7942015Y-18686270D02*
X7932491Y-18667222D01*
X7932491Y-18667222D02*
X7922968Y-18657698D01*
X7922968Y-18657698D02*
X7903920Y-18648174D01*
X7903920Y-18648174D02*
X7865825Y-18648174D01*
X7865825Y-18648174D02*
X7846777Y-18657698D01*
X7846777Y-18657698D02*
X7837253Y-18667222D01*
X7837253Y-18667222D02*
X7827729Y-18686270D01*
X8180110Y-18771984D02*
X8180110Y-18571984D01*
X8265825Y-18771984D02*
X8265825Y-18667222D01*
X8265825Y-18667222D02*
X8256301Y-18648174D01*
X8256301Y-18648174D02*
X8237253Y-18638650D01*
X8237253Y-18638650D02*
X8208682Y-18638650D01*
X8208682Y-18638650D02*
X8189634Y-18648174D01*
X8189634Y-18648174D02*
X8180110Y-18657698D01*
X8389634Y-18771984D02*
X8370587Y-18762460D01*
X8370587Y-18762460D02*
X8361063Y-18752936D01*
X8361063Y-18752936D02*
X8351539Y-18733889D01*
X8351539Y-18733889D02*
X8351539Y-18676746D01*
X8351539Y-18676746D02*
X8361063Y-18657698D01*
X8361063Y-18657698D02*
X8370587Y-18648174D01*
X8370587Y-18648174D02*
X8389634Y-18638650D01*
X8389634Y-18638650D02*
X8418206Y-18638650D01*
X8418206Y-18638650D02*
X8437253Y-18648174D01*
X8437253Y-18648174D02*
X8446777Y-18657698D01*
X8446777Y-18657698D02*
X8456301Y-18676746D01*
X8456301Y-18676746D02*
X8456301Y-18733889D01*
X8456301Y-18733889D02*
X8446777Y-18752936D01*
X8446777Y-18752936D02*
X8437253Y-18762460D01*
X8437253Y-18762460D02*
X8418206Y-18771984D01*
X8418206Y-18771984D02*
X8389634Y-18771984D01*
X8570587Y-18771984D02*
X8551539Y-18762460D01*
X8551539Y-18762460D02*
X8542015Y-18743412D01*
X8542015Y-18743412D02*
X8542015Y-18571984D01*
X8722968Y-18762460D02*
X8703920Y-18771984D01*
X8703920Y-18771984D02*
X8665825Y-18771984D01*
X8665825Y-18771984D02*
X8646777Y-18762460D01*
X8646777Y-18762460D02*
X8637253Y-18743412D01*
X8637253Y-18743412D02*
X8637253Y-18667222D01*
X8637253Y-18667222D02*
X8646777Y-18648174D01*
X8646777Y-18648174D02*
X8665825Y-18638650D01*
X8665825Y-18638650D02*
X8703920Y-18638650D01*
X8703920Y-18638650D02*
X8722968Y-18648174D01*
X8722968Y-18648174D02*
X8732492Y-18667222D01*
X8732492Y-18667222D02*
X8732492Y-18686270D01*
X8732492Y-18686270D02*
X8637253Y-18705317D01*
X8808682Y-18762460D02*
X8827730Y-18771984D01*
X8827730Y-18771984D02*
X8865825Y-18771984D01*
X8865825Y-18771984D02*
X8884873Y-18762460D01*
X8884873Y-18762460D02*
X8894396Y-18743412D01*
X8894396Y-18743412D02*
X8894396Y-18733889D01*
X8894396Y-18733889D02*
X8884873Y-18714841D01*
X8884873Y-18714841D02*
X8865825Y-18705317D01*
X8865825Y-18705317D02*
X8837253Y-18705317D01*
X8837253Y-18705317D02*
X8818206Y-18695793D01*
X8818206Y-18695793D02*
X8808682Y-18676746D01*
X8808682Y-18676746D02*
X8808682Y-18667222D01*
X8808682Y-18667222D02*
X8818206Y-18648174D01*
X8818206Y-18648174D02*
X8837253Y-18638650D01*
X8837253Y-18638650D02*
X8865825Y-18638650D01*
X8865825Y-18638650D02*
X8884873Y-18648174D01*
X8961063Y-18848174D02*
X8970587Y-18838650D01*
X8970587Y-18838650D02*
X8989634Y-18810079D01*
X8989634Y-18810079D02*
X8999158Y-18791031D01*
X8999158Y-18791031D02*
X9008682Y-18762460D01*
X9008682Y-18762460D02*
X9018206Y-18714841D01*
X9018206Y-18714841D02*
X9018206Y-18676746D01*
X9018206Y-18676746D02*
X9008682Y-18629127D01*
X9008682Y-18629127D02*
X8999158Y-18600555D01*
X8999158Y-18600555D02*
X8989634Y-18581508D01*
X8989634Y-18581508D02*
X8970587Y-18552936D01*
X8970587Y-18552936D02*
X8961063Y-18543412D01*
M02*
