M48
; DRILL file {KiCad 7.0.9} date Tue May  7 07:23:24 2024
; FORMAT={-:-/ absolute / metric / decimal}
; #@! TF.CreationDate,2024-05-07T07:23:24+02:00
; #@! TF.GenerationSoftware,Kicad,Pcbnew,7.0.9
; #@! TF.FileFunction,Plated,1,2,PTH
FMAT,2
METRIC
; #@! TA.AperFunction,Plated,PTH,ViaDrill
T1C0.400
; #@! TA.AperFunction,Plated,PTH,ComponentDrill
T2C0.900
; #@! TA.AperFunction,Plated,PTH,ComponentDrill
T3C1.000
; #@! TA.AperFunction,Plated,PTH,ComponentDrill
T4C1.050
; #@! TA.AperFunction,Plated,PTH,ComponentDrill
T5C1.250
; #@! TA.AperFunction,Plated,PTH,ComponentDrill
T6C1.300
; #@! TA.AperFunction,Plated,PTH,ComponentDrill
T7C2.000
; #@! TA.AperFunction,Plated,PTH,ViaDrill
T8C2.500
; #@! TA.AperFunction,Plated,PTH,ComponentDrill
T9C2.770
%
G90
G05
T1
X51.308Y-101.092
X52.07Y-130.81
X54.507Y-102.108
X56.896Y-97.028
X56.896Y-116.332
X58.42Y-121.285
X59.69Y-107.188
X62.992Y-119.91
X64.135Y-99.06
X67.225Y-109.624
X71.12Y-105.41
X74.295Y-107.315
X74.59Y-125.094
X81.879Y-120.69
X82.804Y-134.62
X83.82Y-102.616
X83.82Y-120.904
X86.078Y-123.697
X86.37Y-117.15
X86.995Y-132.715
X90.805Y-107.315
X91.662Y-117.062
X96.012Y-103.632
X96.52Y-119.506
X96.647Y-90.043
X99.06Y-84.836
X100.584Y-103.632
X100.584Y-112.776
X101.6Y-121.412
X106.68Y-118.872
X109.378Y-121.106
X109.474Y-118.872
X110.68Y-101.428
X114.808Y-118.975
X114.959Y-101.3
X117.348Y-84.836
X117.897Y-89.957
X120.396Y-109.22
X122.936Y-120.904
X123.444Y-110.744
X129.829Y-102.363
T2
X50.8Y-87.12
X53.34Y-87.12
X76.2Y-87.12
X78.74Y-87.12
X102.87Y-87.12
X105.41Y-87.12
T3
X61.045Y-132.63
X63.545Y-132.63
X66.045Y-132.63
X100.37Y-132.63
X102.87Y-132.63
X105.37Y-132.63
X127.635Y-132.7
X130.135Y-132.7
X132.635Y-132.7
T4
X80.01Y-96.64
X80.01Y-111.64
X103.505Y-96.64
X103.505Y-111.64
T5
X50.292Y-135.992
X50.292Y-139.192
X50.292Y-142.392
X79.248Y-135.84
X79.248Y-139.04
X79.248Y-142.24
X90.424Y-135.992
X90.424Y-139.192
X90.424Y-142.392
X117.348Y-135.992
X117.348Y-139.192
X117.348Y-142.392
T6
X122.025Y-85.09
X127.025Y-85.09
X132.025Y-85.09
T7
X48.26Y-82.04
X58.42Y-82.04
X73.66Y-82.04
X83.82Y-82.04
X100.33Y-82.04
X110.49Y-82.04
T8
X46.99Y-154.94
X54.292Y-154.94
X61.595Y-154.94
T9
X59.145Y-139.63
X67.945Y-139.63
X98.47Y-139.63
X107.27Y-139.63
X125.735Y-139.7
X134.535Y-139.7
T0
M30
