%TF.GenerationSoftware,KiCad,Pcbnew,7.0.9*%
%TF.CreationDate,2024-05-07T07:23:26+02:00*%
%TF.ProjectId,ElectronicDuffing,456c6563-7472-46f6-9e69-634475666669,v 1.1*%
%TF.SameCoordinates,Original*%
%TF.FileFunction,Drillmap*%
%TF.FilePolarity,Positive*%
%FSLAX45Y45*%
G04 Gerber Fmt 4.5, Leading zero omitted, Abs format (unit mm)*
G04 Created by KiCad (PCBNEW 7.0.9) date 2024-05-07 07:23:26*
%MOMM*%
%LPD*%
G01*
G04 APERTURE LIST*
%ADD10C,0.100000*%
%ADD11C,0.200000*%
G04 APERTURE END LIST*
D10*
X4191000Y-7366000D02*
X13843000Y-7366000D01*
X13843000Y-15811500D01*
X4191000Y-15811500D01*
X4191000Y-7366000D01*
D11*
X4446777Y-16127984D02*
X4446777Y-15927984D01*
X4446777Y-15927984D02*
X4494396Y-15927984D01*
X4494396Y-15927984D02*
X4522967Y-15937508D01*
X4522967Y-15937508D02*
X4542015Y-15956555D01*
X4542015Y-15956555D02*
X4551539Y-15975603D01*
X4551539Y-15975603D02*
X4561063Y-16013698D01*
X4561063Y-16013698D02*
X4561063Y-16042269D01*
X4561063Y-16042269D02*
X4551539Y-16080365D01*
X4551539Y-16080365D02*
X4542015Y-16099412D01*
X4542015Y-16099412D02*
X4522967Y-16118460D01*
X4522967Y-16118460D02*
X4494396Y-16127984D01*
X4494396Y-16127984D02*
X4446777Y-16127984D01*
X4646777Y-16127984D02*
X4646777Y-15994650D01*
X4646777Y-16032746D02*
X4656301Y-16013698D01*
X4656301Y-16013698D02*
X4665824Y-16004174D01*
X4665824Y-16004174D02*
X4684872Y-15994650D01*
X4684872Y-15994650D02*
X4703920Y-15994650D01*
X4770586Y-16127984D02*
X4770586Y-15994650D01*
X4770586Y-15927984D02*
X4761063Y-15937508D01*
X4761063Y-15937508D02*
X4770586Y-15947031D01*
X4770586Y-15947031D02*
X4780110Y-15937508D01*
X4780110Y-15937508D02*
X4770586Y-15927984D01*
X4770586Y-15927984D02*
X4770586Y-15947031D01*
X4894396Y-16127984D02*
X4875348Y-16118460D01*
X4875348Y-16118460D02*
X4865824Y-16099412D01*
X4865824Y-16099412D02*
X4865824Y-15927984D01*
X4999158Y-16127984D02*
X4980110Y-16118460D01*
X4980110Y-16118460D02*
X4970586Y-16099412D01*
X4970586Y-16099412D02*
X4970586Y-15927984D01*
X5227729Y-16127984D02*
X5227729Y-15927984D01*
X5227729Y-15927984D02*
X5294396Y-16070841D01*
X5294396Y-16070841D02*
X5361063Y-15927984D01*
X5361063Y-15927984D02*
X5361063Y-16127984D01*
X5542015Y-16127984D02*
X5542015Y-16023222D01*
X5542015Y-16023222D02*
X5532491Y-16004174D01*
X5532491Y-16004174D02*
X5513444Y-15994650D01*
X5513444Y-15994650D02*
X5475348Y-15994650D01*
X5475348Y-15994650D02*
X5456301Y-16004174D01*
X5542015Y-16118460D02*
X5522967Y-16127984D01*
X5522967Y-16127984D02*
X5475348Y-16127984D01*
X5475348Y-16127984D02*
X5456301Y-16118460D01*
X5456301Y-16118460D02*
X5446777Y-16099412D01*
X5446777Y-16099412D02*
X5446777Y-16080365D01*
X5446777Y-16080365D02*
X5456301Y-16061317D01*
X5456301Y-16061317D02*
X5475348Y-16051793D01*
X5475348Y-16051793D02*
X5522967Y-16051793D01*
X5522967Y-16051793D02*
X5542015Y-16042269D01*
X5637253Y-15994650D02*
X5637253Y-16194650D01*
X5637253Y-16004174D02*
X5656301Y-15994650D01*
X5656301Y-15994650D02*
X5694396Y-15994650D01*
X5694396Y-15994650D02*
X5713443Y-16004174D01*
X5713443Y-16004174D02*
X5722967Y-16013698D01*
X5722967Y-16013698D02*
X5732491Y-16032746D01*
X5732491Y-16032746D02*
X5732491Y-16089888D01*
X5732491Y-16089888D02*
X5722967Y-16108936D01*
X5722967Y-16108936D02*
X5713443Y-16118460D01*
X5713443Y-16118460D02*
X5694396Y-16127984D01*
X5694396Y-16127984D02*
X5656301Y-16127984D01*
X5656301Y-16127984D02*
X5637253Y-16118460D01*
X5818205Y-16108936D02*
X5827729Y-16118460D01*
X5827729Y-16118460D02*
X5818205Y-16127984D01*
X5818205Y-16127984D02*
X5808682Y-16118460D01*
X5808682Y-16118460D02*
X5818205Y-16108936D01*
X5818205Y-16108936D02*
X5818205Y-16127984D01*
X5818205Y-16004174D02*
X5827729Y-16013698D01*
X5827729Y-16013698D02*
X5818205Y-16023222D01*
X5818205Y-16023222D02*
X5808682Y-16013698D01*
X5808682Y-16013698D02*
X5818205Y-16004174D01*
X5818205Y-16004174D02*
X5818205Y-16023222D01*
M02*
