%TF.GenerationSoftware,KiCad,Pcbnew,7.0.9*%
%TF.CreationDate,2024-05-07T07:23:08+02:00*%
%TF.ProjectId,ElectronicDuffing,456c6563-7472-46f6-9e69-634475666669,v 1.1*%
%TF.SameCoordinates,Original*%
%TF.FileFunction,Legend,Top*%
%TF.FilePolarity,Positive*%
%FSLAX46Y46*%
G04 Gerber Fmt 4.6, Leading zero omitted, Abs format (unit mm)*
G04 Created by KiCad (PCBNEW 7.0.9) date 2024-05-07 07:23:08*
%MOMM*%
%LPD*%
G01*
G04 APERTURE LIST*
G04 Aperture macros list*
%AMRoundRect*
0 Rectangle with rounded corners*
0 $1 Rounding radius*
0 $2 $3 $4 $5 $6 $7 $8 $9 X,Y pos of 4 corners*
0 Add a 4 corners polygon primitive as box body*
4,1,4,$2,$3,$4,$5,$6,$7,$8,$9,$2,$3,0*
0 Add four circle primitives for the rounded corners*
1,1,$1+$1,$2,$3*
1,1,$1+$1,$4,$5*
1,1,$1+$1,$6,$7*
1,1,$1+$1,$8,$9*
0 Add four rect primitives between the rounded corners*
20,1,$1+$1,$2,$3,$4,$5,0*
20,1,$1+$1,$4,$5,$6,$7,0*
20,1,$1+$1,$6,$7,$8,$9,0*
20,1,$1+$1,$8,$9,$2,$3,0*%
G04 Aperture macros list end*
%ADD10C,0.150000*%
%ADD11C,0.254000*%
%ADD12C,0.100000*%
%ADD13C,0.200000*%
%ADD14C,0.120000*%
%ADD15C,0.152400*%
%ADD16C,0.500000*%
%ADD17RoundRect,0.050800X-1.320000X0.420000X-1.320000X-0.420000X1.320000X-0.420000X1.320000X0.420000X0*%
%ADD18RoundRect,0.200800X-0.875000X-0.150000X0.875000X-0.150000X0.875000X0.150000X-0.875000X0.150000X0*%
%ADD19RoundRect,0.050800X-0.488950X-0.254000X0.488950X-0.254000X0.488950X0.254000X-0.488950X0.254000X0*%
%ADD20RoundRect,0.050800X-0.975000X-0.975000X0.975000X-0.975000X0.975000X0.975000X-0.975000X0.975000X0*%
%ADD21C,2.051600*%
%ADD22RoundRect,0.050800X-0.325000X-0.450000X0.325000X-0.450000X0.325000X0.450000X-0.325000X0.450000X0*%
%ADD23RoundRect,0.050800X0.325000X0.450000X-0.325000X0.450000X-0.325000X-0.450000X0.325000X-0.450000X0*%
%ADD24RoundRect,0.050800X-0.700000X-0.700000X0.700000X-0.700000X0.700000X0.700000X-0.700000X0.700000X0*%
%ADD25C,1.501600*%
%ADD26C,3.101600*%
%ADD27C,1.851600*%
%ADD28RoundRect,0.050800X0.420000X1.320000X-0.420000X1.320000X-0.420000X-1.320000X0.420000X-1.320000X0*%
%ADD29C,1.676600*%
%ADD30RoundRect,0.050800X0.455000X0.695000X-0.455000X0.695000X-0.455000X-0.695000X0.455000X-0.695000X0*%
%ADD31RoundRect,0.050800X-0.420000X-1.320000X0.420000X-1.320000X0.420000X1.320000X-0.420000X1.320000X0*%
%ADD32RoundRect,0.050800X0.450000X-0.325000X0.450000X0.325000X-0.450000X0.325000X-0.450000X-0.325000X0*%
%ADD33RoundRect,0.050800X0.900000X0.900000X-0.900000X0.900000X-0.900000X-0.900000X0.900000X-0.900000X0*%
%ADD34C,1.901600*%
%ADD35C,4.256600*%
G04 APERTURE END LIST*
D10*
X78740000Y-151130000D02*
X137160000Y-151130000D01*
X137160000Y-154305000D01*
X78740000Y-154305000D01*
X78740000Y-151130000D01*
X78740000Y-154305000D02*
X137160000Y-154305000D01*
X137160000Y-156845000D01*
X78740000Y-156845000D01*
X78740000Y-154305000D01*
X53885231Y-151936485D02*
X53885231Y-152126961D01*
X53647136Y-151603152D02*
X53599517Y-151650771D01*
X53599517Y-151650771D02*
X53551898Y-151746009D01*
X53551898Y-151746009D02*
X53551898Y-152126961D01*
X53551898Y-152126961D02*
X53599517Y-152222200D01*
X53599517Y-152222200D02*
X53694755Y-152269819D01*
X53694755Y-152269819D02*
X53742374Y-152269819D01*
X53742374Y-152269819D02*
X53837612Y-152222200D01*
X53837612Y-152222200D02*
X53885231Y-152126961D01*
X53885231Y-152126961D02*
X53932850Y-152222200D01*
X53932850Y-152222200D02*
X54028088Y-152269819D01*
X54028088Y-152269819D02*
X54075707Y-152269819D01*
X54075707Y-152269819D02*
X54170945Y-152222200D01*
X54170945Y-152222200D02*
X54218564Y-152126961D01*
X54218564Y-152126961D02*
X54218564Y-151746009D01*
X54218564Y-151746009D02*
X54170945Y-151650771D01*
X54170945Y-151650771D02*
X54123326Y-151603152D01*
X54599517Y-151031723D02*
X54694755Y-150984104D01*
X54694755Y-150984104D02*
X54837612Y-150984104D01*
X54837612Y-150984104D02*
X54932850Y-151031723D01*
X54932850Y-151031723D02*
X54980469Y-151126961D01*
X54980469Y-151126961D02*
X54980469Y-151222200D01*
X54980469Y-151222200D02*
X54932850Y-151317438D01*
X54932850Y-151317438D02*
X54599517Y-151650771D01*
X54599517Y-151650771D02*
X54980469Y-151650771D01*
X80237160Y-155962819D02*
X80184779Y-156015200D01*
X80184779Y-156015200D02*
X80027636Y-156067580D01*
X80027636Y-156067580D02*
X79922874Y-156067580D01*
X79922874Y-156067580D02*
X79765731Y-156015200D01*
X79765731Y-156015200D02*
X79660969Y-155910438D01*
X79660969Y-155910438D02*
X79608588Y-155805676D01*
X79608588Y-155805676D02*
X79556207Y-155596152D01*
X79556207Y-155596152D02*
X79556207Y-155439009D01*
X79556207Y-155439009D02*
X79608588Y-155229485D01*
X79608588Y-155229485D02*
X79660969Y-155124723D01*
X79660969Y-155124723D02*
X79765731Y-155019961D01*
X79765731Y-155019961D02*
X79922874Y-154967580D01*
X79922874Y-154967580D02*
X80027636Y-154967580D01*
X80027636Y-154967580D02*
X80184779Y-155019961D01*
X80184779Y-155019961D02*
X80237160Y-155072342D01*
X81337160Y-155962819D02*
X81284779Y-156015200D01*
X81284779Y-156015200D02*
X81127636Y-156067580D01*
X81127636Y-156067580D02*
X81022874Y-156067580D01*
X81022874Y-156067580D02*
X80865731Y-156015200D01*
X80865731Y-156015200D02*
X80760969Y-155910438D01*
X80760969Y-155910438D02*
X80708588Y-155805676D01*
X80708588Y-155805676D02*
X80656207Y-155596152D01*
X80656207Y-155596152D02*
X80656207Y-155439009D01*
X80656207Y-155439009D02*
X80708588Y-155229485D01*
X80708588Y-155229485D02*
X80760969Y-155124723D01*
X80760969Y-155124723D02*
X80865731Y-155019961D01*
X80865731Y-155019961D02*
X81022874Y-154967580D01*
X81022874Y-154967580D02*
X81127636Y-154967580D01*
X81127636Y-154967580D02*
X81284779Y-155019961D01*
X81284779Y-155019961D02*
X81337160Y-155072342D01*
X83013350Y-155491390D02*
X83170493Y-155543771D01*
X83170493Y-155543771D02*
X83222874Y-155596152D01*
X83222874Y-155596152D02*
X83275255Y-155700914D01*
X83275255Y-155700914D02*
X83275255Y-155858057D01*
X83275255Y-155858057D02*
X83222874Y-155962819D01*
X83222874Y-155962819D02*
X83170493Y-156015200D01*
X83170493Y-156015200D02*
X83065731Y-156067580D01*
X83065731Y-156067580D02*
X82646683Y-156067580D01*
X82646683Y-156067580D02*
X82646683Y-154967580D01*
X82646683Y-154967580D02*
X83013350Y-154967580D01*
X83013350Y-154967580D02*
X83118112Y-155019961D01*
X83118112Y-155019961D02*
X83170493Y-155072342D01*
X83170493Y-155072342D02*
X83222874Y-155177104D01*
X83222874Y-155177104D02*
X83222874Y-155281866D01*
X83222874Y-155281866D02*
X83170493Y-155386628D01*
X83170493Y-155386628D02*
X83118112Y-155439009D01*
X83118112Y-155439009D02*
X83013350Y-155491390D01*
X83013350Y-155491390D02*
X82646683Y-155491390D01*
X83956207Y-155543771D02*
X83956207Y-156067580D01*
X83589540Y-154967580D02*
X83956207Y-155543771D01*
X83956207Y-155543771D02*
X84322874Y-154967580D01*
X85999064Y-155334247D02*
X85999064Y-156067580D01*
X85737159Y-154915200D02*
X85475254Y-155700914D01*
X85475254Y-155700914D02*
X86156207Y-155700914D01*
X86575254Y-155962819D02*
X86627635Y-156015200D01*
X86627635Y-156015200D02*
X86575254Y-156067580D01*
X86575254Y-156067580D02*
X86522873Y-156015200D01*
X86522873Y-156015200D02*
X86575254Y-155962819D01*
X86575254Y-155962819D02*
X86575254Y-156067580D01*
X87308588Y-154967580D02*
X87413350Y-154967580D01*
X87413350Y-154967580D02*
X87518112Y-155019961D01*
X87518112Y-155019961D02*
X87570493Y-155072342D01*
X87570493Y-155072342D02*
X87622874Y-155177104D01*
X87622874Y-155177104D02*
X87675255Y-155386628D01*
X87675255Y-155386628D02*
X87675255Y-155648533D01*
X87675255Y-155648533D02*
X87622874Y-155858057D01*
X87622874Y-155858057D02*
X87570493Y-155962819D01*
X87570493Y-155962819D02*
X87518112Y-156015200D01*
X87518112Y-156015200D02*
X87413350Y-156067580D01*
X87413350Y-156067580D02*
X87308588Y-156067580D01*
X87308588Y-156067580D02*
X87203826Y-156015200D01*
X87203826Y-156015200D02*
X87151445Y-155962819D01*
X87151445Y-155962819D02*
X87099064Y-155858057D01*
X87099064Y-155858057D02*
X87046683Y-155648533D01*
X87046683Y-155648533D02*
X87046683Y-155386628D01*
X87046683Y-155386628D02*
X87099064Y-155177104D01*
X87099064Y-155177104D02*
X87151445Y-155072342D01*
X87151445Y-155072342D02*
X87203826Y-155019961D01*
X87203826Y-155019961D02*
X87308588Y-154967580D01*
X88984778Y-155648533D02*
X89822874Y-155648533D01*
X91184778Y-156067580D02*
X91184778Y-154967580D01*
X91656207Y-156067580D02*
X91656207Y-155491390D01*
X91656207Y-155491390D02*
X91603826Y-155386628D01*
X91603826Y-155386628D02*
X91499064Y-155334247D01*
X91499064Y-155334247D02*
X91341921Y-155334247D01*
X91341921Y-155334247D02*
X91237159Y-155386628D01*
X91237159Y-155386628D02*
X91184778Y-155439009D01*
X92022873Y-155334247D02*
X92441921Y-155334247D01*
X92180016Y-154967580D02*
X92180016Y-155910438D01*
X92180016Y-155910438D02*
X92232397Y-156015200D01*
X92232397Y-156015200D02*
X92337159Y-156067580D01*
X92337159Y-156067580D02*
X92441921Y-156067580D01*
X92651444Y-155334247D02*
X93070492Y-155334247D01*
X92808587Y-154967580D02*
X92808587Y-155910438D01*
X92808587Y-155910438D02*
X92860968Y-156015200D01*
X92860968Y-156015200D02*
X92965730Y-156067580D01*
X92965730Y-156067580D02*
X93070492Y-156067580D01*
X93437158Y-155334247D02*
X93437158Y-156434247D01*
X93437158Y-155386628D02*
X93541920Y-155334247D01*
X93541920Y-155334247D02*
X93751444Y-155334247D01*
X93751444Y-155334247D02*
X93856206Y-155386628D01*
X93856206Y-155386628D02*
X93908587Y-155439009D01*
X93908587Y-155439009D02*
X93960968Y-155543771D01*
X93960968Y-155543771D02*
X93960968Y-155858057D01*
X93960968Y-155858057D02*
X93908587Y-155962819D01*
X93908587Y-155962819D02*
X93856206Y-156015200D01*
X93856206Y-156015200D02*
X93751444Y-156067580D01*
X93751444Y-156067580D02*
X93541920Y-156067580D01*
X93541920Y-156067580D02*
X93437158Y-156015200D01*
X94380015Y-156015200D02*
X94484777Y-156067580D01*
X94484777Y-156067580D02*
X94694301Y-156067580D01*
X94694301Y-156067580D02*
X94799063Y-156015200D01*
X94799063Y-156015200D02*
X94851444Y-155910438D01*
X94851444Y-155910438D02*
X94851444Y-155858057D01*
X94851444Y-155858057D02*
X94799063Y-155753295D01*
X94799063Y-155753295D02*
X94694301Y-155700914D01*
X94694301Y-155700914D02*
X94537158Y-155700914D01*
X94537158Y-155700914D02*
X94432396Y-155648533D01*
X94432396Y-155648533D02*
X94380015Y-155543771D01*
X94380015Y-155543771D02*
X94380015Y-155491390D01*
X94380015Y-155491390D02*
X94432396Y-155386628D01*
X94432396Y-155386628D02*
X94537158Y-155334247D01*
X94537158Y-155334247D02*
X94694301Y-155334247D01*
X94694301Y-155334247D02*
X94799063Y-155386628D01*
X95322872Y-155962819D02*
X95375253Y-156015200D01*
X95375253Y-156015200D02*
X95322872Y-156067580D01*
X95322872Y-156067580D02*
X95270491Y-156015200D01*
X95270491Y-156015200D02*
X95322872Y-155962819D01*
X95322872Y-155962819D02*
X95322872Y-156067580D01*
X95322872Y-155386628D02*
X95375253Y-155439009D01*
X95375253Y-155439009D02*
X95322872Y-155491390D01*
X95322872Y-155491390D02*
X95270491Y-155439009D01*
X95270491Y-155439009D02*
X95322872Y-155386628D01*
X95322872Y-155386628D02*
X95322872Y-155491390D01*
X96632397Y-154915200D02*
X95689539Y-156329485D01*
X97784778Y-154915200D02*
X96841920Y-156329485D01*
X98622873Y-155334247D02*
X98622873Y-156224723D01*
X98622873Y-156224723D02*
X98570492Y-156329485D01*
X98570492Y-156329485D02*
X98518111Y-156381866D01*
X98518111Y-156381866D02*
X98413349Y-156434247D01*
X98413349Y-156434247D02*
X98256206Y-156434247D01*
X98256206Y-156434247D02*
X98151444Y-156381866D01*
X98622873Y-156015200D02*
X98518111Y-156067580D01*
X98518111Y-156067580D02*
X98308587Y-156067580D01*
X98308587Y-156067580D02*
X98203825Y-156015200D01*
X98203825Y-156015200D02*
X98151444Y-155962819D01*
X98151444Y-155962819D02*
X98099063Y-155858057D01*
X98099063Y-155858057D02*
X98099063Y-155543771D01*
X98099063Y-155543771D02*
X98151444Y-155439009D01*
X98151444Y-155439009D02*
X98203825Y-155386628D01*
X98203825Y-155386628D02*
X98308587Y-155334247D01*
X98308587Y-155334247D02*
X98518111Y-155334247D01*
X98518111Y-155334247D02*
X98622873Y-155386628D01*
X99146682Y-156067580D02*
X99146682Y-155334247D01*
X99146682Y-154967580D02*
X99094301Y-155019961D01*
X99094301Y-155019961D02*
X99146682Y-155072342D01*
X99146682Y-155072342D02*
X99199063Y-155019961D01*
X99199063Y-155019961D02*
X99146682Y-154967580D01*
X99146682Y-154967580D02*
X99146682Y-155072342D01*
X99513349Y-155334247D02*
X99932397Y-155334247D01*
X99670492Y-154967580D02*
X99670492Y-155910438D01*
X99670492Y-155910438D02*
X99722873Y-156015200D01*
X99722873Y-156015200D02*
X99827635Y-156067580D01*
X99827635Y-156067580D02*
X99932397Y-156067580D01*
X100299063Y-156067580D02*
X100299063Y-154967580D01*
X100770492Y-156067580D02*
X100770492Y-155491390D01*
X100770492Y-155491390D02*
X100718111Y-155386628D01*
X100718111Y-155386628D02*
X100613349Y-155334247D01*
X100613349Y-155334247D02*
X100456206Y-155334247D01*
X100456206Y-155334247D02*
X100351444Y-155386628D01*
X100351444Y-155386628D02*
X100299063Y-155439009D01*
X101765730Y-155334247D02*
X101765730Y-156067580D01*
X101294301Y-155334247D02*
X101294301Y-155910438D01*
X101294301Y-155910438D02*
X101346682Y-156015200D01*
X101346682Y-156015200D02*
X101451444Y-156067580D01*
X101451444Y-156067580D02*
X101608587Y-156067580D01*
X101608587Y-156067580D02*
X101713349Y-156015200D01*
X101713349Y-156015200D02*
X101765730Y-155962819D01*
X102289539Y-156067580D02*
X102289539Y-154967580D01*
X102289539Y-155386628D02*
X102394301Y-155334247D01*
X102394301Y-155334247D02*
X102603825Y-155334247D01*
X102603825Y-155334247D02*
X102708587Y-155386628D01*
X102708587Y-155386628D02*
X102760968Y-155439009D01*
X102760968Y-155439009D02*
X102813349Y-155543771D01*
X102813349Y-155543771D02*
X102813349Y-155858057D01*
X102813349Y-155858057D02*
X102760968Y-155962819D01*
X102760968Y-155962819D02*
X102708587Y-156015200D01*
X102708587Y-156015200D02*
X102603825Y-156067580D01*
X102603825Y-156067580D02*
X102394301Y-156067580D01*
X102394301Y-156067580D02*
X102289539Y-156015200D01*
X103284777Y-155962819D02*
X103337158Y-156015200D01*
X103337158Y-156015200D02*
X103284777Y-156067580D01*
X103284777Y-156067580D02*
X103232396Y-156015200D01*
X103232396Y-156015200D02*
X103284777Y-155962819D01*
X103284777Y-155962819D02*
X103284777Y-156067580D01*
X104280016Y-156015200D02*
X104175254Y-156067580D01*
X104175254Y-156067580D02*
X103965730Y-156067580D01*
X103965730Y-156067580D02*
X103860968Y-156015200D01*
X103860968Y-156015200D02*
X103808587Y-155962819D01*
X103808587Y-155962819D02*
X103756206Y-155858057D01*
X103756206Y-155858057D02*
X103756206Y-155543771D01*
X103756206Y-155543771D02*
X103808587Y-155439009D01*
X103808587Y-155439009D02*
X103860968Y-155386628D01*
X103860968Y-155386628D02*
X103965730Y-155334247D01*
X103965730Y-155334247D02*
X104175254Y-155334247D01*
X104175254Y-155334247D02*
X104280016Y-155386628D01*
X104908587Y-156067580D02*
X104803825Y-156015200D01*
X104803825Y-156015200D02*
X104751444Y-155962819D01*
X104751444Y-155962819D02*
X104699063Y-155858057D01*
X104699063Y-155858057D02*
X104699063Y-155543771D01*
X104699063Y-155543771D02*
X104751444Y-155439009D01*
X104751444Y-155439009D02*
X104803825Y-155386628D01*
X104803825Y-155386628D02*
X104908587Y-155334247D01*
X104908587Y-155334247D02*
X105065730Y-155334247D01*
X105065730Y-155334247D02*
X105170492Y-155386628D01*
X105170492Y-155386628D02*
X105222873Y-155439009D01*
X105222873Y-155439009D02*
X105275254Y-155543771D01*
X105275254Y-155543771D02*
X105275254Y-155858057D01*
X105275254Y-155858057D02*
X105222873Y-155962819D01*
X105222873Y-155962819D02*
X105170492Y-156015200D01*
X105170492Y-156015200D02*
X105065730Y-156067580D01*
X105065730Y-156067580D02*
X104908587Y-156067580D01*
X105746682Y-156067580D02*
X105746682Y-155334247D01*
X105746682Y-155439009D02*
X105799063Y-155386628D01*
X105799063Y-155386628D02*
X105903825Y-155334247D01*
X105903825Y-155334247D02*
X106060968Y-155334247D01*
X106060968Y-155334247D02*
X106165730Y-155386628D01*
X106165730Y-155386628D02*
X106218111Y-155491390D01*
X106218111Y-155491390D02*
X106218111Y-156067580D01*
X106218111Y-155491390D02*
X106270492Y-155386628D01*
X106270492Y-155386628D02*
X106375254Y-155334247D01*
X106375254Y-155334247D02*
X106532397Y-155334247D01*
X106532397Y-155334247D02*
X106637158Y-155386628D01*
X106637158Y-155386628D02*
X106689539Y-155491390D01*
X106689539Y-155491390D02*
X106689539Y-156067580D01*
X107999064Y-154915200D02*
X107056206Y-156329485D01*
X108941921Y-155019961D02*
X108837159Y-154967580D01*
X108837159Y-154967580D02*
X108680016Y-154967580D01*
X108680016Y-154967580D02*
X108522873Y-155019961D01*
X108522873Y-155019961D02*
X108418111Y-155124723D01*
X108418111Y-155124723D02*
X108365730Y-155229485D01*
X108365730Y-155229485D02*
X108313349Y-155439009D01*
X108313349Y-155439009D02*
X108313349Y-155596152D01*
X108313349Y-155596152D02*
X108365730Y-155805676D01*
X108365730Y-155805676D02*
X108418111Y-155910438D01*
X108418111Y-155910438D02*
X108522873Y-156015200D01*
X108522873Y-156015200D02*
X108680016Y-156067580D01*
X108680016Y-156067580D02*
X108784778Y-156067580D01*
X108784778Y-156067580D02*
X108941921Y-156015200D01*
X108941921Y-156015200D02*
X108994302Y-155962819D01*
X108994302Y-155962819D02*
X108994302Y-155596152D01*
X108994302Y-155596152D02*
X108784778Y-155596152D01*
X109465730Y-156067580D02*
X109465730Y-154967580D01*
X109937159Y-156067580D02*
X109937159Y-155491390D01*
X109937159Y-155491390D02*
X109884778Y-155386628D01*
X109884778Y-155386628D02*
X109780016Y-155334247D01*
X109780016Y-155334247D02*
X109622873Y-155334247D01*
X109622873Y-155334247D02*
X109518111Y-155386628D01*
X109518111Y-155386628D02*
X109465730Y-155439009D01*
X110460968Y-156067580D02*
X110460968Y-155334247D01*
X110460968Y-154967580D02*
X110408587Y-155019961D01*
X110408587Y-155019961D02*
X110460968Y-155072342D01*
X110460968Y-155072342D02*
X110513349Y-155019961D01*
X110513349Y-155019961D02*
X110460968Y-154967580D01*
X110460968Y-154967580D02*
X110460968Y-155072342D01*
X110932397Y-156015200D02*
X111037159Y-156067580D01*
X111037159Y-156067580D02*
X111246683Y-156067580D01*
X111246683Y-156067580D02*
X111351445Y-156015200D01*
X111351445Y-156015200D02*
X111403826Y-155910438D01*
X111403826Y-155910438D02*
X111403826Y-155858057D01*
X111403826Y-155858057D02*
X111351445Y-155753295D01*
X111351445Y-155753295D02*
X111246683Y-155700914D01*
X111246683Y-155700914D02*
X111089540Y-155700914D01*
X111089540Y-155700914D02*
X110984778Y-155648533D01*
X110984778Y-155648533D02*
X110932397Y-155543771D01*
X110932397Y-155543771D02*
X110932397Y-155491390D01*
X110932397Y-155491390D02*
X110984778Y-155386628D01*
X110984778Y-155386628D02*
X111089540Y-155334247D01*
X111089540Y-155334247D02*
X111246683Y-155334247D01*
X111246683Y-155334247D02*
X111351445Y-155386628D01*
X112032397Y-156067580D02*
X111927635Y-156015200D01*
X111927635Y-156015200D02*
X111875254Y-155910438D01*
X111875254Y-155910438D02*
X111875254Y-154967580D01*
X112922873Y-156067580D02*
X112922873Y-155491390D01*
X112922873Y-155491390D02*
X112870492Y-155386628D01*
X112870492Y-155386628D02*
X112765730Y-155334247D01*
X112765730Y-155334247D02*
X112556206Y-155334247D01*
X112556206Y-155334247D02*
X112451444Y-155386628D01*
X112922873Y-156015200D02*
X112818111Y-156067580D01*
X112818111Y-156067580D02*
X112556206Y-156067580D01*
X112556206Y-156067580D02*
X112451444Y-156015200D01*
X112451444Y-156015200D02*
X112399063Y-155910438D01*
X112399063Y-155910438D02*
X112399063Y-155805676D01*
X112399063Y-155805676D02*
X112451444Y-155700914D01*
X112451444Y-155700914D02*
X112556206Y-155648533D01*
X112556206Y-155648533D02*
X112818111Y-155648533D01*
X112818111Y-155648533D02*
X112922873Y-155596152D01*
X113446682Y-156067580D02*
X113446682Y-155334247D01*
X113446682Y-154967580D02*
X113394301Y-155019961D01*
X113394301Y-155019961D02*
X113446682Y-155072342D01*
X113446682Y-155072342D02*
X113499063Y-155019961D01*
X113499063Y-155019961D02*
X113446682Y-154967580D01*
X113446682Y-154967580D02*
X113446682Y-155072342D01*
X113970492Y-155334247D02*
X113970492Y-156067580D01*
X113970492Y-155439009D02*
X114022873Y-155386628D01*
X114022873Y-155386628D02*
X114127635Y-155334247D01*
X114127635Y-155334247D02*
X114284778Y-155334247D01*
X114284778Y-155334247D02*
X114389540Y-155386628D01*
X114389540Y-155386628D02*
X114441921Y-155491390D01*
X114441921Y-155491390D02*
X114441921Y-156067580D01*
X115594302Y-156067580D02*
X115227635Y-155543771D01*
X114965730Y-156067580D02*
X114965730Y-154967580D01*
X114965730Y-154967580D02*
X115384778Y-154967580D01*
X115384778Y-154967580D02*
X115489540Y-155019961D01*
X115489540Y-155019961D02*
X115541921Y-155072342D01*
X115541921Y-155072342D02*
X115594302Y-155177104D01*
X115594302Y-155177104D02*
X115594302Y-155334247D01*
X115594302Y-155334247D02*
X115541921Y-155439009D01*
X115541921Y-155439009D02*
X115489540Y-155491390D01*
X115489540Y-155491390D02*
X115384778Y-155543771D01*
X115384778Y-155543771D02*
X114965730Y-155543771D01*
X116537159Y-156067580D02*
X116537159Y-155491390D01*
X116537159Y-155491390D02*
X116484778Y-155386628D01*
X116484778Y-155386628D02*
X116380016Y-155334247D01*
X116380016Y-155334247D02*
X116170492Y-155334247D01*
X116170492Y-155334247D02*
X116065730Y-155386628D01*
X116537159Y-156015200D02*
X116432397Y-156067580D01*
X116432397Y-156067580D02*
X116170492Y-156067580D01*
X116170492Y-156067580D02*
X116065730Y-156015200D01*
X116065730Y-156015200D02*
X116013349Y-155910438D01*
X116013349Y-155910438D02*
X116013349Y-155805676D01*
X116013349Y-155805676D02*
X116065730Y-155700914D01*
X116065730Y-155700914D02*
X116170492Y-155648533D01*
X116170492Y-155648533D02*
X116432397Y-155648533D01*
X116432397Y-155648533D02*
X116537159Y-155596152D01*
X116956206Y-155334247D02*
X117532397Y-155334247D01*
X117532397Y-155334247D02*
X116956206Y-156067580D01*
X116956206Y-156067580D02*
X117532397Y-156067580D01*
X118370492Y-156015200D02*
X118265730Y-156067580D01*
X118265730Y-156067580D02*
X118056206Y-156067580D01*
X118056206Y-156067580D02*
X117951444Y-156015200D01*
X117951444Y-156015200D02*
X117899063Y-155910438D01*
X117899063Y-155910438D02*
X117899063Y-155491390D01*
X117899063Y-155491390D02*
X117951444Y-155386628D01*
X117951444Y-155386628D02*
X118056206Y-155334247D01*
X118056206Y-155334247D02*
X118265730Y-155334247D01*
X118265730Y-155334247D02*
X118370492Y-155386628D01*
X118370492Y-155386628D02*
X118422873Y-155491390D01*
X118422873Y-155491390D02*
X118422873Y-155596152D01*
X118422873Y-155596152D02*
X117899063Y-155700914D01*
X119680016Y-154915200D02*
X118737158Y-156329485D01*
X120046682Y-155491390D02*
X120413349Y-155491390D01*
X120570492Y-156067580D02*
X120046682Y-156067580D01*
X120046682Y-156067580D02*
X120046682Y-154967580D01*
X120046682Y-154967580D02*
X120570492Y-154967580D01*
X121199063Y-156067580D02*
X121094301Y-156015200D01*
X121094301Y-156015200D02*
X121041920Y-155910438D01*
X121041920Y-155910438D02*
X121041920Y-154967580D01*
X122037158Y-156015200D02*
X121932396Y-156067580D01*
X121932396Y-156067580D02*
X121722872Y-156067580D01*
X121722872Y-156067580D02*
X121618110Y-156015200D01*
X121618110Y-156015200D02*
X121565729Y-155910438D01*
X121565729Y-155910438D02*
X121565729Y-155491390D01*
X121565729Y-155491390D02*
X121618110Y-155386628D01*
X121618110Y-155386628D02*
X121722872Y-155334247D01*
X121722872Y-155334247D02*
X121932396Y-155334247D01*
X121932396Y-155334247D02*
X122037158Y-155386628D01*
X122037158Y-155386628D02*
X122089539Y-155491390D01*
X122089539Y-155491390D02*
X122089539Y-155596152D01*
X122089539Y-155596152D02*
X121565729Y-155700914D01*
X123032396Y-156015200D02*
X122927634Y-156067580D01*
X122927634Y-156067580D02*
X122718110Y-156067580D01*
X122718110Y-156067580D02*
X122613348Y-156015200D01*
X122613348Y-156015200D02*
X122560967Y-155962819D01*
X122560967Y-155962819D02*
X122508586Y-155858057D01*
X122508586Y-155858057D02*
X122508586Y-155543771D01*
X122508586Y-155543771D02*
X122560967Y-155439009D01*
X122560967Y-155439009D02*
X122613348Y-155386628D01*
X122613348Y-155386628D02*
X122718110Y-155334247D01*
X122718110Y-155334247D02*
X122927634Y-155334247D01*
X122927634Y-155334247D02*
X123032396Y-155386628D01*
X123346681Y-155334247D02*
X123765729Y-155334247D01*
X123503824Y-154967580D02*
X123503824Y-155910438D01*
X123503824Y-155910438D02*
X123556205Y-156015200D01*
X123556205Y-156015200D02*
X123660967Y-156067580D01*
X123660967Y-156067580D02*
X123765729Y-156067580D01*
X124132395Y-156067580D02*
X124132395Y-155334247D01*
X124132395Y-155543771D02*
X124184776Y-155439009D01*
X124184776Y-155439009D02*
X124237157Y-155386628D01*
X124237157Y-155386628D02*
X124341919Y-155334247D01*
X124341919Y-155334247D02*
X124446681Y-155334247D01*
X124970490Y-156067580D02*
X124865728Y-156015200D01*
X124865728Y-156015200D02*
X124813347Y-155962819D01*
X124813347Y-155962819D02*
X124760966Y-155858057D01*
X124760966Y-155858057D02*
X124760966Y-155543771D01*
X124760966Y-155543771D02*
X124813347Y-155439009D01*
X124813347Y-155439009D02*
X124865728Y-155386628D01*
X124865728Y-155386628D02*
X124970490Y-155334247D01*
X124970490Y-155334247D02*
X125127633Y-155334247D01*
X125127633Y-155334247D02*
X125232395Y-155386628D01*
X125232395Y-155386628D02*
X125284776Y-155439009D01*
X125284776Y-155439009D02*
X125337157Y-155543771D01*
X125337157Y-155543771D02*
X125337157Y-155858057D01*
X125337157Y-155858057D02*
X125284776Y-155962819D01*
X125284776Y-155962819D02*
X125232395Y-156015200D01*
X125232395Y-156015200D02*
X125127633Y-156067580D01*
X125127633Y-156067580D02*
X124970490Y-156067580D01*
X125808585Y-155334247D02*
X125808585Y-156067580D01*
X125808585Y-155439009D02*
X125860966Y-155386628D01*
X125860966Y-155386628D02*
X125965728Y-155334247D01*
X125965728Y-155334247D02*
X126122871Y-155334247D01*
X126122871Y-155334247D02*
X126227633Y-155386628D01*
X126227633Y-155386628D02*
X126280014Y-155491390D01*
X126280014Y-155491390D02*
X126280014Y-156067580D01*
X126803823Y-156067580D02*
X126803823Y-155334247D01*
X126803823Y-154967580D02*
X126751442Y-155019961D01*
X126751442Y-155019961D02*
X126803823Y-155072342D01*
X126803823Y-155072342D02*
X126856204Y-155019961D01*
X126856204Y-155019961D02*
X126803823Y-154967580D01*
X126803823Y-154967580D02*
X126803823Y-155072342D01*
X127799062Y-156015200D02*
X127694300Y-156067580D01*
X127694300Y-156067580D02*
X127484776Y-156067580D01*
X127484776Y-156067580D02*
X127380014Y-156015200D01*
X127380014Y-156015200D02*
X127327633Y-155962819D01*
X127327633Y-155962819D02*
X127275252Y-155858057D01*
X127275252Y-155858057D02*
X127275252Y-155543771D01*
X127275252Y-155543771D02*
X127327633Y-155439009D01*
X127327633Y-155439009D02*
X127380014Y-155386628D01*
X127380014Y-155386628D02*
X127484776Y-155334247D01*
X127484776Y-155334247D02*
X127694300Y-155334247D01*
X127694300Y-155334247D02*
X127799062Y-155386628D01*
X128270490Y-155648533D02*
X129108586Y-155648533D01*
X129632395Y-156067580D02*
X129632395Y-154967580D01*
X129632395Y-154967580D02*
X129894300Y-154967580D01*
X129894300Y-154967580D02*
X130051443Y-155019961D01*
X130051443Y-155019961D02*
X130156205Y-155124723D01*
X130156205Y-155124723D02*
X130208586Y-155229485D01*
X130208586Y-155229485D02*
X130260967Y-155439009D01*
X130260967Y-155439009D02*
X130260967Y-155596152D01*
X130260967Y-155596152D02*
X130208586Y-155805676D01*
X130208586Y-155805676D02*
X130156205Y-155910438D01*
X130156205Y-155910438D02*
X130051443Y-156015200D01*
X130051443Y-156015200D02*
X129894300Y-156067580D01*
X129894300Y-156067580D02*
X129632395Y-156067580D01*
X131203824Y-155334247D02*
X131203824Y-156067580D01*
X130732395Y-155334247D02*
X130732395Y-155910438D01*
X130732395Y-155910438D02*
X130784776Y-156015200D01*
X130784776Y-156015200D02*
X130889538Y-156067580D01*
X130889538Y-156067580D02*
X131046681Y-156067580D01*
X131046681Y-156067580D02*
X131151443Y-156015200D01*
X131151443Y-156015200D02*
X131203824Y-155962819D01*
X131570490Y-155334247D02*
X131989538Y-155334247D01*
X131727633Y-156067580D02*
X131727633Y-155124723D01*
X131727633Y-155124723D02*
X131780014Y-155019961D01*
X131780014Y-155019961D02*
X131884776Y-154967580D01*
X131884776Y-154967580D02*
X131989538Y-154967580D01*
X132199061Y-155334247D02*
X132618109Y-155334247D01*
X132356204Y-156067580D02*
X132356204Y-155124723D01*
X132356204Y-155124723D02*
X132408585Y-155019961D01*
X132408585Y-155019961D02*
X132513347Y-154967580D01*
X132513347Y-154967580D02*
X132618109Y-154967580D01*
X132984775Y-156067580D02*
X132984775Y-155334247D01*
X132984775Y-154967580D02*
X132932394Y-155019961D01*
X132932394Y-155019961D02*
X132984775Y-155072342D01*
X132984775Y-155072342D02*
X133037156Y-155019961D01*
X133037156Y-155019961D02*
X132984775Y-154967580D01*
X132984775Y-154967580D02*
X132984775Y-155072342D01*
X133508585Y-155334247D02*
X133508585Y-156067580D01*
X133508585Y-155439009D02*
X133560966Y-155386628D01*
X133560966Y-155386628D02*
X133665728Y-155334247D01*
X133665728Y-155334247D02*
X133822871Y-155334247D01*
X133822871Y-155334247D02*
X133927633Y-155386628D01*
X133927633Y-155386628D02*
X133980014Y-155491390D01*
X133980014Y-155491390D02*
X133980014Y-156067580D01*
X134975252Y-155334247D02*
X134975252Y-156224723D01*
X134975252Y-156224723D02*
X134922871Y-156329485D01*
X134922871Y-156329485D02*
X134870490Y-156381866D01*
X134870490Y-156381866D02*
X134765728Y-156434247D01*
X134765728Y-156434247D02*
X134608585Y-156434247D01*
X134608585Y-156434247D02*
X134503823Y-156381866D01*
X134975252Y-156015200D02*
X134870490Y-156067580D01*
X134870490Y-156067580D02*
X134660966Y-156067580D01*
X134660966Y-156067580D02*
X134556204Y-156015200D01*
X134556204Y-156015200D02*
X134503823Y-155962819D01*
X134503823Y-155962819D02*
X134451442Y-155858057D01*
X134451442Y-155858057D02*
X134451442Y-155543771D01*
X134451442Y-155543771D02*
X134503823Y-155439009D01*
X134503823Y-155439009D02*
X134556204Y-155386628D01*
X134556204Y-155386628D02*
X134660966Y-155334247D01*
X134660966Y-155334247D02*
X134870490Y-155334247D01*
X134870490Y-155334247D02*
X134975252Y-155386628D01*
X136284776Y-154915200D02*
X135341918Y-156329485D01*
X61719517Y-151603152D02*
X61719517Y-152269819D01*
X61814755Y-151888866D02*
X62100469Y-152269819D01*
X62100469Y-151603152D02*
X61719517Y-151984104D01*
X77044779Y-146300866D02*
X77806684Y-146300866D01*
X79330493Y-146348485D02*
X79330493Y-146538961D01*
X79092398Y-146015152D02*
X79044779Y-146062771D01*
X79044779Y-146062771D02*
X78997160Y-146158009D01*
X78997160Y-146158009D02*
X78997160Y-146538961D01*
X78997160Y-146538961D02*
X79044779Y-146634200D01*
X79044779Y-146634200D02*
X79140017Y-146681819D01*
X79140017Y-146681819D02*
X79187636Y-146681819D01*
X79187636Y-146681819D02*
X79282874Y-146634200D01*
X79282874Y-146634200D02*
X79330493Y-146538961D01*
X79330493Y-146538961D02*
X79378112Y-146634200D01*
X79378112Y-146634200D02*
X79473350Y-146681819D01*
X79473350Y-146681819D02*
X79520969Y-146681819D01*
X79520969Y-146681819D02*
X79616207Y-146634200D01*
X79616207Y-146634200D02*
X79663826Y-146538961D01*
X79663826Y-146538961D02*
X79663826Y-146158009D01*
X79663826Y-146158009D02*
X79616207Y-146062771D01*
X79616207Y-146062771D02*
X79568588Y-146015152D01*
X80044779Y-145443723D02*
X80140017Y-145396104D01*
X80140017Y-145396104D02*
X80282874Y-145396104D01*
X80282874Y-145396104D02*
X80378112Y-145443723D01*
X80378112Y-145443723D02*
X80425731Y-145538961D01*
X80425731Y-145538961D02*
X80425731Y-145634200D01*
X80425731Y-145634200D02*
X80378112Y-145729438D01*
X80378112Y-145729438D02*
X80044779Y-146062771D01*
X80044779Y-146062771D02*
X80425731Y-146062771D01*
X79703826Y-152692914D02*
X80203826Y-152692914D01*
X80418112Y-153478628D02*
X79703826Y-153478628D01*
X79703826Y-153478628D02*
X79703826Y-151978628D01*
X79703826Y-151978628D02*
X80418112Y-151978628D01*
X81275255Y-153478628D02*
X81132398Y-153407200D01*
X81132398Y-153407200D02*
X81060969Y-153264342D01*
X81060969Y-153264342D02*
X81060969Y-151978628D01*
X82418112Y-153407200D02*
X82275255Y-153478628D01*
X82275255Y-153478628D02*
X81989541Y-153478628D01*
X81989541Y-153478628D02*
X81846683Y-153407200D01*
X81846683Y-153407200D02*
X81775255Y-153264342D01*
X81775255Y-153264342D02*
X81775255Y-152692914D01*
X81775255Y-152692914D02*
X81846683Y-152550057D01*
X81846683Y-152550057D02*
X81989541Y-152478628D01*
X81989541Y-152478628D02*
X82275255Y-152478628D01*
X82275255Y-152478628D02*
X82418112Y-152550057D01*
X82418112Y-152550057D02*
X82489541Y-152692914D01*
X82489541Y-152692914D02*
X82489541Y-152835771D01*
X82489541Y-152835771D02*
X81775255Y-152978628D01*
X83775255Y-153407200D02*
X83632397Y-153478628D01*
X83632397Y-153478628D02*
X83346683Y-153478628D01*
X83346683Y-153478628D02*
X83203826Y-153407200D01*
X83203826Y-153407200D02*
X83132397Y-153335771D01*
X83132397Y-153335771D02*
X83060969Y-153192914D01*
X83060969Y-153192914D02*
X83060969Y-152764342D01*
X83060969Y-152764342D02*
X83132397Y-152621485D01*
X83132397Y-152621485D02*
X83203826Y-152550057D01*
X83203826Y-152550057D02*
X83346683Y-152478628D01*
X83346683Y-152478628D02*
X83632397Y-152478628D01*
X83632397Y-152478628D02*
X83775255Y-152550057D01*
X84203826Y-152478628D02*
X84775254Y-152478628D01*
X84418111Y-151978628D02*
X84418111Y-153264342D01*
X84418111Y-153264342D02*
X84489540Y-153407200D01*
X84489540Y-153407200D02*
X84632397Y-153478628D01*
X84632397Y-153478628D02*
X84775254Y-153478628D01*
X85275254Y-153478628D02*
X85275254Y-152478628D01*
X85275254Y-152764342D02*
X85346683Y-152621485D01*
X85346683Y-152621485D02*
X85418112Y-152550057D01*
X85418112Y-152550057D02*
X85560969Y-152478628D01*
X85560969Y-152478628D02*
X85703826Y-152478628D01*
X86418111Y-153478628D02*
X86275254Y-153407200D01*
X86275254Y-153407200D02*
X86203825Y-153335771D01*
X86203825Y-153335771D02*
X86132397Y-153192914D01*
X86132397Y-153192914D02*
X86132397Y-152764342D01*
X86132397Y-152764342D02*
X86203825Y-152621485D01*
X86203825Y-152621485D02*
X86275254Y-152550057D01*
X86275254Y-152550057D02*
X86418111Y-152478628D01*
X86418111Y-152478628D02*
X86632397Y-152478628D01*
X86632397Y-152478628D02*
X86775254Y-152550057D01*
X86775254Y-152550057D02*
X86846683Y-152621485D01*
X86846683Y-152621485D02*
X86918111Y-152764342D01*
X86918111Y-152764342D02*
X86918111Y-153192914D01*
X86918111Y-153192914D02*
X86846683Y-153335771D01*
X86846683Y-153335771D02*
X86775254Y-153407200D01*
X86775254Y-153407200D02*
X86632397Y-153478628D01*
X86632397Y-153478628D02*
X86418111Y-153478628D01*
X87560968Y-152478628D02*
X87560968Y-153478628D01*
X87560968Y-152621485D02*
X87632397Y-152550057D01*
X87632397Y-152550057D02*
X87775254Y-152478628D01*
X87775254Y-152478628D02*
X87989540Y-152478628D01*
X87989540Y-152478628D02*
X88132397Y-152550057D01*
X88132397Y-152550057D02*
X88203826Y-152692914D01*
X88203826Y-152692914D02*
X88203826Y-153478628D01*
X88918111Y-153478628D02*
X88918111Y-152478628D01*
X88918111Y-151978628D02*
X88846683Y-152050057D01*
X88846683Y-152050057D02*
X88918111Y-152121485D01*
X88918111Y-152121485D02*
X88989540Y-152050057D01*
X88989540Y-152050057D02*
X88918111Y-151978628D01*
X88918111Y-151978628D02*
X88918111Y-152121485D01*
X90275255Y-153407200D02*
X90132397Y-153478628D01*
X90132397Y-153478628D02*
X89846683Y-153478628D01*
X89846683Y-153478628D02*
X89703826Y-153407200D01*
X89703826Y-153407200D02*
X89632397Y-153335771D01*
X89632397Y-153335771D02*
X89560969Y-153192914D01*
X89560969Y-153192914D02*
X89560969Y-152764342D01*
X89560969Y-152764342D02*
X89632397Y-152621485D01*
X89632397Y-152621485D02*
X89703826Y-152550057D01*
X89703826Y-152550057D02*
X89846683Y-152478628D01*
X89846683Y-152478628D02*
X90132397Y-152478628D01*
X90132397Y-152478628D02*
X90275255Y-152550057D01*
X92060968Y-153478628D02*
X92060968Y-151978628D01*
X92060968Y-151978628D02*
X92418111Y-151978628D01*
X92418111Y-151978628D02*
X92632397Y-152050057D01*
X92632397Y-152050057D02*
X92775254Y-152192914D01*
X92775254Y-152192914D02*
X92846683Y-152335771D01*
X92846683Y-152335771D02*
X92918111Y-152621485D01*
X92918111Y-152621485D02*
X92918111Y-152835771D01*
X92918111Y-152835771D02*
X92846683Y-153121485D01*
X92846683Y-153121485D02*
X92775254Y-153264342D01*
X92775254Y-153264342D02*
X92632397Y-153407200D01*
X92632397Y-153407200D02*
X92418111Y-153478628D01*
X92418111Y-153478628D02*
X92060968Y-153478628D01*
X94203826Y-152478628D02*
X94203826Y-153478628D01*
X93560968Y-152478628D02*
X93560968Y-153264342D01*
X93560968Y-153264342D02*
X93632397Y-153407200D01*
X93632397Y-153407200D02*
X93775254Y-153478628D01*
X93775254Y-153478628D02*
X93989540Y-153478628D01*
X93989540Y-153478628D02*
X94132397Y-153407200D01*
X94132397Y-153407200D02*
X94203826Y-153335771D01*
X94703826Y-152478628D02*
X95275254Y-152478628D01*
X94918111Y-153478628D02*
X94918111Y-152192914D01*
X94918111Y-152192914D02*
X94989540Y-152050057D01*
X94989540Y-152050057D02*
X95132397Y-151978628D01*
X95132397Y-151978628D02*
X95275254Y-151978628D01*
X95560969Y-152478628D02*
X96132397Y-152478628D01*
X95775254Y-153478628D02*
X95775254Y-152192914D01*
X95775254Y-152192914D02*
X95846683Y-152050057D01*
X95846683Y-152050057D02*
X95989540Y-151978628D01*
X95989540Y-151978628D02*
X96132397Y-151978628D01*
X96632397Y-153478628D02*
X96632397Y-152478628D01*
X96632397Y-151978628D02*
X96560969Y-152050057D01*
X96560969Y-152050057D02*
X96632397Y-152121485D01*
X96632397Y-152121485D02*
X96703826Y-152050057D01*
X96703826Y-152050057D02*
X96632397Y-151978628D01*
X96632397Y-151978628D02*
X96632397Y-152121485D01*
X97346683Y-152478628D02*
X97346683Y-153478628D01*
X97346683Y-152621485D02*
X97418112Y-152550057D01*
X97418112Y-152550057D02*
X97560969Y-152478628D01*
X97560969Y-152478628D02*
X97775255Y-152478628D01*
X97775255Y-152478628D02*
X97918112Y-152550057D01*
X97918112Y-152550057D02*
X97989541Y-152692914D01*
X97989541Y-152692914D02*
X97989541Y-153478628D01*
X99346684Y-152478628D02*
X99346684Y-153692914D01*
X99346684Y-153692914D02*
X99275255Y-153835771D01*
X99275255Y-153835771D02*
X99203826Y-153907200D01*
X99203826Y-153907200D02*
X99060969Y-153978628D01*
X99060969Y-153978628D02*
X98846684Y-153978628D01*
X98846684Y-153978628D02*
X98703826Y-153907200D01*
X99346684Y-153407200D02*
X99203826Y-153478628D01*
X99203826Y-153478628D02*
X98918112Y-153478628D01*
X98918112Y-153478628D02*
X98775255Y-153407200D01*
X98775255Y-153407200D02*
X98703826Y-153335771D01*
X98703826Y-153335771D02*
X98632398Y-153192914D01*
X98632398Y-153192914D02*
X98632398Y-152764342D01*
X98632398Y-152764342D02*
X98703826Y-152621485D01*
X98703826Y-152621485D02*
X98775255Y-152550057D01*
X98775255Y-152550057D02*
X98918112Y-152478628D01*
X98918112Y-152478628D02*
X99203826Y-152478628D01*
X99203826Y-152478628D02*
X99346684Y-152550057D01*
X101418112Y-153478628D02*
X101275255Y-153407200D01*
X101275255Y-153407200D02*
X101203826Y-153335771D01*
X101203826Y-153335771D02*
X101132398Y-153192914D01*
X101132398Y-153192914D02*
X101132398Y-152764342D01*
X101132398Y-152764342D02*
X101203826Y-152621485D01*
X101203826Y-152621485D02*
X101275255Y-152550057D01*
X101275255Y-152550057D02*
X101418112Y-152478628D01*
X101418112Y-152478628D02*
X101632398Y-152478628D01*
X101632398Y-152478628D02*
X101775255Y-152550057D01*
X101775255Y-152550057D02*
X101846684Y-152621485D01*
X101846684Y-152621485D02*
X101918112Y-152764342D01*
X101918112Y-152764342D02*
X101918112Y-153192914D01*
X101918112Y-153192914D02*
X101846684Y-153335771D01*
X101846684Y-153335771D02*
X101775255Y-153407200D01*
X101775255Y-153407200D02*
X101632398Y-153478628D01*
X101632398Y-153478628D02*
X101418112Y-153478628D01*
X102489541Y-153407200D02*
X102632398Y-153478628D01*
X102632398Y-153478628D02*
X102918112Y-153478628D01*
X102918112Y-153478628D02*
X103060969Y-153407200D01*
X103060969Y-153407200D02*
X103132398Y-153264342D01*
X103132398Y-153264342D02*
X103132398Y-153192914D01*
X103132398Y-153192914D02*
X103060969Y-153050057D01*
X103060969Y-153050057D02*
X102918112Y-152978628D01*
X102918112Y-152978628D02*
X102703827Y-152978628D01*
X102703827Y-152978628D02*
X102560969Y-152907200D01*
X102560969Y-152907200D02*
X102489541Y-152764342D01*
X102489541Y-152764342D02*
X102489541Y-152692914D01*
X102489541Y-152692914D02*
X102560969Y-152550057D01*
X102560969Y-152550057D02*
X102703827Y-152478628D01*
X102703827Y-152478628D02*
X102918112Y-152478628D01*
X102918112Y-152478628D02*
X103060969Y-152550057D01*
X104418113Y-153407200D02*
X104275255Y-153478628D01*
X104275255Y-153478628D02*
X103989541Y-153478628D01*
X103989541Y-153478628D02*
X103846684Y-153407200D01*
X103846684Y-153407200D02*
X103775255Y-153335771D01*
X103775255Y-153335771D02*
X103703827Y-153192914D01*
X103703827Y-153192914D02*
X103703827Y-152764342D01*
X103703827Y-152764342D02*
X103775255Y-152621485D01*
X103775255Y-152621485D02*
X103846684Y-152550057D01*
X103846684Y-152550057D02*
X103989541Y-152478628D01*
X103989541Y-152478628D02*
X104275255Y-152478628D01*
X104275255Y-152478628D02*
X104418113Y-152550057D01*
X105060969Y-153478628D02*
X105060969Y-152478628D01*
X105060969Y-151978628D02*
X104989541Y-152050057D01*
X104989541Y-152050057D02*
X105060969Y-152121485D01*
X105060969Y-152121485D02*
X105132398Y-152050057D01*
X105132398Y-152050057D02*
X105060969Y-151978628D01*
X105060969Y-151978628D02*
X105060969Y-152121485D01*
X105989541Y-153478628D02*
X105846684Y-153407200D01*
X105846684Y-153407200D02*
X105775255Y-153264342D01*
X105775255Y-153264342D02*
X105775255Y-151978628D01*
X106775255Y-153478628D02*
X106632398Y-153407200D01*
X106632398Y-153407200D02*
X106560969Y-153264342D01*
X106560969Y-153264342D02*
X106560969Y-151978628D01*
X107989541Y-153478628D02*
X107989541Y-152692914D01*
X107989541Y-152692914D02*
X107918112Y-152550057D01*
X107918112Y-152550057D02*
X107775255Y-152478628D01*
X107775255Y-152478628D02*
X107489541Y-152478628D01*
X107489541Y-152478628D02*
X107346683Y-152550057D01*
X107989541Y-153407200D02*
X107846683Y-153478628D01*
X107846683Y-153478628D02*
X107489541Y-153478628D01*
X107489541Y-153478628D02*
X107346683Y-153407200D01*
X107346683Y-153407200D02*
X107275255Y-153264342D01*
X107275255Y-153264342D02*
X107275255Y-153121485D01*
X107275255Y-153121485D02*
X107346683Y-152978628D01*
X107346683Y-152978628D02*
X107489541Y-152907200D01*
X107489541Y-152907200D02*
X107846683Y-152907200D01*
X107846683Y-152907200D02*
X107989541Y-152835771D01*
X108489541Y-152478628D02*
X109060969Y-152478628D01*
X108703826Y-151978628D02*
X108703826Y-153264342D01*
X108703826Y-153264342D02*
X108775255Y-153407200D01*
X108775255Y-153407200D02*
X108918112Y-153478628D01*
X108918112Y-153478628D02*
X109060969Y-153478628D01*
X109775255Y-153478628D02*
X109632398Y-153407200D01*
X109632398Y-153407200D02*
X109560969Y-153335771D01*
X109560969Y-153335771D02*
X109489541Y-153192914D01*
X109489541Y-153192914D02*
X109489541Y-152764342D01*
X109489541Y-152764342D02*
X109560969Y-152621485D01*
X109560969Y-152621485D02*
X109632398Y-152550057D01*
X109632398Y-152550057D02*
X109775255Y-152478628D01*
X109775255Y-152478628D02*
X109989541Y-152478628D01*
X109989541Y-152478628D02*
X110132398Y-152550057D01*
X110132398Y-152550057D02*
X110203827Y-152621485D01*
X110203827Y-152621485D02*
X110275255Y-152764342D01*
X110275255Y-152764342D02*
X110275255Y-153192914D01*
X110275255Y-153192914D02*
X110203827Y-153335771D01*
X110203827Y-153335771D02*
X110132398Y-153407200D01*
X110132398Y-153407200D02*
X109989541Y-153478628D01*
X109989541Y-153478628D02*
X109775255Y-153478628D01*
X110918112Y-153478628D02*
X110918112Y-152478628D01*
X110918112Y-152764342D02*
X110989541Y-152621485D01*
X110989541Y-152621485D02*
X111060970Y-152550057D01*
X111060970Y-152550057D02*
X111203827Y-152478628D01*
X111203827Y-152478628D02*
X111346684Y-152478628D01*
X112989540Y-152907200D02*
X114132398Y-152907200D01*
X116775255Y-152050057D02*
X116632398Y-151978628D01*
X116632398Y-151978628D02*
X116418112Y-151978628D01*
X116418112Y-151978628D02*
X116203826Y-152050057D01*
X116203826Y-152050057D02*
X116060969Y-152192914D01*
X116060969Y-152192914D02*
X115989540Y-152335771D01*
X115989540Y-152335771D02*
X115918112Y-152621485D01*
X115918112Y-152621485D02*
X115918112Y-152835771D01*
X115918112Y-152835771D02*
X115989540Y-153121485D01*
X115989540Y-153121485D02*
X116060969Y-153264342D01*
X116060969Y-153264342D02*
X116203826Y-153407200D01*
X116203826Y-153407200D02*
X116418112Y-153478628D01*
X116418112Y-153478628D02*
X116560969Y-153478628D01*
X116560969Y-153478628D02*
X116775255Y-153407200D01*
X116775255Y-153407200D02*
X116846683Y-153335771D01*
X116846683Y-153335771D02*
X116846683Y-152835771D01*
X116846683Y-152835771D02*
X116560969Y-152835771D01*
X117489540Y-153335771D02*
X117560969Y-153407200D01*
X117560969Y-153407200D02*
X117489540Y-153478628D01*
X117489540Y-153478628D02*
X117418112Y-153407200D01*
X117418112Y-153407200D02*
X117489540Y-153335771D01*
X117489540Y-153335771D02*
X117489540Y-153478628D01*
X120203826Y-153478628D02*
X119703826Y-152764342D01*
X119346683Y-153478628D02*
X119346683Y-151978628D01*
X119346683Y-151978628D02*
X119918112Y-151978628D01*
X119918112Y-151978628D02*
X120060969Y-152050057D01*
X120060969Y-152050057D02*
X120132398Y-152121485D01*
X120132398Y-152121485D02*
X120203826Y-152264342D01*
X120203826Y-152264342D02*
X120203826Y-152478628D01*
X120203826Y-152478628D02*
X120132398Y-152621485D01*
X120132398Y-152621485D02*
X120060969Y-152692914D01*
X120060969Y-152692914D02*
X119918112Y-152764342D01*
X119918112Y-152764342D02*
X119346683Y-152764342D01*
X121489541Y-153478628D02*
X121489541Y-152692914D01*
X121489541Y-152692914D02*
X121418112Y-152550057D01*
X121418112Y-152550057D02*
X121275255Y-152478628D01*
X121275255Y-152478628D02*
X120989541Y-152478628D01*
X120989541Y-152478628D02*
X120846683Y-152550057D01*
X121489541Y-153407200D02*
X121346683Y-153478628D01*
X121346683Y-153478628D02*
X120989541Y-153478628D01*
X120989541Y-153478628D02*
X120846683Y-153407200D01*
X120846683Y-153407200D02*
X120775255Y-153264342D01*
X120775255Y-153264342D02*
X120775255Y-153121485D01*
X120775255Y-153121485D02*
X120846683Y-152978628D01*
X120846683Y-152978628D02*
X120989541Y-152907200D01*
X120989541Y-152907200D02*
X121346683Y-152907200D01*
X121346683Y-152907200D02*
X121489541Y-152835771D01*
X122060969Y-152478628D02*
X122846684Y-152478628D01*
X122846684Y-152478628D02*
X122060969Y-153478628D01*
X122060969Y-153478628D02*
X122846684Y-153478628D01*
X123989541Y-153407200D02*
X123846684Y-153478628D01*
X123846684Y-153478628D02*
X123560970Y-153478628D01*
X123560970Y-153478628D02*
X123418112Y-153407200D01*
X123418112Y-153407200D02*
X123346684Y-153264342D01*
X123346684Y-153264342D02*
X123346684Y-152692914D01*
X123346684Y-152692914D02*
X123418112Y-152550057D01*
X123418112Y-152550057D02*
X123560970Y-152478628D01*
X123560970Y-152478628D02*
X123846684Y-152478628D01*
X123846684Y-152478628D02*
X123989541Y-152550057D01*
X123989541Y-152550057D02*
X124060970Y-152692914D01*
X124060970Y-152692914D02*
X124060970Y-152835771D01*
X124060970Y-152835771D02*
X123346684Y-152978628D01*
X46773208Y-151269819D02*
X47249398Y-151269819D01*
X47249398Y-151269819D02*
X46916065Y-151603152D01*
X46916065Y-151603152D02*
X46820827Y-151746009D01*
X46820827Y-151746009D02*
X46773208Y-151888866D01*
X46773208Y-151888866D02*
X46773208Y-152079342D01*
X46773208Y-152079342D02*
X46820827Y-152174580D01*
X46820827Y-152174580D02*
X46868446Y-152222200D01*
X46868446Y-152222200D02*
X46963684Y-152269819D01*
X46963684Y-152269819D02*
X47058922Y-152269819D01*
X47058922Y-152269819D02*
X47154160Y-152317438D01*
X47154160Y-152317438D02*
X47201779Y-152412676D01*
X47201779Y-152412676D02*
X47201779Y-152460295D01*
X47201779Y-152460295D02*
X47154160Y-152555533D01*
X47154160Y-152555533D02*
X47058922Y-152603152D01*
X47058922Y-152603152D02*
X47011303Y-152603152D01*
X125873921Y-77120057D02*
X125731064Y-77048628D01*
X125731064Y-77048628D02*
X125516778Y-77048628D01*
X125516778Y-77048628D02*
X125302492Y-77120057D01*
X125302492Y-77120057D02*
X125159635Y-77262914D01*
X125159635Y-77262914D02*
X125088206Y-77405771D01*
X125088206Y-77405771D02*
X125016778Y-77691485D01*
X125016778Y-77691485D02*
X125016778Y-77905771D01*
X125016778Y-77905771D02*
X125088206Y-78191485D01*
X125088206Y-78191485D02*
X125159635Y-78334342D01*
X125159635Y-78334342D02*
X125302492Y-78477200D01*
X125302492Y-78477200D02*
X125516778Y-78548628D01*
X125516778Y-78548628D02*
X125659635Y-78548628D01*
X125659635Y-78548628D02*
X125873921Y-78477200D01*
X125873921Y-78477200D02*
X125945349Y-78405771D01*
X125945349Y-78405771D02*
X125945349Y-77905771D01*
X125945349Y-77905771D02*
X125659635Y-77905771D01*
X126588206Y-78548628D02*
X126588206Y-77048628D01*
X126588206Y-77048628D02*
X127445349Y-78548628D01*
X127445349Y-78548628D02*
X127445349Y-77048628D01*
X128159635Y-78548628D02*
X128159635Y-77048628D01*
X128159635Y-77048628D02*
X128516778Y-77048628D01*
X128516778Y-77048628D02*
X128731064Y-77120057D01*
X128731064Y-77120057D02*
X128873921Y-77262914D01*
X128873921Y-77262914D02*
X128945350Y-77405771D01*
X128945350Y-77405771D02*
X129016778Y-77691485D01*
X129016778Y-77691485D02*
X129016778Y-77905771D01*
X129016778Y-77905771D02*
X128945350Y-78191485D01*
X128945350Y-78191485D02*
X128873921Y-78334342D01*
X128873921Y-78334342D02*
X128731064Y-78477200D01*
X128731064Y-78477200D02*
X128516778Y-78548628D01*
X128516778Y-78548628D02*
X128159635Y-78548628D01*
X102791303Y-148305771D02*
X102791303Y-148686723D01*
X102315112Y-147639104D02*
X102219874Y-147734342D01*
X102219874Y-147734342D02*
X102124636Y-147924819D01*
X102124636Y-147924819D02*
X102124636Y-148686723D01*
X102124636Y-148686723D02*
X102219874Y-148877200D01*
X102219874Y-148877200D02*
X102410350Y-148972438D01*
X102410350Y-148972438D02*
X102505588Y-148972438D01*
X102505588Y-148972438D02*
X102696064Y-148877200D01*
X102696064Y-148877200D02*
X102791303Y-148686723D01*
X102791303Y-148686723D02*
X102886541Y-148877200D01*
X102886541Y-148877200D02*
X103077017Y-148972438D01*
X103077017Y-148972438D02*
X103172255Y-148972438D01*
X103172255Y-148972438D02*
X103362731Y-148877200D01*
X103362731Y-148877200D02*
X103457969Y-148686723D01*
X103457969Y-148686723D02*
X103457969Y-147924819D01*
X103457969Y-147924819D02*
X103362731Y-147734342D01*
X103362731Y-147734342D02*
X103267493Y-147639104D01*
X104219874Y-146496247D02*
X104410350Y-146401009D01*
X104410350Y-146401009D02*
X104696064Y-146401009D01*
X104696064Y-146401009D02*
X104886541Y-146496247D01*
X104886541Y-146496247D02*
X104981779Y-146686723D01*
X104981779Y-146686723D02*
X104981779Y-146877200D01*
X104981779Y-146877200D02*
X104886541Y-147067676D01*
X104886541Y-147067676D02*
X104219874Y-147734342D01*
X104219874Y-147734342D02*
X104981779Y-147734342D01*
X88681160Y-146634200D02*
X88824017Y-146681819D01*
X88824017Y-146681819D02*
X89062112Y-146681819D01*
X89062112Y-146681819D02*
X89157350Y-146634200D01*
X89157350Y-146634200D02*
X89204969Y-146586580D01*
X89204969Y-146586580D02*
X89252588Y-146491342D01*
X89252588Y-146491342D02*
X89252588Y-146396104D01*
X89252588Y-146396104D02*
X89204969Y-146300866D01*
X89204969Y-146300866D02*
X89157350Y-146253247D01*
X89157350Y-146253247D02*
X89062112Y-146205628D01*
X89062112Y-146205628D02*
X88871636Y-146158009D01*
X88871636Y-146158009D02*
X88776398Y-146110390D01*
X88776398Y-146110390D02*
X88728779Y-146062771D01*
X88728779Y-146062771D02*
X88681160Y-145967533D01*
X88681160Y-145967533D02*
X88681160Y-145872295D01*
X88681160Y-145872295D02*
X88728779Y-145777057D01*
X88728779Y-145777057D02*
X88776398Y-145729438D01*
X88776398Y-145729438D02*
X88871636Y-145681819D01*
X88871636Y-145681819D02*
X89109731Y-145681819D01*
X89109731Y-145681819D02*
X89252588Y-145729438D01*
X90062112Y-146634200D02*
X89966874Y-146681819D01*
X89966874Y-146681819D02*
X89776398Y-146681819D01*
X89776398Y-146681819D02*
X89681160Y-146634200D01*
X89681160Y-146634200D02*
X89633541Y-146538961D01*
X89633541Y-146538961D02*
X89633541Y-146158009D01*
X89633541Y-146158009D02*
X89681160Y-146062771D01*
X89681160Y-146062771D02*
X89776398Y-146015152D01*
X89776398Y-146015152D02*
X89966874Y-146015152D01*
X89966874Y-146015152D02*
X90062112Y-146062771D01*
X90062112Y-146062771D02*
X90109731Y-146158009D01*
X90109731Y-146158009D02*
X90109731Y-146253247D01*
X90109731Y-146253247D02*
X89633541Y-146348485D01*
X90395446Y-146015152D02*
X90776398Y-146015152D01*
X90538303Y-145681819D02*
X90538303Y-146538961D01*
X90538303Y-146538961D02*
X90585922Y-146634200D01*
X90585922Y-146634200D02*
X90681160Y-146681819D01*
X90681160Y-146681819D02*
X90776398Y-146681819D01*
X92157351Y-146348485D02*
X92157351Y-146538961D01*
X91919256Y-146015152D02*
X91871637Y-146062771D01*
X91871637Y-146062771D02*
X91824018Y-146158009D01*
X91824018Y-146158009D02*
X91824018Y-146538961D01*
X91824018Y-146538961D02*
X91871637Y-146634200D01*
X91871637Y-146634200D02*
X91966875Y-146681819D01*
X91966875Y-146681819D02*
X92014494Y-146681819D01*
X92014494Y-146681819D02*
X92109732Y-146634200D01*
X92109732Y-146634200D02*
X92157351Y-146538961D01*
X92157351Y-146538961D02*
X92204970Y-146634200D01*
X92204970Y-146634200D02*
X92300208Y-146681819D01*
X92300208Y-146681819D02*
X92347827Y-146681819D01*
X92347827Y-146681819D02*
X92443065Y-146634200D01*
X92443065Y-146634200D02*
X92490684Y-146538961D01*
X92490684Y-146538961D02*
X92490684Y-146158009D01*
X92490684Y-146158009D02*
X92443065Y-146062771D01*
X92443065Y-146062771D02*
X92395446Y-146015152D01*
X92871637Y-145443723D02*
X92966875Y-145396104D01*
X92966875Y-145396104D02*
X93109732Y-145396104D01*
X93109732Y-145396104D02*
X93204970Y-145443723D01*
X93204970Y-145443723D02*
X93252589Y-145538961D01*
X93252589Y-145538961D02*
X93252589Y-145634200D01*
X93252589Y-145634200D02*
X93204970Y-145729438D01*
X93204970Y-145729438D02*
X92871637Y-146062771D01*
X92871637Y-146062771D02*
X93252589Y-146062771D01*
X121224874Y-77933033D02*
X122748684Y-77933033D01*
X121986779Y-78694938D02*
X121986779Y-77171128D01*
X63192731Y-146972438D02*
X64145112Y-146972438D01*
X64145112Y-146972438D02*
X63478445Y-147639104D01*
X63478445Y-147639104D02*
X63287969Y-147924819D01*
X63287969Y-147924819D02*
X63192731Y-148210533D01*
X63192731Y-148210533D02*
X63192731Y-148591485D01*
X63192731Y-148591485D02*
X63287969Y-148781961D01*
X63287969Y-148781961D02*
X63383207Y-148877200D01*
X63383207Y-148877200D02*
X63573683Y-148972438D01*
X63573683Y-148972438D02*
X63764160Y-148972438D01*
X63764160Y-148972438D02*
X63954636Y-149067676D01*
X63954636Y-149067676D02*
X64049874Y-149258152D01*
X64049874Y-149258152D02*
X64049874Y-149353390D01*
X64049874Y-149353390D02*
X63954636Y-149543866D01*
X63954636Y-149543866D02*
X63764160Y-149639104D01*
X63764160Y-149639104D02*
X63668921Y-149639104D01*
X59344160Y-89854104D02*
X60106064Y-89854104D01*
X59629874Y-91187438D02*
X59629874Y-89473152D01*
X59629874Y-89473152D02*
X59725112Y-89282676D01*
X59725112Y-89282676D02*
X59915588Y-89187438D01*
X59915588Y-89187438D02*
X60106064Y-89187438D01*
X77044779Y-132584866D02*
X77806684Y-132584866D01*
X77425731Y-132965819D02*
X77425731Y-132203914D01*
X79330493Y-132632485D02*
X79330493Y-132822961D01*
X79092398Y-132299152D02*
X79044779Y-132346771D01*
X79044779Y-132346771D02*
X78997160Y-132442009D01*
X78997160Y-132442009D02*
X78997160Y-132822961D01*
X78997160Y-132822961D02*
X79044779Y-132918200D01*
X79044779Y-132918200D02*
X79140017Y-132965819D01*
X79140017Y-132965819D02*
X79187636Y-132965819D01*
X79187636Y-132965819D02*
X79282874Y-132918200D01*
X79282874Y-132918200D02*
X79330493Y-132822961D01*
X79330493Y-132822961D02*
X79378112Y-132918200D01*
X79378112Y-132918200D02*
X79473350Y-132965819D01*
X79473350Y-132965819D02*
X79520969Y-132965819D01*
X79520969Y-132965819D02*
X79616207Y-132918200D01*
X79616207Y-132918200D02*
X79663826Y-132822961D01*
X79663826Y-132822961D02*
X79663826Y-132442009D01*
X79663826Y-132442009D02*
X79616207Y-132346771D01*
X79616207Y-132346771D02*
X79568588Y-132299152D01*
X80044779Y-131727723D02*
X80140017Y-131680104D01*
X80140017Y-131680104D02*
X80282874Y-131680104D01*
X80282874Y-131680104D02*
X80378112Y-131727723D01*
X80378112Y-131727723D02*
X80425731Y-131822961D01*
X80425731Y-131822961D02*
X80425731Y-131918200D01*
X80425731Y-131918200D02*
X80378112Y-132013438D01*
X80378112Y-132013438D02*
X80044779Y-132346771D01*
X80044779Y-132346771D02*
X80425731Y-132346771D01*
X48549160Y-146634200D02*
X48692017Y-146681819D01*
X48692017Y-146681819D02*
X48930112Y-146681819D01*
X48930112Y-146681819D02*
X49025350Y-146634200D01*
X49025350Y-146634200D02*
X49072969Y-146586580D01*
X49072969Y-146586580D02*
X49120588Y-146491342D01*
X49120588Y-146491342D02*
X49120588Y-146396104D01*
X49120588Y-146396104D02*
X49072969Y-146300866D01*
X49072969Y-146300866D02*
X49025350Y-146253247D01*
X49025350Y-146253247D02*
X48930112Y-146205628D01*
X48930112Y-146205628D02*
X48739636Y-146158009D01*
X48739636Y-146158009D02*
X48644398Y-146110390D01*
X48644398Y-146110390D02*
X48596779Y-146062771D01*
X48596779Y-146062771D02*
X48549160Y-145967533D01*
X48549160Y-145967533D02*
X48549160Y-145872295D01*
X48549160Y-145872295D02*
X48596779Y-145777057D01*
X48596779Y-145777057D02*
X48644398Y-145729438D01*
X48644398Y-145729438D02*
X48739636Y-145681819D01*
X48739636Y-145681819D02*
X48977731Y-145681819D01*
X48977731Y-145681819D02*
X49120588Y-145729438D01*
X49930112Y-146634200D02*
X49834874Y-146681819D01*
X49834874Y-146681819D02*
X49644398Y-146681819D01*
X49644398Y-146681819D02*
X49549160Y-146634200D01*
X49549160Y-146634200D02*
X49501541Y-146538961D01*
X49501541Y-146538961D02*
X49501541Y-146158009D01*
X49501541Y-146158009D02*
X49549160Y-146062771D01*
X49549160Y-146062771D02*
X49644398Y-146015152D01*
X49644398Y-146015152D02*
X49834874Y-146015152D01*
X49834874Y-146015152D02*
X49930112Y-146062771D01*
X49930112Y-146062771D02*
X49977731Y-146158009D01*
X49977731Y-146158009D02*
X49977731Y-146253247D01*
X49977731Y-146253247D02*
X49501541Y-146348485D01*
X50263446Y-146015152D02*
X50644398Y-146015152D01*
X50406303Y-145681819D02*
X50406303Y-146538961D01*
X50406303Y-146538961D02*
X50453922Y-146634200D01*
X50453922Y-146634200D02*
X50549160Y-146681819D01*
X50549160Y-146681819D02*
X50644398Y-146681819D01*
X51739637Y-145681819D02*
X52215827Y-145681819D01*
X52215827Y-145681819D02*
X51882494Y-146015152D01*
X51882494Y-146015152D02*
X51787256Y-146158009D01*
X51787256Y-146158009D02*
X51739637Y-146300866D01*
X51739637Y-146300866D02*
X51739637Y-146491342D01*
X51739637Y-146491342D02*
X51787256Y-146586580D01*
X51787256Y-146586580D02*
X51834875Y-146634200D01*
X51834875Y-146634200D02*
X51930113Y-146681819D01*
X51930113Y-146681819D02*
X52025351Y-146681819D01*
X52025351Y-146681819D02*
X52120589Y-146729438D01*
X52120589Y-146729438D02*
X52168208Y-146824676D01*
X52168208Y-146824676D02*
X52168208Y-146872295D01*
X52168208Y-146872295D02*
X52120589Y-146967533D01*
X52120589Y-146967533D02*
X52025351Y-147015152D01*
X52025351Y-147015152D02*
X51977732Y-147015152D01*
X129875350Y-147004104D02*
X129875350Y-148337438D01*
X130065826Y-147575533D02*
X130637255Y-148337438D01*
X130637255Y-147004104D02*
X129875350Y-147766009D01*
X120875636Y-99453819D02*
X120875636Y-99691914D01*
X120637541Y-99596676D02*
X120875636Y-99691914D01*
X120875636Y-99691914D02*
X121113731Y-99596676D01*
X120732779Y-99882390D02*
X120875636Y-99691914D01*
X120875636Y-99691914D02*
X121018493Y-99882390D01*
X131384874Y-77933033D02*
X132908684Y-77933033D01*
X116113160Y-146634200D02*
X116256017Y-146681819D01*
X116256017Y-146681819D02*
X116494112Y-146681819D01*
X116494112Y-146681819D02*
X116589350Y-146634200D01*
X116589350Y-146634200D02*
X116636969Y-146586580D01*
X116636969Y-146586580D02*
X116684588Y-146491342D01*
X116684588Y-146491342D02*
X116684588Y-146396104D01*
X116684588Y-146396104D02*
X116636969Y-146300866D01*
X116636969Y-146300866D02*
X116589350Y-146253247D01*
X116589350Y-146253247D02*
X116494112Y-146205628D01*
X116494112Y-146205628D02*
X116303636Y-146158009D01*
X116303636Y-146158009D02*
X116208398Y-146110390D01*
X116208398Y-146110390D02*
X116160779Y-146062771D01*
X116160779Y-146062771D02*
X116113160Y-145967533D01*
X116113160Y-145967533D02*
X116113160Y-145872295D01*
X116113160Y-145872295D02*
X116160779Y-145777057D01*
X116160779Y-145777057D02*
X116208398Y-145729438D01*
X116208398Y-145729438D02*
X116303636Y-145681819D01*
X116303636Y-145681819D02*
X116541731Y-145681819D01*
X116541731Y-145681819D02*
X116684588Y-145729438D01*
X117494112Y-146634200D02*
X117398874Y-146681819D01*
X117398874Y-146681819D02*
X117208398Y-146681819D01*
X117208398Y-146681819D02*
X117113160Y-146634200D01*
X117113160Y-146634200D02*
X117065541Y-146538961D01*
X117065541Y-146538961D02*
X117065541Y-146158009D01*
X117065541Y-146158009D02*
X117113160Y-146062771D01*
X117113160Y-146062771D02*
X117208398Y-146015152D01*
X117208398Y-146015152D02*
X117398874Y-146015152D01*
X117398874Y-146015152D02*
X117494112Y-146062771D01*
X117494112Y-146062771D02*
X117541731Y-146158009D01*
X117541731Y-146158009D02*
X117541731Y-146253247D01*
X117541731Y-146253247D02*
X117065541Y-146348485D01*
X117827446Y-146015152D02*
X118208398Y-146015152D01*
X117970303Y-145681819D02*
X117970303Y-146538961D01*
X117970303Y-146538961D02*
X118017922Y-146634200D01*
X118017922Y-146634200D02*
X118113160Y-146681819D01*
X118113160Y-146681819D02*
X118208398Y-146681819D01*
X119303637Y-146015152D02*
X119303637Y-146681819D01*
X119398875Y-146300866D02*
X119684589Y-146681819D01*
X119684589Y-146015152D02*
X119303637Y-146396104D01*
X84839398Y-89854104D02*
X85315588Y-91187438D01*
X85315588Y-91187438D02*
X85791779Y-89854104D01*
X110874398Y-90679438D02*
X111922017Y-89346104D01*
X110874398Y-89346104D02*
X111922017Y-90679438D01*
X120875636Y-114693819D02*
X120875636Y-114931914D01*
X120637541Y-114836676D02*
X120875636Y-114931914D01*
X120875636Y-114931914D02*
X121113731Y-114836676D01*
X120732779Y-115122390D02*
X120875636Y-114931914D01*
X120875636Y-114931914D02*
X121018493Y-115122390D01*
D11*
X83638365Y-117686666D02*
X83698842Y-117747142D01*
X83698842Y-117747142D02*
X83759318Y-117928571D01*
X83759318Y-117928571D02*
X83759318Y-118049523D01*
X83759318Y-118049523D02*
X83698842Y-118230952D01*
X83698842Y-118230952D02*
X83577889Y-118351904D01*
X83577889Y-118351904D02*
X83456937Y-118412381D01*
X83456937Y-118412381D02*
X83215032Y-118472857D01*
X83215032Y-118472857D02*
X83033603Y-118472857D01*
X83033603Y-118472857D02*
X82791699Y-118412381D01*
X82791699Y-118412381D02*
X82670746Y-118351904D01*
X82670746Y-118351904D02*
X82549794Y-118230952D01*
X82549794Y-118230952D02*
X82489318Y-118049523D01*
X82489318Y-118049523D02*
X82489318Y-117928571D01*
X82489318Y-117928571D02*
X82549794Y-117747142D01*
X82549794Y-117747142D02*
X82610270Y-117686666D01*
X82489318Y-116598095D02*
X82489318Y-116840000D01*
X82489318Y-116840000D02*
X82549794Y-116960952D01*
X82549794Y-116960952D02*
X82610270Y-117021428D01*
X82610270Y-117021428D02*
X82791699Y-117142381D01*
X82791699Y-117142381D02*
X83033603Y-117202857D01*
X83033603Y-117202857D02*
X83517413Y-117202857D01*
X83517413Y-117202857D02*
X83638365Y-117142381D01*
X83638365Y-117142381D02*
X83698842Y-117081904D01*
X83698842Y-117081904D02*
X83759318Y-116960952D01*
X83759318Y-116960952D02*
X83759318Y-116719047D01*
X83759318Y-116719047D02*
X83698842Y-116598095D01*
X83698842Y-116598095D02*
X83638365Y-116537619D01*
X83638365Y-116537619D02*
X83517413Y-116477142D01*
X83517413Y-116477142D02*
X83215032Y-116477142D01*
X83215032Y-116477142D02*
X83094080Y-116537619D01*
X83094080Y-116537619D02*
X83033603Y-116598095D01*
X83033603Y-116598095D02*
X82973127Y-116719047D01*
X82973127Y-116719047D02*
X82973127Y-116960952D01*
X82973127Y-116960952D02*
X83033603Y-117081904D01*
X83033603Y-117081904D02*
X83094080Y-117142381D01*
X83094080Y-117142381D02*
X83215032Y-117202857D01*
D10*
X125222095Y-111214819D02*
X125222095Y-112024342D01*
X125222095Y-112024342D02*
X125269714Y-112119580D01*
X125269714Y-112119580D02*
X125317333Y-112167200D01*
X125317333Y-112167200D02*
X125412571Y-112214819D01*
X125412571Y-112214819D02*
X125603047Y-112214819D01*
X125603047Y-112214819D02*
X125698285Y-112167200D01*
X125698285Y-112167200D02*
X125745904Y-112119580D01*
X125745904Y-112119580D02*
X125793523Y-112024342D01*
X125793523Y-112024342D02*
X125793523Y-111214819D01*
X126745904Y-111214819D02*
X126269714Y-111214819D01*
X126269714Y-111214819D02*
X126222095Y-111691009D01*
X126222095Y-111691009D02*
X126269714Y-111643390D01*
X126269714Y-111643390D02*
X126364952Y-111595771D01*
X126364952Y-111595771D02*
X126603047Y-111595771D01*
X126603047Y-111595771D02*
X126698285Y-111643390D01*
X126698285Y-111643390D02*
X126745904Y-111691009D01*
X126745904Y-111691009D02*
X126793523Y-111786247D01*
X126793523Y-111786247D02*
X126793523Y-112024342D01*
X126793523Y-112024342D02*
X126745904Y-112119580D01*
X126745904Y-112119580D02*
X126698285Y-112167200D01*
X126698285Y-112167200D02*
X126603047Y-112214819D01*
X126603047Y-112214819D02*
X126364952Y-112214819D01*
X126364952Y-112214819D02*
X126269714Y-112167200D01*
X126269714Y-112167200D02*
X126222095Y-112119580D01*
X93218095Y-123914819D02*
X93218095Y-124724342D01*
X93218095Y-124724342D02*
X93265714Y-124819580D01*
X93265714Y-124819580D02*
X93313333Y-124867200D01*
X93313333Y-124867200D02*
X93408571Y-124914819D01*
X93408571Y-124914819D02*
X93599047Y-124914819D01*
X93599047Y-124914819D02*
X93694285Y-124867200D01*
X93694285Y-124867200D02*
X93741904Y-124819580D01*
X93741904Y-124819580D02*
X93789523Y-124724342D01*
X93789523Y-124724342D02*
X93789523Y-123914819D01*
X94218095Y-124010057D02*
X94265714Y-123962438D01*
X94265714Y-123962438D02*
X94360952Y-123914819D01*
X94360952Y-123914819D02*
X94599047Y-123914819D01*
X94599047Y-123914819D02*
X94694285Y-123962438D01*
X94694285Y-123962438D02*
X94741904Y-124010057D01*
X94741904Y-124010057D02*
X94789523Y-124105295D01*
X94789523Y-124105295D02*
X94789523Y-124200533D01*
X94789523Y-124200533D02*
X94741904Y-124343390D01*
X94741904Y-124343390D02*
X94170476Y-124914819D01*
X94170476Y-124914819D02*
X94789523Y-124914819D01*
D11*
X126576667Y-84369318D02*
X126576667Y-85276461D01*
X126576667Y-85276461D02*
X126516190Y-85457889D01*
X126516190Y-85457889D02*
X126395238Y-85578842D01*
X126395238Y-85578842D02*
X126213809Y-85639318D01*
X126213809Y-85639318D02*
X126092857Y-85639318D01*
X127725714Y-84792651D02*
X127725714Y-85639318D01*
X127423333Y-84308842D02*
X127120952Y-85215984D01*
X127120952Y-85215984D02*
X127907143Y-85215984D01*
X78020333Y-118938318D02*
X77596999Y-118333556D01*
X77294618Y-118938318D02*
X77294618Y-117668318D01*
X77294618Y-117668318D02*
X77778428Y-117668318D01*
X77778428Y-117668318D02*
X77899380Y-117728794D01*
X77899380Y-117728794D02*
X77959857Y-117789270D01*
X77959857Y-117789270D02*
X78020333Y-117910222D01*
X78020333Y-117910222D02*
X78020333Y-118091651D01*
X78020333Y-118091651D02*
X77959857Y-118212603D01*
X77959857Y-118212603D02*
X77899380Y-118273080D01*
X77899380Y-118273080D02*
X77778428Y-118333556D01*
X77778428Y-118333556D02*
X77294618Y-118333556D01*
X78504142Y-117789270D02*
X78564618Y-117728794D01*
X78564618Y-117728794D02*
X78685571Y-117668318D01*
X78685571Y-117668318D02*
X78987952Y-117668318D01*
X78987952Y-117668318D02*
X79108904Y-117728794D01*
X79108904Y-117728794D02*
X79169380Y-117789270D01*
X79169380Y-117789270D02*
X79229857Y-117910222D01*
X79229857Y-117910222D02*
X79229857Y-118031175D01*
X79229857Y-118031175D02*
X79169380Y-118212603D01*
X79169380Y-118212603D02*
X78443666Y-118938318D01*
X78443666Y-118938318D02*
X79229857Y-118938318D01*
X110188333Y-95570318D02*
X109764999Y-94965556D01*
X109462618Y-95570318D02*
X109462618Y-94300318D01*
X109462618Y-94300318D02*
X109946428Y-94300318D01*
X109946428Y-94300318D02*
X110067380Y-94360794D01*
X110067380Y-94360794D02*
X110127857Y-94421270D01*
X110127857Y-94421270D02*
X110188333Y-94542222D01*
X110188333Y-94542222D02*
X110188333Y-94723651D01*
X110188333Y-94723651D02*
X110127857Y-94844603D01*
X110127857Y-94844603D02*
X110067380Y-94905080D01*
X110067380Y-94905080D02*
X109946428Y-94965556D01*
X109946428Y-94965556D02*
X109462618Y-94965556D01*
X110611666Y-94300318D02*
X111458333Y-94300318D01*
X111458333Y-94300318D02*
X110914047Y-95570318D01*
X89704333Y-121986318D02*
X89280999Y-121381556D01*
X88978618Y-121986318D02*
X88978618Y-120716318D01*
X88978618Y-120716318D02*
X89462428Y-120716318D01*
X89462428Y-120716318D02*
X89583380Y-120776794D01*
X89583380Y-120776794D02*
X89643857Y-120837270D01*
X89643857Y-120837270D02*
X89704333Y-120958222D01*
X89704333Y-120958222D02*
X89704333Y-121139651D01*
X89704333Y-121139651D02*
X89643857Y-121260603D01*
X89643857Y-121260603D02*
X89583380Y-121321080D01*
X89583380Y-121321080D02*
X89462428Y-121381556D01*
X89462428Y-121381556D02*
X88978618Y-121381556D01*
X90853380Y-120716318D02*
X90248618Y-120716318D01*
X90248618Y-120716318D02*
X90188142Y-121321080D01*
X90188142Y-121321080D02*
X90248618Y-121260603D01*
X90248618Y-121260603D02*
X90369571Y-121200127D01*
X90369571Y-121200127D02*
X90671952Y-121200127D01*
X90671952Y-121200127D02*
X90792904Y-121260603D01*
X90792904Y-121260603D02*
X90853380Y-121321080D01*
X90853380Y-121321080D02*
X90913857Y-121442032D01*
X90913857Y-121442032D02*
X90913857Y-121744413D01*
X90913857Y-121744413D02*
X90853380Y-121865365D01*
X90853380Y-121865365D02*
X90792904Y-121925842D01*
X90792904Y-121925842D02*
X90671952Y-121986318D01*
X90671952Y-121986318D02*
X90369571Y-121986318D01*
X90369571Y-121986318D02*
X90248618Y-121925842D01*
X90248618Y-121925842D02*
X90188142Y-121865365D01*
X62018333Y-115382318D02*
X61594999Y-114777556D01*
X61292618Y-115382318D02*
X61292618Y-114112318D01*
X61292618Y-114112318D02*
X61776428Y-114112318D01*
X61776428Y-114112318D02*
X61897380Y-114172794D01*
X61897380Y-114172794D02*
X61957857Y-114233270D01*
X61957857Y-114233270D02*
X62018333Y-114354222D01*
X62018333Y-114354222D02*
X62018333Y-114535651D01*
X62018333Y-114535651D02*
X61957857Y-114656603D01*
X61957857Y-114656603D02*
X61897380Y-114717080D01*
X61897380Y-114717080D02*
X61776428Y-114777556D01*
X61776428Y-114777556D02*
X61292618Y-114777556D01*
X63106904Y-114535651D02*
X63106904Y-115382318D01*
X62804523Y-114051842D02*
X62502142Y-114958984D01*
X62502142Y-114958984D02*
X63288333Y-114958984D01*
X104986667Y-70424318D02*
X104986667Y-71331461D01*
X104986667Y-71331461D02*
X104926190Y-71512889D01*
X104926190Y-71512889D02*
X104805238Y-71633842D01*
X104805238Y-71633842D02*
X104623809Y-71694318D01*
X104623809Y-71694318D02*
X104502857Y-71694318D01*
X105470476Y-70424318D02*
X106256667Y-70424318D01*
X106256667Y-70424318D02*
X105833333Y-70908127D01*
X105833333Y-70908127D02*
X106014762Y-70908127D01*
X106014762Y-70908127D02*
X106135714Y-70968603D01*
X106135714Y-70968603D02*
X106196190Y-71029080D01*
X106196190Y-71029080D02*
X106256667Y-71150032D01*
X106256667Y-71150032D02*
X106256667Y-71452413D01*
X106256667Y-71452413D02*
X106196190Y-71573365D01*
X106196190Y-71573365D02*
X106135714Y-71633842D01*
X106135714Y-71633842D02*
X106014762Y-71694318D01*
X106014762Y-71694318D02*
X105651905Y-71694318D01*
X105651905Y-71694318D02*
X105530952Y-71633842D01*
X105530952Y-71633842D02*
X105470476Y-71573365D01*
X93163365Y-93526428D02*
X93223842Y-93586904D01*
X93223842Y-93586904D02*
X93284318Y-93768333D01*
X93284318Y-93768333D02*
X93284318Y-93889285D01*
X93284318Y-93889285D02*
X93223842Y-94070714D01*
X93223842Y-94070714D02*
X93102889Y-94191666D01*
X93102889Y-94191666D02*
X92981937Y-94252143D01*
X92981937Y-94252143D02*
X92740032Y-94312619D01*
X92740032Y-94312619D02*
X92558603Y-94312619D01*
X92558603Y-94312619D02*
X92316699Y-94252143D01*
X92316699Y-94252143D02*
X92195746Y-94191666D01*
X92195746Y-94191666D02*
X92074794Y-94070714D01*
X92074794Y-94070714D02*
X92014318Y-93889285D01*
X92014318Y-93889285D02*
X92014318Y-93768333D01*
X92014318Y-93768333D02*
X92074794Y-93586904D01*
X92074794Y-93586904D02*
X92135270Y-93526428D01*
X93284318Y-92316904D02*
X93284318Y-93042619D01*
X93284318Y-92679762D02*
X92014318Y-92679762D01*
X92014318Y-92679762D02*
X92195746Y-92800714D01*
X92195746Y-92800714D02*
X92316699Y-92921666D01*
X92316699Y-92921666D02*
X92377175Y-93042619D01*
X92014318Y-91893571D02*
X92014318Y-91046904D01*
X92014318Y-91046904D02*
X93284318Y-91591190D01*
D12*
X80538200Y-138278095D02*
X80490580Y-138420952D01*
X80490580Y-138420952D02*
X80490580Y-138659047D01*
X80490580Y-138659047D02*
X80538200Y-138754285D01*
X80538200Y-138754285D02*
X80585819Y-138801904D01*
X80585819Y-138801904D02*
X80681057Y-138849523D01*
X80681057Y-138849523D02*
X80776295Y-138849523D01*
X80776295Y-138849523D02*
X80871533Y-138801904D01*
X80871533Y-138801904D02*
X80919152Y-138754285D01*
X80919152Y-138754285D02*
X80966771Y-138659047D01*
X80966771Y-138659047D02*
X81014390Y-138468571D01*
X81014390Y-138468571D02*
X81062009Y-138373333D01*
X81062009Y-138373333D02*
X81109628Y-138325714D01*
X81109628Y-138325714D02*
X81204866Y-138278095D01*
X81204866Y-138278095D02*
X81300104Y-138278095D01*
X81300104Y-138278095D02*
X81395342Y-138325714D01*
X81395342Y-138325714D02*
X81442961Y-138373333D01*
X81442961Y-138373333D02*
X81490580Y-138468571D01*
X81490580Y-138468571D02*
X81490580Y-138706666D01*
X81490580Y-138706666D02*
X81442961Y-138849523D01*
X81157247Y-139706666D02*
X80490580Y-139706666D01*
X81538200Y-139468571D02*
X80823914Y-139230476D01*
X80823914Y-139230476D02*
X80823914Y-139849523D01*
D11*
X52916667Y-70424318D02*
X52916667Y-71331461D01*
X52916667Y-71331461D02*
X52856190Y-71512889D01*
X52856190Y-71512889D02*
X52735238Y-71633842D01*
X52735238Y-71633842D02*
X52553809Y-71694318D01*
X52553809Y-71694318D02*
X52432857Y-71694318D01*
X54186667Y-71694318D02*
X53460952Y-71694318D01*
X53823809Y-71694318D02*
X53823809Y-70424318D01*
X53823809Y-70424318D02*
X53702857Y-70605746D01*
X53702857Y-70605746D02*
X53581905Y-70726699D01*
X53581905Y-70726699D02*
X53460952Y-70787175D01*
D10*
X70358095Y-121374819D02*
X70358095Y-122184342D01*
X70358095Y-122184342D02*
X70405714Y-122279580D01*
X70405714Y-122279580D02*
X70453333Y-122327200D01*
X70453333Y-122327200D02*
X70548571Y-122374819D01*
X70548571Y-122374819D02*
X70739047Y-122374819D01*
X70739047Y-122374819D02*
X70834285Y-122327200D01*
X70834285Y-122327200D02*
X70881904Y-122279580D01*
X70881904Y-122279580D02*
X70929523Y-122184342D01*
X70929523Y-122184342D02*
X70929523Y-121374819D01*
X71929523Y-122374819D02*
X71358095Y-122374819D01*
X71643809Y-122374819D02*
X71643809Y-121374819D01*
X71643809Y-121374819D02*
X71548571Y-121517676D01*
X71548571Y-121517676D02*
X71453333Y-121612914D01*
X71453333Y-121612914D02*
X71358095Y-121660533D01*
D11*
X132763571Y-99513365D02*
X132703095Y-99573842D01*
X132703095Y-99573842D02*
X132521666Y-99634318D01*
X132521666Y-99634318D02*
X132400714Y-99634318D01*
X132400714Y-99634318D02*
X132219285Y-99573842D01*
X132219285Y-99573842D02*
X132098333Y-99452889D01*
X132098333Y-99452889D02*
X132037856Y-99331937D01*
X132037856Y-99331937D02*
X131977380Y-99090032D01*
X131977380Y-99090032D02*
X131977380Y-98908603D01*
X131977380Y-98908603D02*
X132037856Y-98666699D01*
X132037856Y-98666699D02*
X132098333Y-98545746D01*
X132098333Y-98545746D02*
X132219285Y-98424794D01*
X132219285Y-98424794D02*
X132400714Y-98364318D01*
X132400714Y-98364318D02*
X132521666Y-98364318D01*
X132521666Y-98364318D02*
X132703095Y-98424794D01*
X132703095Y-98424794D02*
X132763571Y-98485270D01*
X133973095Y-99634318D02*
X133247380Y-99634318D01*
X133610237Y-99634318D02*
X133610237Y-98364318D01*
X133610237Y-98364318D02*
X133489285Y-98545746D01*
X133489285Y-98545746D02*
X133368333Y-98666699D01*
X133368333Y-98666699D02*
X133247380Y-98727175D01*
X135182619Y-99634318D02*
X134456904Y-99634318D01*
X134819761Y-99634318D02*
X134819761Y-98364318D01*
X134819761Y-98364318D02*
X134698809Y-98545746D01*
X134698809Y-98545746D02*
X134577857Y-98666699D01*
X134577857Y-98666699D02*
X134456904Y-98727175D01*
X62018333Y-123510318D02*
X61594999Y-122905556D01*
X61292618Y-123510318D02*
X61292618Y-122240318D01*
X61292618Y-122240318D02*
X61776428Y-122240318D01*
X61776428Y-122240318D02*
X61897380Y-122300794D01*
X61897380Y-122300794D02*
X61957857Y-122361270D01*
X61957857Y-122361270D02*
X62018333Y-122482222D01*
X62018333Y-122482222D02*
X62018333Y-122663651D01*
X62018333Y-122663651D02*
X61957857Y-122784603D01*
X61957857Y-122784603D02*
X61897380Y-122845080D01*
X61897380Y-122845080D02*
X61776428Y-122905556D01*
X61776428Y-122905556D02*
X61292618Y-122905556D01*
X63227857Y-123510318D02*
X62502142Y-123510318D01*
X62864999Y-123510318D02*
X62864999Y-122240318D01*
X62864999Y-122240318D02*
X62744047Y-122421746D01*
X62744047Y-122421746D02*
X62623095Y-122542699D01*
X62623095Y-122542699D02*
X62502142Y-122603175D01*
D12*
X118638200Y-138430095D02*
X118590580Y-138572952D01*
X118590580Y-138572952D02*
X118590580Y-138811047D01*
X118590580Y-138811047D02*
X118638200Y-138906285D01*
X118638200Y-138906285D02*
X118685819Y-138953904D01*
X118685819Y-138953904D02*
X118781057Y-139001523D01*
X118781057Y-139001523D02*
X118876295Y-139001523D01*
X118876295Y-139001523D02*
X118971533Y-138953904D01*
X118971533Y-138953904D02*
X119019152Y-138906285D01*
X119019152Y-138906285D02*
X119066771Y-138811047D01*
X119066771Y-138811047D02*
X119114390Y-138620571D01*
X119114390Y-138620571D02*
X119162009Y-138525333D01*
X119162009Y-138525333D02*
X119209628Y-138477714D01*
X119209628Y-138477714D02*
X119304866Y-138430095D01*
X119304866Y-138430095D02*
X119400104Y-138430095D01*
X119400104Y-138430095D02*
X119495342Y-138477714D01*
X119495342Y-138477714D02*
X119542961Y-138525333D01*
X119542961Y-138525333D02*
X119590580Y-138620571D01*
X119590580Y-138620571D02*
X119590580Y-138858666D01*
X119590580Y-138858666D02*
X119542961Y-139001523D01*
X119590580Y-139334857D02*
X119590580Y-139953904D01*
X119590580Y-139953904D02*
X119209628Y-139620571D01*
X119209628Y-139620571D02*
X119209628Y-139763428D01*
X119209628Y-139763428D02*
X119162009Y-139858666D01*
X119162009Y-139858666D02*
X119114390Y-139906285D01*
X119114390Y-139906285D02*
X119019152Y-139953904D01*
X119019152Y-139953904D02*
X118781057Y-139953904D01*
X118781057Y-139953904D02*
X118685819Y-139906285D01*
X118685819Y-139906285D02*
X118638200Y-139858666D01*
X118638200Y-139858666D02*
X118590580Y-139763428D01*
X118590580Y-139763428D02*
X118590580Y-139477714D01*
X118590580Y-139477714D02*
X118638200Y-139382476D01*
X118638200Y-139382476D02*
X118685819Y-139334857D01*
D11*
X103293333Y-94433365D02*
X103232857Y-94493842D01*
X103232857Y-94493842D02*
X103051428Y-94554318D01*
X103051428Y-94554318D02*
X102930476Y-94554318D01*
X102930476Y-94554318D02*
X102749047Y-94493842D01*
X102749047Y-94493842D02*
X102628095Y-94372889D01*
X102628095Y-94372889D02*
X102567618Y-94251937D01*
X102567618Y-94251937D02*
X102507142Y-94010032D01*
X102507142Y-94010032D02*
X102507142Y-93828603D01*
X102507142Y-93828603D02*
X102567618Y-93586699D01*
X102567618Y-93586699D02*
X102628095Y-93465746D01*
X102628095Y-93465746D02*
X102749047Y-93344794D01*
X102749047Y-93344794D02*
X102930476Y-93284318D01*
X102930476Y-93284318D02*
X103051428Y-93284318D01*
X103051428Y-93284318D02*
X103232857Y-93344794D01*
X103232857Y-93344794D02*
X103293333Y-93405270D01*
X103777142Y-93405270D02*
X103837618Y-93344794D01*
X103837618Y-93344794D02*
X103958571Y-93284318D01*
X103958571Y-93284318D02*
X104260952Y-93284318D01*
X104260952Y-93284318D02*
X104381904Y-93344794D01*
X104381904Y-93344794D02*
X104442380Y-93405270D01*
X104442380Y-93405270D02*
X104502857Y-93526222D01*
X104502857Y-93526222D02*
X104502857Y-93647175D01*
X104502857Y-93647175D02*
X104442380Y-93828603D01*
X104442380Y-93828603D02*
X103716666Y-94554318D01*
X103716666Y-94554318D02*
X104502857Y-94554318D01*
D10*
X52657205Y-99784819D02*
X52657205Y-100594342D01*
X52657205Y-100594342D02*
X52704824Y-100689580D01*
X52704824Y-100689580D02*
X52752443Y-100737200D01*
X52752443Y-100737200D02*
X52847681Y-100784819D01*
X52847681Y-100784819D02*
X53038157Y-100784819D01*
X53038157Y-100784819D02*
X53133395Y-100737200D01*
X53133395Y-100737200D02*
X53181014Y-100689580D01*
X53181014Y-100689580D02*
X53228633Y-100594342D01*
X53228633Y-100594342D02*
X53228633Y-99784819D01*
X54228633Y-100784819D02*
X53657205Y-100784819D01*
X53942919Y-100784819D02*
X53942919Y-99784819D01*
X53942919Y-99784819D02*
X53847681Y-99927676D01*
X53847681Y-99927676D02*
X53752443Y-100022914D01*
X53752443Y-100022914D02*
X53657205Y-100070533D01*
X55181014Y-100784819D02*
X54609586Y-100784819D01*
X54895300Y-100784819D02*
X54895300Y-99784819D01*
X54895300Y-99784819D02*
X54800062Y-99927676D01*
X54800062Y-99927676D02*
X54704824Y-100022914D01*
X54704824Y-100022914D02*
X54609586Y-100070533D01*
D12*
X51582200Y-138430095D02*
X51534580Y-138572952D01*
X51534580Y-138572952D02*
X51534580Y-138811047D01*
X51534580Y-138811047D02*
X51582200Y-138906285D01*
X51582200Y-138906285D02*
X51629819Y-138953904D01*
X51629819Y-138953904D02*
X51725057Y-139001523D01*
X51725057Y-139001523D02*
X51820295Y-139001523D01*
X51820295Y-139001523D02*
X51915533Y-138953904D01*
X51915533Y-138953904D02*
X51963152Y-138906285D01*
X51963152Y-138906285D02*
X52010771Y-138811047D01*
X52010771Y-138811047D02*
X52058390Y-138620571D01*
X52058390Y-138620571D02*
X52106009Y-138525333D01*
X52106009Y-138525333D02*
X52153628Y-138477714D01*
X52153628Y-138477714D02*
X52248866Y-138430095D01*
X52248866Y-138430095D02*
X52344104Y-138430095D01*
X52344104Y-138430095D02*
X52439342Y-138477714D01*
X52439342Y-138477714D02*
X52486961Y-138525333D01*
X52486961Y-138525333D02*
X52534580Y-138620571D01*
X52534580Y-138620571D02*
X52534580Y-138858666D01*
X52534580Y-138858666D02*
X52486961Y-139001523D01*
X51534580Y-139953904D02*
X51534580Y-139382476D01*
X51534580Y-139668190D02*
X52534580Y-139668190D01*
X52534580Y-139668190D02*
X52391723Y-139572952D01*
X52391723Y-139572952D02*
X52296485Y-139477714D01*
X52296485Y-139477714D02*
X52248866Y-139382476D01*
D11*
X54428365Y-95431428D02*
X54488842Y-95491904D01*
X54488842Y-95491904D02*
X54549318Y-95673333D01*
X54549318Y-95673333D02*
X54549318Y-95794285D01*
X54549318Y-95794285D02*
X54488842Y-95975714D01*
X54488842Y-95975714D02*
X54367889Y-96096666D01*
X54367889Y-96096666D02*
X54246937Y-96157143D01*
X54246937Y-96157143D02*
X54005032Y-96217619D01*
X54005032Y-96217619D02*
X53823603Y-96217619D01*
X53823603Y-96217619D02*
X53581699Y-96157143D01*
X53581699Y-96157143D02*
X53460746Y-96096666D01*
X53460746Y-96096666D02*
X53339794Y-95975714D01*
X53339794Y-95975714D02*
X53279318Y-95794285D01*
X53279318Y-95794285D02*
X53279318Y-95673333D01*
X53279318Y-95673333D02*
X53339794Y-95491904D01*
X53339794Y-95491904D02*
X53400270Y-95431428D01*
X54549318Y-94221904D02*
X54549318Y-94947619D01*
X54549318Y-94584762D02*
X53279318Y-94584762D01*
X53279318Y-94584762D02*
X53460746Y-94705714D01*
X53460746Y-94705714D02*
X53581699Y-94826666D01*
X53581699Y-94826666D02*
X53642175Y-94947619D01*
X53702651Y-93133333D02*
X54549318Y-93133333D01*
X53218842Y-93435714D02*
X54125984Y-93738095D01*
X54125984Y-93738095D02*
X54125984Y-92951904D01*
X71573365Y-114481428D02*
X71633842Y-114541904D01*
X71633842Y-114541904D02*
X71694318Y-114723333D01*
X71694318Y-114723333D02*
X71694318Y-114844285D01*
X71694318Y-114844285D02*
X71633842Y-115025714D01*
X71633842Y-115025714D02*
X71512889Y-115146666D01*
X71512889Y-115146666D02*
X71391937Y-115207143D01*
X71391937Y-115207143D02*
X71150032Y-115267619D01*
X71150032Y-115267619D02*
X70968603Y-115267619D01*
X70968603Y-115267619D02*
X70726699Y-115207143D01*
X70726699Y-115207143D02*
X70605746Y-115146666D01*
X70605746Y-115146666D02*
X70484794Y-115025714D01*
X70484794Y-115025714D02*
X70424318Y-114844285D01*
X70424318Y-114844285D02*
X70424318Y-114723333D01*
X70424318Y-114723333D02*
X70484794Y-114541904D01*
X70484794Y-114541904D02*
X70545270Y-114481428D01*
X71694318Y-113271904D02*
X71694318Y-113997619D01*
X71694318Y-113634762D02*
X70424318Y-113634762D01*
X70424318Y-113634762D02*
X70605746Y-113755714D01*
X70605746Y-113755714D02*
X70726699Y-113876666D01*
X70726699Y-113876666D02*
X70787175Y-113997619D01*
X71694318Y-112667142D02*
X71694318Y-112425238D01*
X71694318Y-112425238D02*
X71633842Y-112304285D01*
X71633842Y-112304285D02*
X71573365Y-112243809D01*
X71573365Y-112243809D02*
X71391937Y-112122857D01*
X71391937Y-112122857D02*
X71150032Y-112062380D01*
X71150032Y-112062380D02*
X70666222Y-112062380D01*
X70666222Y-112062380D02*
X70545270Y-112122857D01*
X70545270Y-112122857D02*
X70484794Y-112183333D01*
X70484794Y-112183333D02*
X70424318Y-112304285D01*
X70424318Y-112304285D02*
X70424318Y-112546190D01*
X70424318Y-112546190D02*
X70484794Y-112667142D01*
X70484794Y-112667142D02*
X70545270Y-112727619D01*
X70545270Y-112727619D02*
X70666222Y-112788095D01*
X70666222Y-112788095D02*
X70968603Y-112788095D01*
X70968603Y-112788095D02*
X71089556Y-112727619D01*
X71089556Y-112727619D02*
X71150032Y-112667142D01*
X71150032Y-112667142D02*
X71210508Y-112546190D01*
X71210508Y-112546190D02*
X71210508Y-112304285D01*
X71210508Y-112304285D02*
X71150032Y-112183333D01*
X71150032Y-112183333D02*
X71089556Y-112122857D01*
X71089556Y-112122857D02*
X70968603Y-112062380D01*
X79798333Y-94433365D02*
X79737857Y-94493842D01*
X79737857Y-94493842D02*
X79556428Y-94554318D01*
X79556428Y-94554318D02*
X79435476Y-94554318D01*
X79435476Y-94554318D02*
X79254047Y-94493842D01*
X79254047Y-94493842D02*
X79133095Y-94372889D01*
X79133095Y-94372889D02*
X79072618Y-94251937D01*
X79072618Y-94251937D02*
X79012142Y-94010032D01*
X79012142Y-94010032D02*
X79012142Y-93828603D01*
X79012142Y-93828603D02*
X79072618Y-93586699D01*
X79072618Y-93586699D02*
X79133095Y-93465746D01*
X79133095Y-93465746D02*
X79254047Y-93344794D01*
X79254047Y-93344794D02*
X79435476Y-93284318D01*
X79435476Y-93284318D02*
X79556428Y-93284318D01*
X79556428Y-93284318D02*
X79737857Y-93344794D01*
X79737857Y-93344794D02*
X79798333Y-93405270D01*
X81007857Y-94554318D02*
X80282142Y-94554318D01*
X80644999Y-94554318D02*
X80644999Y-93284318D01*
X80644999Y-93284318D02*
X80524047Y-93465746D01*
X80524047Y-93465746D02*
X80403095Y-93586699D01*
X80403095Y-93586699D02*
X80282142Y-93647175D01*
D10*
X65436905Y-100419819D02*
X65436905Y-101229342D01*
X65436905Y-101229342D02*
X65484524Y-101324580D01*
X65484524Y-101324580D02*
X65532143Y-101372200D01*
X65532143Y-101372200D02*
X65627381Y-101419819D01*
X65627381Y-101419819D02*
X65817857Y-101419819D01*
X65817857Y-101419819D02*
X65913095Y-101372200D01*
X65913095Y-101372200D02*
X65960714Y-101324580D01*
X65960714Y-101324580D02*
X66008333Y-101229342D01*
X66008333Y-101229342D02*
X66008333Y-100419819D01*
X67008333Y-101419819D02*
X66436905Y-101419819D01*
X66722619Y-101419819D02*
X66722619Y-100419819D01*
X66722619Y-100419819D02*
X66627381Y-100562676D01*
X66627381Y-100562676D02*
X66532143Y-100657914D01*
X66532143Y-100657914D02*
X66436905Y-100705533D01*
X67627381Y-100419819D02*
X67722619Y-100419819D01*
X67722619Y-100419819D02*
X67817857Y-100467438D01*
X67817857Y-100467438D02*
X67865476Y-100515057D01*
X67865476Y-100515057D02*
X67913095Y-100610295D01*
X67913095Y-100610295D02*
X67960714Y-100800771D01*
X67960714Y-100800771D02*
X67960714Y-101038866D01*
X67960714Y-101038866D02*
X67913095Y-101229342D01*
X67913095Y-101229342D02*
X67865476Y-101324580D01*
X67865476Y-101324580D02*
X67817857Y-101372200D01*
X67817857Y-101372200D02*
X67722619Y-101419819D01*
X67722619Y-101419819D02*
X67627381Y-101419819D01*
X67627381Y-101419819D02*
X67532143Y-101372200D01*
X67532143Y-101372200D02*
X67484524Y-101324580D01*
X67484524Y-101324580D02*
X67436905Y-101229342D01*
X67436905Y-101229342D02*
X67389286Y-101038866D01*
X67389286Y-101038866D02*
X67389286Y-100800771D01*
X67389286Y-100800771D02*
X67436905Y-100610295D01*
X67436905Y-100610295D02*
X67484524Y-100515057D01*
X67484524Y-100515057D02*
X67532143Y-100467438D01*
X67532143Y-100467438D02*
X67627381Y-100419819D01*
D11*
X113483365Y-129116666D02*
X113543842Y-129177142D01*
X113543842Y-129177142D02*
X113604318Y-129358571D01*
X113604318Y-129358571D02*
X113604318Y-129479523D01*
X113604318Y-129479523D02*
X113543842Y-129660952D01*
X113543842Y-129660952D02*
X113422889Y-129781904D01*
X113422889Y-129781904D02*
X113301937Y-129842381D01*
X113301937Y-129842381D02*
X113060032Y-129902857D01*
X113060032Y-129902857D02*
X112878603Y-129902857D01*
X112878603Y-129902857D02*
X112636699Y-129842381D01*
X112636699Y-129842381D02*
X112515746Y-129781904D01*
X112515746Y-129781904D02*
X112394794Y-129660952D01*
X112394794Y-129660952D02*
X112334318Y-129479523D01*
X112334318Y-129479523D02*
X112334318Y-129358571D01*
X112334318Y-129358571D02*
X112394794Y-129177142D01*
X112394794Y-129177142D02*
X112455270Y-129116666D01*
X112334318Y-128693333D02*
X112334318Y-127846666D01*
X112334318Y-127846666D02*
X113604318Y-128390952D01*
X99513365Y-117251428D02*
X99573842Y-117311904D01*
X99573842Y-117311904D02*
X99634318Y-117493333D01*
X99634318Y-117493333D02*
X99634318Y-117614285D01*
X99634318Y-117614285D02*
X99573842Y-117795714D01*
X99573842Y-117795714D02*
X99452889Y-117916666D01*
X99452889Y-117916666D02*
X99331937Y-117977143D01*
X99331937Y-117977143D02*
X99090032Y-118037619D01*
X99090032Y-118037619D02*
X98908603Y-118037619D01*
X98908603Y-118037619D02*
X98666699Y-117977143D01*
X98666699Y-117977143D02*
X98545746Y-117916666D01*
X98545746Y-117916666D02*
X98424794Y-117795714D01*
X98424794Y-117795714D02*
X98364318Y-117614285D01*
X98364318Y-117614285D02*
X98364318Y-117493333D01*
X98364318Y-117493333D02*
X98424794Y-117311904D01*
X98424794Y-117311904D02*
X98485270Y-117251428D01*
X98485270Y-116767619D02*
X98424794Y-116707143D01*
X98424794Y-116707143D02*
X98364318Y-116586190D01*
X98364318Y-116586190D02*
X98364318Y-116283809D01*
X98364318Y-116283809D02*
X98424794Y-116162857D01*
X98424794Y-116162857D02*
X98485270Y-116102381D01*
X98485270Y-116102381D02*
X98606222Y-116041904D01*
X98606222Y-116041904D02*
X98727175Y-116041904D01*
X98727175Y-116041904D02*
X98908603Y-116102381D01*
X98908603Y-116102381D02*
X99634318Y-116828095D01*
X99634318Y-116828095D02*
X99634318Y-116041904D01*
X99634318Y-114832380D02*
X99634318Y-115558095D01*
X99634318Y-115195238D02*
X98364318Y-115195238D01*
X98364318Y-115195238D02*
X98545746Y-115316190D01*
X98545746Y-115316190D02*
X98666699Y-115437142D01*
X98666699Y-115437142D02*
X98727175Y-115558095D01*
X122848571Y-92837365D02*
X122788095Y-92897842D01*
X122788095Y-92897842D02*
X122606666Y-92958318D01*
X122606666Y-92958318D02*
X122485714Y-92958318D01*
X122485714Y-92958318D02*
X122304285Y-92897842D01*
X122304285Y-92897842D02*
X122183333Y-92776889D01*
X122183333Y-92776889D02*
X122122856Y-92655937D01*
X122122856Y-92655937D02*
X122062380Y-92414032D01*
X122062380Y-92414032D02*
X122062380Y-92232603D01*
X122062380Y-92232603D02*
X122122856Y-91990699D01*
X122122856Y-91990699D02*
X122183333Y-91869746D01*
X122183333Y-91869746D02*
X122304285Y-91748794D01*
X122304285Y-91748794D02*
X122485714Y-91688318D01*
X122485714Y-91688318D02*
X122606666Y-91688318D01*
X122606666Y-91688318D02*
X122788095Y-91748794D01*
X122788095Y-91748794D02*
X122848571Y-91809270D01*
X123332380Y-91809270D02*
X123392856Y-91748794D01*
X123392856Y-91748794D02*
X123513809Y-91688318D01*
X123513809Y-91688318D02*
X123816190Y-91688318D01*
X123816190Y-91688318D02*
X123937142Y-91748794D01*
X123937142Y-91748794D02*
X123997618Y-91809270D01*
X123997618Y-91809270D02*
X124058095Y-91930222D01*
X124058095Y-91930222D02*
X124058095Y-92051175D01*
X124058095Y-92051175D02*
X123997618Y-92232603D01*
X123997618Y-92232603D02*
X123271904Y-92958318D01*
X123271904Y-92958318D02*
X124058095Y-92958318D01*
X124783809Y-92232603D02*
X124662857Y-92172127D01*
X124662857Y-92172127D02*
X124602380Y-92111651D01*
X124602380Y-92111651D02*
X124541904Y-91990699D01*
X124541904Y-91990699D02*
X124541904Y-91930222D01*
X124541904Y-91930222D02*
X124602380Y-91809270D01*
X124602380Y-91809270D02*
X124662857Y-91748794D01*
X124662857Y-91748794D02*
X124783809Y-91688318D01*
X124783809Y-91688318D02*
X125025714Y-91688318D01*
X125025714Y-91688318D02*
X125146666Y-91748794D01*
X125146666Y-91748794D02*
X125207142Y-91809270D01*
X125207142Y-91809270D02*
X125267619Y-91930222D01*
X125267619Y-91930222D02*
X125267619Y-91990699D01*
X125267619Y-91990699D02*
X125207142Y-92111651D01*
X125207142Y-92111651D02*
X125146666Y-92172127D01*
X125146666Y-92172127D02*
X125025714Y-92232603D01*
X125025714Y-92232603D02*
X124783809Y-92232603D01*
X124783809Y-92232603D02*
X124662857Y-92293080D01*
X124662857Y-92293080D02*
X124602380Y-92353556D01*
X124602380Y-92353556D02*
X124541904Y-92474508D01*
X124541904Y-92474508D02*
X124541904Y-92716413D01*
X124541904Y-92716413D02*
X124602380Y-92837365D01*
X124602380Y-92837365D02*
X124662857Y-92897842D01*
X124662857Y-92897842D02*
X124783809Y-92958318D01*
X124783809Y-92958318D02*
X125025714Y-92958318D01*
X125025714Y-92958318D02*
X125146666Y-92897842D01*
X125146666Y-92897842D02*
X125207142Y-92837365D01*
X125207142Y-92837365D02*
X125267619Y-92716413D01*
X125267619Y-92716413D02*
X125267619Y-92474508D01*
X125267619Y-92474508D02*
X125207142Y-92353556D01*
X125207142Y-92353556D02*
X125146666Y-92293080D01*
X125146666Y-92293080D02*
X125025714Y-92232603D01*
X53793365Y-115141666D02*
X53853842Y-115202142D01*
X53853842Y-115202142D02*
X53914318Y-115383571D01*
X53914318Y-115383571D02*
X53914318Y-115504523D01*
X53914318Y-115504523D02*
X53853842Y-115685952D01*
X53853842Y-115685952D02*
X53732889Y-115806904D01*
X53732889Y-115806904D02*
X53611937Y-115867381D01*
X53611937Y-115867381D02*
X53370032Y-115927857D01*
X53370032Y-115927857D02*
X53188603Y-115927857D01*
X53188603Y-115927857D02*
X52946699Y-115867381D01*
X52946699Y-115867381D02*
X52825746Y-115806904D01*
X52825746Y-115806904D02*
X52704794Y-115685952D01*
X52704794Y-115685952D02*
X52644318Y-115504523D01*
X52644318Y-115504523D02*
X52644318Y-115383571D01*
X52644318Y-115383571D02*
X52704794Y-115202142D01*
X52704794Y-115202142D02*
X52765270Y-115141666D01*
X53067651Y-114053095D02*
X53914318Y-114053095D01*
X52583842Y-114355476D02*
X53490984Y-114657857D01*
X53490984Y-114657857D02*
X53490984Y-113871666D01*
X114753365Y-99241428D02*
X114813842Y-99301904D01*
X114813842Y-99301904D02*
X114874318Y-99483333D01*
X114874318Y-99483333D02*
X114874318Y-99604285D01*
X114874318Y-99604285D02*
X114813842Y-99785714D01*
X114813842Y-99785714D02*
X114692889Y-99906666D01*
X114692889Y-99906666D02*
X114571937Y-99967143D01*
X114571937Y-99967143D02*
X114330032Y-100027619D01*
X114330032Y-100027619D02*
X114148603Y-100027619D01*
X114148603Y-100027619D02*
X113906699Y-99967143D01*
X113906699Y-99967143D02*
X113785746Y-99906666D01*
X113785746Y-99906666D02*
X113664794Y-99785714D01*
X113664794Y-99785714D02*
X113604318Y-99604285D01*
X113604318Y-99604285D02*
X113604318Y-99483333D01*
X113604318Y-99483333D02*
X113664794Y-99301904D01*
X113664794Y-99301904D02*
X113725270Y-99241428D01*
X113725270Y-98757619D02*
X113664794Y-98697143D01*
X113664794Y-98697143D02*
X113604318Y-98576190D01*
X113604318Y-98576190D02*
X113604318Y-98273809D01*
X113604318Y-98273809D02*
X113664794Y-98152857D01*
X113664794Y-98152857D02*
X113725270Y-98092381D01*
X113725270Y-98092381D02*
X113846222Y-98031904D01*
X113846222Y-98031904D02*
X113967175Y-98031904D01*
X113967175Y-98031904D02*
X114148603Y-98092381D01*
X114148603Y-98092381D02*
X114874318Y-98818095D01*
X114874318Y-98818095D02*
X114874318Y-98031904D01*
X114027651Y-96943333D02*
X114874318Y-96943333D01*
X113543842Y-97245714D02*
X114450984Y-97548095D01*
X114450984Y-97548095D02*
X114450984Y-96761904D01*
D12*
X91714200Y-138430095D02*
X91666580Y-138572952D01*
X91666580Y-138572952D02*
X91666580Y-138811047D01*
X91666580Y-138811047D02*
X91714200Y-138906285D01*
X91714200Y-138906285D02*
X91761819Y-138953904D01*
X91761819Y-138953904D02*
X91857057Y-139001523D01*
X91857057Y-139001523D02*
X91952295Y-139001523D01*
X91952295Y-139001523D02*
X92047533Y-138953904D01*
X92047533Y-138953904D02*
X92095152Y-138906285D01*
X92095152Y-138906285D02*
X92142771Y-138811047D01*
X92142771Y-138811047D02*
X92190390Y-138620571D01*
X92190390Y-138620571D02*
X92238009Y-138525333D01*
X92238009Y-138525333D02*
X92285628Y-138477714D01*
X92285628Y-138477714D02*
X92380866Y-138430095D01*
X92380866Y-138430095D02*
X92476104Y-138430095D01*
X92476104Y-138430095D02*
X92571342Y-138477714D01*
X92571342Y-138477714D02*
X92618961Y-138525333D01*
X92618961Y-138525333D02*
X92666580Y-138620571D01*
X92666580Y-138620571D02*
X92666580Y-138858666D01*
X92666580Y-138858666D02*
X92618961Y-139001523D01*
X92571342Y-139382476D02*
X92618961Y-139430095D01*
X92618961Y-139430095D02*
X92666580Y-139525333D01*
X92666580Y-139525333D02*
X92666580Y-139763428D01*
X92666580Y-139763428D02*
X92618961Y-139858666D01*
X92618961Y-139858666D02*
X92571342Y-139906285D01*
X92571342Y-139906285D02*
X92476104Y-139953904D01*
X92476104Y-139953904D02*
X92380866Y-139953904D01*
X92380866Y-139953904D02*
X92238009Y-139906285D01*
X92238009Y-139906285D02*
X91666580Y-139334857D01*
X91666580Y-139334857D02*
X91666580Y-139953904D01*
D10*
X112268095Y-122644819D02*
X112268095Y-123454342D01*
X112268095Y-123454342D02*
X112315714Y-123549580D01*
X112315714Y-123549580D02*
X112363333Y-123597200D01*
X112363333Y-123597200D02*
X112458571Y-123644819D01*
X112458571Y-123644819D02*
X112649047Y-123644819D01*
X112649047Y-123644819D02*
X112744285Y-123597200D01*
X112744285Y-123597200D02*
X112791904Y-123549580D01*
X112791904Y-123549580D02*
X112839523Y-123454342D01*
X112839523Y-123454342D02*
X112839523Y-122644819D01*
X113458571Y-123073390D02*
X113363333Y-123025771D01*
X113363333Y-123025771D02*
X113315714Y-122978152D01*
X113315714Y-122978152D02*
X113268095Y-122882914D01*
X113268095Y-122882914D02*
X113268095Y-122835295D01*
X113268095Y-122835295D02*
X113315714Y-122740057D01*
X113315714Y-122740057D02*
X113363333Y-122692438D01*
X113363333Y-122692438D02*
X113458571Y-122644819D01*
X113458571Y-122644819D02*
X113649047Y-122644819D01*
X113649047Y-122644819D02*
X113744285Y-122692438D01*
X113744285Y-122692438D02*
X113791904Y-122740057D01*
X113791904Y-122740057D02*
X113839523Y-122835295D01*
X113839523Y-122835295D02*
X113839523Y-122882914D01*
X113839523Y-122882914D02*
X113791904Y-122978152D01*
X113791904Y-122978152D02*
X113744285Y-123025771D01*
X113744285Y-123025771D02*
X113649047Y-123073390D01*
X113649047Y-123073390D02*
X113458571Y-123073390D01*
X113458571Y-123073390D02*
X113363333Y-123121009D01*
X113363333Y-123121009D02*
X113315714Y-123168628D01*
X113315714Y-123168628D02*
X113268095Y-123263866D01*
X113268095Y-123263866D02*
X113268095Y-123454342D01*
X113268095Y-123454342D02*
X113315714Y-123549580D01*
X113315714Y-123549580D02*
X113363333Y-123597200D01*
X113363333Y-123597200D02*
X113458571Y-123644819D01*
X113458571Y-123644819D02*
X113649047Y-123644819D01*
X113649047Y-123644819D02*
X113744285Y-123597200D01*
X113744285Y-123597200D02*
X113791904Y-123549580D01*
X113791904Y-123549580D02*
X113839523Y-123454342D01*
X113839523Y-123454342D02*
X113839523Y-123263866D01*
X113839523Y-123263866D02*
X113791904Y-123168628D01*
X113791904Y-123168628D02*
X113744285Y-123121009D01*
X113744285Y-123121009D02*
X113649047Y-123073390D01*
X82423095Y-122644819D02*
X82423095Y-123454342D01*
X82423095Y-123454342D02*
X82470714Y-123549580D01*
X82470714Y-123549580D02*
X82518333Y-123597200D01*
X82518333Y-123597200D02*
X82613571Y-123644819D01*
X82613571Y-123644819D02*
X82804047Y-123644819D01*
X82804047Y-123644819D02*
X82899285Y-123597200D01*
X82899285Y-123597200D02*
X82946904Y-123549580D01*
X82946904Y-123549580D02*
X82994523Y-123454342D01*
X82994523Y-123454342D02*
X82994523Y-122644819D01*
X83375476Y-122644819D02*
X84042142Y-122644819D01*
X84042142Y-122644819D02*
X83613571Y-123644819D01*
X52482895Y-119784819D02*
X52482895Y-120594342D01*
X52482895Y-120594342D02*
X52530514Y-120689580D01*
X52530514Y-120689580D02*
X52578133Y-120737200D01*
X52578133Y-120737200D02*
X52673371Y-120784819D01*
X52673371Y-120784819D02*
X52863847Y-120784819D01*
X52863847Y-120784819D02*
X52959085Y-120737200D01*
X52959085Y-120737200D02*
X53006704Y-120689580D01*
X53006704Y-120689580D02*
X53054323Y-120594342D01*
X53054323Y-120594342D02*
X53054323Y-119784819D01*
X53959085Y-119784819D02*
X53768609Y-119784819D01*
X53768609Y-119784819D02*
X53673371Y-119832438D01*
X53673371Y-119832438D02*
X53625752Y-119880057D01*
X53625752Y-119880057D02*
X53530514Y-120022914D01*
X53530514Y-120022914D02*
X53482895Y-120213390D01*
X53482895Y-120213390D02*
X53482895Y-120594342D01*
X53482895Y-120594342D02*
X53530514Y-120689580D01*
X53530514Y-120689580D02*
X53578133Y-120737200D01*
X53578133Y-120737200D02*
X53673371Y-120784819D01*
X53673371Y-120784819D02*
X53863847Y-120784819D01*
X53863847Y-120784819D02*
X53959085Y-120737200D01*
X53959085Y-120737200D02*
X54006704Y-120689580D01*
X54006704Y-120689580D02*
X54054323Y-120594342D01*
X54054323Y-120594342D02*
X54054323Y-120356247D01*
X54054323Y-120356247D02*
X54006704Y-120261009D01*
X54006704Y-120261009D02*
X53959085Y-120213390D01*
X53959085Y-120213390D02*
X53863847Y-120165771D01*
X53863847Y-120165771D02*
X53673371Y-120165771D01*
X53673371Y-120165771D02*
X53578133Y-120213390D01*
X53578133Y-120213390D02*
X53530514Y-120261009D01*
X53530514Y-120261009D02*
X53482895Y-120356247D01*
D11*
X129198571Y-92837365D02*
X129138095Y-92897842D01*
X129138095Y-92897842D02*
X128956666Y-92958318D01*
X128956666Y-92958318D02*
X128835714Y-92958318D01*
X128835714Y-92958318D02*
X128654285Y-92897842D01*
X128654285Y-92897842D02*
X128533333Y-92776889D01*
X128533333Y-92776889D02*
X128472856Y-92655937D01*
X128472856Y-92655937D02*
X128412380Y-92414032D01*
X128412380Y-92414032D02*
X128412380Y-92232603D01*
X128412380Y-92232603D02*
X128472856Y-91990699D01*
X128472856Y-91990699D02*
X128533333Y-91869746D01*
X128533333Y-91869746D02*
X128654285Y-91748794D01*
X128654285Y-91748794D02*
X128835714Y-91688318D01*
X128835714Y-91688318D02*
X128956666Y-91688318D01*
X128956666Y-91688318D02*
X129138095Y-91748794D01*
X129138095Y-91748794D02*
X129198571Y-91809270D01*
X129682380Y-91809270D02*
X129742856Y-91748794D01*
X129742856Y-91748794D02*
X129863809Y-91688318D01*
X129863809Y-91688318D02*
X130166190Y-91688318D01*
X130166190Y-91688318D02*
X130287142Y-91748794D01*
X130287142Y-91748794D02*
X130347618Y-91809270D01*
X130347618Y-91809270D02*
X130408095Y-91930222D01*
X130408095Y-91930222D02*
X130408095Y-92051175D01*
X130408095Y-92051175D02*
X130347618Y-92232603D01*
X130347618Y-92232603D02*
X129621904Y-92958318D01*
X129621904Y-92958318D02*
X130408095Y-92958318D01*
X131012857Y-92958318D02*
X131254761Y-92958318D01*
X131254761Y-92958318D02*
X131375714Y-92897842D01*
X131375714Y-92897842D02*
X131436190Y-92837365D01*
X131436190Y-92837365D02*
X131557142Y-92655937D01*
X131557142Y-92655937D02*
X131617619Y-92414032D01*
X131617619Y-92414032D02*
X131617619Y-91930222D01*
X131617619Y-91930222D02*
X131557142Y-91809270D01*
X131557142Y-91809270D02*
X131496666Y-91748794D01*
X131496666Y-91748794D02*
X131375714Y-91688318D01*
X131375714Y-91688318D02*
X131133809Y-91688318D01*
X131133809Y-91688318D02*
X131012857Y-91748794D01*
X131012857Y-91748794D02*
X130952380Y-91809270D01*
X130952380Y-91809270D02*
X130891904Y-91930222D01*
X130891904Y-91930222D02*
X130891904Y-92232603D01*
X130891904Y-92232603D02*
X130952380Y-92353556D01*
X130952380Y-92353556D02*
X131012857Y-92414032D01*
X131012857Y-92414032D02*
X131133809Y-92474508D01*
X131133809Y-92474508D02*
X131375714Y-92474508D01*
X131375714Y-92474508D02*
X131496666Y-92414032D01*
X131496666Y-92414032D02*
X131557142Y-92353556D01*
X131557142Y-92353556D02*
X131617619Y-92232603D01*
X97108165Y-127816428D02*
X97168642Y-127876904D01*
X97168642Y-127876904D02*
X97229118Y-128058333D01*
X97229118Y-128058333D02*
X97229118Y-128179285D01*
X97229118Y-128179285D02*
X97168642Y-128360714D01*
X97168642Y-128360714D02*
X97047689Y-128481666D01*
X97047689Y-128481666D02*
X96926737Y-128542143D01*
X96926737Y-128542143D02*
X96684832Y-128602619D01*
X96684832Y-128602619D02*
X96503403Y-128602619D01*
X96503403Y-128602619D02*
X96261499Y-128542143D01*
X96261499Y-128542143D02*
X96140546Y-128481666D01*
X96140546Y-128481666D02*
X96019594Y-128360714D01*
X96019594Y-128360714D02*
X95959118Y-128179285D01*
X95959118Y-128179285D02*
X95959118Y-128058333D01*
X95959118Y-128058333D02*
X96019594Y-127876904D01*
X96019594Y-127876904D02*
X96080070Y-127816428D01*
X96080070Y-127332619D02*
X96019594Y-127272143D01*
X96019594Y-127272143D02*
X95959118Y-127151190D01*
X95959118Y-127151190D02*
X95959118Y-126848809D01*
X95959118Y-126848809D02*
X96019594Y-126727857D01*
X96019594Y-126727857D02*
X96080070Y-126667381D01*
X96080070Y-126667381D02*
X96201022Y-126606904D01*
X96201022Y-126606904D02*
X96321975Y-126606904D01*
X96321975Y-126606904D02*
X96503403Y-126667381D01*
X96503403Y-126667381D02*
X97229118Y-127393095D01*
X97229118Y-127393095D02*
X97229118Y-126606904D01*
X96080070Y-126123095D02*
X96019594Y-126062619D01*
X96019594Y-126062619D02*
X95959118Y-125941666D01*
X95959118Y-125941666D02*
X95959118Y-125639285D01*
X95959118Y-125639285D02*
X96019594Y-125518333D01*
X96019594Y-125518333D02*
X96080070Y-125457857D01*
X96080070Y-125457857D02*
X96201022Y-125397380D01*
X96201022Y-125397380D02*
X96321975Y-125397380D01*
X96321975Y-125397380D02*
X96503403Y-125457857D01*
X96503403Y-125457857D02*
X97229118Y-126183571D01*
X97229118Y-126183571D02*
X97229118Y-125397380D01*
X83773065Y-129116666D02*
X83833542Y-129177142D01*
X83833542Y-129177142D02*
X83894018Y-129358571D01*
X83894018Y-129358571D02*
X83894018Y-129479523D01*
X83894018Y-129479523D02*
X83833542Y-129660952D01*
X83833542Y-129660952D02*
X83712589Y-129781904D01*
X83712589Y-129781904D02*
X83591637Y-129842381D01*
X83591637Y-129842381D02*
X83349732Y-129902857D01*
X83349732Y-129902857D02*
X83168303Y-129902857D01*
X83168303Y-129902857D02*
X82926399Y-129842381D01*
X82926399Y-129842381D02*
X82805446Y-129781904D01*
X82805446Y-129781904D02*
X82684494Y-129660952D01*
X82684494Y-129660952D02*
X82624018Y-129479523D01*
X82624018Y-129479523D02*
X82624018Y-129358571D01*
X82624018Y-129358571D02*
X82684494Y-129177142D01*
X82684494Y-129177142D02*
X82744970Y-129116666D01*
X82624018Y-127967619D02*
X82624018Y-128572381D01*
X82624018Y-128572381D02*
X83228780Y-128632857D01*
X83228780Y-128632857D02*
X83168303Y-128572381D01*
X83168303Y-128572381D02*
X83107827Y-128451428D01*
X83107827Y-128451428D02*
X83107827Y-128149047D01*
X83107827Y-128149047D02*
X83168303Y-128028095D01*
X83168303Y-128028095D02*
X83228780Y-127967619D01*
X83228780Y-127967619D02*
X83349732Y-127907142D01*
X83349732Y-127907142D02*
X83652113Y-127907142D01*
X83652113Y-127907142D02*
X83773065Y-127967619D01*
X83773065Y-127967619D02*
X83833542Y-128028095D01*
X83833542Y-128028095D02*
X83894018Y-128149047D01*
X83894018Y-128149047D02*
X83894018Y-128451428D01*
X83894018Y-128451428D02*
X83833542Y-128572381D01*
X83833542Y-128572381D02*
X83773065Y-128632857D01*
X78316667Y-70424318D02*
X78316667Y-71331461D01*
X78316667Y-71331461D02*
X78256190Y-71512889D01*
X78256190Y-71512889D02*
X78135238Y-71633842D01*
X78135238Y-71633842D02*
X77953809Y-71694318D01*
X77953809Y-71694318D02*
X77832857Y-71694318D01*
X78860952Y-70545270D02*
X78921428Y-70484794D01*
X78921428Y-70484794D02*
X79042381Y-70424318D01*
X79042381Y-70424318D02*
X79344762Y-70424318D01*
X79344762Y-70424318D02*
X79465714Y-70484794D01*
X79465714Y-70484794D02*
X79526190Y-70545270D01*
X79526190Y-70545270D02*
X79586667Y-70666222D01*
X79586667Y-70666222D02*
X79586667Y-70787175D01*
X79586667Y-70787175D02*
X79526190Y-70968603D01*
X79526190Y-70968603D02*
X78800476Y-71694318D01*
X78800476Y-71694318D02*
X79586667Y-71694318D01*
X132763571Y-105863365D02*
X132703095Y-105923842D01*
X132703095Y-105923842D02*
X132521666Y-105984318D01*
X132521666Y-105984318D02*
X132400714Y-105984318D01*
X132400714Y-105984318D02*
X132219285Y-105923842D01*
X132219285Y-105923842D02*
X132098333Y-105802889D01*
X132098333Y-105802889D02*
X132037856Y-105681937D01*
X132037856Y-105681937D02*
X131977380Y-105440032D01*
X131977380Y-105440032D02*
X131977380Y-105258603D01*
X131977380Y-105258603D02*
X132037856Y-105016699D01*
X132037856Y-105016699D02*
X132098333Y-104895746D01*
X132098333Y-104895746D02*
X132219285Y-104774794D01*
X132219285Y-104774794D02*
X132400714Y-104714318D01*
X132400714Y-104714318D02*
X132521666Y-104714318D01*
X132521666Y-104714318D02*
X132703095Y-104774794D01*
X132703095Y-104774794D02*
X132763571Y-104835270D01*
X133973095Y-105984318D02*
X133247380Y-105984318D01*
X133610237Y-105984318D02*
X133610237Y-104714318D01*
X133610237Y-104714318D02*
X133489285Y-104895746D01*
X133489285Y-104895746D02*
X133368333Y-105016699D01*
X133368333Y-105016699D02*
X133247380Y-105077175D01*
X134456904Y-104835270D02*
X134517380Y-104774794D01*
X134517380Y-104774794D02*
X134638333Y-104714318D01*
X134638333Y-104714318D02*
X134940714Y-104714318D01*
X134940714Y-104714318D02*
X135061666Y-104774794D01*
X135061666Y-104774794D02*
X135122142Y-104835270D01*
X135122142Y-104835270D02*
X135182619Y-104956222D01*
X135182619Y-104956222D02*
X135182619Y-105077175D01*
X135182619Y-105077175D02*
X135122142Y-105258603D01*
X135122142Y-105258603D02*
X134396428Y-105984318D01*
X134396428Y-105984318D02*
X135182619Y-105984318D01*
X112721365Y-117686666D02*
X112781842Y-117747142D01*
X112781842Y-117747142D02*
X112842318Y-117928571D01*
X112842318Y-117928571D02*
X112842318Y-118049523D01*
X112842318Y-118049523D02*
X112781842Y-118230952D01*
X112781842Y-118230952D02*
X112660889Y-118351904D01*
X112660889Y-118351904D02*
X112539937Y-118412381D01*
X112539937Y-118412381D02*
X112298032Y-118472857D01*
X112298032Y-118472857D02*
X112116603Y-118472857D01*
X112116603Y-118472857D02*
X111874699Y-118412381D01*
X111874699Y-118412381D02*
X111753746Y-118351904D01*
X111753746Y-118351904D02*
X111632794Y-118230952D01*
X111632794Y-118230952D02*
X111572318Y-118049523D01*
X111572318Y-118049523D02*
X111572318Y-117928571D01*
X111572318Y-117928571D02*
X111632794Y-117747142D01*
X111632794Y-117747142D02*
X111693270Y-117686666D01*
X112116603Y-116960952D02*
X112056127Y-117081904D01*
X112056127Y-117081904D02*
X111995651Y-117142381D01*
X111995651Y-117142381D02*
X111874699Y-117202857D01*
X111874699Y-117202857D02*
X111814222Y-117202857D01*
X111814222Y-117202857D02*
X111693270Y-117142381D01*
X111693270Y-117142381D02*
X111632794Y-117081904D01*
X111632794Y-117081904D02*
X111572318Y-116960952D01*
X111572318Y-116960952D02*
X111572318Y-116719047D01*
X111572318Y-116719047D02*
X111632794Y-116598095D01*
X111632794Y-116598095D02*
X111693270Y-116537619D01*
X111693270Y-116537619D02*
X111814222Y-116477142D01*
X111814222Y-116477142D02*
X111874699Y-116477142D01*
X111874699Y-116477142D02*
X111995651Y-116537619D01*
X111995651Y-116537619D02*
X112056127Y-116598095D01*
X112056127Y-116598095D02*
X112116603Y-116719047D01*
X112116603Y-116719047D02*
X112116603Y-116960952D01*
X112116603Y-116960952D02*
X112177080Y-117081904D01*
X112177080Y-117081904D02*
X112237556Y-117142381D01*
X112237556Y-117142381D02*
X112358508Y-117202857D01*
X112358508Y-117202857D02*
X112600413Y-117202857D01*
X112600413Y-117202857D02*
X112721365Y-117142381D01*
X112721365Y-117142381D02*
X112781842Y-117081904D01*
X112781842Y-117081904D02*
X112842318Y-116960952D01*
X112842318Y-116960952D02*
X112842318Y-116719047D01*
X112842318Y-116719047D02*
X112781842Y-116598095D01*
X112781842Y-116598095D02*
X112721365Y-116537619D01*
X112721365Y-116537619D02*
X112600413Y-116477142D01*
X112600413Y-116477142D02*
X112358508Y-116477142D01*
X112358508Y-116477142D02*
X112237556Y-116537619D01*
X112237556Y-116537619D02*
X112177080Y-116598095D01*
X112177080Y-116598095D02*
X112116603Y-116719047D01*
X112056333Y-114366318D02*
X111632999Y-113761556D01*
X111330618Y-114366318D02*
X111330618Y-113096318D01*
X111330618Y-113096318D02*
X111814428Y-113096318D01*
X111814428Y-113096318D02*
X111935380Y-113156794D01*
X111935380Y-113156794D02*
X111995857Y-113217270D01*
X111995857Y-113217270D02*
X112056333Y-113338222D01*
X112056333Y-113338222D02*
X112056333Y-113519651D01*
X112056333Y-113519651D02*
X111995857Y-113640603D01*
X111995857Y-113640603D02*
X111935380Y-113701080D01*
X111935380Y-113701080D02*
X111814428Y-113761556D01*
X111814428Y-113761556D02*
X111330618Y-113761556D01*
X113144904Y-113096318D02*
X112902999Y-113096318D01*
X112902999Y-113096318D02*
X112782047Y-113156794D01*
X112782047Y-113156794D02*
X112721571Y-113217270D01*
X112721571Y-113217270D02*
X112600618Y-113398699D01*
X112600618Y-113398699D02*
X112540142Y-113640603D01*
X112540142Y-113640603D02*
X112540142Y-114124413D01*
X112540142Y-114124413D02*
X112600618Y-114245365D01*
X112600618Y-114245365D02*
X112661095Y-114305842D01*
X112661095Y-114305842D02*
X112782047Y-114366318D01*
X112782047Y-114366318D02*
X113023952Y-114366318D01*
X113023952Y-114366318D02*
X113144904Y-114305842D01*
X113144904Y-114305842D02*
X113205380Y-114245365D01*
X113205380Y-114245365D02*
X113265857Y-114124413D01*
X113265857Y-114124413D02*
X113265857Y-113822032D01*
X113265857Y-113822032D02*
X113205380Y-113701080D01*
X113205380Y-113701080D02*
X113144904Y-113640603D01*
X113144904Y-113640603D02*
X113023952Y-113580127D01*
X113023952Y-113580127D02*
X112782047Y-113580127D01*
X112782047Y-113580127D02*
X112661095Y-113640603D01*
X112661095Y-113640603D02*
X112600618Y-113701080D01*
X112600618Y-113701080D02*
X112540142Y-113822032D01*
X54428365Y-106964428D02*
X54488842Y-107024904D01*
X54488842Y-107024904D02*
X54549318Y-107206333D01*
X54549318Y-107206333D02*
X54549318Y-107327285D01*
X54549318Y-107327285D02*
X54488842Y-107508714D01*
X54488842Y-107508714D02*
X54367889Y-107629666D01*
X54367889Y-107629666D02*
X54246937Y-107690143D01*
X54246937Y-107690143D02*
X54005032Y-107750619D01*
X54005032Y-107750619D02*
X53823603Y-107750619D01*
X53823603Y-107750619D02*
X53581699Y-107690143D01*
X53581699Y-107690143D02*
X53460746Y-107629666D01*
X53460746Y-107629666D02*
X53339794Y-107508714D01*
X53339794Y-107508714D02*
X53279318Y-107327285D01*
X53279318Y-107327285D02*
X53279318Y-107206333D01*
X53279318Y-107206333D02*
X53339794Y-107024904D01*
X53339794Y-107024904D02*
X53400270Y-106964428D01*
X54549318Y-105754904D02*
X54549318Y-106480619D01*
X54549318Y-106117762D02*
X53279318Y-106117762D01*
X53279318Y-106117762D02*
X53460746Y-106238714D01*
X53460746Y-106238714D02*
X53581699Y-106359666D01*
X53581699Y-106359666D02*
X53642175Y-106480619D01*
X53279318Y-105331571D02*
X53279318Y-104545380D01*
X53279318Y-104545380D02*
X53763127Y-104968714D01*
X53763127Y-104968714D02*
X53763127Y-104787285D01*
X53763127Y-104787285D02*
X53823603Y-104666333D01*
X53823603Y-104666333D02*
X53884080Y-104605857D01*
X53884080Y-104605857D02*
X54005032Y-104545380D01*
X54005032Y-104545380D02*
X54307413Y-104545380D01*
X54307413Y-104545380D02*
X54428365Y-104605857D01*
X54428365Y-104605857D02*
X54488842Y-104666333D01*
X54488842Y-104666333D02*
X54549318Y-104787285D01*
X54549318Y-104787285D02*
X54549318Y-105150142D01*
X54549318Y-105150142D02*
X54488842Y-105271095D01*
X54488842Y-105271095D02*
X54428365Y-105331571D01*
X68398365Y-124871428D02*
X68458842Y-124931904D01*
X68458842Y-124931904D02*
X68519318Y-125113333D01*
X68519318Y-125113333D02*
X68519318Y-125234285D01*
X68519318Y-125234285D02*
X68458842Y-125415714D01*
X68458842Y-125415714D02*
X68337889Y-125536666D01*
X68337889Y-125536666D02*
X68216937Y-125597143D01*
X68216937Y-125597143D02*
X67975032Y-125657619D01*
X67975032Y-125657619D02*
X67793603Y-125657619D01*
X67793603Y-125657619D02*
X67551699Y-125597143D01*
X67551699Y-125597143D02*
X67430746Y-125536666D01*
X67430746Y-125536666D02*
X67309794Y-125415714D01*
X67309794Y-125415714D02*
X67249318Y-125234285D01*
X67249318Y-125234285D02*
X67249318Y-125113333D01*
X67249318Y-125113333D02*
X67309794Y-124931904D01*
X67309794Y-124931904D02*
X67370270Y-124871428D01*
X67370270Y-124387619D02*
X67309794Y-124327143D01*
X67309794Y-124327143D02*
X67249318Y-124206190D01*
X67249318Y-124206190D02*
X67249318Y-123903809D01*
X67249318Y-123903809D02*
X67309794Y-123782857D01*
X67309794Y-123782857D02*
X67370270Y-123722381D01*
X67370270Y-123722381D02*
X67491222Y-123661904D01*
X67491222Y-123661904D02*
X67612175Y-123661904D01*
X67612175Y-123661904D02*
X67793603Y-123722381D01*
X67793603Y-123722381D02*
X68519318Y-124448095D01*
X68519318Y-124448095D02*
X68519318Y-123661904D01*
X67249318Y-122875714D02*
X67249318Y-122754761D01*
X67249318Y-122754761D02*
X67309794Y-122633809D01*
X67309794Y-122633809D02*
X67370270Y-122573333D01*
X67370270Y-122573333D02*
X67491222Y-122512857D01*
X67491222Y-122512857D02*
X67733127Y-122452380D01*
X67733127Y-122452380D02*
X68035508Y-122452380D01*
X68035508Y-122452380D02*
X68277413Y-122512857D01*
X68277413Y-122512857D02*
X68398365Y-122573333D01*
X68398365Y-122573333D02*
X68458842Y-122633809D01*
X68458842Y-122633809D02*
X68519318Y-122754761D01*
X68519318Y-122754761D02*
X68519318Y-122875714D01*
X68519318Y-122875714D02*
X68458842Y-122996666D01*
X68458842Y-122996666D02*
X68398365Y-123057142D01*
X68398365Y-123057142D02*
X68277413Y-123117619D01*
X68277413Y-123117619D02*
X68035508Y-123178095D01*
X68035508Y-123178095D02*
X67733127Y-123178095D01*
X67733127Y-123178095D02*
X67491222Y-123117619D01*
X67491222Y-123117619D02*
X67370270Y-123057142D01*
X67370270Y-123057142D02*
X67309794Y-122996666D01*
X67309794Y-122996666D02*
X67249318Y-122875714D01*
X132763571Y-114753365D02*
X132703095Y-114813842D01*
X132703095Y-114813842D02*
X132521666Y-114874318D01*
X132521666Y-114874318D02*
X132400714Y-114874318D01*
X132400714Y-114874318D02*
X132219285Y-114813842D01*
X132219285Y-114813842D02*
X132098333Y-114692889D01*
X132098333Y-114692889D02*
X132037856Y-114571937D01*
X132037856Y-114571937D02*
X131977380Y-114330032D01*
X131977380Y-114330032D02*
X131977380Y-114148603D01*
X131977380Y-114148603D02*
X132037856Y-113906699D01*
X132037856Y-113906699D02*
X132098333Y-113785746D01*
X132098333Y-113785746D02*
X132219285Y-113664794D01*
X132219285Y-113664794D02*
X132400714Y-113604318D01*
X132400714Y-113604318D02*
X132521666Y-113604318D01*
X132521666Y-113604318D02*
X132703095Y-113664794D01*
X132703095Y-113664794D02*
X132763571Y-113725270D01*
X133973095Y-114874318D02*
X133247380Y-114874318D01*
X133610237Y-114874318D02*
X133610237Y-113604318D01*
X133610237Y-113604318D02*
X133489285Y-113785746D01*
X133489285Y-113785746D02*
X133368333Y-113906699D01*
X133368333Y-113906699D02*
X133247380Y-113967175D01*
X134759285Y-113604318D02*
X134880238Y-113604318D01*
X134880238Y-113604318D02*
X135001190Y-113664794D01*
X135001190Y-113664794D02*
X135061666Y-113725270D01*
X135061666Y-113725270D02*
X135122142Y-113846222D01*
X135122142Y-113846222D02*
X135182619Y-114088127D01*
X135182619Y-114088127D02*
X135182619Y-114390508D01*
X135182619Y-114390508D02*
X135122142Y-114632413D01*
X135122142Y-114632413D02*
X135061666Y-114753365D01*
X135061666Y-114753365D02*
X135001190Y-114813842D01*
X135001190Y-114813842D02*
X134880238Y-114874318D01*
X134880238Y-114874318D02*
X134759285Y-114874318D01*
X134759285Y-114874318D02*
X134638333Y-114813842D01*
X134638333Y-114813842D02*
X134577857Y-114753365D01*
X134577857Y-114753365D02*
X134517380Y-114632413D01*
X134517380Y-114632413D02*
X134456904Y-114390508D01*
X134456904Y-114390508D02*
X134456904Y-114088127D01*
X134456904Y-114088127D02*
X134517380Y-113846222D01*
X134517380Y-113846222D02*
X134577857Y-113725270D01*
X134577857Y-113725270D02*
X134638333Y-113664794D01*
X134638333Y-113664794D02*
X134759285Y-113604318D01*
X133368333Y-122373365D02*
X133307857Y-122433842D01*
X133307857Y-122433842D02*
X133126428Y-122494318D01*
X133126428Y-122494318D02*
X133005476Y-122494318D01*
X133005476Y-122494318D02*
X132824047Y-122433842D01*
X132824047Y-122433842D02*
X132703095Y-122312889D01*
X132703095Y-122312889D02*
X132642618Y-122191937D01*
X132642618Y-122191937D02*
X132582142Y-121950032D01*
X132582142Y-121950032D02*
X132582142Y-121768603D01*
X132582142Y-121768603D02*
X132642618Y-121526699D01*
X132642618Y-121526699D02*
X132703095Y-121405746D01*
X132703095Y-121405746D02*
X132824047Y-121284794D01*
X132824047Y-121284794D02*
X133005476Y-121224318D01*
X133005476Y-121224318D02*
X133126428Y-121224318D01*
X133126428Y-121224318D02*
X133307857Y-121284794D01*
X133307857Y-121284794D02*
X133368333Y-121345270D01*
X133973095Y-122494318D02*
X134214999Y-122494318D01*
X134214999Y-122494318D02*
X134335952Y-122433842D01*
X134335952Y-122433842D02*
X134396428Y-122373365D01*
X134396428Y-122373365D02*
X134517380Y-122191937D01*
X134517380Y-122191937D02*
X134577857Y-121950032D01*
X134577857Y-121950032D02*
X134577857Y-121466222D01*
X134577857Y-121466222D02*
X134517380Y-121345270D01*
X134517380Y-121345270D02*
X134456904Y-121284794D01*
X134456904Y-121284794D02*
X134335952Y-121224318D01*
X134335952Y-121224318D02*
X134094047Y-121224318D01*
X134094047Y-121224318D02*
X133973095Y-121284794D01*
X133973095Y-121284794D02*
X133912618Y-121345270D01*
X133912618Y-121345270D02*
X133852142Y-121466222D01*
X133852142Y-121466222D02*
X133852142Y-121768603D01*
X133852142Y-121768603D02*
X133912618Y-121889556D01*
X133912618Y-121889556D02*
X133973095Y-121950032D01*
X133973095Y-121950032D02*
X134094047Y-122010508D01*
X134094047Y-122010508D02*
X134335952Y-122010508D01*
X134335952Y-122010508D02*
X134456904Y-121950032D01*
X134456904Y-121950032D02*
X134517380Y-121889556D01*
X134517380Y-121889556D02*
X134577857Y-121768603D01*
X62607618Y-139004318D02*
X62607618Y-137734318D01*
X62607618Y-137734318D02*
X63091428Y-137734318D01*
X63091428Y-137734318D02*
X63212380Y-137794794D01*
X63212380Y-137794794D02*
X63272857Y-137855270D01*
X63272857Y-137855270D02*
X63333333Y-137976222D01*
X63333333Y-137976222D02*
X63333333Y-138157651D01*
X63333333Y-138157651D02*
X63272857Y-138278603D01*
X63272857Y-138278603D02*
X63212380Y-138339080D01*
X63212380Y-138339080D02*
X63091428Y-138399556D01*
X63091428Y-138399556D02*
X62607618Y-138399556D01*
X64542857Y-139004318D02*
X63817142Y-139004318D01*
X64179999Y-139004318D02*
X64179999Y-137734318D01*
X64179999Y-137734318D02*
X64059047Y-137915746D01*
X64059047Y-137915746D02*
X63938095Y-138036699D01*
X63938095Y-138036699D02*
X63817142Y-138097175D01*
X76496333Y-128082318D02*
X76072999Y-127477556D01*
X75770618Y-128082318D02*
X75770618Y-126812318D01*
X75770618Y-126812318D02*
X76254428Y-126812318D01*
X76254428Y-126812318D02*
X76375380Y-126872794D01*
X76375380Y-126872794D02*
X76435857Y-126933270D01*
X76435857Y-126933270D02*
X76496333Y-127054222D01*
X76496333Y-127054222D02*
X76496333Y-127235651D01*
X76496333Y-127235651D02*
X76435857Y-127356603D01*
X76435857Y-127356603D02*
X76375380Y-127417080D01*
X76375380Y-127417080D02*
X76254428Y-127477556D01*
X76254428Y-127477556D02*
X75770618Y-127477556D01*
X76919666Y-126812318D02*
X77705857Y-126812318D01*
X77705857Y-126812318D02*
X77282523Y-127296127D01*
X77282523Y-127296127D02*
X77463952Y-127296127D01*
X77463952Y-127296127D02*
X77584904Y-127356603D01*
X77584904Y-127356603D02*
X77645380Y-127417080D01*
X77645380Y-127417080D02*
X77705857Y-127538032D01*
X77705857Y-127538032D02*
X77705857Y-127840413D01*
X77705857Y-127840413D02*
X77645380Y-127961365D01*
X77645380Y-127961365D02*
X77584904Y-128021842D01*
X77584904Y-128021842D02*
X77463952Y-128082318D01*
X77463952Y-128082318D02*
X77101095Y-128082318D01*
X77101095Y-128082318D02*
X76980142Y-128021842D01*
X76980142Y-128021842D02*
X76919666Y-127961365D01*
X92528365Y-103686428D02*
X92588842Y-103746904D01*
X92588842Y-103746904D02*
X92649318Y-103928333D01*
X92649318Y-103928333D02*
X92649318Y-104049285D01*
X92649318Y-104049285D02*
X92588842Y-104230714D01*
X92588842Y-104230714D02*
X92467889Y-104351666D01*
X92467889Y-104351666D02*
X92346937Y-104412143D01*
X92346937Y-104412143D02*
X92105032Y-104472619D01*
X92105032Y-104472619D02*
X91923603Y-104472619D01*
X91923603Y-104472619D02*
X91681699Y-104412143D01*
X91681699Y-104412143D02*
X91560746Y-104351666D01*
X91560746Y-104351666D02*
X91439794Y-104230714D01*
X91439794Y-104230714D02*
X91379318Y-104049285D01*
X91379318Y-104049285D02*
X91379318Y-103928333D01*
X91379318Y-103928333D02*
X91439794Y-103746904D01*
X91439794Y-103746904D02*
X91500270Y-103686428D01*
X92649318Y-102476904D02*
X92649318Y-103202619D01*
X92649318Y-102839762D02*
X91379318Y-102839762D01*
X91379318Y-102839762D02*
X91560746Y-102960714D01*
X91560746Y-102960714D02*
X91681699Y-103081666D01*
X91681699Y-103081666D02*
X91742175Y-103202619D01*
X91923603Y-101751190D02*
X91863127Y-101872142D01*
X91863127Y-101872142D02*
X91802651Y-101932619D01*
X91802651Y-101932619D02*
X91681699Y-101993095D01*
X91681699Y-101993095D02*
X91621222Y-101993095D01*
X91621222Y-101993095D02*
X91500270Y-101932619D01*
X91500270Y-101932619D02*
X91439794Y-101872142D01*
X91439794Y-101872142D02*
X91379318Y-101751190D01*
X91379318Y-101751190D02*
X91379318Y-101509285D01*
X91379318Y-101509285D02*
X91439794Y-101388333D01*
X91439794Y-101388333D02*
X91500270Y-101327857D01*
X91500270Y-101327857D02*
X91621222Y-101267380D01*
X91621222Y-101267380D02*
X91681699Y-101267380D01*
X91681699Y-101267380D02*
X91802651Y-101327857D01*
X91802651Y-101327857D02*
X91863127Y-101388333D01*
X91863127Y-101388333D02*
X91923603Y-101509285D01*
X91923603Y-101509285D02*
X91923603Y-101751190D01*
X91923603Y-101751190D02*
X91984080Y-101872142D01*
X91984080Y-101872142D02*
X92044556Y-101932619D01*
X92044556Y-101932619D02*
X92165508Y-101993095D01*
X92165508Y-101993095D02*
X92407413Y-101993095D01*
X92407413Y-101993095D02*
X92528365Y-101932619D01*
X92528365Y-101932619D02*
X92588842Y-101872142D01*
X92588842Y-101872142D02*
X92649318Y-101751190D01*
X92649318Y-101751190D02*
X92649318Y-101509285D01*
X92649318Y-101509285D02*
X92588842Y-101388333D01*
X92588842Y-101388333D02*
X92528365Y-101327857D01*
X92528365Y-101327857D02*
X92407413Y-101267380D01*
X92407413Y-101267380D02*
X92165508Y-101267380D01*
X92165508Y-101267380D02*
X92044556Y-101327857D01*
X92044556Y-101327857D02*
X91984080Y-101388333D01*
X91984080Y-101388333D02*
X91923603Y-101509285D01*
X67533365Y-96066428D02*
X67593842Y-96126904D01*
X67593842Y-96126904D02*
X67654318Y-96308333D01*
X67654318Y-96308333D02*
X67654318Y-96429285D01*
X67654318Y-96429285D02*
X67593842Y-96610714D01*
X67593842Y-96610714D02*
X67472889Y-96731666D01*
X67472889Y-96731666D02*
X67351937Y-96792143D01*
X67351937Y-96792143D02*
X67110032Y-96852619D01*
X67110032Y-96852619D02*
X66928603Y-96852619D01*
X66928603Y-96852619D02*
X66686699Y-96792143D01*
X66686699Y-96792143D02*
X66565746Y-96731666D01*
X66565746Y-96731666D02*
X66444794Y-96610714D01*
X66444794Y-96610714D02*
X66384318Y-96429285D01*
X66384318Y-96429285D02*
X66384318Y-96308333D01*
X66384318Y-96308333D02*
X66444794Y-96126904D01*
X66444794Y-96126904D02*
X66505270Y-96066428D01*
X67654318Y-94856904D02*
X67654318Y-95582619D01*
X67654318Y-95219762D02*
X66384318Y-95219762D01*
X66384318Y-95219762D02*
X66565746Y-95340714D01*
X66565746Y-95340714D02*
X66686699Y-95461666D01*
X66686699Y-95461666D02*
X66747175Y-95582619D01*
X66384318Y-93707857D02*
X66384318Y-94312619D01*
X66384318Y-94312619D02*
X66989080Y-94373095D01*
X66989080Y-94373095D02*
X66928603Y-94312619D01*
X66928603Y-94312619D02*
X66868127Y-94191666D01*
X66868127Y-94191666D02*
X66868127Y-93889285D01*
X66868127Y-93889285D02*
X66928603Y-93768333D01*
X66928603Y-93768333D02*
X66989080Y-93707857D01*
X66989080Y-93707857D02*
X67110032Y-93647380D01*
X67110032Y-93647380D02*
X67412413Y-93647380D01*
X67412413Y-93647380D02*
X67533365Y-93707857D01*
X67533365Y-93707857D02*
X67593842Y-93768333D01*
X67593842Y-93768333D02*
X67654318Y-93889285D01*
X67654318Y-93889285D02*
X67654318Y-94191666D01*
X67654318Y-94191666D02*
X67593842Y-94312619D01*
X67593842Y-94312619D02*
X67533365Y-94373095D01*
X53793365Y-125941666D02*
X53853842Y-126002142D01*
X53853842Y-126002142D02*
X53914318Y-126183571D01*
X53914318Y-126183571D02*
X53914318Y-126304523D01*
X53914318Y-126304523D02*
X53853842Y-126485952D01*
X53853842Y-126485952D02*
X53732889Y-126606904D01*
X53732889Y-126606904D02*
X53611937Y-126667381D01*
X53611937Y-126667381D02*
X53370032Y-126727857D01*
X53370032Y-126727857D02*
X53188603Y-126727857D01*
X53188603Y-126727857D02*
X52946699Y-126667381D01*
X52946699Y-126667381D02*
X52825746Y-126606904D01*
X52825746Y-126606904D02*
X52704794Y-126485952D01*
X52704794Y-126485952D02*
X52644318Y-126304523D01*
X52644318Y-126304523D02*
X52644318Y-126183571D01*
X52644318Y-126183571D02*
X52704794Y-126002142D01*
X52704794Y-126002142D02*
X52765270Y-125941666D01*
X52644318Y-125518333D02*
X52644318Y-124732142D01*
X52644318Y-124732142D02*
X53128127Y-125155476D01*
X53128127Y-125155476D02*
X53128127Y-124974047D01*
X53128127Y-124974047D02*
X53188603Y-124853095D01*
X53188603Y-124853095D02*
X53249080Y-124792619D01*
X53249080Y-124792619D02*
X53370032Y-124732142D01*
X53370032Y-124732142D02*
X53672413Y-124732142D01*
X53672413Y-124732142D02*
X53793365Y-124792619D01*
X53793365Y-124792619D02*
X53853842Y-124853095D01*
X53853842Y-124853095D02*
X53914318Y-124974047D01*
X53914318Y-124974047D02*
X53914318Y-125336904D01*
X53914318Y-125336904D02*
X53853842Y-125457857D01*
X53853842Y-125457857D02*
X53793365Y-125518333D01*
X101932618Y-139004318D02*
X101932618Y-137734318D01*
X101932618Y-137734318D02*
X102416428Y-137734318D01*
X102416428Y-137734318D02*
X102537380Y-137794794D01*
X102537380Y-137794794D02*
X102597857Y-137855270D01*
X102597857Y-137855270D02*
X102658333Y-137976222D01*
X102658333Y-137976222D02*
X102658333Y-138157651D01*
X102658333Y-138157651D02*
X102597857Y-138278603D01*
X102597857Y-138278603D02*
X102537380Y-138339080D01*
X102537380Y-138339080D02*
X102416428Y-138399556D01*
X102416428Y-138399556D02*
X101932618Y-138399556D01*
X103142142Y-137855270D02*
X103202618Y-137794794D01*
X103202618Y-137794794D02*
X103323571Y-137734318D01*
X103323571Y-137734318D02*
X103625952Y-137734318D01*
X103625952Y-137734318D02*
X103746904Y-137794794D01*
X103746904Y-137794794D02*
X103807380Y-137855270D01*
X103807380Y-137855270D02*
X103867857Y-137976222D01*
X103867857Y-137976222D02*
X103867857Y-138097175D01*
X103867857Y-138097175D02*
X103807380Y-138278603D01*
X103807380Y-138278603D02*
X103081666Y-139004318D01*
X103081666Y-139004318D02*
X103867857Y-139004318D01*
D10*
X91948095Y-97244819D02*
X91948095Y-98054342D01*
X91948095Y-98054342D02*
X91995714Y-98149580D01*
X91995714Y-98149580D02*
X92043333Y-98197200D01*
X92043333Y-98197200D02*
X92138571Y-98244819D01*
X92138571Y-98244819D02*
X92329047Y-98244819D01*
X92329047Y-98244819D02*
X92424285Y-98197200D01*
X92424285Y-98197200D02*
X92471904Y-98149580D01*
X92471904Y-98149580D02*
X92519523Y-98054342D01*
X92519523Y-98054342D02*
X92519523Y-97244819D01*
X93043333Y-98244819D02*
X93233809Y-98244819D01*
X93233809Y-98244819D02*
X93329047Y-98197200D01*
X93329047Y-98197200D02*
X93376666Y-98149580D01*
X93376666Y-98149580D02*
X93471904Y-98006723D01*
X93471904Y-98006723D02*
X93519523Y-97816247D01*
X93519523Y-97816247D02*
X93519523Y-97435295D01*
X93519523Y-97435295D02*
X93471904Y-97340057D01*
X93471904Y-97340057D02*
X93424285Y-97292438D01*
X93424285Y-97292438D02*
X93329047Y-97244819D01*
X93329047Y-97244819D02*
X93138571Y-97244819D01*
X93138571Y-97244819D02*
X93043333Y-97292438D01*
X93043333Y-97292438D02*
X92995714Y-97340057D01*
X92995714Y-97340057D02*
X92948095Y-97435295D01*
X92948095Y-97435295D02*
X92948095Y-97673390D01*
X92948095Y-97673390D02*
X92995714Y-97768628D01*
X92995714Y-97768628D02*
X93043333Y-97816247D01*
X93043333Y-97816247D02*
X93138571Y-97863866D01*
X93138571Y-97863866D02*
X93329047Y-97863866D01*
X93329047Y-97863866D02*
X93424285Y-97816247D01*
X93424285Y-97816247D02*
X93471904Y-97768628D01*
X93471904Y-97768628D02*
X93519523Y-97673390D01*
D11*
X129197618Y-139074318D02*
X129197618Y-137804318D01*
X129197618Y-137804318D02*
X129681428Y-137804318D01*
X129681428Y-137804318D02*
X129802380Y-137864794D01*
X129802380Y-137864794D02*
X129862857Y-137925270D01*
X129862857Y-137925270D02*
X129923333Y-138046222D01*
X129923333Y-138046222D02*
X129923333Y-138227651D01*
X129923333Y-138227651D02*
X129862857Y-138348603D01*
X129862857Y-138348603D02*
X129802380Y-138409080D01*
X129802380Y-138409080D02*
X129681428Y-138469556D01*
X129681428Y-138469556D02*
X129197618Y-138469556D01*
X130346666Y-137804318D02*
X131132857Y-137804318D01*
X131132857Y-137804318D02*
X130709523Y-138288127D01*
X130709523Y-138288127D02*
X130890952Y-138288127D01*
X130890952Y-138288127D02*
X131011904Y-138348603D01*
X131011904Y-138348603D02*
X131072380Y-138409080D01*
X131072380Y-138409080D02*
X131132857Y-138530032D01*
X131132857Y-138530032D02*
X131132857Y-138832413D01*
X131132857Y-138832413D02*
X131072380Y-138953365D01*
X131072380Y-138953365D02*
X131011904Y-139013842D01*
X131011904Y-139013842D02*
X130890952Y-139074318D01*
X130890952Y-139074318D02*
X130528095Y-139074318D01*
X130528095Y-139074318D02*
X130407142Y-139013842D01*
X130407142Y-139013842D02*
X130346666Y-138953365D01*
X67533365Y-106861428D02*
X67593842Y-106921904D01*
X67593842Y-106921904D02*
X67654318Y-107103333D01*
X67654318Y-107103333D02*
X67654318Y-107224285D01*
X67654318Y-107224285D02*
X67593842Y-107405714D01*
X67593842Y-107405714D02*
X67472889Y-107526666D01*
X67472889Y-107526666D02*
X67351937Y-107587143D01*
X67351937Y-107587143D02*
X67110032Y-107647619D01*
X67110032Y-107647619D02*
X66928603Y-107647619D01*
X66928603Y-107647619D02*
X66686699Y-107587143D01*
X66686699Y-107587143D02*
X66565746Y-107526666D01*
X66565746Y-107526666D02*
X66444794Y-107405714D01*
X66444794Y-107405714D02*
X66384318Y-107224285D01*
X66384318Y-107224285D02*
X66384318Y-107103333D01*
X66384318Y-107103333D02*
X66444794Y-106921904D01*
X66444794Y-106921904D02*
X66505270Y-106861428D01*
X67654318Y-105651904D02*
X67654318Y-106377619D01*
X67654318Y-106014762D02*
X66384318Y-106014762D01*
X66384318Y-106014762D02*
X66565746Y-106135714D01*
X66565746Y-106135714D02*
X66686699Y-106256666D01*
X66686699Y-106256666D02*
X66747175Y-106377619D01*
X66384318Y-104563333D02*
X66384318Y-104805238D01*
X66384318Y-104805238D02*
X66444794Y-104926190D01*
X66444794Y-104926190D02*
X66505270Y-104986666D01*
X66505270Y-104986666D02*
X66686699Y-105107619D01*
X66686699Y-105107619D02*
X66928603Y-105168095D01*
X66928603Y-105168095D02*
X67412413Y-105168095D01*
X67412413Y-105168095D02*
X67533365Y-105107619D01*
X67533365Y-105107619D02*
X67593842Y-105047142D01*
X67593842Y-105047142D02*
X67654318Y-104926190D01*
X67654318Y-104926190D02*
X67654318Y-104684285D01*
X67654318Y-104684285D02*
X67593842Y-104563333D01*
X67593842Y-104563333D02*
X67533365Y-104502857D01*
X67533365Y-104502857D02*
X67412413Y-104442380D01*
X67412413Y-104442380D02*
X67110032Y-104442380D01*
X67110032Y-104442380D02*
X66989080Y-104502857D01*
X66989080Y-104502857D02*
X66928603Y-104563333D01*
X66928603Y-104563333D02*
X66868127Y-104684285D01*
X66868127Y-104684285D02*
X66868127Y-104926190D01*
X66868127Y-104926190D02*
X66928603Y-105047142D01*
X66928603Y-105047142D02*
X66989080Y-105107619D01*
X66989080Y-105107619D02*
X67110032Y-105168095D01*
D10*
X125222095Y-95974819D02*
X125222095Y-96784342D01*
X125222095Y-96784342D02*
X125269714Y-96879580D01*
X125269714Y-96879580D02*
X125317333Y-96927200D01*
X125317333Y-96927200D02*
X125412571Y-96974819D01*
X125412571Y-96974819D02*
X125603047Y-96974819D01*
X125603047Y-96974819D02*
X125698285Y-96927200D01*
X125698285Y-96927200D02*
X125745904Y-96879580D01*
X125745904Y-96879580D02*
X125793523Y-96784342D01*
X125793523Y-96784342D02*
X125793523Y-95974819D01*
X126698285Y-96308152D02*
X126698285Y-96974819D01*
X126460190Y-95927200D02*
X126222095Y-96641485D01*
X126222095Y-96641485D02*
X126841142Y-96641485D01*
X115062095Y-103086819D02*
X115062095Y-103896342D01*
X115062095Y-103896342D02*
X115109714Y-103991580D01*
X115109714Y-103991580D02*
X115157333Y-104039200D01*
X115157333Y-104039200D02*
X115252571Y-104086819D01*
X115252571Y-104086819D02*
X115443047Y-104086819D01*
X115443047Y-104086819D02*
X115538285Y-104039200D01*
X115538285Y-104039200D02*
X115585904Y-103991580D01*
X115585904Y-103991580D02*
X115633523Y-103896342D01*
X115633523Y-103896342D02*
X115633523Y-103086819D01*
X116014476Y-103086819D02*
X116633523Y-103086819D01*
X116633523Y-103086819D02*
X116300190Y-103467771D01*
X116300190Y-103467771D02*
X116443047Y-103467771D01*
X116443047Y-103467771D02*
X116538285Y-103515390D01*
X116538285Y-103515390D02*
X116585904Y-103563009D01*
X116585904Y-103563009D02*
X116633523Y-103658247D01*
X116633523Y-103658247D02*
X116633523Y-103896342D01*
X116633523Y-103896342D02*
X116585904Y-103991580D01*
X116585904Y-103991580D02*
X116538285Y-104039200D01*
X116538285Y-104039200D02*
X116443047Y-104086819D01*
X116443047Y-104086819D02*
X116157333Y-104086819D01*
X116157333Y-104086819D02*
X116062095Y-104039200D01*
X116062095Y-104039200D02*
X116014476Y-103991580D01*
D11*
X111578365Y-109401428D02*
X111638842Y-109461904D01*
X111638842Y-109461904D02*
X111699318Y-109643333D01*
X111699318Y-109643333D02*
X111699318Y-109764285D01*
X111699318Y-109764285D02*
X111638842Y-109945714D01*
X111638842Y-109945714D02*
X111517889Y-110066666D01*
X111517889Y-110066666D02*
X111396937Y-110127143D01*
X111396937Y-110127143D02*
X111155032Y-110187619D01*
X111155032Y-110187619D02*
X110973603Y-110187619D01*
X110973603Y-110187619D02*
X110731699Y-110127143D01*
X110731699Y-110127143D02*
X110610746Y-110066666D01*
X110610746Y-110066666D02*
X110489794Y-109945714D01*
X110489794Y-109945714D02*
X110429318Y-109764285D01*
X110429318Y-109764285D02*
X110429318Y-109643333D01*
X110429318Y-109643333D02*
X110489794Y-109461904D01*
X110489794Y-109461904D02*
X110550270Y-109401428D01*
X110550270Y-108917619D02*
X110489794Y-108857143D01*
X110489794Y-108857143D02*
X110429318Y-108736190D01*
X110429318Y-108736190D02*
X110429318Y-108433809D01*
X110429318Y-108433809D02*
X110489794Y-108312857D01*
X110489794Y-108312857D02*
X110550270Y-108252381D01*
X110550270Y-108252381D02*
X110671222Y-108191904D01*
X110671222Y-108191904D02*
X110792175Y-108191904D01*
X110792175Y-108191904D02*
X110973603Y-108252381D01*
X110973603Y-108252381D02*
X111699318Y-108978095D01*
X111699318Y-108978095D02*
X111699318Y-108191904D01*
X110429318Y-107768571D02*
X110429318Y-106982380D01*
X110429318Y-106982380D02*
X110913127Y-107405714D01*
X110913127Y-107405714D02*
X110913127Y-107224285D01*
X110913127Y-107224285D02*
X110973603Y-107103333D01*
X110973603Y-107103333D02*
X111034080Y-107042857D01*
X111034080Y-107042857D02*
X111155032Y-106982380D01*
X111155032Y-106982380D02*
X111457413Y-106982380D01*
X111457413Y-106982380D02*
X111578365Y-107042857D01*
X111578365Y-107042857D02*
X111638842Y-107103333D01*
X111638842Y-107103333D02*
X111699318Y-107224285D01*
X111699318Y-107224285D02*
X111699318Y-107587142D01*
X111699318Y-107587142D02*
X111638842Y-107708095D01*
X111638842Y-107708095D02*
X111578365Y-107768571D01*
D13*
%TO.C,C6*%
X84335000Y-117475000D02*
X82035000Y-117475000D01*
D14*
%TO.C,U5*%
X119760000Y-112850000D02*
X119760000Y-113105000D01*
X119760000Y-113105000D02*
X117945000Y-113105000D01*
X119760000Y-123370000D02*
X119760000Y-123115000D01*
X123620000Y-112850000D02*
X119760000Y-112850000D01*
X123620000Y-112850000D02*
X127480000Y-112850000D01*
X123620000Y-123370000D02*
X119760000Y-123370000D01*
X123620000Y-123370000D02*
X127480000Y-123370000D01*
X127480000Y-112850000D02*
X127480000Y-113105000D01*
X127480000Y-123370000D02*
X127480000Y-123115000D01*
D15*
%TO.C,U2*%
X95516700Y-123571000D02*
X97523300Y-123571000D01*
X97523300Y-120269000D02*
X95516700Y-120269000D01*
X97523300Y-122283261D02*
X97523300Y-121556739D01*
D12*
%TO.C,J4*%
X119525000Y-80990000D02*
X134475000Y-80990000D01*
X119525000Y-89140000D02*
X119525000Y-80990000D01*
X134475000Y-80990000D02*
X134475000Y-89140000D01*
X134475000Y-89140000D02*
X119525000Y-89140000D01*
%TO.C,R2*%
X76170000Y-119965000D02*
X76170000Y-119965000D01*
X76170000Y-120065000D02*
X76170000Y-120065000D01*
X76170000Y-120065000D02*
G75*
G03*
X76170000Y-119965000I0J50000D01*
G01*
X76170000Y-119965000D02*
G75*
G03*
X76170000Y-120065000I0J-50000D01*
G01*
%TO.C,R7*%
X109100000Y-96470000D02*
X109100000Y-96470000D01*
X109100000Y-96570000D02*
X109100000Y-96570000D01*
X109100000Y-96570000D02*
G75*
G03*
X109100000Y-96470000I0J50000D01*
G01*
X109100000Y-96470000D02*
G75*
G03*
X109100000Y-96570000I0J-50000D01*
G01*
%TO.C,R5*%
X88870000Y-119330000D02*
X88870000Y-119330000D01*
X88870000Y-119430000D02*
X88870000Y-119430000D01*
X88870000Y-119430000D02*
G75*
G03*
X88870000Y-119330000I0J50000D01*
G01*
X88870000Y-119330000D02*
G75*
G03*
X88870000Y-119430000I0J-50000D01*
G01*
%TO.C,R4*%
X63530000Y-116890000D02*
X63530000Y-116890000D01*
X63530000Y-116790000D02*
X63530000Y-116790000D01*
X63530000Y-116790000D02*
G75*
G03*
X63530000Y-116890000I0J-50000D01*
G01*
X63530000Y-116890000D02*
G75*
G03*
X63530000Y-116790000I0J50000D01*
G01*
D13*
%TO.C,J3*%
X98160000Y-74670000D02*
X112660000Y-74670000D01*
X98160000Y-88470000D02*
X98160000Y-74670000D01*
X99510000Y-65992000D02*
X111310000Y-66215000D01*
X99510000Y-66215000D02*
X111310000Y-65770000D01*
X99510000Y-66437000D02*
X111310000Y-67105000D01*
X99510000Y-66660000D02*
X111310000Y-66437000D01*
X99510000Y-66882000D02*
X111310000Y-66660000D01*
X99510000Y-67105000D02*
X111310000Y-66882000D01*
X99510000Y-67327000D02*
X111310000Y-67105000D01*
X99510000Y-67550000D02*
X111310000Y-67327000D01*
X99510000Y-67772000D02*
X111310000Y-67550000D01*
X99510000Y-67995000D02*
X111310000Y-67772000D01*
X99510000Y-68217000D02*
X111310000Y-67995000D01*
X99510000Y-68440000D02*
X111310000Y-68217000D01*
X99510000Y-68662000D02*
X111310000Y-68440000D01*
X99510000Y-68885000D02*
X111310000Y-68662000D01*
X99510000Y-69107000D02*
X111310000Y-68885000D01*
X99510000Y-69330000D02*
X111310000Y-69107000D01*
X99510000Y-69552000D02*
X111310000Y-69330000D01*
X99510000Y-69775000D02*
X111310000Y-69552000D01*
X99510000Y-69997000D02*
X111310000Y-69775000D01*
X99510000Y-70220000D02*
X111310000Y-69997000D01*
X99510000Y-70442000D02*
X111310000Y-70220000D01*
X99510000Y-70665000D02*
X111310000Y-70442000D01*
X99510000Y-70887000D02*
X111310000Y-70665000D01*
X99510000Y-71110000D02*
X111310000Y-70887000D01*
X99510000Y-71332000D02*
X111310000Y-71110000D01*
X99510000Y-71555000D02*
X111310000Y-71332000D01*
X99510000Y-71777000D02*
X111310000Y-71555000D01*
X99510000Y-72000000D02*
X111310000Y-71777000D01*
X99510000Y-72222000D02*
X111310000Y-72000000D01*
X99510000Y-72445000D02*
X111310000Y-72222000D01*
X99510000Y-72667000D02*
X111310000Y-72445000D01*
X99510000Y-72890000D02*
X111310000Y-72667000D01*
X99510000Y-73112000D02*
X111310000Y-72890000D01*
X99510000Y-73335000D02*
X111310000Y-73112000D01*
X99510000Y-73557000D02*
X111310000Y-73335000D01*
X99510000Y-73780000D02*
X111310000Y-73557000D01*
X99510000Y-74002000D02*
X111310000Y-73780000D01*
X99510000Y-74225000D02*
X111310000Y-74002000D01*
X99510000Y-74447000D02*
X111310000Y-74225000D01*
X99805000Y-65770000D02*
X99805000Y-65992000D01*
X100100000Y-53770000D02*
X110720000Y-53770000D01*
X100100000Y-65770000D02*
X100100000Y-53770000D01*
D12*
X105410000Y-89020000D02*
X105410000Y-89020000D01*
X105410000Y-89120000D02*
X105410000Y-89120000D01*
D13*
X110720000Y-53770000D02*
X110720000Y-65770000D01*
X111310000Y-65770000D02*
X99510000Y-65992000D01*
X111310000Y-65770000D02*
X99805000Y-65770000D01*
X111310000Y-66215000D02*
X99510000Y-66437000D01*
X111310000Y-66437000D02*
X99510000Y-66215000D01*
X111310000Y-66660000D02*
X102165000Y-66437000D01*
X111310000Y-66882000D02*
X99510000Y-66660000D01*
X111310000Y-67105000D02*
X99510000Y-66882000D01*
X111310000Y-67327000D02*
X99510000Y-67105000D01*
X111310000Y-67550000D02*
X99510000Y-67327000D01*
X111310000Y-67772000D02*
X99510000Y-67550000D01*
X111310000Y-67995000D02*
X99510000Y-67772000D01*
X111310000Y-68217000D02*
X99510000Y-67995000D01*
X111310000Y-68440000D02*
X99510000Y-68217000D01*
X111310000Y-68662000D02*
X99510000Y-68440000D01*
X111310000Y-68885000D02*
X99510000Y-68662000D01*
X111310000Y-69107000D02*
X99510000Y-68885000D01*
X111310000Y-69330000D02*
X99510000Y-69107000D01*
X111310000Y-69552000D02*
X99510000Y-69330000D01*
X111310000Y-69775000D02*
X99510000Y-69552000D01*
X111310000Y-69997000D02*
X99510000Y-69775000D01*
X111310000Y-70220000D02*
X99510000Y-69997000D01*
X111310000Y-70442000D02*
X99510000Y-70220000D01*
X111310000Y-70665000D02*
X99510000Y-70442000D01*
X111310000Y-70887000D02*
X99510000Y-70665000D01*
X111310000Y-71110000D02*
X99510000Y-70887000D01*
X111310000Y-71332000D02*
X99510000Y-71110000D01*
X111310000Y-71555000D02*
X99510000Y-71332000D01*
X111310000Y-71777000D02*
X99510000Y-71555000D01*
X111310000Y-72000000D02*
X99510000Y-71777000D01*
X111310000Y-72222000D02*
X99510000Y-72000000D01*
X111310000Y-72445000D02*
X99510000Y-72222000D01*
X111310000Y-72667000D02*
X99510000Y-72445000D01*
X111310000Y-72890000D02*
X99510000Y-72667000D01*
X111310000Y-73112000D02*
X99510000Y-72890000D01*
X111310000Y-73335000D02*
X99510000Y-73112000D01*
X111310000Y-73557000D02*
X99510000Y-73335000D01*
X111310000Y-73780000D02*
X99510000Y-73557000D01*
X111310000Y-74002000D02*
X99510000Y-73780000D01*
X111310000Y-74225000D02*
X99510000Y-74002000D01*
X111310000Y-74670000D02*
X99510000Y-74225000D01*
X111310000Y-74670000D02*
X111310000Y-65770000D01*
X112660000Y-74670000D02*
X112660000Y-88470000D01*
X112660000Y-88470000D02*
X98160000Y-88470000D01*
D12*
X105410000Y-89120000D02*
G75*
G03*
X105410000Y-89020000I0J50000D01*
G01*
X105410000Y-89020000D02*
G75*
G03*
X105410000Y-89120000I0J-50000D01*
G01*
D13*
%TO.C,C17*%
X93860000Y-92710000D02*
X91560000Y-92710000D01*
D12*
%TO.C,S4*%
X82048000Y-133540000D02*
X76448000Y-133540000D01*
X76448000Y-133540000D02*
X76448000Y-144540000D01*
X76448000Y-144540000D02*
X82048000Y-144540000D01*
X82048000Y-144540000D02*
X82048000Y-133540000D01*
D13*
%TO.C,J1*%
X46090000Y-74670000D02*
X60590000Y-74670000D01*
X46090000Y-88470000D02*
X46090000Y-74670000D01*
X47440000Y-65992000D02*
X59240000Y-66215000D01*
X47440000Y-66215000D02*
X59240000Y-65770000D01*
X47440000Y-66437000D02*
X59240000Y-67105000D01*
X47440000Y-66660000D02*
X59240000Y-66437000D01*
X47440000Y-66882000D02*
X59240000Y-66660000D01*
X47440000Y-67105000D02*
X59240000Y-66882000D01*
X47440000Y-67327000D02*
X59240000Y-67105000D01*
X47440000Y-67550000D02*
X59240000Y-67327000D01*
X47440000Y-67772000D02*
X59240000Y-67550000D01*
X47440000Y-67995000D02*
X59240000Y-67772000D01*
X47440000Y-68217000D02*
X59240000Y-67995000D01*
X47440000Y-68440000D02*
X59240000Y-68217000D01*
X47440000Y-68662000D02*
X59240000Y-68440000D01*
X47440000Y-68885000D02*
X59240000Y-68662000D01*
X47440000Y-69107000D02*
X59240000Y-68885000D01*
X47440000Y-69330000D02*
X59240000Y-69107000D01*
X47440000Y-69552000D02*
X59240000Y-69330000D01*
X47440000Y-69775000D02*
X59240000Y-69552000D01*
X47440000Y-69997000D02*
X59240000Y-69775000D01*
X47440000Y-70220000D02*
X59240000Y-69997000D01*
X47440000Y-70442000D02*
X59240000Y-70220000D01*
X47440000Y-70665000D02*
X59240000Y-70442000D01*
X47440000Y-70887000D02*
X59240000Y-70665000D01*
X47440000Y-71110000D02*
X59240000Y-70887000D01*
X47440000Y-71332000D02*
X59240000Y-71110000D01*
X47440000Y-71555000D02*
X59240000Y-71332000D01*
X47440000Y-71777000D02*
X59240000Y-71555000D01*
X47440000Y-72000000D02*
X59240000Y-71777000D01*
X47440000Y-72222000D02*
X59240000Y-72000000D01*
X47440000Y-72445000D02*
X59240000Y-72222000D01*
X47440000Y-72667000D02*
X59240000Y-72445000D01*
X47440000Y-72890000D02*
X59240000Y-72667000D01*
X47440000Y-73112000D02*
X59240000Y-72890000D01*
X47440000Y-73335000D02*
X59240000Y-73112000D01*
X47440000Y-73557000D02*
X59240000Y-73335000D01*
X47440000Y-73780000D02*
X59240000Y-73557000D01*
X47440000Y-74002000D02*
X59240000Y-73780000D01*
X47440000Y-74225000D02*
X59240000Y-74002000D01*
X47440000Y-74447000D02*
X59240000Y-74225000D01*
X47735000Y-65770000D02*
X47735000Y-65992000D01*
X48030000Y-53770000D02*
X58650000Y-53770000D01*
X48030000Y-65770000D02*
X48030000Y-53770000D01*
D12*
X53340000Y-89020000D02*
X53340000Y-89020000D01*
X53340000Y-89120000D02*
X53340000Y-89120000D01*
D13*
X58650000Y-53770000D02*
X58650000Y-65770000D01*
X59240000Y-65770000D02*
X47440000Y-65992000D01*
X59240000Y-65770000D02*
X47735000Y-65770000D01*
X59240000Y-66215000D02*
X47440000Y-66437000D01*
X59240000Y-66437000D02*
X47440000Y-66215000D01*
X59240000Y-66660000D02*
X50095000Y-66437000D01*
X59240000Y-66882000D02*
X47440000Y-66660000D01*
X59240000Y-67105000D02*
X47440000Y-66882000D01*
X59240000Y-67327000D02*
X47440000Y-67105000D01*
X59240000Y-67550000D02*
X47440000Y-67327000D01*
X59240000Y-67772000D02*
X47440000Y-67550000D01*
X59240000Y-67995000D02*
X47440000Y-67772000D01*
X59240000Y-68217000D02*
X47440000Y-67995000D01*
X59240000Y-68440000D02*
X47440000Y-68217000D01*
X59240000Y-68662000D02*
X47440000Y-68440000D01*
X59240000Y-68885000D02*
X47440000Y-68662000D01*
X59240000Y-69107000D02*
X47440000Y-68885000D01*
X59240000Y-69330000D02*
X47440000Y-69107000D01*
X59240000Y-69552000D02*
X47440000Y-69330000D01*
X59240000Y-69775000D02*
X47440000Y-69552000D01*
X59240000Y-69997000D02*
X47440000Y-69775000D01*
X59240000Y-70220000D02*
X47440000Y-69997000D01*
X59240000Y-70442000D02*
X47440000Y-70220000D01*
X59240000Y-70665000D02*
X47440000Y-70442000D01*
X59240000Y-70887000D02*
X47440000Y-70665000D01*
X59240000Y-71110000D02*
X47440000Y-70887000D01*
X59240000Y-71332000D02*
X47440000Y-71110000D01*
X59240000Y-71555000D02*
X47440000Y-71332000D01*
X59240000Y-71777000D02*
X47440000Y-71555000D01*
X59240000Y-72000000D02*
X47440000Y-71777000D01*
X59240000Y-72222000D02*
X47440000Y-72000000D01*
X59240000Y-72445000D02*
X47440000Y-72222000D01*
X59240000Y-72667000D02*
X47440000Y-72445000D01*
X59240000Y-72890000D02*
X47440000Y-72667000D01*
X59240000Y-73112000D02*
X47440000Y-72890000D01*
X59240000Y-73335000D02*
X47440000Y-73112000D01*
X59240000Y-73557000D02*
X47440000Y-73335000D01*
X59240000Y-73780000D02*
X47440000Y-73557000D01*
X59240000Y-74002000D02*
X47440000Y-73780000D01*
X59240000Y-74225000D02*
X47440000Y-74002000D01*
X59240000Y-74670000D02*
X47440000Y-74225000D01*
X59240000Y-74670000D02*
X59240000Y-65770000D01*
X60590000Y-74670000D02*
X60590000Y-88470000D01*
X60590000Y-88470000D02*
X46090000Y-88470000D01*
D12*
X53340000Y-89120000D02*
G75*
G03*
X53340000Y-89020000I0J50000D01*
G01*
X53340000Y-89020000D02*
G75*
G03*
X53340000Y-89120000I0J-50000D01*
G01*
D15*
%TO.C,U1*%
X70116700Y-121031000D02*
X72123300Y-121031000D01*
X72123300Y-117729000D02*
X70116700Y-117729000D01*
X72123300Y-119743261D02*
X72123300Y-119016739D01*
D13*
%TO.C,C11*%
X133580000Y-100210000D02*
X133580000Y-97910000D01*
D12*
%TO.C,R1*%
X63530000Y-121335000D02*
X63530000Y-121335000D01*
X63530000Y-121235000D02*
X63530000Y-121235000D01*
X63530000Y-121235000D02*
G75*
G03*
X63530000Y-121335000I0J-50000D01*
G01*
X63530000Y-121335000D02*
G75*
G03*
X63530000Y-121235000I0J50000D01*
G01*
%TO.C,S3*%
X120148000Y-133692000D02*
X114548000Y-133692000D01*
X114548000Y-133692000D02*
X114548000Y-144692000D01*
X114548000Y-144692000D02*
X120148000Y-144692000D01*
X120148000Y-144692000D02*
X120148000Y-133692000D01*
%TO.C,C2*%
X99605000Y-112890000D02*
X99605000Y-95390000D01*
X107405000Y-112890000D02*
X99605000Y-112890000D01*
X99605000Y-95390000D02*
X107405000Y-95390000D01*
X107405000Y-95390000D02*
X107405000Y-112890000D01*
D15*
%TO.C,U11*%
X52892000Y-101981000D02*
X54898600Y-101981000D01*
X54898600Y-98679000D02*
X52892000Y-98679000D01*
X54898600Y-100693261D02*
X54898600Y-99966739D01*
D12*
%TO.C,S1*%
X53092000Y-133692000D02*
X47492000Y-133692000D01*
X47492000Y-133692000D02*
X47492000Y-144692000D01*
X47492000Y-144692000D02*
X53092000Y-144692000D01*
X53092000Y-144692000D02*
X53092000Y-133692000D01*
D13*
%TO.C,C14*%
X55125000Y-94615000D02*
X52825000Y-94615000D01*
%TO.C,C19*%
X72270000Y-113665000D02*
X69970000Y-113665000D01*
D12*
%TO.C,C1*%
X83910000Y-95390000D02*
X83910000Y-112890000D01*
X76110000Y-95390000D02*
X83910000Y-95390000D01*
X83910000Y-112890000D02*
X76110000Y-112890000D01*
X76110000Y-112890000D02*
X76110000Y-95390000D01*
D15*
%TO.C,U10*%
X65671700Y-102616000D02*
X67678300Y-102616000D01*
X67678300Y-99314000D02*
X65671700Y-99314000D01*
X67678300Y-101328261D02*
X67678300Y-100601739D01*
D13*
%TO.C,C7*%
X114180000Y-128905000D02*
X111880000Y-128905000D01*
%TO.C,C21*%
X100210000Y-116435000D02*
X97910000Y-116435000D01*
%TO.C,C28*%
X123665000Y-92909000D02*
X123665000Y-91859000D01*
%TO.C,C4*%
X54490000Y-114930000D02*
X52190000Y-114930000D01*
%TO.C,C24*%
X115450000Y-98425000D02*
X113150000Y-98425000D01*
D12*
%TO.C,S2*%
X93224000Y-133692000D02*
X87624000Y-133692000D01*
X87624000Y-133692000D02*
X87624000Y-144692000D01*
X87624000Y-144692000D02*
X93224000Y-144692000D01*
X93224000Y-144692000D02*
X93224000Y-133692000D01*
D15*
%TO.C,U8*%
X112026700Y-124841000D02*
X114033300Y-124841000D01*
X114033300Y-121539000D02*
X112026700Y-121539000D01*
X114033300Y-123553261D02*
X114033300Y-122826739D01*
%TO.C,U7*%
X82181700Y-124841000D02*
X84188300Y-124841000D01*
X84188300Y-121539000D02*
X82181700Y-121539000D01*
X84188300Y-123553261D02*
X84188300Y-122826739D01*
%TO.C,U6*%
X52241500Y-121981000D02*
X54248100Y-121981000D01*
X54248100Y-118679000D02*
X52241500Y-118679000D01*
X54248100Y-120693261D02*
X54248100Y-119966739D01*
D13*
%TO.C,C29*%
X130015000Y-92909000D02*
X130015000Y-91859000D01*
%TO.C,C22*%
X97804800Y-127000000D02*
X95504800Y-127000000D01*
%TO.C,C5*%
X84469700Y-128905000D02*
X82169700Y-128905000D01*
%TO.C,J2*%
X71490000Y-74670000D02*
X85990000Y-74670000D01*
X71490000Y-88470000D02*
X71490000Y-74670000D01*
X72840000Y-65992000D02*
X84640000Y-66215000D01*
X72840000Y-66215000D02*
X84640000Y-65770000D01*
X72840000Y-66437000D02*
X84640000Y-67105000D01*
X72840000Y-66660000D02*
X84640000Y-66437000D01*
X72840000Y-66882000D02*
X84640000Y-66660000D01*
X72840000Y-67105000D02*
X84640000Y-66882000D01*
X72840000Y-67327000D02*
X84640000Y-67105000D01*
X72840000Y-67550000D02*
X84640000Y-67327000D01*
X72840000Y-67772000D02*
X84640000Y-67550000D01*
X72840000Y-67995000D02*
X84640000Y-67772000D01*
X72840000Y-68217000D02*
X84640000Y-67995000D01*
X72840000Y-68440000D02*
X84640000Y-68217000D01*
X72840000Y-68662000D02*
X84640000Y-68440000D01*
X72840000Y-68885000D02*
X84640000Y-68662000D01*
X72840000Y-69107000D02*
X84640000Y-68885000D01*
X72840000Y-69330000D02*
X84640000Y-69107000D01*
X72840000Y-69552000D02*
X84640000Y-69330000D01*
X72840000Y-69775000D02*
X84640000Y-69552000D01*
X72840000Y-69997000D02*
X84640000Y-69775000D01*
X72840000Y-70220000D02*
X84640000Y-69997000D01*
X72840000Y-70442000D02*
X84640000Y-70220000D01*
X72840000Y-70665000D02*
X84640000Y-70442000D01*
X72840000Y-70887000D02*
X84640000Y-70665000D01*
X72840000Y-71110000D02*
X84640000Y-70887000D01*
X72840000Y-71332000D02*
X84640000Y-71110000D01*
X72840000Y-71555000D02*
X84640000Y-71332000D01*
X72840000Y-71777000D02*
X84640000Y-71555000D01*
X72840000Y-72000000D02*
X84640000Y-71777000D01*
X72840000Y-72222000D02*
X84640000Y-72000000D01*
X72840000Y-72445000D02*
X84640000Y-72222000D01*
X72840000Y-72667000D02*
X84640000Y-72445000D01*
X72840000Y-72890000D02*
X84640000Y-72667000D01*
X72840000Y-73112000D02*
X84640000Y-72890000D01*
X72840000Y-73335000D02*
X84640000Y-73112000D01*
X72840000Y-73557000D02*
X84640000Y-73335000D01*
X72840000Y-73780000D02*
X84640000Y-73557000D01*
X72840000Y-74002000D02*
X84640000Y-73780000D01*
X72840000Y-74225000D02*
X84640000Y-74002000D01*
X72840000Y-74447000D02*
X84640000Y-74225000D01*
X73135000Y-65770000D02*
X73135000Y-65992000D01*
X73430000Y-53770000D02*
X84050000Y-53770000D01*
X73430000Y-65770000D02*
X73430000Y-53770000D01*
D12*
X78740000Y-89020000D02*
X78740000Y-89020000D01*
X78740000Y-89120000D02*
X78740000Y-89120000D01*
D13*
X84050000Y-53770000D02*
X84050000Y-65770000D01*
X84640000Y-65770000D02*
X72840000Y-65992000D01*
X84640000Y-65770000D02*
X73135000Y-65770000D01*
X84640000Y-66215000D02*
X72840000Y-66437000D01*
X84640000Y-66437000D02*
X72840000Y-66215000D01*
X84640000Y-66660000D02*
X75495000Y-66437000D01*
X84640000Y-66882000D02*
X72840000Y-66660000D01*
X84640000Y-67105000D02*
X72840000Y-66882000D01*
X84640000Y-67327000D02*
X72840000Y-67105000D01*
X84640000Y-67550000D02*
X72840000Y-67327000D01*
X84640000Y-67772000D02*
X72840000Y-67550000D01*
X84640000Y-67995000D02*
X72840000Y-67772000D01*
X84640000Y-68217000D02*
X72840000Y-67995000D01*
X84640000Y-68440000D02*
X72840000Y-68217000D01*
X84640000Y-68662000D02*
X72840000Y-68440000D01*
X84640000Y-68885000D02*
X72840000Y-68662000D01*
X84640000Y-69107000D02*
X72840000Y-68885000D01*
X84640000Y-69330000D02*
X72840000Y-69107000D01*
X84640000Y-69552000D02*
X72840000Y-69330000D01*
X84640000Y-69775000D02*
X72840000Y-69552000D01*
X84640000Y-69997000D02*
X72840000Y-69775000D01*
X84640000Y-70220000D02*
X72840000Y-69997000D01*
X84640000Y-70442000D02*
X72840000Y-70220000D01*
X84640000Y-70665000D02*
X72840000Y-70442000D01*
X84640000Y-70887000D02*
X72840000Y-70665000D01*
X84640000Y-71110000D02*
X72840000Y-70887000D01*
X84640000Y-71332000D02*
X72840000Y-71110000D01*
X84640000Y-71555000D02*
X72840000Y-71332000D01*
X84640000Y-71777000D02*
X72840000Y-71555000D01*
X84640000Y-72000000D02*
X72840000Y-71777000D01*
X84640000Y-72222000D02*
X72840000Y-72000000D01*
X84640000Y-72445000D02*
X72840000Y-72222000D01*
X84640000Y-72667000D02*
X72840000Y-72445000D01*
X84640000Y-72890000D02*
X72840000Y-72667000D01*
X84640000Y-73112000D02*
X72840000Y-72890000D01*
X84640000Y-73335000D02*
X72840000Y-73112000D01*
X84640000Y-73557000D02*
X72840000Y-73335000D01*
X84640000Y-73780000D02*
X72840000Y-73557000D01*
X84640000Y-74002000D02*
X72840000Y-73780000D01*
X84640000Y-74225000D02*
X72840000Y-74002000D01*
X84640000Y-74670000D02*
X72840000Y-74225000D01*
X84640000Y-74670000D02*
X84640000Y-65770000D01*
X85990000Y-74670000D02*
X85990000Y-88470000D01*
X85990000Y-88470000D02*
X71490000Y-88470000D01*
D12*
X78740000Y-89120000D02*
G75*
G03*
X78740000Y-89020000I0J50000D01*
G01*
X78740000Y-89020000D02*
G75*
G03*
X78740000Y-89120000I0J-50000D01*
G01*
D13*
%TO.C,C12*%
X133580000Y-104260000D02*
X133580000Y-106560000D01*
%TO.C,C8*%
X113418000Y-117475000D02*
X111118000Y-117475000D01*
D12*
%TO.C,R6*%
X109678000Y-114240000D02*
X109678000Y-114240000D01*
X109778000Y-114240000D02*
X109778000Y-114240000D01*
X109778000Y-114240000D02*
G75*
G03*
X109678000Y-114240000I-50000J0D01*
G01*
X109678000Y-114240000D02*
G75*
G03*
X109778000Y-114240000I50000J0D01*
G01*
D13*
%TO.C,C13*%
X55125000Y-106148000D02*
X52825000Y-106148000D01*
%TO.C,C20*%
X69095000Y-124055000D02*
X66795000Y-124055000D01*
%TO.C,C10*%
X133580000Y-115450000D02*
X133580000Y-113150000D01*
%TO.C,C9*%
X133580000Y-120770000D02*
X133580000Y-123070000D01*
%TO.C,P1*%
X68445000Y-145130000D02*
X58645000Y-145130000D01*
X68445000Y-142030000D02*
X68445000Y-145130000D01*
X68445000Y-133630000D02*
X68445000Y-137230000D01*
X67245000Y-133630000D02*
X68445000Y-133630000D01*
D12*
X66245000Y-131230000D02*
X66245000Y-131230000D01*
X66145000Y-131230000D02*
X66145000Y-131230000D01*
D13*
X59645000Y-133630000D02*
X58645000Y-133630000D01*
X58645000Y-145130000D02*
X58645000Y-142030000D01*
X58645000Y-133630000D02*
X58645000Y-137230000D01*
D12*
X66145000Y-131230000D02*
G75*
G03*
X66245000Y-131230000I50000J0D01*
G01*
X66245000Y-131230000D02*
G75*
G03*
X66145000Y-131230000I-50000J0D01*
G01*
%TO.C,R3*%
X76170000Y-125680000D02*
X76170000Y-125680000D01*
X76170000Y-125780000D02*
X76170000Y-125780000D01*
X76170000Y-125780000D02*
G75*
G03*
X76170000Y-125680000I0J50000D01*
G01*
X76170000Y-125680000D02*
G75*
G03*
X76170000Y-125780000I0J-50000D01*
G01*
D13*
%TO.C,C18*%
X93225000Y-102870000D02*
X90925000Y-102870000D01*
%TO.C,C15*%
X68230000Y-95250000D02*
X65930000Y-95250000D01*
%TO.C,C3*%
X54490000Y-125730000D02*
X52190000Y-125730000D01*
%TO.C,P2*%
X107770000Y-145130000D02*
X97970000Y-145130000D01*
X107770000Y-142030000D02*
X107770000Y-145130000D01*
X107770000Y-133630000D02*
X107770000Y-137230000D01*
X106570000Y-133630000D02*
X107770000Y-133630000D01*
D12*
X105570000Y-131230000D02*
X105570000Y-131230000D01*
X105470000Y-131230000D02*
X105470000Y-131230000D01*
D13*
X98970000Y-133630000D02*
X97970000Y-133630000D01*
X97970000Y-145130000D02*
X97970000Y-142030000D01*
X97970000Y-133630000D02*
X97970000Y-137230000D01*
D12*
X105470000Y-131230000D02*
G75*
G03*
X105570000Y-131230000I50000J0D01*
G01*
X105570000Y-131230000D02*
G75*
G03*
X105470000Y-131230000I-50000J0D01*
G01*
D15*
%TO.C,U9*%
X91706700Y-99441000D02*
X93713300Y-99441000D01*
X93713300Y-96139000D02*
X91706700Y-96139000D01*
X93713300Y-98153261D02*
X93713300Y-97426739D01*
D13*
%TO.C,P3*%
X135035000Y-145200000D02*
X125235000Y-145200000D01*
X135035000Y-142100000D02*
X135035000Y-145200000D01*
X135035000Y-133700000D02*
X135035000Y-137300000D01*
X133835000Y-133700000D02*
X135035000Y-133700000D01*
D12*
X132835000Y-131300000D02*
X132835000Y-131300000D01*
X132735000Y-131300000D02*
X132735000Y-131300000D01*
D13*
X126235000Y-133700000D02*
X125235000Y-133700000D01*
X125235000Y-145200000D02*
X125235000Y-142100000D01*
X125235000Y-133700000D02*
X125235000Y-137300000D01*
D12*
X132735000Y-131300000D02*
G75*
G03*
X132835000Y-131300000I50000J0D01*
G01*
X132835000Y-131300000D02*
G75*
G03*
X132735000Y-131300000I-50000J0D01*
G01*
D13*
%TO.C,C16*%
X68230000Y-106045000D02*
X65930000Y-106045000D01*
D14*
%TO.C,U4*%
X119330000Y-97610000D02*
X119330000Y-97865000D01*
X119330000Y-97865000D02*
X117515000Y-97865000D01*
X119330000Y-108130000D02*
X119330000Y-107875000D01*
X123190000Y-97610000D02*
X119330000Y-97610000D01*
X123190000Y-97610000D02*
X127050000Y-97610000D01*
X123190000Y-108130000D02*
X119330000Y-108130000D01*
X123190000Y-108130000D02*
X127050000Y-108130000D01*
X127050000Y-97610000D02*
X127050000Y-97865000D01*
X127050000Y-108130000D02*
X127050000Y-107875000D01*
D15*
%TO.C,U3*%
X111391700Y-105156000D02*
X113398300Y-105156000D01*
X113398300Y-101854000D02*
X111391700Y-101854000D01*
X113398300Y-103868261D02*
X113398300Y-103141739D01*
D13*
%TO.C,C23*%
X112275000Y-108585000D02*
X109975000Y-108585000D01*
%TD*%
%LPC*%
D16*
X48490000Y-154940000D02*
G75*
G03*
X48490000Y-154940000I-1500000J0D01*
G01*
X55725475Y-154940000D02*
G75*
G03*
X55725475Y-154940000I-1500000J0D01*
G01*
X63095000Y-154940000D02*
G75*
G03*
X63095000Y-154940000I-1500000J0D01*
G01*
D17*
%TO.C,C6*%
X83185000Y-115975000D03*
X83185000Y-118975000D03*
%TD*%
D18*
%TO.C,U5*%
X118970000Y-113665000D03*
X118970000Y-114935000D03*
X118970000Y-116205000D03*
X118970000Y-117475000D03*
X118970000Y-118745000D03*
X118970000Y-120015000D03*
X118970000Y-121285000D03*
X118970000Y-122555000D03*
X128270000Y-122555000D03*
X128270000Y-121285000D03*
X128270000Y-120015000D03*
X128270000Y-118745000D03*
X128270000Y-117475000D03*
X128270000Y-116205000D03*
X128270000Y-114935000D03*
X128270000Y-113665000D03*
%TD*%
D19*
%TO.C,U2*%
X95154750Y-120969999D03*
X95154750Y-121920000D03*
X95154750Y-122870001D03*
X97885250Y-122870001D03*
X97885250Y-120969999D03*
%TD*%
D20*
%TO.C,J4*%
X122025000Y-85090000D03*
D21*
X127025000Y-85090000D03*
X132025000Y-85090000D03*
%TD*%
D22*
%TO.C,R2*%
X76745000Y-120015000D03*
X78195000Y-120015000D03*
%TD*%
%TO.C,R7*%
X109675000Y-96520000D03*
X111125000Y-96520000D03*
%TD*%
%TO.C,R5*%
X89445000Y-119380000D03*
X90895000Y-119380000D03*
%TD*%
D23*
%TO.C,R4*%
X62955000Y-116840000D03*
X61505000Y-116840000D03*
%TD*%
D24*
%TO.C,J3*%
X105410000Y-87120000D03*
D25*
X102870000Y-87120000D03*
D26*
X110490000Y-82040000D03*
X100330000Y-82040000D03*
%TD*%
D17*
%TO.C,C17*%
X92710000Y-91210000D03*
X92710000Y-94210000D03*
%TD*%
D27*
%TO.C,S4*%
X79248000Y-135840000D03*
X79248000Y-139040000D03*
X79248000Y-142240000D03*
%TD*%
D24*
%TO.C,J1*%
X53340000Y-87120000D03*
D25*
X50800000Y-87120000D03*
D26*
X58420000Y-82040000D03*
X48260000Y-82040000D03*
%TD*%
D19*
%TO.C,U1*%
X69754750Y-118429999D03*
X69754750Y-119380000D03*
X69754750Y-120330001D03*
X72485250Y-120330001D03*
X72485250Y-118429999D03*
%TD*%
D28*
%TO.C,C11*%
X135080000Y-99060000D03*
X132080000Y-99060000D03*
%TD*%
D23*
%TO.C,R1*%
X62955000Y-121285000D03*
X61505000Y-121285000D03*
%TD*%
D27*
%TO.C,S3*%
X117348000Y-135992000D03*
X117348000Y-139192000D03*
X117348000Y-142392000D03*
%TD*%
D29*
%TO.C,C2*%
X103505000Y-111640000D03*
X103505000Y-96640000D03*
%TD*%
D19*
%TO.C,U11*%
X52530050Y-99379999D03*
X52530050Y-100330000D03*
X52530050Y-101280001D03*
X55260550Y-101280001D03*
X55260550Y-99379999D03*
%TD*%
D27*
%TO.C,S1*%
X50292000Y-135992000D03*
X50292000Y-139192000D03*
X50292000Y-142392000D03*
%TD*%
D17*
%TO.C,C14*%
X53975000Y-93115000D03*
X53975000Y-96115000D03*
%TD*%
%TO.C,C19*%
X71120000Y-112165000D03*
X71120000Y-115165000D03*
%TD*%
D29*
%TO.C,C1*%
X80010000Y-96640000D03*
X80010000Y-111640000D03*
%TD*%
D19*
%TO.C,U10*%
X65309750Y-100014999D03*
X65309750Y-100965000D03*
X65309750Y-101915001D03*
X68040250Y-101915001D03*
X68040250Y-100014999D03*
%TD*%
D17*
%TO.C,C7*%
X113030000Y-127405000D03*
X113030000Y-130405000D03*
%TD*%
%TO.C,C21*%
X99060000Y-114935000D03*
X99060000Y-117935000D03*
%TD*%
D30*
%TO.C,C28*%
X124485000Y-92384000D03*
X122845000Y-92384000D03*
%TD*%
D17*
%TO.C,C4*%
X53340000Y-113430000D03*
X53340000Y-116430000D03*
%TD*%
%TO.C,C24*%
X114300000Y-96925000D03*
X114300000Y-99925000D03*
%TD*%
D27*
%TO.C,S2*%
X90424000Y-135992000D03*
X90424000Y-139192000D03*
X90424000Y-142392000D03*
%TD*%
D19*
%TO.C,U8*%
X111664750Y-122239999D03*
X111664750Y-123190000D03*
X111664750Y-124140001D03*
X114395250Y-124140001D03*
X114395250Y-122239999D03*
%TD*%
%TO.C,U7*%
X81819750Y-122239999D03*
X81819750Y-123190000D03*
X81819750Y-124140001D03*
X84550250Y-124140001D03*
X84550250Y-122239999D03*
%TD*%
%TO.C,U6*%
X51879550Y-119379999D03*
X51879550Y-120330000D03*
X51879550Y-121280001D03*
X54610050Y-121280001D03*
X54610050Y-119379999D03*
%TD*%
D30*
%TO.C,C29*%
X130835000Y-92384000D03*
X129195000Y-92384000D03*
%TD*%
D17*
%TO.C,C22*%
X96654800Y-125500000D03*
X96654800Y-128500000D03*
%TD*%
%TO.C,C5*%
X83319700Y-127405000D03*
X83319700Y-130405000D03*
%TD*%
D24*
%TO.C,J2*%
X78740000Y-87120000D03*
D25*
X76200000Y-87120000D03*
D26*
X83820000Y-82040000D03*
X73660000Y-82040000D03*
%TD*%
D31*
%TO.C,C12*%
X132080000Y-105410000D03*
X135080000Y-105410000D03*
%TD*%
D17*
%TO.C,C8*%
X112268000Y-115975000D03*
X112268000Y-118975000D03*
%TD*%
D32*
%TO.C,R6*%
X109728000Y-113665000D03*
X109728000Y-112215000D03*
%TD*%
D17*
%TO.C,C13*%
X53975000Y-104648000D03*
X53975000Y-107648000D03*
%TD*%
%TO.C,C20*%
X67945000Y-122555000D03*
X67945000Y-125555000D03*
%TD*%
D28*
%TO.C,C10*%
X135080000Y-114300000D03*
X132080000Y-114300000D03*
%TD*%
D31*
%TO.C,C9*%
X132080000Y-121920000D03*
X135080000Y-121920000D03*
%TD*%
D33*
%TO.C,P1*%
X66045000Y-132630000D03*
D34*
X63545000Y-132630000D03*
X61045000Y-132630000D03*
D35*
X67945000Y-139630000D03*
X59145000Y-139630000D03*
%TD*%
D22*
%TO.C,R3*%
X76745000Y-125730000D03*
X78195000Y-125730000D03*
%TD*%
D17*
%TO.C,C18*%
X92075000Y-101370000D03*
X92075000Y-104370000D03*
%TD*%
%TO.C,C15*%
X67080000Y-93750000D03*
X67080000Y-96750000D03*
%TD*%
%TO.C,C3*%
X53340000Y-124230000D03*
X53340000Y-127230000D03*
%TD*%
D33*
%TO.C,P2*%
X105370000Y-132630000D03*
D34*
X102870000Y-132630000D03*
X100370000Y-132630000D03*
D35*
X107270000Y-139630000D03*
X98470000Y-139630000D03*
%TD*%
D19*
%TO.C,U9*%
X91344750Y-96839999D03*
X91344750Y-97790000D03*
X91344750Y-98740001D03*
X94075250Y-98740001D03*
X94075250Y-96839999D03*
%TD*%
D33*
%TO.C,P3*%
X132635000Y-132700000D03*
D34*
X130135000Y-132700000D03*
X127635000Y-132700000D03*
D35*
X134535000Y-139700000D03*
X125735000Y-139700000D03*
%TD*%
D17*
%TO.C,C16*%
X67080000Y-104545000D03*
X67080000Y-107545000D03*
%TD*%
D18*
%TO.C,U4*%
X118540000Y-98425000D03*
X118540000Y-99695000D03*
X118540000Y-100965000D03*
X118540000Y-102235000D03*
X118540000Y-103505000D03*
X118540000Y-104775000D03*
X118540000Y-106045000D03*
X118540000Y-107315000D03*
X127840000Y-107315000D03*
X127840000Y-106045000D03*
X127840000Y-104775000D03*
X127840000Y-103505000D03*
X127840000Y-102235000D03*
X127840000Y-100965000D03*
X127840000Y-99695000D03*
X127840000Y-98425000D03*
%TD*%
D19*
%TO.C,U3*%
X111029750Y-102554999D03*
X111029750Y-103505000D03*
X111029750Y-104455001D03*
X113760250Y-104455001D03*
X113760250Y-102554999D03*
%TD*%
D17*
%TO.C,C23*%
X111125000Y-107085000D03*
X111125000Y-110085000D03*
%TD*%
%LPD*%
M02*
